<svg xmlns="http://www.w3.org/2000/svg" xmlns:ev="http://www.w3.org/2001/xml-events" xmlns:xlink="http://www.w3.org/1999/xlink" width="771.258" height="402.964" class="st13" color-interpolation-filters="sRGB" viewBox="0 0 578.443 302.223" xml:space="preserve"><style type="text/css">.st1{fill:#d9e1e2;stroke:none;stroke-width:1}.st2{fill:#000;font-family:Calibri;font-size:1.00001em}.st3{fill:#00a9ce;stroke:none;stroke-width:1}.st4{fill:#fff;font-family:Calibri;font-size:.916672em}.st5{font-size:1em}.st6{fill:#0077c8;stroke:none;stroke-width:1}.st7{fill:#fff;font-family:Calibri;font-size:1.00001em}.st8,.st9{stroke:#333f48}.st8{marker-end:url(#mrkr13-22);stroke-linecap:butt;stroke-width:1}.st9{fill:#333f48;fill-opacity:1;stroke-opacity:1;stroke-width:.28409090909091}.st10{fill:#768692;stroke:none}.st10,.st11,.st12{stroke-width:1}.st11{marker-end:url(#mrkr13-22);stroke:#333f48;stroke-dasharray:4,2;stroke-linecap:butt}.st12{fill:#0033a0;stroke:#feffff}.st13{fill:none;fill-rule:evenodd;font-size:12px;overflow:visible;stroke-linecap:square;stroke-miterlimit:3}</style><defs id="Markers"><g id="lend13"><path d="M 3 1 L 0 0 L 3 -1 L 3 1" style="stroke:none"/></g><marker id="mrkr13-22" class="st9" markerUnits="strokeWidth" orient="auto" overflow="visible" refX="-10.56"><use transform="scale(-3.52,-3.52)" xlink:href="#lend13"/></marker></defs><g><title>Drawing</title><g id="shape1724-1" transform="translate(19,-107.604)"><title>Nordic Blueslate.1724</title><desc>Stack start</desc><rect width="66.971" height="54.64" x="0" y="247.583" class="st1"/><text x="7.89" y="278.5" class="st2">Stack start</text></g><g id="shape1728-4" transform="translate(115.637,-107.604)"><title>Nordic Blueslate.1728</title><desc>BDB initialization (two scenarios)</desc><rect width="77.317" height="54.64" x="0" y="247.583" class="st3"/><text x="29.29" y="265" class="st4">BDB <tspan x="11.28" class="st5" dy="1.2em">initialization </tspan><tspan x="4.44" class="st5" dy="1.2em">(two scenarios)</tspan></text></g><g id="shape1729-9" transform="translate(267.388,-157.717)"><title>Nordic Blueslate.1729</title><desc>Network formation</desc><rect width="61.58" height="54.64" x="0" y="247.583" class="st6"/><text x="9.65" y="271.3" class="st7">Network <tspan x="6.33" class="st5" dy="1.2em">formation</tspan></text></g><g id="shape1730-13" transform="translate(267.388,-60.5567)"><title>Nordic Blueslate.1730</title><desc>Network joining</desc><rect width="61.58" height="54.64" x="0" y="247.583" class="st6"/><text x="9.65" y="271.3" class="st7">Network <tspan x="14.31" class="st5" dy="1.2em">joining</tspan></text></g><g id="shape1733-17" transform="translate(192.954,-134.924)"><title>Dynamic connector.1733</title><path d="M0 302.22 L23.41 302.22 L23.41 252.11 L49.4 252.11 A2.3622 2.3622 0 1 1 54.12 252.11 L63.87 252.11" class="st8"/></g><g id="shape1734-23" transform="translate(192.954,-134.924)"><title>Dynamic connector.1734</title><path d="M0 302.22 L23.41 302.22 L23.41 349.27 L63.87 349.27" class="st8"/></g><g id="shape1735-28" transform="translate(85.9709,-127.838)"><title>Dynamic connector.1735</title><path d="M0 295.14 L19.11 295.14" class="st8"/></g><g id="shape1737-33" transform="translate(328.969,-185.037)"><title>Dynamic connector.1737</title><path d="M0 302.22 L69.88 302.22 L69.88 314.46" class="st8"/></g><g id="shape1739-38" transform="translate(115.637,-260.546)"><title>Nordic Blueslate.1739</title><desc>Zigbee stack sleep routines</desc><rect width="428.765" height="22.677" x="0" y="279.546" class="st10"/><text x="148.56" y="294.48" class="st7">Zigbee stack sleep routines</text></g><g id="shape1742-41" transform="translate(482.821,-107.604)"><title>Nordic Blueslate.1742</title><desc>Network leaving</desc><rect width="61.58" height="54.64" x="0" y="247.583" class="st1"/><text x="9.65" y="271.3" class="st2">Network <tspan x="13.49" class="st5" dy="1.2em">leaving</tspan></text></g><g id="shape1743-45" transform="translate(328.969,-87.8768)"><title>Dynamic connector.1743</title><path d="M0 302.22 L69.88 302.22 L69.88 293.06" class="st8"/></g><g id="shape1744-50" transform="translate(513.611,-107.604)"><title>Dynamic connector.1744</title><path d="M0 302.22 L0 380.7 L-215.43 380.7 L-215.43 359.83" class="st11"/></g><g id="shape1745-55" transform="translate(513.611,-162.244)"><title>Dynamic connector.1745</title><path d="M0 302.22 L0 230.29 L-101.64 230.29 A2.3622 2.3622 -180 1 0 -106.37 230.29 L-215.43 230.29 L-215.43 241.55" class="st11"/></g><g id="shape1746-60" transform="translate(450.076,-127.838)"><title>Dynamic connector.1746</title><path d="M0 295.14 L22.19 295.14" class="st11"/></g><g id="shape1747-65" transform="translate(347.626,-107.604)"><title>Sheet.1747</title><desc>Device in network</desc><ellipse cx="51.225" cy="274.903" class="st12" rx="51.225" ry="27.32"/><text x="7.28" y="278.5" class="st7">Device in network</text></g><g id="shape1748-68" transform="translate(523.357,-162.244)"><title>Dynamic connector.1748</title><path d="M7.09 302.22 L7.09 213.3" class="st11"/></g><g id="shape1749-73" transform="translate(402.519,-161.793)"><title>Dynamic connector.1749</title><path d="M7.09 302.22 L7.09 214.03" class="st11"/></g><g id="shape1776-78" transform="translate(267.105,-212.357)"><title>Dynamic connector.1776</title><path d="M7.09 302.22 L7.09 264.65" class="st11"/></g><g id="shape1777-83" transform="translate(298.178,-115.197)"><title>Dynamic connector.1777</title><path d="M0 302.22 L0 283.22 L-53.46 283.22 L-53.46 167.43" class="st11"/></g><g id="shape1778-88" transform="translate(147.209,-162.244)"><title>Dynamic connector.1778</title><path d="M7.09 302.22 L7.09 212.78" class="st11"/></g></g></svg>