<svg xmlns="http://www.w3.org/2000/svg" xmlns:ev="http://www.w3.org/2001/xml-events" xmlns:xlink="http://www.w3.org/1999/xlink" width="332.7" height="285.827" class="st11" color-interpolation-filters="sRGB" viewBox="0 0 249.525 214.37" xml:space="preserve"><style type="text/css">.st1{fill:#00a9ce;stroke:none;stroke-width:1}.st2{fill:#fff;font-family:Calibri;font-size:1.00001em}.st3{fill:#333f48}.st3,.st4,.st5,.st6{stroke:none;stroke-width:1}.st4{fill:#6ad1e3}.st5{fill:#0077c8}.st6{fill:none}.st7,.st8{fill:#333f48;font-family:Calibri;font-size:1.00001em}.st8{fill:#feffff}.st10,.st9{stroke:#333f48}.st9{marker-end:url(#mrkr13-24);stroke-linecap:butt;stroke-width:1}.st10{fill:#333f48;fill-opacity:1;stroke-opacity:1;stroke-width:.28409090909091}.st11{fill:none;fill-rule:evenodd;font-size:12px;overflow:visible;stroke-linecap:square;stroke-miterlimit:3}</style><defs id="Markers"><g id="lend13"><path style="stroke:none" d="M 3 1 L 0 0 L 3 -1 L 3 1"/></g><marker id="mrkr13-24" class="st10" markerUnits="strokeWidth" orient="auto" overflow="visible" refX="-10.56"><use transform="scale(-3.52,-3.52)" xlink:href="#lend13"/></marker></defs><g><title>Page-1</title><g id="shape1340-1" transform="translate(29.1238,-178.929)"><title>Nordic Blue</title><desc>ZB_COMMON_SIGNAL_CAN_SLEEP</desc><rect width="191.278" height="34.441" x="0" y="179.929" class="st1"/><text x="9.63" y="200.75" class="st2">ZB_COMMON_SIGNAL_CAN_SLEEP</text></g><g id="shape1344-4" transform="translate(117.676,-16.904)"><title>Circle.1344</title><path d="M0 207.28 A7.08661 7.08661 0 0 1 14.17 207.28 A7.08661 7.08661 0 1 1 0 207.28 Z" class="st3"/></g><g id="shape1412-6" transform="translate(1,-55.6218)"><title>Nordic Light Grey</title><rect width="247.525" height="104.882" x="0" y="109.488" class="st4"/></g><g id="shape1415-8" transform="translate(21.6244,-64.8019)"><title>Nordic Sky</title><rect width="206.277" height="76.576" x="0" y="137.793" class="st1"/></g><g id="shape1414-10" transform="translate(29.1238,-82.8396)"><title>Nordic Blue.1414</title><desc>zigbee_event_poll(inactivity_time)</desc><rect width="191.278" height="34.441" x="0" y="179.929" class="st5"/><text x="11.12" y="200.75" class="st2">zigbee_event_poll(inactivity_time)</text></g><g id="shape1416-13" transform="translate(5.70754,-142.483)"><title>Sheet.1416</title><desc>zb_sleep_now()</desc><rect width="96.378" height="17.008" x="0" y="197.362" class="st6"/><text x="4" y="209.47" class="st7">zb_sleep_now()</text></g><g id="shape1418-16" transform="translate(25.5501,-120.819)"><title>Sheet.1418</title><desc>zb_osif_sleep()</desc><rect width="96.378" height="17.008" x="0" y="197.362" class="st6"/><text x="4" y="209.47" class="st8">zb_osif_sleep()</text></g><g id="shape1419-19" transform="translate(117.676,-178.929)"><title>Dynamic connector.1419</title><path d="M7.09 214.37 L7.09 265.46" class="st9"/></g><g id="shape1370-25" transform="translate(117.676,-82.8396)"><title>Dynamic connector.1370</title><path d="M7.09 214.37 L7.09 255.57" class="st9"/></g></g></svg>