<svg xmlns="http://www.w3.org/2000/svg" xmlns:ev="http://www.w3.org/2001/xml-events" xmlns:xlink="http://www.w3.org/1999/xlink" width="307.297" height="443.117" class="st15" color-interpolation-filters="sRGB" viewBox="0 0 230.472 332.337" xml:space="preserve"><style type="text/css">.st1{fill:#768692;stroke:none;stroke-width:1}.st2{fill:#feffff;font-family:Arial;font-size:.833336em}.st3{fill:#0033a0;stroke:none;stroke-width:1}.st4{fill:#feffff;font-family:Arial;font-size:.916672em}.st5{fill:#6ad1e3;stroke:none;stroke-width:1}.st6{fill:#fff;font-family:Arial;font-size:.833336em}.st7{fill:#d0df00;stroke:none;stroke-width:1}.st8,.st9{fill:#333f48}.st8{font-family:Arial;font-size:.833336em}.st9{stroke:none;stroke-width:1}.st10{font-size:1em}.st11,.st12{stroke:#008bab}.st11{marker-end:url(#mrkr5-26);stroke-linecap:butt;stroke-width:1}.st12{fill:#008bab;fill-opacity:1;stroke-opacity:1;stroke-width:.28409090909091}.st13{fill:none;stroke:none;stroke-width:1}.st14{fill:#333f48;font-family:Arial;font-size:.75em}.st15{fill:none;fill-rule:evenodd;font-size:12px;overflow:visible;stroke-linecap:square;stroke-miterlimit:3}</style><defs id="Markers"><g id="lend5"><path d="M 2 1 L 0 0 L 1.98117 -0.993387 C 1.67173 -0.364515 1.67301 0.372641 1.98465 1.00043" style="stroke:none"/></g><marker id="mrkr5-26" class="st12" markerUnits="strokeWidth" orient="auto" overflow="visible" refX="-6.16"><use transform="scale(-3.52,-3.52)" xlink:href="#lend5"/></marker></defs><g><title>Page-1</title><g id="shape5-1" transform="translate(1,-233.441)"><title>Sheet.5</title><desc>Touchlink</desc><rect width="106.583" height="41.102" x="0" y="291.235" class="st1"/><text x="31.89" y="314.79" class="st2">Touchlink</text></g><g id="shape6-4" transform="translate(1,-175.331)"><title>Sheet.6</title><desc>Network Steering</desc><rect width="106.583" height="41.102" x="0" y="291.235" class="st3"/><text x="11.11" y="315.09" class="st4">Network Steering</text></g><g id="shape7-7" transform="translate(1,-117.22)"><title>Sheet.7</title><desc>Network Formation</desc><rect width="106.583" height="41.102" x="0" y="291.235" class="st5"/><text x="11.06" y="314.79" class="st6">Network Formation</text></g><g id="shape8-10" transform="translate(1,-59.1102)"><title>Sheet.8</title><desc>Finding and Binding</desc><rect width="106.583" height="41.102" x="0" y="291.235" class="st7"/><text x="9.09" y="314.79" class="st8">Finding and Binding</text></g><g id="shape9-13" transform="translate(1,-290.235)"><title>Sheet.9</title><desc>Start of commissioning</desc><rect width="106.583" height="41.102" x="0" y="291.235" class="st9"/><text x="35.56" y="308.49" class="st4">Start of <tspan x="16.92" class="st10" dy="1.2em">commissioning</tspan></text></g><g id="shape10-17" transform="translate(1,-1)"><title>Sheet.10</title><desc>End of commissioning</desc><rect width="106.583" height="41.102" x="0" y="291.235" class="st9"/><text x="37.39" y="308.49" class="st4">End of <tspan x="16.92" class="st10" dy="1.2em">commissioning</tspan></text></g><g id="shape11-21" transform="translate(47.2047,-290.235)"><title>Dynamic connector.104</title><path d="M7.09 332.34 L7.09 341.87" class="st11"/></g><g id="shape12-27" transform="translate(47.2047,-233.441)"><title>Dynamic connector.105</title><path d="M7.09 332.34 L7.09 343.19" class="st11"/></g><g id="shape13-32" transform="translate(47.2047,-175.331)"><title>Dynamic connector.106</title><path d="M7.09 332.34 L7.09 343.19" class="st11"/></g><g id="shape14-37" transform="translate(47.2047,-117.22)"><title>Dynamic connector.107</title><path d="M7.09 332.34 L7.09 343.19" class="st11"/></g><g id="shape15-42" transform="translate(47.2047,-59.1102)"><title>Dynamic connector.108</title><path d="M7.09 332.34 L7.09 343.19" class="st11"/></g><g id="shape16-47" transform="translate(107.583,-233.441)"><title>Sheet.16</title><desc>bdbCommissioningMode=0</desc><rect width="121.89" height="41.102" x="0" y="291.235" class="st13"/><text x="4" y="314.49" class="st14">bdbCommissioningMode=0</text></g><g id="shape17-50" transform="translate(107.583,-175.331)"><title>Sheet.17</title><desc>bdbCommissioningMode=1</desc><rect width="121.89" height="41.102" x="0" y="291.235" class="st13"/><text x="4" y="314.49" class="st14">bdbCommissioningMode=1</text></g><g id="shape18-53" transform="translate(107.583,-117.22)"><title>Sheet.18</title><desc>bdbCommissioningMode=2</desc><rect width="121.89" height="41.102" x="0" y="291.235" class="st13"/><text x="4" y="314.49" class="st14">bdbCommissioningMode=2</text></g><g id="shape19-56" transform="translate(107.583,-59.1102)"><title>Sheet.19</title><desc>bdbCommissioningMode=3</desc><rect width="121.89" height="41.102" x="0" y="291.235" class="st13"/><text x="4" y="314.49" class="st14">bdbCommissioningMode=3</text></g></g></svg>