<svg xmlns="http://www.w3.org/2000/svg" xmlns:ev="http://www.w3.org/2001/xml-events" xmlns:xlink="http://www.w3.org/1999/xlink" width="233.176" height="380.821" class="st9" color-interpolation-filters="sRGB" viewBox="0 0 174.882 285.616" xml:space="preserve"><style type="text/css">.st1{fill:#d0df00;stroke:none;stroke-width:1}.st2{fill:#333f48;font-family:Calibri;font-size:1.00001em}.st3{font-size:1em}.st4{fill:#768692;stroke:none;stroke-width:1}.st5{fill:#fff;font-family:Calibri;font-size:1.00001em}.st6{fill:#00a9ce}.st6,.st7,.st8{stroke:none;stroke-width:1}.st7{fill:#d9e1e2}.st8{fill:#333f48}.st9{fill:none;fill-rule:evenodd;font-size:12px;overflow:visible;stroke-linecap:square;stroke-miterlimit:3}</style><g><title>Page-1</title><g id="shape1189-1" transform="translate(1,-188.356)"><title>Rectangle.8</title><desc>Upgradable bootloader (slot 0)</desc><rect width="172.882" height="57.627" x="0" y="227.989" class="st1"/><text x="29.62" y="253.2" class="st2">Upgradable bootloader <tspan x="69.51" class="st3" dy="1.2em">(slot 0)</tspan></text></g><g id="shape1190-5" transform="translate(1,-247.589)"><title>Green</title><desc>Immutable bootloader</desc><rect width="172.882" height="37.027" x="0" y="248.589" class="st4"/><text x="31.3" y="270.7" class="st5">Immutable bootloader</text></g><g id="shape1191-8" transform="translate(1,-41.0111)"><title>Red</title><desc>Application</desc><rect width="172.882" height="86.681" x="0" y="198.935" class="st6"/><text x="58.8" y="245.88" class="st5">Application</text></g><g id="group1192-11" transform="translate(1,-1)"><title>Sheet.1192</title><g id="shape1193-12"><title>Rectangle.10</title><rect width="172.882" height="38.418" x="0" y="247.198" class="st7"/></g><g id="shape1194-14" transform="translate(34.6649,-13.3679)"><title>Sheet.1194</title><desc>...</desc><rect width="103.004" height="13.553" x="0" y="272.063" class="st7"/><text x="46.96" y="282.44" class="st2">...</text></g></g><g id="shape1195-17" transform="translate(1,-129.196)"><title>Rectangle.18</title><desc>Upgradable bootloader (slot 1)</desc><rect width="172.882" height="57.627" x="0" y="227.989" class="st1"/><text x="29.62" y="253.2" class="st2">Upgradable bootloader <tspan x="69.51" class="st3" dy="1.2em">(slot 1)</tspan></text></g><g id="shape1196-21" transform="translate(1,-186.746)"><title>Nordic Dark Grey</title><rect width="172.882" height="1.611" x="0" y="284.006" class="st8"/></g><g id="shape1197-23" transform="translate(1,-245.974)"><title>Nordic Dark Grey.1197</title><rect width="172.882" height="1.611" x="0" y="284.006" class="st8"/></g><g id="shape1198-25" transform="translate(1,-127.609)"><title>Nordic Dark Grey.1198</title><rect width="172.882" height="1.611" x="0" y="284.006" class="st8"/></g><g id="shape1199-27" transform="translate(1,-39.4689)"><title>Nordic Dark Grey.1199</title><rect width="172.882" height="1.611" x="0" y="284.006" class="st8"/></g></g></svg>