<svg xmlns="http://www.w3.org/2000/svg" xmlns:ev="http://www.w3.org/2001/xml-events" xmlns:xlink="http://www.w3.org/1999/xlink" width="686.96" height="780.683" class="st14" color-interpolation-filters="sRGB" viewBox="0 0 515.22 585.512" xml:space="preserve"><style type="text/css">.st1,.st2{stroke-width:1}.st1{stroke:#00a9ce;stroke-dasharray:8,4;stroke-linecap:butt}.st2{fill:none;stroke:none}.st3,.st4{fill:#00a9ce}.st3{font-family:Arial;font-size:.666664em}.st4{stroke:none;stroke-width:1}.st5{fill:#feffff;font-family:Arial;font-size:.833336em}.st6{fill:#00a9ce;stroke:#feffff;stroke-width:1}.st7{font-size:1em}.st8{fill:#0077c8;font-family:Arial;font-size:.833336em}.st9{stroke:#0077c8;stroke-dasharray:2,1;stroke-linecap:butt;stroke-width:1}.st10{fill:#00a9ce;font-family:Arial;font-size:.75em}.st11{marker-end:url(#mrkr4-99);stroke-linecap:butt;stroke-width:1}.st11,.st12,.st13{stroke:#00a9ce}.st12{fill:#00a9ce;fill-opacity:1;stroke-opacity:1;stroke-width:.28409090909091}.st13{marker-start:url(#mrkr4-105);stroke-linecap:butt;stroke-width:1}.st14{fill:none;fill-rule:evenodd;font-size:12px;overflow:visible;stroke-linecap:square;stroke-miterlimit:3}</style><defs id="Markers"><g id="lend4"><path d="M 2 1 L 0 0 L 2 -1 L 2 1" style="stroke:none"/></g><marker id="mrkr4-99" class="st12" markerUnits="strokeWidth" orient="auto" overflow="visible" refX="-7.04"><use transform="scale(-3.52,-3.52)" xlink:href="#lend4"/></marker><marker id="mrkr4-105" class="st12" markerUnits="strokeWidth" orient="auto" overflow="visible" refX="6.68"><use transform="scale(3.52)" xlink:href="#lend4"/></marker></defs><g><title>Page-1</title><g id="shape82-1" transform="translate(234.061,-549.079)"><title>Dynamic connector.82</title><path d="M6.71 585.51 L7.47 632.17" class="st1"/></g><g id="shape89-4" transform="translate(301.055,-512.654)"><title>Sheet.89</title><desc>lwm2m_carrier_main()</desc><rect width="91.843" height="22.677" x="0" y="562.835" class="st2"/><text x="6.14" y="577.17" class="st3">lwm2m_carrier_main()</text></g><g id="shape78-7" transform="translate(1,-548.087)"><title>Rectangle.78</title><desc>LTE link controller</desc><rect width="119.354" height="35.433" x="0" y="550.079" class="st4"/><text x="19.66" y="570.8" class="st5">LTE link controller</text></g><g id="shape79-10" transform="translate(67.7634,-548.087)"><title>Dynamic connector</title><path d="M-7.09 585.51 L-7.09 1131.18" class="st1"/></g><g id="shape81-13" transform="translate(181.85,-549.079)"><title>Rectangle.81</title><desc>Application</desc><rect width="119.354" height="35.433" x="0" y="550.079" class="st6"/><text x="35.22" y="570.8" class="st5">Application</text></g><g id="shape83-16" transform="translate(390.05,-549.079)"><title>Rectangle.83</title><desc>LwM2M carrier library</desc><rect width="119.354" height="35.433" x="0" y="550.079" class="st6"/><text x="11.62" y="570.8" class="st5">LwM2M carrier library</text></g><g id="shape84-19" transform="translate(442.267,-549.079)"><title>Dynamic connector.84</title><path d="M6.02 585.51 L8.15 1132.17" class="st1"/></g><g id="shape85-22" transform="translate(181.091,-549.079)"><title>Rectangle.85</title><desc>Application</desc><rect width="119.354" height="35.433" x="0" y="550.079" class="st4"/><text x="35.22" y="570.8" class="st5">Application</text></g><g id="shape87-25" transform="translate(390.796,-549.079)"><title>Rectangle.87</title><desc>LwM2M carrier library</desc><rect width="119.354" height="35.433" x="0" y="550.079" class="st4"/><text x="11.62" y="570.8" class="st5">LwM2M carrier library</text></g><g id="shape88-28" transform="translate(394.867,-271.709)"><title>Rectangle.88</title><desc>Write the management server keys to modem</desc><rect width="119.354" height="46.249" x="0" y="539.262" class="st4"/><text x="9.1" y="559.39" class="st5">Write the management <tspan x="10.49" class="st7" dy="1.2em">server keys to modem</tspan></text></g><g id="shape93-32" transform="translate(202.409,-494.542)"><title>Sheet.93</title><desc>Device is not bootstrapped</desc><rect width="130.081" height="7.877" x="0" y="577.635" class="st2"/><text x="5.84" y="585.17" class="st8">Device is not bootstrapped</text></g><g id="shape76-35" transform="translate(11.0705,-491.394)"><title>Sheet.76</title><path d="M0 585.51 L474.8 585.51" class="st9"/></g><g id="shape100-38" transform="translate(259.99,-385.094)"><title>Sheet.100</title><desc>LWM2M_CARRIER_EVENT_LTE_LINK_UP</desc><rect width="168.303" height="18.544" x="0" y="566.967" class="st2"/><text x="5.02" y="579.54" class="st3">LWM2M_CARRIER_EVENT_LTE_LINK_UP</text></g><g id="shape104-41" transform="translate(109.932,-451.709)"><title>Sheet.104</title><desc>lte_lc_offline()</desc><rect width="71.567" height="12.756" x="0" y="572.756" class="st2"/><text x="7.77" y="582.43" class="st10">lte_lc_offline()</text></g><g id="shape112-44" transform="translate(252.298,-240.953)"><title>Sheet.112</title><desc>LWM2M_CARRIER_EVENT_BOOTSTRAPPED</desc><rect width="183.687" height="18.992" x="0" y="566.52" class="st2"/><text x="6.05" y="579.32" class="st3">LWM2M_CARRIER_EVENT_BOOTSTRAPPED</text></g><g id="shape115-47" transform="translate(259.99,-207.929)"><title>Sheet.115</title><desc>LWM2M_CARRIER_EVENT_LTE_LINK_UP</desc><rect width="166.679" height="18.992" x="0" y="566.52" class="st2"/><text x="4.21" y="579.32" class="st3">LWM2M_CARRIER_EVENT_LTE_LINK_UP</text></g><g id="shape118-50" transform="translate(115.646,-195.598)"><title>Sheet.118</title><desc>lte_lc_connect()</desc><rect width="72.59" height="12.756" x="0" y="572.756" class="st2"/><text x="4.53" y="582.43" class="st10">lte_lc_connect()</text></g><g id="shape120-53" transform="translate(200.992,-167.237)"><title>Sheet.120</title><desc>Device is bootstrapped</desc><rect width="114.803" height="10.519" x="0" y="574.993" class="st2"/><text x="6.54" y="583.85" class="st8">Device is bootstrapped</text></g><g id="shape121-56" transform="translate(15.7134,-165.409)"><title>Sheet.121</title><path d="M0 585.51 L473.09 585.51" class="st9"/></g><g id="shape73-59" transform="translate(390.945,-73.2835)"><title>Rectangle.64</title><desc>Connecting to one or more management servers</desc><rect width="119.354" height="46.249" x="0" y="539.262" class="st4"/><text x="13.26" y="553.39" class="st5">Connecting to one or <tspan x="17.71" class="st7" dy="1.2em">more management </tspan><tspan x="43.29" class="st7" dy="1.2em">servers</tspan></text></g><g id="shape125-64" transform="translate(259.99,-21.2677)"><title>Sheet.125</title><desc>LWM2M_CARRIER_EVENT_REGISTERED</desc><rect width="166.679" height="18.992" x="0" y="566.52" class="st2"/><text x="4.44" y="579.32" class="st3">LWM2M_CARRIER_EVENT_REGISTERED</text></g><g id="shape126-67" transform="translate(248.817,-491.394)"><title>Dynamic connector.126</title><path d="M-6.88 585.51 L-7.29 892.78" class="st1"/></g><g id="shape127-70" transform="translate(248.596,-167.237)"><title>Dynamic connector.127</title><path d="M-6.5 585.51 L-7.67 751.75" class="st1"/></g><g id="shape129-73" transform="translate(252.298,-460.638)"><title>Sheet.129</title><desc>LWM2M_CARRIER_EVENT_LTE_LINK_DOWN</desc><rect width="183.687" height="18.992" x="0" y="566.52" class="st2"/><text x="5.6" y="579.32" class="st3">LWM2M_CARRIER_EVENT_LTE_LINK_DOWN</text></g><g id="shape132-76" transform="translate(116.668,-379.425)"><title>Sheet.132</title><desc>lte_lc_connect()</desc><rect width="71.567" height="12.756" x="0" y="572.756" class="st2"/><text x="4.02" y="582.43" class="st10">lte_lc_connect()</text></g><g id="shape134-79" transform="translate(390.05,-401.655)"><title>Rectangle.134</title><desc>Write the bootstrap server keys to modem</desc><rect width="119.354" height="46.249" x="0" y="539.262" class="st4"/><text x="17.44" y="559.39" class="st5">Write the bootstrap <tspan x="10.49" class="st7" dy="1.2em">server keys to modem</tspan></text></g><g id="shape141-83" transform="translate(110.283,-315.646)"><title>Sheet.141</title><desc>lte_lc_offline()</desc><rect width="71.567" height="12.756" x="0" y="572.756" class="st2"/><text x="7.77" y="582.43" class="st10">lte_lc_offline()</text></g><g id="shape144-86" transform="translate(252.298,-328.402)"><title>Sheet.144</title><desc>LWM2M_CARRIER_EVENT_LTE_LINK_DOWN</desc><rect width="183.687" height="18.992" x="0" y="566.52" class="st2"/><text x="5.6" y="578.42" class="st3">LWM2M_CARRIER_EVENT_LTE_LINK_DOWN</text></g><g id="shape86-89" transform="translate(178.867,-55)"><title>Single Snip Corner Rectangle.86</title><desc>LTE link available without interruptions from the library</desc><path d="M0 585.51 L119.35 585.51 L119.35 522.07 L106.71 509.43 L0 509.43 L0 585.51 Z" class="st4"/><text x="20.49" y="538.47" class="st5">LTE link available <tspan x="14.93" class="st7" dy="1.2em">without interruptions </tspan><tspan x="26.33" class="st7" dy="1.2em">from the library</tspan></text></g><g id="shape146-94" transform="translate(241.275,-511.01)"><title>Dynamic connector.146</title><path d="M0 578.64 L200.09 578.23" class="st11"/></g><g id="shape147-100" transform="translate(241.895,-455.962)"><title>Dynamic connector.147</title><path d="M6.68 578.43 L7.04 578.43 L206.73 578.42" class="st13"/></g><g id="shape148-106" transform="translate(60.6768,-443.297)"><title>Dynamic connector.148</title><path d="M6.68 578.51 L7.04 578.51 L181.2 578.33" class="st13"/></g><g id="shape149-111" transform="translate(241.796,-380.8)"><title>Dynamic connector.149</title><path d="M6.68 578.75 L7.04 578.75 L207.93 578.08" class="st13"/></g><g id="shape150-116" transform="translate(241.244,-325.496)"><title>Dynamic connector.150</title><path d="M6.68 578.89 L7.04 578.89 L208.76 577.93" class="st13"/></g><g id="shape151-121" transform="translate(60.6768,-369.755)"><title>Dynamic connector.151</title><path d="M6.68 578.66 L7.04 578.66 L181.11 578.17" class="st13"/></g><g id="shape153-126" transform="translate(60.6768,-307.142)"><title>Dynamic connector.153</title><path d="M6.68 578.43 L7.04 578.43 L181.02 578.43" class="st13"/></g><g id="shape154-131" transform="translate(241.604,-235.906)"><title>Dynamic connector.154</title><path d="M6.68 578.99 L7.04 578.99 L208.28 577.82" class="st13"/></g><g id="shape155-136" transform="translate(240.838,-203.252)"><title>Dynamic connector.155</title><path d="M6.68 578.82 L7.04 578.82 L209.33 578" class="st13"/></g><g id="shape156-141" transform="translate(60.6768,-200.837)"><title>Dynamic connector.156</title><path d="M6.68 592.59 L7.04 592.59 L178.35 592.6" class="st13"/></g><g id="shape157-146" transform="translate(241.083,-30.2972)"><title>Dynamic connector.157</title><path d="M6.68 592.38 L7.04 592.38 L209.34 592.83" class="st13"/></g></g></svg>