<svg xmlns="http://www.w3.org/2000/svg" xmlns:ev="http://www.w3.org/2001/xml-events" xmlns:xlink="http://www.w3.org/1999/xlink" width="751.61" height="791.35" class="st14" color-interpolation-filters="sRGB" viewBox="0 0 563.707 593.513" xml:space="preserve"><style type="text/css">.st1{fill:#00a9ce;stroke:none;stroke-width:1}.st2{fill:#feffff;font-family:Arial;font-size:.833336em}.st3{font-size:1em}.st4{fill:none;stroke:none;stroke-width:1}.st5{fill:#0077c8;font-family:Arial;font-size:.833336em}.st6{stroke:#0077c8;stroke-dasharray:2,1;stroke-linecap:butt;stroke-width:1}.st7,.st8{fill:#00a9ce;font-family:Arial;font-size:.541672em}.st8{font-size:.75em}.st9{stroke-dasharray:8,4;stroke-linecap:butt;stroke-width:1}.st10,.st11,.st9{stroke:#00a9ce}.st10{marker-start:url(#mrkr4-37);stroke-dasharray:8,4;stroke-linecap:butt;stroke-width:1}.st11{fill:#00a9ce;fill-opacity:1;stroke-opacity:1;stroke-width:.28409090909091}.st12{fill:#00a9ce;font-family:Arial;font-size:.916672em}.st13{marker-end:url(#mrkr4-55);stroke:#00a9ce;stroke-linecap:butt;stroke-width:1}.st14{fill:none;fill-rule:evenodd;font-size:12px;overflow:visible;stroke-linecap:square;stroke-miterlimit:3}</style><defs id="Markers"><g id="lend4"><path d="M 2 1 L 0 0 L 2 -1 L 2 1" style="stroke:none"/></g><marker id="mrkr4-37" class="st11" markerUnits="strokeWidth" orient="auto" overflow="visible" refX="6.68"><use transform="scale(3.52)" xlink:href="#lend4"/></marker><marker id="mrkr4-55" class="st11" markerUnits="strokeWidth" orient="auto" overflow="visible" refX="-7.04"><use transform="scale(-3.52,-3.52)" xlink:href="#lend4"/></marker></defs><g><title>Page-1</title><g id="shape84-1" transform="translate(477.668,-557.08)"><title>Rectangle.84</title><desc>LwM2M carrier library</desc><rect width="85.039" height="35.433" x="0" y="558.08" class="st1"/><text x="9.46" y="572.8" class="st2">LwM2M carrier <tspan x="28.91" class="st3" dy="1.2em">library</tspan></text></g><g id="shape86-5" transform="translate(160.188,-512.171)"><title>Sheet.86</title><desc>Modem update initiated by carrier’s LwM2M server</desc><rect width="232.441" height="13.05" x="0" y="580.462" class="st4"/><text x="4.23" y="590.59" class="st5">Modem update initiated by carrier’s LwM2M server</text></g><g id="shape87-8" transform="translate(1,-511.048)"><title>Sheet.87</title><path d="M0 593.51 L561.71 593.51" class="st6"/></g><g id="shape90-11" transform="translate(369.584,-483.636)"><title>Sheet.90</title><desc>LWM2M_CARRIER_EVENT_FOTA_START</desc><rect width="150.603" height="12.756" x="0" y="580.757" class="st4"/><text x="11.19" y="589.08" class="st7">LWM2M_CARRIER_EVENT_FOTA_START</text></g><g id="shape94-14" transform="translate(356.296,-364.394)"><title>Sheet.94</title><desc>LWM2M_CARRIER_EVENT_MODEM_SHUTDOWN</desc><rect width="174.416" height="12.756" x="0" y="580.757" class="st4"/><text x="10.82" y="589.08" class="st7">LWM2M_CARRIER_EVENT_MODEM_SHUTDOWN</text></g><g id="shape101-17" transform="translate(366.75,-227.764)"><title>Sheet.101</title><desc>LWM2M_CARRIER_EVENT_MODEM_INIT</desc><rect width="150.603" height="18.992" x="0" y="574.521" class="st4"/><text x="11.92" y="585.97" class="st7">LWM2M_CARRIER_EVENT_MODEM_INIT</text></g><g id="shape103-20" transform="translate(226.05,-281.742)"><title>Sheet.103</title><desc>nrf_modem_lib_shutdown()</desc><rect width="123.393" height="12.756" x="0" y="580.757" class="st4"/><text x="7.17" y="590.44" class="st8">nrf_modem_lib_shutdown()</text></g><g id="shape120-23" transform="translate(357.196,-557.08)"><title>Dynamic connector.120</title><path d="M7.09 593.51 L7.09 1149.59" class="st9"/></g><g id="shape130-26" transform="translate(228.119,-218.41)"><title>Sheet.130</title><desc>nrf_modem_lib_init()</desc><rect width="116.804" height="12.756" x="0" y="580.757" class="st4"/><text x="17.39" y="590.44" class="st8">nrf_modem_lib_init()</text></g><g id="shape142-29" transform="translate(224.633,-255.708)"><title>Sheet.142</title><desc>Shutdown modem callback</desc><rect width="123.393" height="18.992" x="0" y="574.521" class="st4"/><text x="7.92" y="587.62" class="st8">Shutdown modem callback</text></g><g id="shape143-32" transform="translate(520.188,-252.121)"><title>Dynamic connector.143</title><path d="M-6.68 586.43 L-7.04 586.43 L-153.54 586.43 A2.3622 2.3622 -180 1 0 -158.27 586.43 L-307.79 586.43" class="st10"/></g><g id="shape155-38" transform="translate(362.262,-50.8823)"><title>Sheet.155</title><desc>LWM2M_CARRIER_EVENT_FOTA_SUCCESS</desc><rect width="168.45" height="18.992" x="0" y="574.521" class="st4"/><text x="15.06" y="585.97" class="st7">LWM2M_CARRIER_EVENT_FOTA_SUCCESS</text></g><g id="shape158-41" transform="translate(236.58,-81.0713)"><title>Sheet.158</title><desc>Init modem callback</desc><rect width="108.343" height="18.992" x="0" y="574.521" class="st4"/><text x="14.41" y="587.62" class="st8">Init modem callback</text></g><g id="shape160-44" transform="translate(362.262,-401.386)"><title>Sheet.160</title><desc>LWM2M_CARRIER_EVENT_LTE_POWER_OFF</desc><rect width="168.45" height="18.992" x="0" y="574.521" class="st4"/><text x="12.89" y="585.97" class="st7">LWM2M_CARRIER_EVENT_LTE_POWER_OFF</text></g><g id="shape164-47" transform="translate(236.723,-387.78)"><title>Sheet.164</title><desc>lte_lc_offline</desc><rect width="85.039" height="12.756" x="0" y="580.757" class="st4"/><text x="11.94" y="590.44" class="st12">lte_lc_offline</text></g><g id="shape165-50" transform="translate(364.282,-5.26026)"><title>Dynamic connector.165</title><path d="M0 586.58 L-153.52 586.43 A2.3622 2.3622 -180 0 0 -158.24 586.42 L-304.77 586.28" class="st13"/></g><g id="shape166-56" transform="translate(236.723,-13.35)"><title>Sheet.166</title><desc>lte_lc_connect</desc><rect width="85.039" height="12.756" x="0" y="580.757" class="st4"/><text x="7.36" y="590.44" class="st12">lte_lc_connect</text></g><g id="shape167-59" transform="translate(377.106,-23.528)"><title>Sheet.167</title><desc>LWM2M_CARRIER_EVENT_LTE_LINK_UP</desc><rect width="140.247" height="18.992" x="0" y="574.521" class="st4"/><text x="5.83" y="585.97" class="st7">LWM2M_CARRIER_EVENT_LTE_LINK_UP</text></g><g id="shape169-62" transform="translate(9.95151,-557.08)"><title>Rectangle.169</title><desc>LTE link controller library</desc><rect width="85.039" height="35.433" x="0" y="558.08" class="st1"/><text x="24.46" y="572.8" class="st2">LTE link <tspan x="6.95" class="st3" dy="1.2em">controller library</tspan></text></g><g id="shape171-66" transform="translate(167.274,-557.08)"><title>Rectangle.171</title><desc>Modem Library</desc><rect width="85.039" height="35.433" x="0" y="558.08" class="st1"/><text x="9.17" y="578.8" class="st2">Modem Library</text></g><g id="shape172-69" transform="translate(321.763,-557.08)"><title>Rectangle.172</title><desc>Application</desc><rect width="85.039" height="35.433" x="0" y="558.08" class="st1"/><text x="18.06" y="578.8" class="st2">Application</text></g><g id="shape179-72" transform="translate(216.172,-557.08)"><title>Dynamic connector.179</title><path d="M-6.38 593.51 L-7.8 1148.32" class="st9"/></g><g id="shape180-75" transform="translate(513.101,-557.08)"><title>Dynamic connector.180</title><path d="M7.09 593.51 L7.09 1149.59" class="st9"/></g><g id="shape181-78" transform="translate(59.5578,-557.859)"><title>Dynamic connector.181</title><path d="M-7.09 593.51 L-7.09 1146.27" class="st9"/></g><g id="shape183-81" transform="translate(520.188,-477.071)"><title>Dynamic connector.183</title><path d="M0 586.43 L-148.87 586.43" class="st13"/></g><g id="shape184-86" transform="translate(520.188,-399.119)"><title>Dynamic connector.184</title><path d="M0 586.43 L-148.87 586.43" class="st13"/></g><g id="shape185-91" transform="translate(520.188,-358.725)"><title>Dynamic connector.185</title><path d="M0 586.43 L-148.87 586.43" class="st13"/></g><g id="shape186-96" transform="translate(364.282,-274.655)"><title>Dynamic connector.186</title><path d="M0 586.43 L-148.87 586.43" class="st13"/></g><g id="shape77-101" transform="translate(288.98,-314.079)"><title>Rectangle.1003</title><desc>Modem must be re-started to apply the update</desc><rect width="150.603" height="35.433" x="0" y="558.08" class="st1"/><text x="11.11" y="572.8" class="st2">Modem must be re-started to <tspan x="38.33" class="st3" dy="1.2em">apply the update</tspan></text></g><g id="shape154-105" transform="translate(151.101,-155.339)"><title>Rectangle.154</title><desc>Apply the new firmware</desc><rect width="116.804" height="35.433" x="0" y="558.08" class="st1"/><text x="6.44" y="578.8" class="st2">Apply the new firmware</text></g><g id="shape69-108" transform="translate(477.668,-426.07)"><title>Rectangle</title><desc>Modem firmware is downloaded to device</desc><rect width="85.039" height="51.874" x="0" y="541.639" class="st1"/><text x="5.29" y="558.58" class="st2">Modem firmware <tspan x="4.99" class="st3" dy="1.2em">is downloaded to </tspan><tspan x="28.07" class="st3" dy="1.2em">device</tspan></text></g><g id="shape187-113" transform="translate(520.188,-225.496)"><title>Dynamic connector.187</title><path d="M0 586.43 L-148.87 586.43" class="st13"/></g><g id="shape188-118" transform="translate(364.282,-211.323)"><title>Dynamic connector.188</title><path d="M0 586.43 L-148.87 586.43" class="st13"/></g><g id="shape190-123" transform="translate(364.282,-379.827)"><title>Dynamic connector.190</title><path d="M0 586.58 L-152.56 586.43 A2.3622 2.3622 -180 1 0 -157.29 586.42 L-304.77 586.28" class="st13"/></g><g id="shape193-128" transform="translate(520.188,-75.9689)"><title>Dynamic connector.193</title><path d="M-6.68 586.43 L-7.04 586.43 L-153.54 586.43 A2.3622 2.3622 -180 0 0 -158.27 586.43 L-307.79 586.43" class="st10"/></g><g id="shape194-133" transform="translate(520.188,-47.6224)"><title>Dynamic connector.194</title><path d="M0 586.43 L-148.87 586.43" class="st13"/></g><g id="shape195-138" transform="translate(520.188,-20.2681)"><title>Dynamic connector.195</title><path d="M0 586.43 L-148.87 586.43" class="st13"/></g><g id="shape196-143" transform="translate(236.723,-121.04)"><title>Sheet.196</title><desc>dfu result callback</desc><rect width="85.039" height="18.992" x="0" y="574.521" class="st4"/><text x="6.5" y="586.72" class="st8">dfu result callback</text></g><g id="shape197-146" transform="translate(362.015,-117.683)"><title>Dynamic connector.197</title><path d="M-6.68 586.43 L-7.04 586.43 L-151.94 586.43" class="st10"/></g></g></svg>