<svg xmlns="http://www.w3.org/2000/svg" xmlns:ev="http://www.w3.org/2001/xml-events" xmlns:xlink="http://www.w3.org/1999/xlink" width="669.754" height="432.588" class="st11" color-interpolation-filters="sRGB" viewBox="0 0 502.315 324.441" xml:space="preserve"><style type="text/css">.st1{fill:#00a9ce;stroke:none;stroke-width:1}.st2{fill:#feffff;font-family:Arial;font-size:.916672em}.st3{stroke:#00a9ce;stroke-dasharray:8,4;stroke-linecap:butt;stroke-width:1}.st4{font-size:1em}.st5{fill:none;stroke:none;stroke-width:1}.st6{fill:#0077c8;font-family:Arial;font-size:.833336em}.st7{stroke:#0077c8;stroke-dasharray:2,1;stroke-linecap:butt;stroke-width:1}.st8{fill:#00a9ce;font-family:Arial;font-size:.666664em}.st10,.st9{stroke:#00a9ce}.st9{marker-end:url(#mrkr4-45);stroke-linecap:butt;stroke-width:1}.st10{fill:#00a9ce;fill-opacity:1;stroke-opacity:1;stroke-width:.28409090909091}.st11{fill:none;fill-rule:evenodd;font-size:12px;overflow:visible;stroke-linecap:square;stroke-miterlimit:3}</style><defs id="Markers"><g id="lend4"><path d="M 2 1 L 0 0 L 2 -1 L 2 1" style="stroke:none"/></g><marker id="mrkr4-45" class="st10" markerUnits="strokeWidth" orient="auto" overflow="visible" refX="-7.04"><use transform="scale(-3.52,-3.52)" xlink:href="#lend4"/></marker></defs><g><title>Page-1</title><g id="shape30-1" transform="translate(1,-288.008)"><title>Rectangle.30</title><desc>Modem library</desc><rect width="120.756" height="35.433" x="0" y="289.008" class="st1"/><text x="25.54" y="310.02" class="st2">Modem library</text></g><g id="shape31-4" transform="translate(54.2913,-288.008)"><title>Dynamic connector</title><path d="M7.09 324.44 L7.09 611.45" class="st3"/></g><g id="shape32-7" transform="translate(178.449,-288.008)"><title>Rectangle.32</title><desc>Application</desc><rect width="120.756" height="35.433" x="0" y="289.008" class="st1"/><text x="33.47" y="310.02" class="st2">Application</text></g><g id="shape33-10" transform="translate(245.913,-288.008)"><title>Dynamic connector.33</title><path d="M-7.09 324.44 L-7.09 346.41" class="st3"/></g><g id="shape34-13" transform="translate(380.559,-288.008)"><title>Rectangle.34</title><desc>LwM2M carrier library</desc><rect width="120.756" height="35.433" x="0" y="289.008" class="st1"/><text x="7.51" y="310.02" class="st2">LwM2M carrier library</text></g><g id="shape35-16" transform="translate(433.992,-288.008)"><title>Dynamic connector.35</title><path d="M6.94 324.44 L7.23 611.45" class="st3"/></g><g id="shape22-19" transform="translate(380.559,-135.646)"><title>Rectangle</title><desc>Apply security tag that contains invalid certificate</desc><rect width="120.756" height="46.249" x="0" y="278.191" class="st1"/><text x="6.27" y="291.42" class="st2">Apply security tag that <tspan x="22.77" class="st4" dy="1.2em">contains invalid </tspan><tspan x="36.84" class="st4" dy="1.2em">certificate</tspan></text></g><g id="shape36-24" transform="translate(137.468,-255.642)"><title>Sheet.36</title><desc>Modem update initiated by carrier’s LwM2M server</desc><rect width="235.721" height="10.397" x="0" y="314.044" class="st5"/><text x="5.87" y="322.84" class="st6">Modem update initiated by carrier’s LwM2M server</text></g><g id="shape37-27" transform="translate(4.68503,-253.587)"><title>Sheet.37</title><path d="M0 324.44 L481.89 324.44" class="st7"/></g><g id="shape40-30" transform="translate(247.047,-201.693)"><title>Sheet.40</title><desc>LWM2M_CARRIER_EVENT_FOTA_START</desc><rect width="182.835" height="18.992" x="0" y="305.449" class="st5"/><text x="12.52" y="318.25" class="st8">LWM2M_CARRIER_EVENT_FOTA_START</text></g><g id="shape43-33" transform="translate(231.457,-78.9528)"><title>Sheet.43</title><desc>LWM2M_CARRIER_ERROR_FOTA_FAIL (value: NRF_ECONNREFUSED)</desc><rect width="216.85" height="22.918" x="0" y="301.523" class="st5"/><text x="33.08" y="309.38" class="st8">LWM2M_CARRIER_ERROR_FOTA_FAIL<tspan x="49.97" class="st4" dy="1.425em">(value: NRF_ECONNREFUSED)</tspan></text></g><g id="shape45-37" transform="translate(231.457,-255.642)"><title>Dynamic connector.45</title><path d="M7.09 324.44 L7.09 579.08" class="st3"/></g><g id="shape46-40" transform="translate(441.02,-196.531)"><title>Dynamic connector.46</title><path d="M0 317.41 L-195.44 317.3" class="st9"/></g><g id="shape48-46" transform="translate(440.937,-71.9252)"><title>Dynamic connector.48</title><path d="M0 317.41 L-195.44 317.3" class="st9"/></g></g></svg>