<svg xmlns="http://www.w3.org/2000/svg" xmlns:ev="http://www.w3.org/2001/xml-events" xmlns:xlink="http://www.w3.org/1999/xlink" width="575.315" height="246.497" class="st7" color-interpolation-filters="sRGB" viewBox="0 0 431.486 184.873" xml:space="preserve"><style type="text/css">.st1{fill:#0077c8;stroke:none;stroke-width:1}.st2{fill:#fff;font-family:Arial;font-size:.916672em}.st3{fill:#00a9ce;stroke:none;stroke-width:1}.st4{font-size:1em}.st5,.st6{stroke:#00a9ce}.st5{marker-end:url(#mrkr4-23);marker-start:url(#mrkr4-21);stroke-linecap:butt;stroke-width:1}.st6{fill:#00a9ce;fill-opacity:1;stroke-opacity:1;stroke-width:.28409090909091}.st7{fill:none;fill-rule:evenodd;font-size:12px;overflow:visible;stroke-linecap:square;stroke-miterlimit:3}</style><defs id="Markers"><g id="lend4"><path d="M 2 1 L 0 0 L 2 -1 L 2 1" style="stroke:none"/></g><marker id="mrkr4-21" class="st6" markerUnits="strokeWidth" orient="auto" overflow="visible" refX="6.68"><use transform="scale(3.52)" xlink:href="#lend4"/></marker><marker id="mrkr4-23" class="st6" markerUnits="strokeWidth" orient="auto" overflow="visible" refX="-7.04"><use transform="scale(-3.52,-3.52)" xlink:href="#lend4"/></marker></defs><g><title>Page-1</title><g id="shape5-1" transform="translate(1,-1)"><title>Nordic Blueslate</title><desc>OS</desc><rect width="49.606" height="182.873" x="0" y="2" class="st1"/><text x="16.86" y="96.74" class="st2">OS</text></g><g id="shape6-4" transform="translate(104.129,-115.803)"><title>Nordic Blue</title><desc>Application</desc><rect width="325.984" height="66.205" x="0" y="118.668" class="st3"/><text x="136.09" y="155.07" class="st2">Application</text></g><g id="shape7-7" transform="translate(104.129,-1)"><title>Nordic Blue.15</title><desc>LwM2M carrier library OS adaption (lwm2m_carrier_os.c/h)</desc><rect width="127.932" height="52.032" x="0" y="132.841" class="st3"/><text x="11.1" y="148.96" class="st2">LwM2M carrier library <tspan x="33.39" class="st4" dy="1.2em">OS adaption </tspan><tspan x="6.51" class="st4" dy="1.2em">(lwm2m_carrier_os.c/h)</tspan></text></g><g id="shape8-12" transform="translate(302.554,-1)"><title>Nordic Blue.17</title><desc>LwM2M carrier library</desc><rect width="127.932" height="52.032" x="0" y="132.841" class="st3"/><text x="11.1" y="162.16" class="st2">LwM2M carrier library</text></g><g id="shape9-15" transform="translate(358.397,-115.803)"><title>Dynamic connector</title><path d="M6.64 191.55 L6.65 191.91 L7.53 240.61" class="st5"/></g><g id="shape10-24" transform="translate(232.061,-34.1026)"><title>Dynamic connector.21</title><path d="M6.68 191.96 L7.04 191.96 L63.45 191.96" class="st5"/></g><g id="shape11-31" transform="translate(50.6063,-34.1947)"><title>Dynamic connector.23</title><path d="M6.68 191.94 L7.04 191.94 L46.48 191.98" class="st5"/></g><g id="shape12-38" transform="translate(50.6063,-141.377)"><title>Dynamic connector.24</title><path d="M6.68 177.83 L7.04 177.83 L46.48 177.74" class="st5"/></g></g></svg>