<svg xmlns="http://www.w3.org/2000/svg" xmlns:ev="http://www.w3.org/2001/xml-events" xmlns:xlink="http://www.w3.org/1999/xlink" width="702.012" height="430.164" class="st23" color-interpolation-filters="sRGB" viewBox="0 0 526.51 322.623" xml:space="preserve"><style type="text/css">.st1{fill:none;stroke:#333f48;stroke-width:.999998}.st2,.st3{fill:#333f48;font-family:Calibri;font-size:.75em;font-weight:700}.st3{font-size:.666664em}.st4{font-size:1em}.st5{stroke:none;stroke-width:.999999}.st5,.st6{fill:none}.st7{stroke-linecap:round;stroke-linejoin:round;stroke-width:.75}.st7,.st8,.st9{stroke:#333f48}.st8{marker-start:url(#mrkr3-53);stroke-dasharray:4,2;stroke-linecap:butt;stroke-width:.5}.st9{fill:#333f48;fill-opacity:1;stroke-opacity:1;stroke-width:.16556282994258}.st10{stroke-dasharray:4,2}.st10,.st11{marker-end:url(#mrkr3-59);stroke:#333f48;stroke-linecap:butt;stroke-width:.5}.st12{fill:none;stroke:none;stroke-width:.999998}.st13{fill:#333f48;font-family:Calibri;font-size:.666664em}.st14{marker-end:url(#mrkr3-59);stroke-dasharray:4,2}.st14,.st15{marker-start:url(#mrkr3-53);stroke:#333f48;stroke-linecap:butt;stroke-width:.5}.st16{fill:#333f48;font-family:Calibri;font-size:.75em}.st17{font-family:Wingdings;font-size:1em}.st18{fill:#333f48;font-family:Calibri;font-size:.75em;font-style:italic}.st19,.st20{font-size:1em;font-style:normal}.st20{font-family:Wingdings}.st21,.st22{fill:#d9e1e2;stroke:#333f48;stroke-width:.999998}.st22{fill:none;stroke-dasharray:6.99999,4.99999}.st23{fill:none;fill-rule:evenodd;font-size:12px;overflow:visible;stroke-linecap:square;stroke-miterlimit:3}</style><defs id="Markers"><g id="lend3"><path style="stroke-linecap:round;stroke-linejoin:round;fill:none" d="M 2 1 L 0 0 L 2 -1"/></g><marker id="mrkr3-53" class="st9" markerUnits="strokeWidth" orient="auto" overflow="visible"><use transform="scale(6.0400030631683)" xlink:href="#lend3"/></marker><marker id="mrkr3-59" class="st9" markerUnits="strokeWidth" orient="auto" overflow="visible"><use transform="scale(-6.0400030631683,-6.0400030631683)" xlink:href="#lend3"/></marker></defs><g><title>Page-1</title><g id="shape1-1" transform="translate(353.209,-300.613)"><title>Sheet.1</title><desc>GPS</desc><path d="M0 316.95 A5.66942 5.66942 -180 0 0 5.67 322.62 L50.04 322.62 A5.66942 5.66942 -180 0 0 55.71 316.95 L55.71 307.28 A5.66942 5.66942 -180 0 0 50.04 301.61 L5.67 301.61 A5.66942 5.66942 -180 0 0 -0 307.28 L0 316.95 Z" class="st1"/><text x="17.77" y="314.82" class="st2">GNSS</text></g><g id="shape2-4" transform="translate(410.949,-300.613)"><title>Sheet.2</title><desc>Modem</desc><path d="M0 316.95 A5.66942 5.66942 -180 0 0 5.67 322.62 L50.04 322.62 A5.66942 5.66942 -180 0 0 55.71 316.95 L55.71 307.28 A5.66942 5.66942 -180 0 0 50.04 301.61 L5.67 301.61 A5.66942 5.66942 -180 0 0 -0 307.28 L0 316.95 Z" class="st1"/><text x="13.16" y="314.82" class="st2">Modem</text></g><g id="shape3-7" transform="translate(469.8,-300.613)"><title>Sheet.3</title><desc>SUPL server</desc><path d="M0 316.95 A5.66942 5.66942 -180 0 0 5.67 322.62 L50.04 322.62 A5.66942 5.66942 -180 0 0 55.71 316.95 L55.71 307.28 A5.66942 5.66942 -180 0 0 50.04 301.61 L5.67 301.61 A5.66942 5.66942 -180 0 0 -0 307.28 L0 316.95 Z" class="st1"/><text x="5.82" y="314.82" class="st2">SUPL server</text></g><g id="shape4-10" transform="translate(29.1642,-300.344)"><title>Sheet.4</title><desc>Application + SUPL client OS integration</desc><path d="M0 316.95 A5.66942 5.66942 -180 0 0 5.67 322.62 L73.53 322.62 A5.66942 5.66942 -180 0 0 79.2 316.95 L79.2 307.28 A5.66942 5.66942 -180 0 0 73.53 301.61 L5.67 301.61 A5.66942 5.66942 -180 0 0 -0 307.28 L0 316.95 Z" class="st1"/><text x="8.48" y="309.72" class="st3">Application + SUPL <tspan x="5.52" class="st4" dy="1.2em">client OS integration</tspan></text></g><g id="shape5-14" transform="translate(116.78,-300.344)"><title>Sheet.5</title><desc>SUPL client</desc><path d="M0 316.95 A5.66942 5.66942 -180 0 0 5.67 322.62 L50.04 322.62 A5.66942 5.66942 -180 0 0 55.71 316.95 L55.71 307.28 A5.66942 5.66942 -180 0 0 50.04 301.61 L5.67 301.61 A5.66942 5.66942 -180 0 0 -0 307.28 L0 316.95 Z" class="st1"/><text x="18.49" y="309.42" class="st2">SUPL<tspan x="17.52" class="st4" dy="1.2em">client</tspan></text></g><g id="group6-18" transform="translate(393.626,22.2827) rotate(90)"><title>Sheet.6</title><g id="shape7-19"><title>Sheet.7</title><path d="M0 322.62 L297.19 322.62 L0 322.62 Z" class="st5"/></g><g id="shape8-21"><title>Sheet.8</title><path d="M0 322.62 L297.19 322.62 L0 322.62 Z" class="st6"/><path d="M0 322.62 L297.19 322.62" class="st7"/></g></g><g id="group9-24" transform="translate(467.267,22.2827) rotate(90)"><title>Sheet.9</title><g id="shape10-25"><title>Sheet.10</title><path d="M0 322.62 L299.34 322.62 L0 322.62 Z" class="st5"/></g><g id="shape11-27"><title>Sheet.11</title><path d="M0 322.62 L299.34 322.62 L0 322.62 Z" class="st6"/><path d="M0 322.62 L299.34 322.62" class="st7"/></g></g><g id="group12-30" transform="translate(705.782,22.0143) rotate(90)"><title>Sheet.12</title><g id="shape13-31"><title>Sheet.13</title><path d="M0 322.62 L297.28 322.62 L0 322.62 Z" class="st5"/></g><g id="shape14-33"><title>Sheet.14</title><path d="M0 322.62 L297.28 322.62 L0 322.62 Z" class="st6"/><path d="M0 322.62 L297.28 322.62" class="st7"/></g></g><g id="group15-36" transform="translate(761.436,22.0143) rotate(90)"><title>Sheet.15</title><g id="shape16-37"><title>Sheet.16</title><path d="M0 322.62 L297.28 322.62 L0 322.62 Z" class="st5"/></g><g id="shape17-39"><title>Sheet.17</title><path d="M0 322.62 L297.28 322.62 L0 322.62 Z" class="st6"/><path d="M0 322.62 L297.28 322.62" class="st7"/></g></g><g id="group18-42" transform="translate(820.287,22.0143) rotate(90)"><title>Sheet.18</title><g id="shape19-43"><title>Sheet.19</title><path d="M0 322.62 L297.28 322.62 L0 322.62 Z" class="st5"/></g><g id="shape20-45"><title>Sheet.20</title><path d="M0 322.62 L297.28 322.62 L0 322.62 Z" class="st6"/><path d="M0 322.62 L297.28 322.62" class="st7"/></g></g><g id="shape21-48" transform="translate(71.0029,-279.339) rotate(0.00118546)"><title>Sheet.21</title><path d="M0 322.62 L312.16 322.62" class="st8"/></g><g id="shape22-54" transform="translate(71.0056,-265.333) rotate(0.00166835)"><title>Sheet.22</title><path d="M0 322.62 L367.81 322.62" class="st10"/></g><g id="shape23-60" transform="translate(70.7101,-10.2996) rotate(-0.0507975)"><title>Sheet.23</title><path d="M0 322.62 L368.37 322.62" class="st10"/></g><g id="shape24-65" transform="translate(71.013,-223.648) rotate(0.00299288)"><title>Sheet.24</title><path d="M0 322.62 L367.81 322.62" class="st8"/></g><g id="shape25-70" transform="translate(71.0168,-209.641) rotate(0.00365514)"><title>Sheet.25</title><path d="M0 322.62 L367.81 322.62" class="st8"/></g><g id="shape26-75" transform="translate(71.3297,-193.501)"><title>Sheet.26</title><path d="M0 322.62 L71.63 322.62" class="st11"/></g><g id="shape27-80" transform="translate(68.1046,-193.493)"><title>Sheet.27</title><desc>supl_client_session()</desc><rect width="79.201" height="10.646" x="0" y="311.977" class="st12"/><text x="4" y="319.7" class="st13">supl_client_session()</text></g><g id="shape28-83" transform="translate(71.0093,-251.327) rotate(0.00233061)"><title>Sheet.28</title><path d="M0 322.62 L367.81 322.62" class="st10"/></g><g id="shape29-88" transform="translate(70.9962,-24.3059)"><title>Sheet.29</title><path d="M0 322.62 L368.37 322.62" class="st10"/></g><g id="shape30-93" transform="translate(70.9962,-176.405)"><title>Sheet.30</title><path d="M0 322.62 L71.96 322.62" class="st8"/></g><g id="shape31-98" transform="translate(69.6589,-169.971) rotate(-0.237459)"><title>Sheet.31</title><path d="M0 322.62 L426.66 322.62" class="st10"/></g><g id="shape32-103" transform="translate(70.9962,-160.866)"><title>Sheet.32</title><path d="M0 322.62 L71.96 322.62" class="st14"/></g><g id="shape33-110" transform="translate(69.5043,-154.28) rotate(-0.264912)"><title>Sheet.33</title><path d="M0 322.62 L426.67 322.62" class="st8"/></g><g id="shape34-115" transform="translate(12.5614,-168.503)"><title>Sheet.34</title><desc>SUPL_Write</desc><rect width="55.713" height="10.587" x="0" y="312.036" class="st12"/><text x="12.01" y="320.03" class="st2">supl_write</text></g><g id="shape35-118" transform="translate(12.0717,-153.391)"><title>Sheet.35</title><desc>SUPL_Read</desc><rect width="55.713" height="10.587" x="0" y="312.036" class="st12"/><text x="14.77" y="320.03" class="st2">supl_read</text></g><g id="shape36-121" transform="translate(70.9962,-145.312)"><title>Sheet.36</title><path d="M0 322.62 L71.96 322.62" class="st8"/></g><g id="shape37-126" transform="translate(69.5554,-138.874) rotate(-0.255837)"><title>Sheet.37</title><path d="M0 322.62 L426.67 322.62" class="st10"/></g><g id="shape38-131" transform="translate(12.0717,-138.279)"><title>Sheet.38</title><desc>SUPL_Write</desc><rect width="55.713" height="10.587" x="0" y="312.036" class="st12"/><text x="12.01" y="320.03" class="st2">supl_write</text></g><g id="shape39-134" transform="translate(70.9962,-130.473)"><title>Sheet.39</title><path d="M0 322.62 L71.96 322.62" class="st14"/></g><g id="shape40-141" transform="translate(69.4103,-123.886) rotate(-0.281615)"><title>Sheet.40</title><path d="M0 322.62 L426.67 322.62" class="st8"/></g><g id="shape41-146" transform="translate(12.0717,-123.167)"><title>Sheet.41</title><desc>SUPL_Read</desc><rect width="55.713" height="10.587" x="0" y="312.036" class="st12"/><text x="14.77" y="320.03" class="st2">supl_read</text></g><g id="shape42-149" transform="translate(70.9962,-71.6472)"><title>Sheet.42</title><path d="M0 322.62 L71.96 322.62" class="st14"/></g><g id="shape43-156" transform="translate(70.9962,-65.0648)"><title>Sheet.43</title><path d="M0 322.62 L426.66 322.62" class="st8"/></g><g id="shape44-161" transform="translate(10.7238,-64.5995)"><title>Sheet.44</title><desc>SUPL_Read</desc><rect width="55.713" height="10.587" x="0" y="312.036" class="st12"/><text x="14.77" y="320.03" class="st2">supl_read</text></g><g id="shape45-164" transform="translate(70.9962,-102.181)"><title>Sheet.45</title><path d="M0 322.62 L75.32 322.62" class="st8"/></g><g id="shape46-169" transform="translate(71.0567,-94.6161) rotate(0.0107524)"><title>Sheet.46</title><path d="M0 322.62 L312.16 322.62" class="st10"/></g><g id="shape47-174" transform="translate(3.51285,-91.5277)"><title>Sheet.47</title><desc>AGPS_Handler</desc><rect width="79.201" height="10.646" x="0" y="311.977" class="st12"/><text x="14.36" y="320" class="st2">agps_handler</text></g><g id="shape48-177" transform="translate(71.2991,-41.4593) rotate(0.0537872)"><title>Sheet.48</title><path d="M0 322.62 L71.06 322.62" class="st15"/></g><g id="shape49-182" transform="translate(49.6135,-274.428)"><title>Sheet.49</title><ellipse cx="4.902" cy="317.72" class="st1" rx="4.902" ry="4.902"/></g><g id="shape50-184" transform="translate(147.337,-280.529)"><title>Sheet.50</title><desc>nrf_recv (gps_data-&gt;data_id = NRF_GNSS_AGPS_DATA_ID )</desc><rect width="229.736" height="10.646" x="0" y="311.977" class="st12"/><text x="43.63" y="320" class="st16">NRF_MODEM_GNSS_EVT_AG<tspan class="st4">NSS</tspan>_REQ</text></g><g id="shape51-188" transform="translate(155.255,-265.325)"><title>Sheet.51</title><desc>«Activate LTE (true)»</desc><rect width="187.683" height="10.646" x="0" y="311.977" class="st12"/><text x="66.95" y="320" class="st16">«Activate LTE»</text></g><g id="shape52-191" transform="translate(155.255,-251.319)"><title>Sheet.52</title><desc>Open SUPL Socket (TCP, «supl.google.com» «7276»)</desc><rect width="219.652" height="10.646" x="0" y="311.977" class="st12"/><text x="15.61" y="320" class="st16">Open SUPL socket (TCP, «supl.server.com» «7276»)</text></g><g id="shape53-194" transform="translate(155.255,-224.248)"><title>Sheet.53</title><desc>AT_IMSI à Device ID</desc><rect width="187.683" height="10.646" x="0" y="311.977" class="st12"/><text x="43.73" y="320.11" class="st16">AT+CGDCONT <tspan class="st17">à</tspan> Device ID</text></g><g id="shape54-198" transform="translate(155.255,-211.307)"><title>Sheet.54</title><desc>AT_XMONITOR à LTE info</desc><rect width="187.683" height="10.646" x="0" y="311.977" class="st12"/><text x="44.13" y="320.11" class="st16">AT%XMONITOR <tspan class="st17">à</tspan> LTE info</text></g><g id="shape55-202" transform="translate(155.255,-10.2921)"><title>Sheet.55</title><desc>«Activate LTE (false)»</desc><rect width="187.683" height="10.646" x="0" y="311.977" class="st12"/><text x="62.39" y="320" class="st16">«Deactivate LTE»</text></g><g id="shape56-205" transform="translate(155.255,-26.6787)"><title>Sheet.56</title><desc>close_supl_socket ()</desc><rect width="187.683" height="10.646" x="0" y="311.977" class="st12"/><text x="61" y="320" class="st16">Close SUPL socket</text></g><g id="shape57-208" transform="translate(144.567,-96.7016)"><title>Sheet.57</title><desc>Loop 1..m times: nrf_sendto( &lt;AGPS data&gt; )</desc><rect width="246.614" height="10.646" x="0" y="311.977" class="st12"/><text x="4.66" y="320" class="st18">Loop 1..m times: <tspan class="st19"> </tspan><tspan class="st19">nrf_modem_gnss_ag</tspan><tspan class="st19">nss</tspan><tspan class="st19">_write(&lt;A</tspan><tspan class="st19">-</tspan><tspan class="st19">G</tspan><tspan class="st19">NSS</tspan><tspan class="st19"> </tspan><tspan class="st19">data&gt;)</tspan></text></g><g id="shape58-220" transform="translate(160.857,-171.074)"><title>Sheet.58</title><desc>Socket send() à SUPL_START</desc><rect width="187.683" height="10.646" x="0" y="311.977" class="st12"/><text x="35.38" y="320.11" class="st16">Socket send() <tspan class="st17">à </tspan>SUPL_START</text></g><g id="shape59-224" transform="translate(160.857,-155.535)"><title>Sheet.59</title><desc>Socket recv() à SUPL_RESPONSE</desc><rect width="187.683" height="10.646" x="0" y="311.977" class="st12"/><text x="28.68" y="320.11" class="st16">Socket recv() <tspan class="st17">à </tspan>SUPL_RESPONSE</text></g><g id="shape60-228" transform="translate(160.857,-139.459)"><title>Sheet.60</title><desc>Socket send() à SUPL_POS_INIT</desc><rect width="187.683" height="10.646" x="0" y="311.977" class="st12"/><text x="29.9" y="320.11" class="st16">Socket send() <tspan class="st17">à </tspan>SUPL_POS_INIT</text></g><g id="shape61-232" transform="translate(160.857,-125.206)"><title>Sheet.61</title><desc>Loop 1..n times: Socket recv() à SUPL_SUPL_POS</desc><rect width="214.049" height="10.646" x="0" y="311.977" class="st12"/><text x="12.31" y="320.11" class="st18">Loop 1..n times: <tspan class="st19">Socket recv()</tspan> <tspan class="st19"> </tspan><tspan class="st20">à </tspan><tspan class="st19">SUPL_SUPL_POS</tspan></text></g><g id="shape62-239" transform="translate(160.857,-66.3936)"><title>Sheet.62</title><desc>Socket recv() à SUPL_END</desc><rect width="187.683" height="10.646" x="0" y="311.977" class="st12"/><text x="39.99" y="320.11" class="st16">Socket recv() <tspan class="st17">à </tspan>SUPL_END</text></g><g id="shape63-243" transform="translate(142.956,-40.8256)"><title>Sheet.63</title><rect width="3.361" height="152.667" x="0" y="169.956" class="st21"/></g><g id="shape64-245" transform="translate(15.2293,-55.1111)"><title>Sheet.64</title><path d="M-0 316.95 A5.66942 5.66942 -180 0 0 5.67 322.62 L504.08 322.62 A5.66942 5.66942 -180 0 0 509.75 316.95 L509.75 196.4 A5.66942 5.66942 -180 0 0 504.08 190.73 L5.67 190.73 A5.66942 5.66942 -180 0 0 -0 196.4 L0 316.95 Z" class="st22"/></g><g id="shape65-247" transform="translate(48.6131,-274.433)"><title>Sheet.65</title><desc>1</desc><path d="M0 317.72 A4.90227 4.90227 -180 0 0 4.9 322.62 A4.90227 4.90227 -180 0 0 9.8 317.72 A4.90227 4.90227 -180 0 0 4.9 312.82 A4.90227 4.90227 -180 0 0 0 317.72 Z" class="st12"/><text x="4" y="320.12" class="st3">1</text></g><g id="shape66-250" transform="translate(66.4372,-41.4519)"><title>Sheet.66</title><desc>supl_client_session()</desc><rect width="79.201" height="10.646" x="0" y="311.977" class="st12"/><text x="4" y="319.7" class="st13">supl_client_session()</text></g><g id="shape67-253" transform="translate(10.3709,-274.258)"><title>Sheet.67</title><rect width="8.787" height="17.291" x="0" y="305.331" class="st12"/></g><g id="shape68-255" transform="translate(49.947,-260.422)"><title>Sheet.68</title><ellipse cx="4.902" cy="317.72" class="st1" rx="4.902" ry="4.902"/></g><g id="shape69-257" transform="translate(48.9466,-260.427)"><title>Sheet.69</title><desc>2</desc><path d="M0 317.72 A4.90227 4.90227 -180 0 0 4.9 322.62 A4.90227 4.90227 -180 0 0 9.8 317.72 A4.90227 4.90227 -180 0 0 4.9 312.82 A4.90227 4.90227 -180 0 0 0 317.72 Z" class="st12"/><text x="4" y="320.12" class="st3">2</text></g><g id="shape70-260" transform="translate(50.9475,-219.766)"><title>Sheet.70</title><ellipse cx="4.902" cy="317.72" class="st1" rx="4.902" ry="4.902"/></g><g id="shape71-262" transform="translate(49.947,-219.771)"><title>Sheet.71</title><desc>4</desc><path d="M0 317.72 A4.90227 4.90227 -180 0 0 4.9 322.62 A4.90227 4.90227 -180 0 0 9.8 317.72 A4.90227 4.90227 -180 0 0 4.9 312.82 A4.90227 4.90227 -180 0 0 0 317.72 Z" class="st12"/><text x="4" y="320.12" class="st3">4</text></g><g id="shape72-265" transform="translate(50.9475,-192.086)"><title>Sheet.72</title><ellipse cx="4.902" cy="317.72" class="st1" rx="4.902" ry="4.902"/></g><g id="shape73-267" transform="translate(49.947,-192.091)"><title>Sheet.73</title><desc>5</desc><path d="M0 317.72 A4.90227 4.90227 -180 0 0 4.9 322.62 A4.90227 4.90227 -180 0 0 9.8 317.72 A4.90227 4.90227 -180 0 0 4.9 312.82 A4.90227 4.90227 -180 0 0 0 317.72 Z" class="st12"/><text x="4" y="320.12" class="st3">5</text></g><g id="shape74-270" transform="translate(2.72569,-168.502)"><title>Sheet.74</title><ellipse cx="4.902" cy="317.72" class="st1" rx="4.902" ry="4.902"/></g><g id="shape75-272" transform="translate(1.72522,-168.507)"><title>Sheet.75</title><desc>6</desc><path d="M0 317.72 A4.90227 4.90227 -180 0 0 4.9 322.62 A4.90227 4.90227 -180 0 0 9.8 317.72 A4.90227 4.90227 -180 0 0 4.9 312.82 A4.90227 4.90227 -180 0 0 0 317.72 Z" class="st12"/><text x="4" y="320.12" class="st3">6</text></g><g id="shape76-275" transform="translate(2.66744,-94.4751)"><title>Sheet.76</title><ellipse cx="4.902" cy="317.72" class="st1" rx="4.902" ry="4.902"/></g><g id="shape77-277" transform="translate(0.999998,-94.4791)"><title>Sheet.77</title><desc>7</desc><path d="M-0 317.72 A4.90227 4.90227 -180 0 0 4.9 322.62 A4.90227 4.90227 -180 0 0 9.8 317.72 A4.90227 4.90227 -180 0 0 4.9 312.82 A4.90227 4.90227 -180 0 0 0 317.72 Z" class="st12"/><text x="4" y="320.12" class="st3">7</text></g><g id="shape78-280" transform="translate(51.0232,-37.1153)"><title>Sheet.78</title><ellipse cx="4.902" cy="317.72" class="st1" rx="4.902" ry="4.902"/></g><g id="shape79-282" transform="translate(50.0227,-37.1193)"><title>Sheet.79</title><desc>5</desc><path d="M-0 317.72 A4.90227 4.90227 -180 0 0 4.9 322.62 A4.90227 4.90227 -180 0 0 9.8 317.72 A4.90227 4.90227 -180 0 0 4.9 312.82 A4.90227 4.90227 -180 0 0 0 317.72 Z" class="st12"/><text x="4" y="320.12" class="st3">5</text></g><g id="shape80-285" transform="translate(51.281,-16.1056)"><title>Sheet.80</title><ellipse cx="4.902" cy="317.72" class="st1" rx="4.902" ry="4.902"/></g><g id="shape81-287" transform="translate(50.2805,-16.1096)"><title>Sheet.81</title><desc>8</desc><path d="M-0 317.72 A4.90227 4.90227 -180 0 0 4.9 322.62 A4.90227 4.90227 -180 0 0 9.8 317.72 A4.90227 4.90227 -180 0 0 4.9 312.82 A4.90227 4.90227 -180 0 0 0 317.72 Z" class="st12"/><text x="4" y="320.12" class="st3">8</text></g><g id="shape82-290" transform="translate(2.66744,-63.7943)"><title>Sheet.82</title><ellipse cx="4.902" cy="317.72" class="st1" rx="4.902" ry="4.902"/></g><g id="shape83-292" transform="translate(1.66698,-63.7984)"><title>Sheet.83</title><desc>6</desc><path d="M-0 317.72 A4.90227 4.90227 -180 0 0 4.9 322.62 A4.90227 4.90227 -180 0 0 9.8 317.72 A4.90227 4.90227 -180 0 0 4.9 312.82 A4.90227 4.90227 -180 0 0 0 317.72 Z" class="st12"/><text x="4" y="320.12" class="st3">6</text></g><g id="shape84-295" transform="translate(70.9962,-233.44)"><title>Sheet.84</title><desc>supl_client_init()</desc><rect width="79.201" height="10.646" x="0" y="311.977" class="st12"/><text x="4" y="319.7" class="st13">supl_client_init()</text></g><g id="shape85-298" transform="translate(70.9962,-233.448)"><title>Sheet.85</title><path d="M0 322.62 L73.41 322.62" class="st11"/></g><g id="shape86-303" transform="translate(50.7563,-234.206)"><title>Sheet.86</title><ellipse cx="4.902" cy="317.72" class="st1" rx="4.902" ry="4.902"/></g><g id="shape87-305" transform="translate(49.7558,-234.211)"><title>Sheet.87</title><desc>3</desc><path d="M0 317.72 A4.90227 4.90227 -180 0 0 4.9 322.62 A4.90227 4.90227 -180 0 0 9.8 317.72 A4.90227 4.90227 -180 0 0 4.9 312.82 A4.90227 4.90227 -180 0 0 -0 317.72 Z" class="st12"/><text x="4" y="320.12" class="st3">3</text></g></g></svg>