<svg xmlns="http://www.w3.org/2000/svg" xmlns:ev="http://www.w3.org/2001/xml-events" xmlns:xlink="http://www.w3.org/1999/xlink" width="702.981" height="489.724" class="st15" color-interpolation-filters="sRGB" viewBox="0 0 527.236 367.293" xml:space="preserve"><style type="text/css">.st1{fill:#768692;stroke:none;stroke-width:1}.st2{fill:#fff;font-family:Calibri;font-size:1.00001em}.st3{fill:#fff;stroke:none;stroke-width:1}.st4{fill:#333f48;font-family:Calibri;font-size:1.00001em}.st5{fill:#0033a0}.st5,.st6,.st7{stroke:none;stroke-width:1}.st6{fill:#00a9ce}.st7{fill:none}.st8{fill:#fff;font-family:Calibri;font-size:1.16666em}.st10,.st9{fill:#333f48}.st9{stroke:none;stroke-width:1}.st10{font-family:Calibri;font-size:.833336em}.st11,.st12{fill:#0077c8;stroke:none;stroke-width:1}.st12{fill:#6ad1e3}.st13{font-size:1em}.st14{fill:#d9e1e2;stroke:none;stroke-width:1}.st15{fill:none;fill-rule:evenodd;font-size:12px;overflow:visible;stroke-linecap:square;stroke-miterlimit:3}</style><g><title>Page-1</title><g id="group1222-1" transform="translate(69.4334,-143.336)"><title>Sheet.1222</title><g id="shape1181-2" transform="translate(0.00393826,-33.2888)"><title>Nordic Middle Grey</title><desc>UDP</desc><rect width="456.145" height="22.677" x="0" y="344.616" class="st1"/><text x="217.43" y="359.55" class="st2">UDP</text></g><g id="group1206-5" transform="translate(0.00393826,5.68434E-14)"><title>Sheet.1206</title><g id="shape1182-6"><title>Nordic Middle Grey.1182</title><desc>IPv6</desc><rect width="456.145" height="31.181" x="0" y="336.112" class="st1"/><text x="217.71" y="355.3" class="st2">IPv6</text></g><g id="group1205-9" transform="translate(91.833,-7.13723)"><title>Sheet.1205</title><g id="shape1203-10"><title>Nordic Light Grey</title><desc>ICMPv6</desc><rect width="63.06" height="16.907" x="0" y="350.387" class="st3"/><text x="12.84" y="362.44" class="st4">ICMPv6</text></g><g id="shape1204-13" transform="translate(213.812,5.68434E-14)"><title>Nordic Light Grey.1204</title><desc>MPL</desc><rect width="63.06" height="16.907" x="0" y="350.387" class="st3"/><text x="20.78" y="362.44" class="st4">MPL</text></g></g></g></g><g id="shape1170-16" transform="translate(224.545,-257.504)"><title>Nordic Blueslate</title><desc>MLE router</desc><rect width="223.178" height="51.503" x="0" y="315.79" class="st5"/><text x="84.16" y="345.14" class="st2">MLE router</text></g><g id="shape1171-19" transform="translate(224.545,-201.595)"><title>Nordic Blueslate.1171</title><desc>MLE endpoint</desc><rect width="223.178" height="53.706" x="0" y="313.587" class="st5"/><text x="77.5" y="344.04" class="st2">MLE endpoint</text></g><g id="group1227-22" transform="translate(1.82674,-311.653)"><title>Sheet.1227</title><g id="group1192-23"><title>Sheet.1192</title><g id="shape1168-24" transform="translate(-0.826736,0)"><title>Nordic Blue</title><rect width="525.236" height="54.64" x="0" y="312.653" class="st6"/></g><g id="shape1191-26" transform="translate(230.833,-37.4578)"><title>Sheet.1191</title><desc>APIs</desc><rect width="61.006" height="7.37" x="0" y="359.923" class="st7"/><text x="18.34" y="367.81" class="st8">APIs</text></g></g><g id="group1226-29" transform="translate(118.258,-6.22855)"><title>Sheet.1226</title><g id="shape1186-30"><title>Nordic Blue.1186</title><desc>CoAP</desc><rect width="63.564" height="22.663" x="0" y="344.63" class="st3"/><text x="18.85" y="359.56" class="st4">CoAP</text></g><g id="shape1187-33" transform="translate(75.3687,-1.13687E-13)"><title>Nordic Blue.1187</title><desc>Control</desc><rect width="63.564" height="22.663" x="0" y="344.63" class="st3"/><text x="13.62" y="359.56" class="st4">Control</text></g><g id="shape1188-36" transform="translate(150.737,0)"><title>Nordic Blue.1188</title><desc>IPv6</desc><rect width="63.564" height="22.663" x="0" y="344.63" class="st3"/><text x="21.42" y="359.56" class="st4">IPv6</text></g><g id="shape1189-39" transform="translate(226.106,-2.27374E-13)"><title>Nordic Blue.1189</title><desc>UDP</desc><rect width="63.564" height="22.663" x="0" y="344.63" class="st3"/><text x="21.14" y="359.56" class="st4">UDP</text></g></g></g><g id="group1228-42" transform="translate(69.4334,-68.7972)"><title>Sheet.1228</title><g id="shape1183-43" transform="translate(0,-49.5696)"><title>Nordic Dark Grey</title><desc>6LoWPAN header compression / Fragmentation</desc><rect width="455.978" height="22.677" x="0" y="344.616" class="st9"/><text x="111.32" y="359.55" class="st2">6LoWPAN header compression / Fragmentation</text></g><g id="shape1184-46" transform="translate(0,-24.7848)"><title>Nordic Dark Grey.1184</title><desc>Mesh forwarding</desc><rect width="455.978" height="22.677" x="0" y="344.616" class="st9"/><text x="186.17" y="359.55" class="st2">Mesh forwarding</text></g><g id="shape1185-49"><title>Nordic Dark Grey.1185</title><desc>IEEE 802.15.4 MAC</desc><rect width="455.978" height="22.677" x="0" y="344.616" class="st9"/><text x="181.9" y="359.55" class="st2">IEEE 802.15.4 MAC</text></g></g><g id="group1230-52" transform="translate(1,-1)"><title>Sheet.1230</title><g id="shape1169-53"><title>Nordic Blue.1169</title><rect width="524.409" height="65.197" x="0" y="302.096" class="st6"/></g><g id="shape1208-55" transform="translate(210.65,-44.3957)"><title>Sheet.1208</title><desc>Platform drivers</desc><rect width="101.372" height="14.471" x="0" y="352.823" class="st7"/><text x="4.78" y="364.26" class="st8">Platform drivers</text></g><g id="group1229-58" transform="translate(8.1315,-7.16761)"><title>Sheet.1229</title><g id="shape1211-59"><title>Nordic Blue</title><desc>Alarm</desc><rect width="37.899" height="31.558" x="0" y="335.735" class="st3"/><text x="6.78" y="354.51" class="st10">Alarm</text></g><g id="shape1212-62" transform="translate(43.1425,0)"><title>Nordic Blue.1212</title><desc>UART, SPI, USB CDC</desc><rect width="93.275" height="31.558" x="0" y="335.735" class="st3"/><text x="6.73" y="354.51" class="st10">UART, SPI, USB CDC</text></g><g id="shape1213-65" transform="translate(141.661,0)"><title>Nordic Blue.1213</title><desc>Radio</desc><rect width="44.054" height="31.558" x="0" y="335.735" class="st3"/><text x="10.51" y="354.51" class="st10">Radio</text></g><g id="shape1214-68" transform="translate(190.958,0)"><title>Nordic Blue.1214</title><desc>Random</desc><rect width="52.982" height="31.558" x="0" y="335.735" class="st3"/><text x="9.5" y="354.51" class="st10">Random</text></g><g id="shape1215-71" transform="translate(249.183,0)"><title>Nordic Blue.1215</title><desc>Misc / Reset</desc><rect width="63.111" height="31.558" x="0" y="335.735" class="st3"/><text x="6.55" y="354.51" class="st10">Misc / Reset</text></g><g id="shape1216-74" transform="translate(317.538,0)"><title>Nordic Blue.1216</title><desc>NV storage</desc><rect width="53.64" height="31.558" x="0" y="335.735" class="st3"/><text x="4.38" y="354.51" class="st10">NV storage</text></g><g id="shape1217-77" transform="translate(376.421,0)"><title>Nordic Blue.1217</title><desc>Logging</desc><rect width="46.791" height="31.558" x="0" y="335.735" class="st3"/><text x="7.82" y="354.51" class="st10">Logging</text></g><g id="shape1218-80" transform="translate(428.455,0)"><title>Nordic Blue.1218</title><desc>Platform-specific</desc><rect width="78.578" height="31.558" x="0" y="335.735" class="st3"/><text x="4.94" y="354.51" class="st10">Platform-specific</text></g></g></g><g id="group1231-83" transform="translate(1,-68.7972)"><title>Sheet.1231</title><g id="shape1193-84" transform="translate(401.576,127.083) rotate(90)"><title>Nordic Sky</title><desc>Crypto (AES, SHA, EC-JPAKE)</desc><rect width="240.21" height="31.622" x="0" y="335.671" class="st11"/><text x="51.45" y="355.08" class="st2">Crypto (AES, SHA, EC-JPAKE)</text></g><g id="shape1194-87" transform="translate(367.293,127.083) rotate(90)"><title>Nordic Sky.1194</title><desc>Message buffers</desc><rect width="240.21" height="31.622" x="0" y="335.671" class="st11"/><text x="79.87" y="355.08" class="st2">Message buffers</text></g></g><g id="group1232-90" transform="translate(69.4334,-201.595)"><title>Sheet.1232</title><g id="shape1172-91" transform="translate(367.293,259.88) rotate(90)"><title>Nordic Lake</title><desc>Address assignment</desc><rect width="82.557" height="35.389" x="0" y="331.904" class="st12"/><text x="21.73" y="346" class="st4">Address <tspan x="13.42" class="st13" dy="1.2em">assignment</tspan></text></g><g id="shape1176-95"><title>Nordic Lake.1176</title><desc>CoAP</desc><rect width="153.315" height="22.094" x="0" y="345.199" class="st12"/><text x="63.72" y="359.85" class="st4">CoAP</text></g><g id="shape1196-98" transform="translate(406.602,259.88) rotate(90)"><title>Nordic Lake.1196</title><desc>Address resolver</desc><rect width="82.557" height="35.389" x="0" y="331.904" class="st12"/><text x="21.73" y="346" class="st4">Address <tspan x="21.53" class="st13" dy="1.2em">resolver</tspan></text></g><g id="shape1197-102" transform="translate(445.91,259.88) rotate(90)"><title>Nordic Lake.1197</title><desc>Commissioning</desc><rect width="82.557" height="35.389" x="0" y="331.904" class="st12"/><text x="4.21" y="353.2" class="st4">Commissioning</text></g><g id="shape1198-105" transform="translate(485.219,259.88) rotate(90)"><title>Nordic Lake.1198</title><desc>Diagnostics</desc><rect width="82.557" height="35.389" x="0" y="331.904" class="st12"/><text x="13.58" y="353.2" class="st4">Diagnostics</text></g></g><g id="group1233-108" transform="translate(450.404,-201.595)"><title>Sheet.1233</title><g id="shape1200-109" transform="translate(367.293,259.88) rotate(90)"><title>Nordic Sky</title><desc>DHCPv6 client</desc><rect width="107.413" height="35.994" x="0" y="331.299" class="st14"/><text x="19.43" y="352.9" class="st4">DHCPv6 client</text></g><g id="shape1201-112" transform="translate(406.475,259.88) rotate(90)"><title>Nordic Sky.1201</title><desc>DHCPv6 server</desc><rect width="107.413" height="35.994" x="0" y="331.299" class="st14"/><text x="17.66" y="352.9" class="st4">DHCPv6 server</text></g></g></g></svg>