<svg xmlns="http://www.w3.org/2000/svg" xmlns:ev="http://www.w3.org/2001/xml-events" xmlns:xlink="http://www.w3.org/1999/xlink" width="298.226" height="418.415" class="st13" color-interpolation-filters="sRGB" viewBox="0 0 223.669 313.811" xml:space="preserve"><style type="text/css">.st1{fill:#fff}.st1,.st2,.st3{stroke:none;stroke-width:1}.st2{fill:#f2f2f2}.st3{fill:#00a9ce}.st4,.st5{fill:#feffff;font-family:Calibri;font-size:1.00001em}.st5{fill:#333f48}.st6{font-size:1em}.st7{fill:#00a9ce;stroke:none;stroke-width:1;visibility:hidden}.st8,.st9{stroke:#333f48}.st8{marker-end:url(#mrkr13-46);stroke-linecap:butt;stroke-width:1}.st9{fill:#333f48;fill-opacity:1;stroke-opacity:1;stroke-width:.28409090909091}.st10,.st11{fill:#333f48;stroke:#feffff;stroke-width:1}.st11{fill:none;stroke:none}.st12{fill:#333f48;font-family:Calibri;font-size:.833336em}.st13{fill:none;fill-rule:evenodd;font-size:12px;overflow:visible;stroke-linecap:square;stroke-miterlimit:3}</style><defs id="Markers"><g id="lend13"><path d="M 3 1 L 0 0 L 3 -1 L 3 1" style="stroke:none"/></g><marker id="mrkr13-46" class="st9" markerUnits="strokeWidth" orient="auto" overflow="visible" refX="-10.56"><use transform="scale(-3.52,-3.52)" xlink:href="#lend13"/></marker></defs><g><title>Page-1</title><g id="group1313-1" transform="translate(38.8425,-178.821)"><title>Entity</title><g id="shape1314-2" transform="translate(0,-75.9849)"><title>Sheet.1314</title><path d="M0 313.81 L145.98 313.81 L0 313.81 Z" class="st1"/></g><g id="shape1315-4"><title>Sheet.1315</title><rect width="145.984" height="75.985" x="0" y="237.826" class="st2"/></g><g id="shape1316-6" transform="translate(408.772,269.007) rotate(90)"><title>Sheet.1316</title></g><g id="shape1317-8" transform="translate(0,-44.8038)"><title>Sheet.1317</title><desc>Driver buffer</desc><rect width="145.984" height="31.181" x="0" y="282.63" class="st3"/><text x="41.64" y="301.82" class="st4">Driver buffer</text></g></g><g id="group1318-12" transform="translate(1,-59.0048)"><title>Entity.1291</title><g id="shape1319-13" transform="translate(0,-75.9849)"><title>Sheet.1319</title><path d="M0 313.81 L221.67 313.81 L0 313.81 Z" class="st1"/></g><g id="shape1320-15"><title>Sheet.1320</title><rect width="221.669" height="75.985" x="0" y="237.826" class="st2"/></g><g id="shape1321-17" transform="translate(484.457,269.007) rotate(90)"><title>Sheet.1321</title></g><g id="shape1322-19" transform="translate(0,-44.8038)"><title>Sheet.1322</title><desc>NCP UART RX buffer</desc><rect width="221.669" height="31.181" x="0" y="282.63" class="st3"/><text x="61.67" y="301.82" class="st4">NCP UART RX buffer</text></g></g><g id="group1323-23" transform="translate(38.8425,-178.821)"><title>Attribute.1262</title><desc>UART driver buffer Default size: 256 B</desc><g id="shape1323-24"><text x="30" y="287.81" class="st5">UART driver buffer <tspan x="30" class="st6" dy="1.2em">Default size: 256 B</tspan></text></g><g id="shape1324-28" transform="translate(94.9606,-7.20005)"><title>Sheet.1324</title><desc>int</desc><rect width="51.024" height="30.404" x="0" y="283.407" class="st7"/></g><g id="shape1325-30" transform="translate(4.25197,-13.898)"><title>Attribute.5</title><desc>PK</desc></g></g><g id="group1327-32" transform="translate(1,-59.0048)"><title>Attribute.1296</title><desc>Buffer for storing HDLC decoded data Default size: 1300 B</desc><g id="shape1327-33"><text x="30" y="287.81" class="st5">Buffer for storing HDLC decoded data <tspan x="30" class="st6" dy="1.2em">Default size: 1300 B</tspan></text></g><g id="shape1328-37" transform="translate(170.646,-7.20005)"><title>Sheet.1328</title><desc>int</desc></g><g id="shape1329-39" transform="translate(4.25197,-13.898)"><title>Attribute.5</title><desc>PK</desc></g></g><g id="shape1331-41" transform="translate(104.748,-178.821)"><title>Dynamic connector</title><path d="M7.09 313.81 L7.09 347.08" class="st8"/></g><g id="shape1332-47" transform="translate(104.748,-59.0048)"><title>Dynamic connector.1301</title><path d="M7.09 313.81 L7.09 347.08" class="st8"/></g><g id="shape1333-52" transform="translate(104.748,-298.638)"><title>Circle.1303</title><path d="M0 306.72 A7.08661 7.08661 0 0 1 14.17 306.72 A7.08661 7.08661 0 1 1 0 306.72 Z" class="st10"/></g><g id="shape1334-54" transform="translate(104.748,-298.638)"><title>Dynamic connector.1304</title><path d="M7.09 313.81 L7.09 347.08" class="st8"/></g><g id="shape1335-59" transform="translate(104.748,-1)"><title>Circle.1305</title><path d="M0 306.72 A7.08661 7.08661 0 0 1 14.17 306.72 A7.08661 7.08661 0 1 1 0 306.72 Z" class="st10"/></g><g id="shape1336-61" transform="translate(119.954,-264.675)"><title>Sheet.1336</title><desc>Receive</desc><rect width="80.416" height="24.095" x="0" y="289.717" class="st11"/><text x="4" y="304.76" class="st12">Receive</text></g><g id="shape1337-64" transform="translate(119.954,-144.858)"><title>Sheet.1337</title><desc>HDLC:: Decode</desc><rect width="80.416" height="24.095" x="0" y="289.717" class="st11"/><text x="4" y="304.76" class="st12">HDLC:: Decode</text></g><g id="shape1338-67" transform="translate(119.954,-25.0418)"><title>Sheet.1338</title><desc>Dispatch and handle</desc><rect width="94.596" height="24.095" x="0" y="289.717" class="st11"/><text x="4" y="304.76" class="st12">Dispatch and handle</text></g></g></svg>