<svg xmlns="http://www.w3.org/2000/svg" xmlns:ev="http://www.w3.org/2001/xml-events" xmlns:xlink="http://www.w3.org/1999/xlink" width="549.922" height="117.356" class="st10" color-interpolation-filters="sRGB" viewBox="0 0 412.441 88.017" xml:space="preserve"><style type="text/css">.st1{fill:#00a9ce;stroke:none;stroke-width:1}.st2{fill:#fff;font-family:Arial;font-size:.916672em}.st3{font-size:1em}.st4,.st5{stroke:#00a9ce}.st4{marker-end:url(#mrkr13-17);stroke-linecap:butt;stroke-width:1}.st5{fill:#00a9ce;fill-opacity:1;stroke-opacity:1;stroke-width:.28409090909091}.st6{fill:none;stroke:none;stroke-width:1}.st7{fill:#00a9ce;font-family:Arial;font-size:.916672em}.st8,.st9{stroke:#00a9ce;stroke-width:1}.st8{marker-start:url(#mrkr13-36);stroke-linecap:butt}.st9{fill:#00a9ce;stroke-linecap:round;stroke-linejoin:round}.st10{fill:none;fill-rule:evenodd;font-size:12px;overflow:visible;stroke-linecap:square;stroke-miterlimit:3}</style><defs id="Markers"><g id="lend13"><path d="M 3 1 L 0 0 L 3 -1 L 3 1" style="stroke:none"/></g><marker id="mrkr13-17" class="st5" markerUnits="strokeWidth" orient="auto" overflow="visible" refX="-10.56"><use transform="scale(-3.52,-3.52)" xlink:href="#lend13"/></marker><marker id="mrkr13-36" class="st5" markerUnits="strokeWidth" orient="auto" overflow="visible" refX="10.2"><use transform="scale(3.52)" xlink:href="#lend13"/></marker></defs><g><title>Page-1</title><g id="shape5-1" transform="translate(1,-1.58647)"><title>Nordic Blue</title><desc>nRF SoC</desc><rect width="54.64" height="85.43" x="0" y="2.586" class="st1"/><text x="4.7" y="48.6" class="st2">nRF SoC</text></g><g id="shape7-4" transform="translate(177.925,-1)"><title>Nordic Blue.7</title><desc>PTA</desc><rect width="54.64" height="85.43" x="0" y="2.586" class="st1"/><text x="16.62" y="48.6" class="st2">PTA</text></g><g id="shape8-7" transform="translate(356.801,-1)"><title>Nordic Blue.8</title><desc>WiFi module</desc><rect width="54.64" height="85.43" x="0" y="2.586" class="st1"/><text x="16.33" y="42" class="st2">WiFi <tspan x="9.28" class="st3" dy="1.2em">module</tspan></text></g><g id="group13-11" transform="translate(50.3661,-37.215)"><title>Signal, left-to-right</title><g id="shape14-12" transform="translate(69.5722,1.42109E-14)"><title>Dynamic connector.31</title><path d="M0 80.93 L41.19 80.93" class="st4"/></g><g id="shape15-18" transform="translate(-1.03501,-3.54332)"><title>Sheet.15</title><desc>PRIORITY</desc><rect width="70.898" height="7.087" x="0" y="80.93" class="st6"/><text x="14.95" y="87.77" class="st7">PRIORITY</text></g></g><g id="group16-21" transform="translate(50.3661,-57.4485)"><title>Signal, left-to-right.16</title><g id="shape17-22" transform="translate(69.5722,1.42109E-14)"><title>Dynamic connector.31</title><path d="M0 80.93 L41.19 80.93" class="st4"/></g><g id="shape18-27" transform="translate(-1.03501,-3.54332)"><title>Sheet.18</title><desc>REQUEST</desc><rect width="70.898" height="7.087" x="0" y="80.93" class="st6"/><text x="13.72" y="87.77" class="st7">REQUEST</text></g></g><g id="group19-30" transform="translate(64.5393,-16.9815)"><title>Signal, right-to-left</title><g id="shape20-31"><title>Dynamic connector.32</title><path d="M10.2 80.93 L10.56 80.93 L62.57 80.93" class="st8"/></g><g id="shape21-37" transform="translate(62.9263,-3.54326)"><title>Sheet.21</title><desc>GRANT</desc><rect width="86.001" height="7.087" x="0" y="80.93" class="st6"/><text x="4" y="87.77" class="st7">GRANT</text></g></g><g id="shape22-40" transform="translate(232.565,-43.7152)"><title>Master, h</title><desc>WiFi arbitration</desc><path d="M0 88.02 L5.67 76.68 L2.83 82.35 L121.4 82.35 L118.57 76.68 L124.24 88.02 L118.57 99.36 L121.4 93.69 L2.83 93.69 L5.67 99.36 L0 88.02 Z" class="st9"/><text x="25.14" y="91.32" class="st2">WiFi arbitration</text></g></g></svg>