<svg xmlns="http://www.w3.org/2000/svg" xmlns:ev="http://www.w3.org/2001/xml-events" xmlns:xlink="http://www.w3.org/1999/xlink" width="701.879" height="424.651" class="st18" color-interpolation-filters="sRGB" viewBox="0 0 526.409 318.488" xml:space="preserve"><style type="text/css">.st1,.st2{fill:#d9e1e2;stroke:none;stroke-width:1}.st2{fill:none}.st3{fill:#333f48;font-family:Calibri;font-size:1.99999em}.st4{fill:#6ad1e3;stroke:none;stroke-width:1}.st5{fill:#333f48;font-family:Calibri;font-size:1.5em}.st6{fill:#ee2f4e;stroke:none;stroke-width:1}.st7{fill:#fff;font-family:Calibri;font-size:.833336em}.st8,.st9{fill:#768692;stroke:none;stroke-width:1}.st9{fill:#ffcd00}.st10{fill:#0c0c0c;font-family:Calibri;font-size:.833336em}.st11{font-size:1em}.st12,.st13{fill:#f58220;stroke:none;stroke-width:1}.st13{fill:#0077c8}.st14,.st15{stroke:#333f48}.st14{marker-end:url(#mrkr13-48);marker-start:url(#mrkr13-46);stroke-linecap:butt;stroke-width:1}.st15{fill:#333f48;fill-opacity:1;stroke-opacity:1;stroke-width:.35714285714286}.st16,.st17{stroke-width:1}.st16{marker-start:url(#mrkr13-46);stroke:#333f48;stroke-linecap:butt}.st17{fill:#0033a0;stroke:none}.st18{fill:none;fill-rule:evenodd;font-size:12px;overflow:visible;stroke-linecap:square;stroke-miterlimit:3}</style><defs id="Markers"><g id="lend13"><path d="M 3 1 L 0 0 L 3 -1 L 3 1" style="stroke:none"/></g><marker id="mrkr13-46" class="st15" markerUnits="strokeWidth" orient="auto" overflow="visible" refX="8.04"><use transform="scale(2.8)" xlink:href="#lend13"/></marker><marker id="mrkr13-48" class="st15" markerUnits="strokeWidth" orient="auto" overflow="visible" refX="-8.4"><use transform="scale(-2.8,-2.8)" xlink:href="#lend13"/></marker></defs><g><title>Page-1</title><g id="group1029-1" transform="translate(1,-1)"><title>Sheet.1029</title><g id="shape1026-2"><title>Nordic Light Grey.1026</title><rect width="524.409" height="316.488" x="0" y="2" class="st1"/></g><g id="shape1027-4" transform="translate(0.901925,-291.969)"><title>Sheet.1027</title><desc>nRF53 SoC</desc><rect width="150.289" height="12.023" x="0" y="306.465" class="st2"/><text x="4" y="319.68" class="st3">nRF53 SoC</text></g></g><g id="shape106-7" transform="translate(320.432,-38.5742)"><title>Nordic Blue.106</title><rect width="204.977" height="240.087" x="0" y="78.401" class="st4"/></g><g id="shape108-9" transform="translate(326.55,-251.992)"><title>Sheet.108</title><desc>Application core</desc><rect width="149.371" height="21.567" x="0" y="296.921" class="st2"/><text x="4" y="313.1" class="st5">Application core</text></g><g id="shape105-12" transform="translate(1.90192,-38.5742)"><title>Nordic Blue</title><rect width="218.641" height="240.087" x="0" y="78.401" class="st4"/></g><g id="shape107-14" transform="translate(4.92682,-253.559)"><title>Sheet.107</title><desc>Network core</desc><rect width="109.217" height="20" x="0" y="298.488" class="st2"/><text x="4" y="313.89" class="st5">Network core</text></g><g id="shape110-17" transform="translate(238.622,-82.7066)"><title>Nordic Red.110</title><desc>IPC signaling</desc><rect width="66.313" height="27.32" x="0" y="291.168" class="st6"/><text x="7.76" y="307.83" class="st7">IPC signaling</text></g><g id="shape114-20" transform="translate(10.3201,-227.382)"><title>Nordic Middle Grey.114</title><desc>Zephyr integration</desc><rect width="198.055" height="20" x="0" y="298.488" class="st8"/><text x="61.29" y="311.49" class="st7">Zephyr integration</text></g><g id="shape120-23" transform="translate(154.269,-150.977)"><title>Nordic Sun.120</title><desc>OpenAmp</desc><rect width="54.106" height="38.58" x="0" y="279.908" class="st9"/><text x="6.49" y="302.2" class="st10">OpenAmp</text></g><g id="shape109-26" transform="translate(238.622,-116.536)"><title>Nordic Red.221</title><desc>Shared memory area</desc><rect width="66.313" height="38.58" x="0" y="279.908" class="st6"/><text x="18.98" y="296.2" class="st7">Shared <tspan x="5.89" class="st11" dy="1.2em">memory area</tspan></text></g><g id="shape238-30" transform="translate(127.454,-12.1811)"><title>Nordic Red.238</title><desc>Radio 2.4 GHz</desc><rect width="93.768" height="20" x="0" y="298.488" class="st6"/><text x="17.4" y="311.49" class="st7">Radio 2.4 GHz</text></g><g id="shape245-33" transform="translate(10.3201,-194.733)"><title>Nordic Fall.245</title><desc>IEEE 802.15.4 API serialization (Spinel) /radio</desc><rect width="198.055" height="27.472" x="0" y="291.016" class="st12"/><text x="38.11" y="301.75" class="st7">IEEE 802.15.4 API serialization <tspan x="37.27" class="st11" dy="1.2em">(Spinel) /radio</tspan></text></g><g id="shape1000-37" transform="translate(10.3201,-54.6817)"><title>Nordic Lake.1000</title><desc>Multiprotocol Service Layer (MPSL)</desc><rect width="156.153" height="27.32" x="0" y="291.168" class="st13"/><text x="6.78" y="307.83" class="st7">Multiprotocol Service Layer (MPSL)</text></g><g id="shape1002-40" transform="translate(429.457,-100.088)"><title>Dynamic connector.1002</title><path d="M0 326.53 L0 326.89 L0 344.6 L-37.4 344.6" class="st14"/></g><g id="shape1010-49" transform="translate(194.511,-88.7327)"><title>Dynamic connector.1010</title><path d="M-7.09 326.53 L-7.09 326.89 L-7.09 366.64" class="st14"/></g><g id="shape1014-56" transform="translate(329.548,-65.1652)"><title>Dynamic connector.1014</title><path d="M-8.04 318.49 L-8.4 318.49 L-20.56 318.49 L-20.56 287.29 L-24.61 287.29" class="st16"/></g><g id="shape1015-61" transform="translate(329.548,-81.9775)"><title>Dynamic connector.1015</title><path d="M-8.04 318.49 L-8.4 318.49 L-15.58 318.49 L-15.58 264.64 L-24.61 264.64" class="st16"/></g><g id="shape1017-66" transform="translate(208.375,-157.795)"><title>Dynamic connector.1017</title><path d="M8.04 318.49 L8.4 318.49 L19.24 318.49 L19.24 377.47 L30.25 377.47" class="st16"/></g><g id="group1019-71" transform="translate(304.935,-114.21)"><title>Sheet.1019</title></g><g id="shape1020-72" transform="translate(208.375,-179.622)"><title>Dynamic connector.1020</title><path d="M8.04 318.49 L8.4 318.49 L25.02 318.49 L25.02 362.28 L30.25 362.28" class="st16"/></g><g id="shape119-77" transform="translate(329.548,-54.6817)"><title>Nordic Sun</title><desc>OpenAmp</desc><rect width="54.106" height="38.58" x="0" y="279.908" class="st9"/><text x="6.49" y="302.2" class="st10">OpenAmp</text></g><g id="shape111-80" transform="translate(329.548,-222.915)"><title>Nordic Blue.111</title><desc>Application</desc><rect width="188.894" height="20" x="0" y="298.488" class="st17"/><text x="71.41" y="311.49" class="st7">Application</text></g><g id="shape113-83" transform="translate(329.548,-196.089)"><title>Nordic Middle Grey</title><desc>Zephyr integration</desc><rect width="188.894" height="20" x="0" y="298.488" class="st8"/><text x="56.71" y="311.49" class="st7">Zephyr integration</text></g><g id="shape115-86" transform="translate(329.548,-135.116)"><title>Nordic Middle Grey.115</title><desc>Zephyr integration</desc><rect width="188.894" height="20" x="0" y="298.488" class="st8"/><text x="56.71" y="311.49" class="st7">Zephyr integration</text></g><g id="shape118-89" transform="translate(329.548,-161.942)"><title>Nordic Blueslate.118</title><desc>Protocol stack (Thread | Zigbee)</desc><rect width="188.894" height="27.32" x="0" y="291.168" class="st13"/><text x="65.73" y="301.83" class="st7">Protocol stack <tspan x="59.09" class="st11" dy="1.2em">(Thread | Zigbee)</tspan></text></g><g id="shape122-93" transform="translate(329.548,-100.088)"><title>Nordic Fall.122</title><desc>IEEE 802.15.4 API serialization (Spinel) /host</desc><rect width="188.894" height="27.472" x="0" y="291.016" class="st12"/><text x="33.53" y="301.75" class="st7">IEEE 802.15.4 API serialization <tspan x="32.08" class="st11" dy="1.2em">(Spinel) /host</tspan></text></g><g id="group1033-97" transform="translate(10.3201,-88.7327)"><title>Sheet.1033</title><g id="group1032-98"><title>Sheet.1032</title><g id="shape242-99"><title>Nordic Blueslate.242</title><rect width="198.055" height="57.068" x="0" y="261.42" class="st13"/></g><g id="shape1031-101" transform="translate(0,-40.8653)"><title>Sheet.1031</title><desc>nRF IEEE 802.15.4 radio driver</desc><text x="38" y="314.41" class="st7">nRF IEEE 802.15.4 radio driver</text></g></g><g id="shape244-103" transform="translate(29.2701,-5.98665)"><title>Nordic Blueslate.244</title><desc>IEEE 8.02.15.4 PHY</desc><rect width="139.515" height="30.649" x="0" y="287.839" class="st17"/><text x="31.79" y="306.16" class="st7">IEEE 8.02.15.4 PHY</text></g></g></g></svg>