<svg xmlns="http://www.w3.org/2000/svg" xmlns:ev="http://www.w3.org/2001/xml-events" xmlns:xlink="http://www.w3.org/1999/xlink" width="695.433" height="205.984" class="st9" color-interpolation-filters="sRGB" viewBox="0 0 521.575 154.488" xml:space="preserve"><style type="text/css">.st1{fill:#fff;stroke:#00a9ce;stroke-width:.5}.st2,.st3{stroke-linecap:butt}.st2{stroke:#c8ced3;stroke-dasharray:4,2;stroke-width:.5}.st3{fill:#fff;stroke:none;stroke-width:7.2}.st4{fill:#c8ced3;font-family:Arial;font-size:.916672em}.st5,.st6{fill:#00a9ce;stroke:none;stroke-width:1}.st6{fill:#d9e1e2}.st7{fill:#000;font-family:Arial;font-size:.916672em}.st8{fill:none;stroke:none;stroke-width:1}.st9{fill:none;fill-rule:evenodd;font-size:12px;overflow:visible;stroke-linecap:square;stroke-miterlimit:3}</style><g><title>QSPI_XIP</title><g id="shape1020-1" transform="translate(361.417,-11.3386)"><title>Nordic Blue.1020</title><rect width="153.224" height="115.279" x="0" y="39.209" class="st1"/></g><g id="shape1019-3" transform="translate(41.9294,-11.3612)"><title>Nordic Blue.1019</title><rect width="310.157" height="115.279" x="0" y="39.209" class="st1"/></g><g id="shape2-5" transform="translate(148.394,-21.685) rotate(90)"><title>Sheet.2</title><desc>Max 750 px</desc><path d="M0 154.49 L566.93 154.49" class="st2"/><rect width="56.864" height="13.2" x="255.033" y="147.888" class="st3"/><text x="255.03" y="157.79" class="st4">Max 750 px</text></g><g id="shape3-10" transform="translate(-6.09449,-176.173)"><title>Sheet.3</title><desc>Max 700 px</desc><path d="M0 154.49 L524.41 154.49" class="st2"/><rect width="56.864" height="13.2" x="233.773" y="147.888" class="st3"/><text x="233.77" y="157.79" class="st4">Max 700 px</text></g><g id="shape4-15" transform="translate(672.803,-21.685) rotate(90)"><title>Sheet.4</title><path d="M0 154.49 L566.93 154.49" class="st2"/></g><g id="shape5-18" transform="translate(-6.09449,390.756)"><title>Sheet.5</title><path d="M0 154.49 L524.41 154.49" class="st2"/></g><g id="shape1000-21" transform="translate(50.6263,-18.4252)"><title>Nordic Blue.1000</title><rect width="138.354" height="79.19" x="0" y="75.298" class="st5"/></g><g id="shape1001-23" transform="translate(204.876,-18.4252)"><title>Nordic Blue.1001</title><rect width="138.354" height="79.19" x="0" y="75.298" class="st5"/></g><g id="shape1002-25" transform="translate(368.067,-18.4252)"><title>Nordic Blue.1002</title><rect width="138.354" height="79.19" x="0" y="75.298" class="st5"/></g><g id="shape1008-27" transform="translate(56.2956,-52.8067)"><title>Nordic Blueslate.1008</title><desc>mcuboot_primary</desc><rect width="127.55" height="19.843" x="0" y="134.646" class="st6"/><text x="21.29" y="147.87" class="st7">mcuboot_primary</text></g><g id="shape1010-30" transform="translate(211.191,-53.4925)"><title>Nordic Blueslate.1010</title><desc>mcuboot_primary_2</desc><rect width="127.55" height="19.843" x="0" y="134.646" class="st6"/><text x="15.17" y="147.87" class="st7">mcuboot_primary_2</text></g><g id="shape1012-33" transform="translate(211.191,-26.5634)"><title>Nordic Blueslate.1012</title><desc>mcuboot_secondary_2</desc><rect width="127.55" height="19.843" x="0" y="134.646" class="st6"/><text x="8.13" y="147.87" class="st7">mcuboot_secondary_2</text></g><g id="shape1013-36" transform="translate(56.2956,-26.5634)"><title>Nordic Blueslate.1013</title><desc>mcuboot_secondary</desc><rect width="127.55" height="19.843" x="0" y="134.646" class="st6"/><text x="14.24" y="147.87" class="st7">mcuboot_secondary</text></g><g id="shape1004-39" transform="translate(41.947,-97.6151)"><title>Sheet.1004</title><desc>Image 0</desc><rect width="60.673" height="19.843" x="0" y="134.646" class="st8"/><text x="10.46" y="147.87" class="st7">Image 0</text></g><g id="shape1005-42" transform="translate(358.719,-97.6151)"><title>Sheet.1005</title><desc>Image 1</desc><rect width="60.673" height="19.843" x="0" y="134.646" class="st8"/><text x="10.46" y="147.87" class="st7">Image 1</text></g><g id="shape1006-45" transform="translate(195.863,-96.3779)"><title>Sheet.1006</title><desc>Image 2</desc><rect width="60.673" height="19.843" x="0" y="134.646" class="st8"/><text x="10.46" y="147.87" class="st7">Image 2</text></g><g id="shape1014-48" transform="translate(75.9274,-73.7008)"><title>Sheet.1014</title><desc>Internal flash</desc><rect width="87.751" height="19.843" x="0" y="134.646" class="st8"/><text x="12.38" y="147.87" class="st7">Internal flash</text></g><g id="shape1016-51" transform="translate(230.337,-73.335)"><title>Sheet.1016</title><desc>QSPI XIP</desc><rect width="87.751" height="19.843" x="0" y="134.646" class="st8"/><text x="20.34" y="147.87" class="st7">QSPI XIP</text></g><g id="shape1017-54" transform="translate(-7.6593,-52.8067)"><title>Sheet.1017</title><desc>Slot 1</desc><rect width="60.673" height="19.843" x="0" y="134.646" class="st8"/><text x="16.27" y="147.87" class="st7">Slot 1</text></g><g id="shape1018-57" transform="translate(-6.81465,-24.0945)"><title>Sheet.1018</title><desc>Slot 2</desc><rect width="60.673" height="19.843" x="0" y="134.646" class="st8"/><text x="16.27" y="147.87" class="st7">Slot 2</text></g><g id="shape1021-60" transform="translate(133.269,-126.142)"><title>Sheet.1021</title><desc>Application processor</desc><rect width="127.477" height="19.843" x="0" y="134.646" class="st8"/><text x="11.15" y="147.87" class="st7">Application processor</text></g><g id="shape1022-63" transform="translate(389.055,-126.117)"><title>Sheet.1022</title><desc>Network processor</desc><rect width="103.465" height="19.843" x="0" y="134.646" class="st8"/><text x="5.88" y="147.87" class="st7">Network processor</text></g><g id="shape1023-66" transform="translate(372.756,-27.6378)"><title>Nordic Blueslate.1009</title><desc>mcuboot_secondary_1</desc><rect width="127.55" height="19.843" x="0" y="134.646" class="st6"/><text x="8.13" y="147.87" class="st7">mcuboot_secondary_1</text></g><g id="shape1024-69" transform="translate(373.266,-53.5154)"><title>Nordic Blueslate.1011</title><desc>mcuboot_primary_1</desc><rect width="127.55" height="19.843" x="0" y="134.646" class="st6"/><text x="15.17" y="147.87" class="st7">mcuboot_primary_1</text></g><g id="shape1025-72" transform="translate(381.629,-74.4094)"><title>Sheet.1025</title><desc>Network core update</desc><rect width="109.803" height="19.843" x="0" y="134.646" class="st8"/><text x="4.15" y="147.87" class="st7">Network core update</text></g></g></svg>