<svg xmlns="http://www.w3.org/2000/svg" xmlns:ev="http://www.w3.org/2001/xml-events" xmlns:xlink="http://www.w3.org/1999/xlink" width="530.061" height="154.535" class="st13" color-interpolation-filters="sRGB" viewBox="0 0 397.546 115.901" xml:space="preserve"><style type="text/css">.st1{fill:#0033a0;stroke:none;stroke-width:1}.st2{fill:#fff;font-family:Arial;font-size:1.00001em}.st3{font-size:.83333em}.st4{fill:#00a9ce;stroke:none;stroke-width:1}.st5{fill:#fff;font-family:Arial;font-size:.916672em}.st6{fill:#0077c8;stroke:none;stroke-width:1}.st7{font-size:1em}.st8{marker-end:url(#mrkr4-20);marker-start:url(#mrkr4-18);stroke-linecap:butt;stroke-width:1}.st10,.st8,.st9{stroke:#00a9ce}.st9{fill:#00a9ce;fill-opacity:1;stroke-opacity:1;stroke-width:.28409090909091}.st10{stroke-linecap:butt;stroke-width:1.47402}.st11{fill:#00a9ce;font-family:Arial;font-size:.833336em}.st12{stroke:#00a9ce;stroke-linecap:butt;stroke-width:1}.st13{fill:none;fill-rule:evenodd;font-size:12px;overflow:visible;stroke-linecap:square;stroke-miterlimit:3}</style><defs id="Markers"><g id="lend4"><path d="M 2 1 L 0 0 L 2 -1 L 2 1" style="stroke:none"/></g><marker id="mrkr4-18" class="st9" markerUnits="strokeWidth" orient="auto" overflow="visible" refX="6.68"><use transform="scale(3.52)" xlink:href="#lend4"/></marker><marker id="mrkr4-20" class="st9" markerUnits="strokeWidth" orient="auto" overflow="visible" refX="-7.04"><use transform="scale(-3.52,-3.52)" xlink:href="#lend4"/></marker></defs><g><title>Page-1</title><g id="shape5-1" transform="translate(1,-51.3196)"><title>Nordic Blueslate</title><desc>nRF5340 Main MCU</desc><rect width="111.333" height="54.64" x="0" y="61.261" class="st1"/><text x="30.98" y="85.58" class="st2">nRF5340 <tspan x="32.05" class="st3" dy="1.35em">Main MCU</tspan></text></g><g id="shape6-5" transform="translate(146.349,-64.4665)"><title>Nordic Blue</title><desc>RF switch</desc><rect width="70.866" height="28.346" x="0" y="87.555" class="st4"/><text x="11.29" y="105.03" class="st5">RF switch</text></g><g id="shape7-8" transform="translate(251.231,-51.3196)"><title>Nordic Lake</title><desc>nRF21540 RF FEM</desc><rect width="70.866" height="54.64" x="0" y="61.261" class="st6"/><text x="9.75" y="85.28" class="st5">nRF21540<tspan x="14.96" class="st7" dy="1.2em">RF FEM</tspan></text></g><g id="shape8-12" transform="translate(112.333,-85.7264)"><title>Dynamic connector</title><path d="M6.68 122.99 L7.04 122.99 L26.98 122.99" class="st8"/></g><g id="shape9-21" transform="translate(217.215,-71.5532)"><title>Dynamic connector.13</title><path d="M6.68 108.81 L7.04 108.81 L26.98 108.81" class="st8"/></g><g id="shape13-28" transform="translate(335.879,-78.2488)"><title>Antenna</title><desc>ANT1</desc><path d="M18.4 79.72 L18.4 94.88 L18.4 115.9" class="st10"/><path d="M27.17 79.72 L9.62 79.72 L18.4 94.88 L27.17 79.72" class="st10"/><text x="33.71" y="100.47" class="st11">ANT1</text></g><g id="shape14-33" transform="translate(335.879,-8.8)"><title>Antenna.14</title><desc>ANT2</desc><path d="M18.4 79.72 L18.4 94.88 L18.4 115.9" class="st10"/><path d="M27.17 79.72 L9.62 79.72 L18.4 94.88 L27.17 79.72" class="st10"/><text x="33.71" y="100.47" class="st11">ANT2</text></g><g id="shape15-38" transform="translate(322.097,-85.5309)"><title>Dynamic connector.15</title><path d="M0 122.79 L32.18 123.18" class="st12"/></g><g id="shape16-41" transform="translate(354.279,-8.8)"><title>Dynamic connector.16</title><path d="M0 115.9 L-172.5 115.9 L-172.5 60.23" class="st12"/></g></g></svg>