<svg xmlns="http://www.w3.org/2000/svg" xmlns:ev="http://www.w3.org/2001/xml-events" xmlns:xlink="http://www.w3.org/1999/xlink" width="634.313" height="631.932" class="st13" color-interpolation-filters="sRGB" viewBox="0 0 475.735 473.949" xml:space="preserve"><style type="text/css">.st1{fill:#6ad1e3;stroke:none;stroke-width:1}.st2{fill:#fff;font-family:Arial;font-size:.916672em}.st3,.st4{stroke-width:1}.st3{fill:#0077c8;stroke:none}.st4{stroke:#00a9ce;stroke-dasharray:4,2;stroke-linecap:butt}.st5,.st6{stroke:none;stroke-width:1}.st5{fill:#00a9ce;stroke-linecap:butt}.st6{fill:none}.st7{fill:#333f48;font-family:Arial;font-size:.833336em}.st8{font-size:1em}.st10,.st9{stroke:#333f48}.st9{marker-end:url(#mrkr13-35);stroke-linecap:butt;stroke-width:1}.st10{fill:#333f48;fill-opacity:1;stroke-opacity:1;stroke-width:.28409090909091}.st11{fill:#d9e1e2}.st12{stroke:none;stroke-width:1}.st13{fill:none;fill-rule:evenodd;font-size:12px;overflow:visible;stroke-linecap:square;stroke-miterlimit:3}</style><defs id="Markers"><g id="lend13"><path d="M 3 1 L 0 0 L 3 -1 L 3 1" style="stroke:none"/></g><marker id="mrkr13-35" class="st10" markerUnits="strokeWidth" orient="auto" overflow="visible" refX="-10.56"><use transform="scale(-3.52,-3.52)" xlink:href="#lend13"/></marker></defs><g><title>Page-1</title><g id="shape11-1" transform="translate(1,-431.776)"><title>Start/End-point</title><desc>DM CLI</desc><path d="M20.59 473.95 L68.07 473.95 A20.5866 20.5866 -180 0 0 68.07 432.78 L20.59 432.78 A20.5866 20.5866 -180 1 0 20.59 473.95 Z" class="st1"/><text x="25.69" y="456.66" class="st2">DM CLI</text></g><g id="shape12-4" transform="translate(188.869,-431.776)"><title>Start/End-point.12</title><desc>DM SRV 1</desc><path d="M20.59 473.95 L68.07 473.95 A20.5866 20.5866 -180 0 0 68.07 432.78 L20.59 432.78 A20.5866 20.5866 -180 1 0 20.59 473.95 Z" class="st3"/><text x="18.35" y="456.66" class="st2">DM SRV 1</text></g><g id="shape13-7" transform="translate(369.504,-431.776)"><title>Start/End-point.13</title><desc>DM SRV 2</desc><path d="M20.59 473.95 L68.07 473.95 A20.5866 20.5866 -180 0 0 68.07 432.78 L20.59 432.78 A20.5866 20.5866 -180 1 0 20.59 473.95 Z" class="st3"/><text x="18.35" y="456.66" class="st2">DM SRV 2</text></g><g id="shape14-10" transform="translate(45.328,516.123) scale(1,-1)"><title>Lifeline</title><path d="M0 473.95 L0 43.17" class="st4"/></g><g id="shape17-13" transform="translate(233.197,516.123) scale(1,-1)"><title>Lifeline.17</title><path d="M0 473.95 L0 43.17" class="st4"/></g><g id="shape18-16" transform="translate(413.832,516.123) scale(1,-1)"><title>Lifeline.18</title><path d="M0 473.95 L0 43.17" class="st4"/></g><g id="shape19-19" transform="translate(515.677,90.2722) rotate(90)"><title>Activation</title><path d="M0 473.95 L0 466.75 L382.68 466.75 L382.68 473.95 L0 473.95 Z" class="st5"/></g><g id="shape20-21" transform="translate(703.546,99.873) rotate(90)"><title>Activation.20</title><path d="M0 473.95 L0 466.75 L373.08 466.75 L373.08 473.95 L0 473.95 Z" class="st5"/></g><g id="shape21-23" transform="translate(884.181,100.697) rotate(90)"><title>Activation.21</title><path d="M0 473.95 L0 466.75 L372.25 466.75 L372.25 473.95 L0 473.95 Z" class="st5"/></g><g id="shape34-25" transform="translate(56.2981,-369.504)"><title>Sheet.34</title><desc>Measurement_start(&lt;mode&gt; &lt;addr=DM SRV 2&gt; [&lt;TTL&gt; &lt;timeout&gt; &lt;de...</desc><rect width="176.899" height="19.649" x="0" y="454.3" class="st6"/><text x="0" y="442.95" class="st7">Measurement_start(&lt;mode&gt; <tspan x="0" class="st8" dy="1.2em">&lt;addr=DM SRV 2&gt; [&lt;TTL&gt; &lt;timeout&gt; </tspan><tspan x="0" class="st8" dy="1.2em">&lt;delay&gt;])</tspan></text></g><g id="shape37-30" transform="translate(50.5039,-365.675) rotate(0.19051)"><title>Message.right</title><path d="M0 473.95 L170.11 473.95" class="st9"/></g><g id="group40-36" transform="translate(184.494,-323.158)"><title>Object</title><g id="shape41-37" transform="translate(97.4043,0)"><title>Sheet.41</title><path d="M0 473.95 L0 437.95 L0 473.95 Z" class="st11"/></g><g id="shape42-40"><title>Sheet.42</title><path d="M97.4 473.95 L0 473.95 L97.4 473.95 Z" class="st11"/></g><g id="shape43-43"><title>Sheet.43</title><path d="M97.4 473.95 L0 473.95 L97.4 473.95 Z" class="st11"/></g><g id="shape44-46"><title>Sheet.44</title><path d="M97.4 473.95 L0 473.95 L97.4 473.95 Z" class="st11"/></g><g id="shape45-49"><title>Sheet.45</title><desc>Start timeout timer</desc><path d="M97.4 473.95 L97.4 437.95 L0 437.95 L0 473.95 L97.4 473.95 ZM0 473.95 L0 437.95 L0 473.95 ZM97.4 437.95 L97.4 473.95 L97.4 437.95 Z" class="st11"/><path d="M97.4 473.95 L97.4 437.95" class="st12"/><path d="M0 473.95 L0 437.95" class="st12"/><path d="M0 437.95 L97.4 437.95" class="st12"/><path d="M0 473.95 L97.4 473.95" class="st12"/><text x="7.86" y="458.95" class="st7">Start timeout timer</text></g></g><g id="group46-56" transform="translate(172.293,-279.049)"><title>Object.46</title><g id="shape47-57" transform="translate(121.806,0)"><title>Sheet.47</title><path d="M0 473.95 L0 437.95 L0 473.95 Z" class="st11"/></g><g id="shape48-60"><title>Sheet.48</title><path d="M121.81 473.95 L0 473.95 L121.81 473.95 Z" class="st11"/></g><g id="shape49-63"><title>Sheet.49</title><path d="M121.81 473.95 L0 473.95 L121.81 473.95 Z" class="st11"/></g><g id="shape50-66"><title>Sheet.50</title><path d="M121.81 473.95 L0 473.95 L121.81 473.95 Z" class="st11"/></g><g id="shape51-69"><title>Sheet.51</title><desc>Start_reflector(&lt;mode&gt;...</desc><path d="M121.81 473.95 L121.81 437.95 L0 437.95 L0 473.95 L121.81 473.95 ZM0 473.95 L0 437.95 L0 473.95 ZM121.81 437.95 L121.81 473.95 L121.81 437.95 Z" class="st11"/><path d="M121.81 473.95 L121.81 437.95" class="st12"/><path d="M0 473.95 L0 437.95" class="st12"/><path d="M0 437.95 L121.81 437.95" class="st12"/><path d="M0 473.95 L121.81 473.95" class="st12"/><text x="5.32" y="458.95" class="st7">Start_reflector(&lt;mode&gt;...</text></g></g><g id="shape52-76" transform="translate(236.797,-270.552)"><title>Message.right.52</title><path d="M0 473.95 L163.92 473.95" class="st9"/></g><g id="shape53-81" transform="translate(297.247,-271.462)"><title>Sheet.53</title><desc>Sync(&lt;mode&gt; &lt;timeout&gt;)</desc><rect width="121.806" height="19.649" x="0" y="454.3" class="st6"/><text x="0" y="466.95" class="st7">Sync(&lt;mode&gt; &lt;timeout&gt;)</text></g><g id="group54-84" transform="translate(365.13,-225.638)"><title>Object.54</title><g id="shape55-85" transform="translate(97.4043,0)"><title>Sheet.55</title><path d="M0 473.95 L0 437.95 L0 473.95 Z" class="st11"/></g><g id="shape56-88"><title>Sheet.56</title><path d="M97.4 473.95 L0 473.95 L97.4 473.95 Z" class="st11"/></g><g id="shape57-91"><title>Sheet.57</title><path d="M97.4 473.95 L0 473.95 L97.4 473.95 Z" class="st11"/></g><g id="shape58-94"><title>Sheet.58</title><path d="M97.4 473.95 L0 473.95 L97.4 473.95 Z" class="st11"/></g><g id="shape59-97"><title>Sheet.59</title><desc>Start timeout timer</desc><path d="M97.4 473.95 L97.4 437.95 L0 437.95 L0 473.95 L97.4 473.95 ZM0 473.95 L0 437.95 L0 473.95 ZM97.4 437.95 L97.4 473.95 L97.4 437.95 Z" class="st11"/><path d="M97.4 473.95 L97.4 437.95" class="st12"/><path d="M0 473.95 L0 437.95" class="st12"/><path d="M0 437.95 L97.4 437.95" class="st12"/><path d="M0 473.95 L97.4 473.95" class="st12"/><text x="7.86" y="458.95" class="st7">Start timeout timer</text></g></g><g id="group60-104" transform="translate(352.929,-181.305)"><title>Object.60</title><g id="shape61-105" transform="translate(121.806,0)"><title>Sheet.61</title><path d="M0 473.95 L0 437.95 L0 473.95 Z" class="st11"/></g><g id="shape62-108"><title>Sheet.62</title><path d="M121.81 473.95 L0 473.95 L121.81 473.95 Z" class="st11"/></g><g id="shape63-111"><title>Sheet.63</title><path d="M121.81 473.95 L0 473.95 L121.81 473.95 Z" class="st11"/></g><g id="shape64-114"><title>Sheet.64</title><path d="M121.81 473.95 L0 473.95 L121.81 473.95 Z" class="st11"/></g><g id="shape65-117"><title>Sheet.65</title><desc>Start_initiator(&lt;mode&gt;...</desc><path d="M121.81 473.95 L121.81 437.95 L0 437.95 L0 473.95 L121.81 473.95 ZM0 473.95 L0 437.95 L0 473.95 ZM121.81 437.95 L121.81 473.95 L121.81 437.95 Z" class="st11"/><path d="M121.81 473.95 L121.81 437.95" class="st12"/><path d="M0 473.95 L0 437.95" class="st12"/><path d="M0 437.95 L121.81 437.95" class="st12"/><path d="M0 473.95 L121.81 473.95" class="st12"/><text x="7.26" y="458.95" class="st7">Start_initiator(&lt;mode&gt;...</text></g></g><g id="group66-124" transform="translate(192.339,-133.035)"><title>Object.66</title><g id="shape67-125" transform="translate(257.953,0)"><title>Sheet.67</title><path d="M0 473.95 L0 437.95 L0 473.95 Z" class="st11"/></g><g id="shape68-128"><title>Sheet.68</title><path d="M257.95 473.95 L0 473.95 L257.95 473.95 Z" class="st11"/></g><g id="shape69-131"><title>Sheet.69</title><path d="M257.95 473.95 L0 473.95 L257.95 473.95 Z" class="st11"/></g><g id="shape70-134"><title>Sheet.70</title><path d="M257.95 473.95 L0 473.95 L257.95 473.95 Z" class="st11"/></g><g id="shape71-137"><title>Sheet.71</title><desc>Ranging complete</desc><path d="M257.95 473.95 L257.95 437.95 L0 437.95 L0 473.95 L257.95 473.95 ZM0 473.95 L0 437.95 L0 473.95 ZM257.95 437.95 L257.95 473.95 L257.95 437.95 Z" class="st11"/><path d="M257.95 473.95 L257.95 437.95" class="st12"/><path d="M0 473.95 L0 437.95" class="st12"/><path d="M0 437.95 L257.95 437.95" class="st12"/><path d="M0 473.95 L257.95 473.95" class="st12"/><text x="88.67" y="458.95" class="st7">Ranging complete</text></g></g><g id="group72-144" transform="translate(184.494,-86.6884)"><title>Object.72</title><g id="shape73-145" transform="translate(97.4043,0)"><title>Sheet.73</title><path d="M0 473.95 L0 437.95 L0 473.95 Z" class="st11"/></g><g id="shape74-148"><title>Sheet.74</title><path d="M97.4 473.95 L0 473.95 L97.4 473.95 Z" class="st11"/></g><g id="shape75-151"><title>Sheet.75</title><path d="M97.4 473.95 L0 473.95 L97.4 473.95 Z" class="st11"/></g><g id="shape76-154"><title>Sheet.76</title><path d="M97.4 473.95 L0 473.95 L97.4 473.95 Z" class="st11"/></g><g id="shape77-157"><title>Sheet.77</title><desc>Store result</desc><path d="M97.4 473.95 L97.4 437.95 L0 437.95 L0 473.95 L97.4 473.95 ZM0 473.95 L0 437.95 L0 473.95 ZM97.4 437.95 L97.4 473.95 L97.4 437.95 Z" class="st11"/><path d="M97.4 473.95 L97.4 437.95" class="st12"/><path d="M0 473.95 L0 437.95" class="st12"/><path d="M0 437.95 L97.4 437.95" class="st12"/><path d="M0 473.95 L97.4 473.95" class="st12"/><text x="23.14" y="458.95" class="st7">Store result</text></g></g><g id="group78-164" transform="translate(365.13,-84.7645)"><title>Object.78</title><g id="shape79-165" transform="translate(97.4043,0)"><title>Sheet.79</title><path d="M0 473.95 L0 437.95 L0 473.95 Z" class="st11"/></g><g id="shape80-168"><title>Sheet.80</title><path d="M97.4 473.95 L0 473.95 L97.4 473.95 Z" class="st11"/></g><g id="shape81-171"><title>Sheet.81</title><path d="M97.4 473.95 L0 473.95 L97.4 473.95 Z" class="st11"/></g><g id="shape82-174"><title>Sheet.82</title><path d="M97.4 473.95 L0 473.95 L97.4 473.95 Z" class="st11"/></g><g id="shape83-177"><title>Sheet.83</title><desc>Store result</desc><path d="M97.4 473.95 L97.4 437.95 L0 437.95 L0 473.95 L97.4 473.95 ZM0 473.95 L0 437.95 L0 473.95 ZM97.4 437.95 L97.4 473.95 L97.4 437.95 Z" class="st11"/><path d="M97.4 473.95 L97.4 437.95" class="st12"/><path d="M0 473.95 L0 437.95" class="st12"/><path d="M0 437.95 L97.4 437.95" class="st12"/><path d="M0 473.95 L97.4 473.95" class="st12"/><text x="23.14" y="458.95" class="st7">Store result</text></g></g><g id="shape84-184" transform="translate(229.538,887.893) rotate(180)"><title>Message.left</title><path d="M0 473.95 L170.86 473.95" class="st9"/></g><g id="shape85-189" transform="translate(77.6191,-62.0416)"><title>Sheet.85</title><desc>Send_result(&lt;result&gt;)</desc><rect width="121.806" height="19.649" x="0" y="454.3" class="st6"/><text x="0" y="466.95" class="st7">Send_result(&lt;result&gt;)</text></g></g></svg>