<svg xmlns="http://www.w3.org/2000/svg" xmlns:ev="http://www.w3.org/2001/xml-events" xmlns:xlink="http://www.w3.org/1999/xlink" width="638.437" height="447.31" class="st15" color-interpolation-filters="sRGB" viewBox="0 0 478.828 335.483" xml:space="preserve"><style type="text/css">.st1{fill:#d9e1e2}.st1,.st2,.st3,.st4,.st5{stroke:none;stroke-width:1}.st2{fill:#6ad1e3}.st3{fill:#0077c8}.st4{fill:#00a9ce}.st5{fill:none}.st6,.st7{fill:#333f48;font-family:Calibri;font-size:1.16666em}.st7{fill:#fff;font-size:1.00001em}.st8,.st9{fill:#768692;stroke:none;stroke-width:1}.st9{fill:#0033a0}.st10{font-size:1em}.st11,.st12{stroke:#feffff}.st11{marker-end:url(#mrkr13-65);stroke-linecap:butt;stroke-width:1}.st12{fill:#feffff;fill-opacity:1;stroke-opacity:1;stroke-width:.28409090909091}.st13,.st14{stroke:#333f48}.st13{marker-end:url(#mrkr13-96);stroke-linecap:butt;stroke-width:1}.st14{fill:#333f48;fill-opacity:1;stroke-opacity:1;stroke-width:.28409090909091}.st15{fill:none;fill-rule:evenodd;font-size:12px;overflow:visible;stroke-linecap:square;stroke-miterlimit:3}</style><defs id="Markers"><g id="lend13"><path style="stroke:none" d="M 3 1 L 0 0 L 3 -1 L 3 1"/></g><marker id="mrkr13-65" class="st12" markerUnits="strokeWidth" orient="auto" overflow="visible" refX="-10.56"><use transform="scale(-3.52,-3.52)" xlink:href="#lend13"/></marker><marker id="mrkr13-96" class="st14" markerUnits="strokeWidth" orient="auto" overflow="visible" refX="-10.56"><use transform="scale(-3.52,-3.52)" xlink:href="#lend13"/></marker></defs><g><title>Page-1</title><g id="shape3788-1" transform="translate(310.584,-1)"><title>Nordic Sky.3788</title><rect width="167.244" height="332.872" x="0" y="2.611" class="st1"/></g><g id="shape3512-3" transform="translate(1,-1.6106)"><title>Nordic Sky</title><rect width="299.946" height="332.872" x="0" y="2.611" class="st2"/></g><g id="shape3786-5" transform="translate(151.844,-23.5689)"><title>Nordic Lake.3786</title><rect width="126.112" height="265.852" x="0" y="69.63" class="st3"/></g><g id="shape3776-7" transform="translate(19.4534,-94.8996)"><title>Nordic Lake.3776</title><rect width="111.609" height="203.202" x="0" y="132.281" class="st4"/></g><g id="shape3781-9" transform="translate(29.0702,-87.0982)"><title>Nordic Lake.3781</title><rect width="111.609" height="203.202" x="0" y="132.281" class="st3"/></g><g id="shape3782-11" transform="translate(80.0662,-307.677)"><title>Sheet.3782</title><desc>Module with thread</desc><rect width="152" height="20" x="0" y="315.483" class="st5"/><text x="19.1" y="329.68" class="st6">Module with thread</text></g><g id="shape3783-14" transform="translate(318.206,-307.677)"><title>Sheet.3783</title><desc>Module without thread</desc><rect width="152" height="20" x="0" y="315.483" class="st5"/><text x="9.39" y="329.68" class="st6">Module without thread</text></g><g id="shape3784-17" transform="translate(31.0164,-265.652)"><title>Sheet.3784</title><desc>Event handler</desc><rect width="107.717" height="20" x="0" y="315.483" class="st5"/><text x="19.93" y="329.08" class="st7">Event handler</text></g><g id="shape3785-20" transform="translate(187.58,-264.663)"><title>Sheet.3785</title><desc>Thread</desc><rect width="54.64" height="20" x="0" y="315.483" class="st5"/><text x="10.14" y="329.08" class="st7">Thread</text></g><g id="shape3789-23" transform="translate(350.269,-216.591)"><title>Nordic Lake.3789</title><desc>Event</desc><rect width="92.349" height="35.522" x="0" y="299.96" class="st8"/><text x="32.39" y="321.32" class="st7">Event</text></g><g id="shape3790-26" transform="translate(350.269,-160.021)"><title>Nordic Blueslate.3790</title><desc>Message</desc><rect width="92.349" height="35.522" x="0" y="299.96" class="st8"/><text x="24.68" y="321.32" class="st7">Message</text></g><g id="shape3791-29" transform="translate(350.269,-103.45)"><title>Nordic Blueslate.3791</title><desc>Message handler</desc><rect width="92.349" height="35.522" x="0" y="299.96" class="st8"/><text x="4.54" y="321.32" class="st7">Message handler</text></g><g id="shape3792-32" transform="translate(350.269,-46.8794)"><title>Nordic Blueslate.3792</title><desc>Act on message</desc><rect width="92.349" height="35.522" x="0" y="299.96" class="st8"/><text x="7.97" y="321.32" class="st7">Act on message</text></g><g id="group3794-35" transform="translate(168.726,-62.3993)"><title>Sheet.3794</title><g id="shape3513-36" transform="translate(7.99361E-14,-145.161)"><title>Nordic Lake</title><desc>Wait for message</desc><rect width="92.349" height="35.522" x="0" y="299.96" class="st9"/><text x="26.13" y="314.12" class="st7">Wait for <tspan x="25.02" class="st10" dy="1.2em">message</tspan></text></g><g id="shape3777-40" transform="translate(1.59872E-14,-90.9314)"><title>Nordic Blueslate.3777</title><desc>Message handler</desc><rect width="92.349" height="35.522" x="0" y="299.96" class="st9"/><text x="4.54" y="321.32" class="st7">Message handler</text></g><g id="shape3778-43" transform="translate(1.9984E-13,-36.7012)"><title>Nordic Blueslate.3778</title><desc>Act on message based on state</desc><rect width="92.349" height="35.522" x="0" y="299.96" class="st9"/><text x="7.97" y="314.12" class="st7">Act on message <tspan x="10.41" class="st10" dy="1.2em">based on state</tspan></text></g><g id="shape3780-47" transform="translate(1.59872E-13,17.5289)"><title>Nordic Blueslate.3780</title><desc>Update state</desc><rect width="92.349" height="35.522" x="0" y="299.96" class="st9"/><text x="14.57" y="321.32" class="st7">Update state</text></g></g><g id="group3795-50" transform="translate(38.7004,-118.526)"><title>Sheet.3795</title><g id="shape3514-51" transform="translate(7.99361E-15,-98.065)"><title>Nordic Blueslate</title><desc>Event</desc><rect width="92.349" height="35.522" x="0" y="299.96" class="st9"/><text x="32.39" y="321.32" class="st7">Event</text></g><g id="shape3774-54" transform="translate(7.99361E-15,-39.5247)"><title>Nordic Blueslate.3774</title><desc>Message</desc><rect width="92.349" height="35.522" x="0" y="299.96" class="st9"/><text x="24.68" y="321.32" class="st7">Message</text></g><g id="shape3775-57" transform="translate(7.99361E-15,19.0156)"><title>Nordic Blueslate.3775</title><desc>Message queue</desc><rect width="92.349" height="35.522" x="0" y="299.96" class="st9"/><text x="7.9" y="321.32" class="st7">Message queue</text></g></g><g id="shape3796-60" transform="translate(77.788,-158.051)"><title>Dynamic connector</title><path d="M7.09 335.48 L7.09 347.94" class="st11"/></g><g id="shape3797-66" transform="translate(77.788,-216.591)"><title>Dynamic connector.3797</title><path d="M7.09 335.48 L7.09 347.94" class="st11"/></g><g id="shape3798-71" transform="translate(207.813,-99.1006)"><title>Dynamic connector.3798</title><path d="M7.09 335.48 L7.09 343.63" class="st11"/></g><g id="shape3799-76" transform="translate(207.813,-153.331)"><title>Dynamic connector.3799</title><path d="M7.09 335.48 L7.09 343.63" class="st11"/></g><g id="shape3800-81" transform="translate(207.813,-207.561)"><title>Dynamic connector.3800</title><path d="M7.09 335.48 L7.09 343.63" class="st11"/></g><g id="shape3802-86" transform="translate(221.987,-44.8705)"><title>Dynamic connector.3802</title><path d="M-7.09 335.48 L-7.09 344.99 L48.59 344.99 L48.59 120.27 L-7.09 120.27 L-7.09 126.71" class="st11"/></g><g id="shape3803-91" transform="translate(389.356,-216.591)"><title>Dynamic connector.3803</title><path d="M7.09 335.48 L7.09 345.97" class="st13"/></g><g id="shape3804-97" transform="translate(389.356,-160.021)"><title>Dynamic connector.3804</title><path d="M7.09 335.48 L7.09 345.97" class="st13"/></g><g id="shape3805-102" transform="translate(389.356,-103.45)"><title>Dynamic connector.3805</title><path d="M7.09 335.48 L7.09 345.97" class="st13"/></g></g></svg>