<svg xmlns="http://www.w3.org/2000/svg" xmlns:ev="http://www.w3.org/2001/xml-events" xmlns:xlink="http://www.w3.org/1999/xlink" width="697.381" height="270.404" class="st14" color-interpolation-filters="sRGB" viewBox="0 0 523.036 202.803" xml:space="preserve"><style type="text/css">.st1{fill:#00a9ce;stroke:none;stroke-width:1}.st2{fill:#fff;font-family:Calibri;font-size:.833336em}.st3{font-size:1em}.st4{fill:#d9e1e2;stroke:none;stroke-width:1}.st5{fill:#333f48;font-family:Calibri;font-size:.833336em}.st6{fill:#0077c8;stroke:none;stroke-width:1}.st7{fill:#feffff;font-family:Calibri;font-size:.833336em}.st8{fill:#d0df00;stroke:none;stroke-width:1}.st9{fill:#333f48;font-family:Calibri;font-size:.666664em}.st10{fill:#6ad1e3;stroke:none;stroke-width:1}.st11,.st12{stroke:#333f48}.st11{marker-start:url(#mrkr13-30);stroke-linecap:butt;stroke-width:1}.st12{fill:#333f48;fill-opacity:1;stroke-opacity:1;stroke-width:.28409090909091}.st13{fill:none;stroke:none;stroke-width:1}.st14{fill:none;fill-rule:evenodd;font-size:12px;overflow:visible;stroke-linecap:square;stroke-miterlimit:3}</style><defs id="Markers"><g id="lend13"><path d="M 3 1 L 0 0 L 3 -1 L 3 1" style="stroke:none"/></g><marker id="mrkr13-30" class="st12" markerUnits="strokeWidth" orient="auto" overflow="visible" refX="10.2"><use transform="scale(3.52)" xlink:href="#lend13"/></marker></defs><g><title>Page-1</title><g id="shape186-1" transform="translate(235.88,-130.959)"><title>Circle.213</title><desc>Sample data (fill data buffers)</desc><path d="M0 167.38 A35.4219 35.4219 0 0 1 70.84 167.38 A35.4219 35.4219 0 0 1 0 167.38 Z" class="st1"/><text x="10.25" y="158.38" class="st2">Sample data<tspan x="18.72" class="st3" dy="1.2em">(fill data </tspan><tspan x="19.41" class="st3" dy="1.2em">buffers)</tspan></text></g><g id="shape187-6" transform="translate(340.145,-130.959)"><title>Circle.155</title><desc>In connected state?</desc><path d="M0 167.38 A35.4219 35.4219 0 0 1 70.84 167.38 A35.4219 35.4219 0 0 1 0 167.38 Z" class="st4"/><text x="9.01" y="164.38" class="st5">In connected <tspan x="22.92" class="st3" dy="1.2em">state?</tspan></text></g><g id="shape188-10" transform="translate(451.192,-130.959)"><title>Circle.156</title><desc>Publish data (empty data buffers)</desc><path d="M0 167.38 A35.4219 35.4219 0 0 1 70.84 167.38 A35.4219 35.4219 0 0 1 0 167.38 Z" class="st6"/><text x="10.49" y="158.38" class="st7">Publish data <tspan x="10.64" class="st3" dy="1.2em">(empty data </tspan><tspan x="19.41" class="st3" dy="1.2em">buffers)</tspan></text></g><g id="shape189-15" transform="translate(340.145,-1)"><title>Circle.157</title><desc>Start Movement resolution timer and wait for inactivity</desc><path d="M0 167.38 A35.4219 35.4219 0 0 1 70.84 167.38 A35.4219 35.4219 0 0 1 0 167.38 Z" class="st8"/><text x="8.74" y="155.38" class="st9">Start Movement<tspan x="9.13" class="st3" dy="1.2em">resolution timer</tspan><tspan class="st3"> </tspan><tspan x="15.74" class="st3" dy="1.2em">and wait for </tspan><tspan x="20.66" class="st3" dy="1.2em">inactivity</tspan></text></g><g id="shape190-22" transform="translate(1,-130.959)"><title>Circle.158</title><desc>Boot</desc><path d="M0 167.38 A35.4219 35.4219 0 0 1 70.84 167.38 A35.4219 35.4219 0 0 1 0 167.38 Z" class="st10"/><text x="25.75" y="170.38" class="st5">Boot</text></g><g id="shape194-25" transform="translate(101.241,-159.294)"><title>Dynamic connector.162</title><path d="M-10.2 195.72 L-10.56 195.72 L-29.4 195.72" class="st11"/></g><g id="shape197-31" transform="translate(166.006,-40.399)"><title>Sheet.197</title><desc>Timer expires</desc><rect width="75.213" height="15.046" x="0" y="187.757" class="st13"/><text x="10.05" y="199.78" class="st5">Timer expires</text></g><g id="shape198-34" transform="translate(413.865,-173.968)"><title>Sheet.198</title><desc>Yes</desc><rect width="23.963" height="8.391" x="0" y="194.412" class="st13"/><text x="5.1" y="204.01" class="st5">Yes</text></g><g id="shape199-37" transform="translate(375.567,-102.932)"><title>Sheet.199</title><desc>No</desc><rect width="23.963" height="9.796" x="0" y="193.007" class="st13"/><text x="6.12" y="200.91" class="st5">No</text></g><g id="shape200-40" transform="translate(101.241,-130.959)"><title>Circle.200</title><desc>Wait for movement</desc><path d="M0 167.38 A35.4219 35.4219 0 0 1 70.84 167.38 A35.4219 35.4219 0 0 1 0 167.38 Z" class="st4"/><text x="18.72" y="164.38" class="st5">Wait for <tspan x="13.26" class="st3" dy="1.2em">movement</tspan></text></g><g id="shape201-44" transform="translate(235.88,-159.294)"><title>Dynamic connector.201</title><path d="M-10.2 195.72 L-10.56 195.72 L-63.8 195.72" class="st11"/></g><g id="shape202-49" transform="translate(340.145,-159.294)"><title>Dynamic connector.202</title><path d="M-10.2 195.72 L-10.56 195.72 L-33.42 195.72" class="st11"/></g><g id="shape203-54" transform="translate(451.192,-159.294)"><title>Dynamic connector.203</title><path d="M-10.2 195.72 L-10.56 195.72 L-40.2 195.72" class="st11"/></g><g id="shape204-59" transform="translate(368.48,-71.8438)"><title>Dynamic connector.204</title><path d="M7.09 192.6 L7.09 192.24 L7.09 143.69" class="st11"/></g><g id="shape205-64" transform="translate(410.989,-36.4219)"><title>Dynamic connector.205</title><path d="M10.2 202.8 L10.56 202.8 L75.62 202.8 L75.62 108.27" class="st11"/></g><g id="shape206-69" transform="translate(136.663,-130.959)"><title>Dynamic connector.206</title><path d="M0 213 L0 213.36 L0 297.34 L203.48 297.34" class="st11"/></g><g id="shape207-74" transform="translate(169.996,-170.64)"><title>Sheet.207</title><desc>Movement</desc><rect width="60.391" height="15.046" x="0" y="187.757" class="st13"/><text x="7.75" y="199.78" class="st5">Movement</text></g><g id="shape208-77" transform="translate(264.717,-130.959)"><title>Dynamic connector.208</title><path d="M6.69 213 L6.7 213.36 L7.59 297.34" class="st11"/></g><g id="shape209-82" transform="translate(263.045,-91.2017)"><title>Sheet.209</title><desc>Inactivity detected</desc><rect width="75.213" height="15.046" x="0" y="187.757" class="st13"/><text x="19.04" y="188.78" class="st5">Inactivity <tspan x="19.42" class="st3" dy="1.6em">detected</tspan></text></g></g></svg>