<svg xmlns="http://www.w3.org/2000/svg" xmlns:ev="http://www.w3.org/2001/xml-events" xmlns:xlink="http://www.w3.org/1999/xlink" width="699.218" height="219.517" class="st14" color-interpolation-filters="sRGB" viewBox="0 0 524.413 164.638" xml:space="preserve"><style type="text/css">.st1{fill:#0077c8;stroke:none;stroke-width:1}.st2{fill:#fff;font-family:Calibri;font-size:1.16666em}.st3{font-size:1em}.st4,.st5{stroke:#333f48}.st4{marker-start:url(#mrkr4-11);stroke-linecap:butt;stroke-width:1}.st5{fill:#333f48;fill-opacity:1;stroke-opacity:1;stroke-width:.28409090909091}.st6{fill:#00a9ce;stroke:none;stroke-width:1}.st7{fill:#feffff;font-family:Calibri;font-size:.833336em}.st8,.st9{fill:#f58220;stroke:none;stroke-width:1}.st9{fill:none}.st10{fill:#333f48;font-family:Calibri;font-size:.666664em}.st11,.st12,.st13{stroke:#333f48;stroke-width:1}.st11{fill:none}.st12,.st13{stroke-linecap:butt}.st13{marker-end:url(#mrkr4-59)}.st14{fill:none;fill-rule:evenodd;font-size:12px;overflow:visible;stroke-linecap:square;stroke-miterlimit:3}</style><defs id="Markers"><g id="lend4"><path d="M 2 1 L 0 0 L 2 -1 L 2 1" style="stroke:none"/></g><marker id="mrkr4-11" class="st5" markerUnits="strokeWidth" orient="auto" overflow="visible" refX="6.68"><use transform="scale(3.52)" xlink:href="#lend4"/></marker><marker id="mrkr4-59" class="st5" markerUnits="strokeWidth" orient="auto" overflow="visible" refX="-7.04"><use transform="scale(-3.52,-3.52)" xlink:href="#lend4"/></marker></defs><g><title>Page-1</title><g id="shape7-1" transform="translate(190.4,-81.3964)"><title>Nordic Lake</title><desc>Application Event Manager</desc><rect width="136.063" height="54.64" x="0" y="109.998" class="st1"/><text x="35.78" y="133.12" class="st2">Application<tspan x="24.78" class="st3" dy="1.2em">Event </tspan>M<tspan class="st3">anager</tspan></text></g><g id="shape9-6" transform="translate(251.345,-81.3964)"><title>Dynamic connector</title><path d="M7.09 171.32 L7.09 171.68 L7.09 182.39" class="st4"/></g><g id="shape14-12" transform="translate(1,-1)"><title>Box</title><desc>App</desc><rect width="47.544" height="26.929" x="0" y="137.709" class="st6"/><text x="15.63" y="154.17" class="st7">App</text></g><g id="shape15-15" transform="translate(59.4325,-1)"><title>Box.15</title><desc>Data</desc><rect width="47.544" height="26.929" x="0" y="137.709" class="st6"/><text x="14.23" y="154.17" class="st7">Data</text></g><g id="shape16-18" transform="translate(117.865,-1)"><title>Box.16</title><desc>Cloud</desc><rect width="47.544" height="26.929" x="0" y="137.709" class="st6"/><text x="12.07" y="154.17" class="st7">Cloud</text></g><g id="shape17-21" transform="translate(176.298,-1)"><title>Box.17</title><desc>Sensor</desc><rect width="47.544" height="26.929" x="0" y="137.709" class="st6"/><text x="10.02" y="154.17" class="st7">Sensor</text></g><g id="shape18-24" transform="translate(234.73,-1)"><title>Box.18</title><desc>Modem</desc><rect width="47.544" height="26.929" x="0" y="137.709" class="st6"/><text x="7.75" y="154.17" class="st7">Modem</text></g><g id="shape19-27" transform="translate(410.028,-1)"><title>Box.19</title><desc>UI</desc><rect width="47.544" height="26.929" x="0" y="137.709" class="st8"/><text x="19.3" y="154.17" class="st7">UI</text></g><g id="shape20-30" transform="translate(351.595,-1)"><title>Box.20</title><desc>Util</desc><rect width="47.544" height="26.929" x="0" y="137.709" class="st8"/><text x="16.59" y="154.17" class="st7">Util</text></g><g id="shape21-33" transform="translate(293.163,-1)"><title>Box.21</title><desc>GNSS</desc><rect width="47.544" height="26.929" x="0" y="137.709" class="st8"/><text x="15.74" y="154.17" class="st7">GNSS</text></g><g id="shape29-36" transform="translate(414.28,-153.787)"><title>Box.29</title><rect width="25.228" height="5.811" x="0" y="158.827" class="st6"/></g><g id="shape30-38" transform="translate(438.941,-151.236)"><title>Sheet.30</title><desc>Module with thread</desc><rect width="78.236" height="9.638" x="0" y="155" class="st9"/><text x="4" y="162.22" class="st10">Module with thread</text></g><g id="shape31-41" transform="translate(414.28,-142.661)"><title>Box.31</title><rect width="25.228" height="5.811" x="0" y="158.827" class="st8"/></g><g id="shape32-43" transform="translate(438.374,-141.598)"><title>Sheet.32</title><desc>Module without thread</desc><rect width="85.039" height="9.638" x="0" y="155" class="st9"/><text x="4" y="162.22" class="st10">Module without thread</text></g><g id="shape34-46" transform="translate(410.028,-136.709)"><title>Box.34</title><rect width="110.551" height="26.929" x="0" y="137.709" class="st11"/></g><g id="shape35-48" transform="translate(468.46,-1)"><title>Box.35</title><desc>Debug</desc><rect width="47.544" height="26.929" x="0" y="137.709" class="st8"/><text x="10.6" y="154.17" class="st7">Debug</text></g><g id="shape40-51" transform="translate(23.9489,-70.7319)"><title>Dynamic connector.40</title><path d="M0 171.44 L468.85 172.01" class="st12"/></g><g id="shape42-54" transform="translate(76.0061,-63.8571)"><title>Dynamic connector.42</title><path d="M6.97 164.64 L7.15 193.53" class="st13"/></g><g id="shape44-60" transform="translate(134.422,-63.7866)"><title>Dynamic connector.44</title><path d="M6.96 164.64 L7.16 193.46" class="st13"/></g><g id="shape45-65" transform="translate(192.938,-63.7157)"><title>Dynamic connector.45</title><path d="M7.04 164.64 L7.11 193.38" class="st13"/></g><g id="shape46-70" transform="translate(251.38,-63.6452)"><title>Dynamic connector.46</title><path d="M7.05 164.64 L7.11 193.31" class="st13"/></g><g id="shape47-75" transform="translate(309.848,-63.9291)"><title>Dynamic connector.47</title><path d="M7.09 164.64 L7.09 193.6" class="st13"/></g><g id="shape48-80" transform="translate(368.216,-63.504)"><title>Dynamic connector.48</title><path d="M7.02 164.64 L7.13 193.17" class="st13"/></g><g id="shape49-85" transform="translate(426.681,-63.4335)"><title>Dynamic connector.49</title><path d="M7.05 164.64 L7.11 193.1" class="st13"/></g><g id="shape50-90" transform="translate(485.197,-63.0787)"><title>Dynamic connector.50</title><path d="M7.09 164.64 L7.09 192.75" class="st13"/></g><g id="shape53-95" transform="translate(31.5882,-63.4455)"><title>Dynamic connector.53</title><path d="M-7.07 164.64 L-7.1 193.11" class="st13"/></g></g></svg>