<svg xmlns="http://www.w3.org/2000/svg" xmlns:ev="http://www.w3.org/2001/xml-events" xmlns:xlink="http://www.w3.org/1999/xlink" width="558.257" height="545.028" class="st15" color-interpolation-filters="sRGB" viewBox="0 0 418.693 408.772" xml:space="preserve"><style type="text/css">.st1{fill:#f58220;stroke:none;stroke-width:1}.st2{fill:#fff;font-family:Arial;font-size:.916672em}.st3{font-size:1em}.st4,.st5{stroke:#333f48}.st4{marker-end:url(#mrkr4-13);marker-start:url(#mrkr4-11);stroke-linecap:butt;stroke-width:.5}.st5{fill:#333f48;fill-opacity:1;stroke-opacity:1;stroke-width:.16556291390728}.st6{fill:#d0df00;stroke:none;stroke-width:1}.st7{fill:#fff;font-family:Arial;font-size:.666664em}.st8,.st9{fill:#768692;stroke:none;stroke-width:1}.st9{fill:none;stroke:#333f48}.st10,.st11,.st12{stroke:#333f48;stroke-linecap:butt;stroke-width:.5}.st10{marker-start:url(#mrkr4-11)}.st11{marker-end:url(#mrkr4-13)}.st12{marker-end:url(#mrkr4-86);marker-start:url(#mrkr4-11)}.st13{fill:none;stroke:none;stroke-width:1}.st14{fill:#333f48;font-family:Arial;font-size:.666664em}.st15{fill:none;fill-rule:evenodd;font-size:12px;overflow:visible;stroke-linecap:square;stroke-miterlimit:3}</style><defs id="Markers"><g id="lend4"><path style="stroke:none" d="M 2 1 L 0 0 L 2 -1 L 2 1"/></g><marker id="mrkr4-11" class="st5" markerUnits="strokeWidth" orient="auto" overflow="visible" refX="11.36"><use transform="scale(6.04)" xlink:href="#lend4"/></marker><marker id="mrkr4-13" class="st5" markerUnits="strokeWidth" orient="auto" overflow="visible" refX="-12.08"><use transform="scale(-6.04,-6.04)" xlink:href="#lend4"/></marker><marker id="mrkr4-86" class="st5" markerUnits="strokeWidth" orient="auto" overflow="visible" refX="-11.36"><use transform="scale(-6.04,-6.04)" xlink:href="#lend4"/></marker></defs><g><title>Page-1</title><g id="shape1035-1" transform="translate(162.575,-309.268)"><title>Nordic Sun.1035</title><desc>AWS IoT integration</desc><rect width="100.749" height="37.559" x="0" y="371.213" class="st1"/><text x="28.37" y="386.69" class="st2">AWS IoT <tspan x="24.69" class="st3" dy="1.2em">integration</tspan></text></g><g id="shape1040-5" transform="translate(205.863,-153.362)"><title>Dynamic connector.1040</title><path d="M7.09 403.09 L7.09 402.73 L7.09 258.91" class="st4"/></g><g id="shape1041-14" transform="translate(162.575,-115.803)"><title>Nordic Sun.1041</title><desc>AWS IOT library</desc><rect width="100.749" height="37.559" x="0" y="371.213" class="st1"/><text x="10.65" y="393.29" class="st2">AWS IOT library</text></g><g id="shape1067-17" transform="translate(316.944,-210.055)"><title>Nordic Sun.1067</title><desc>Matter</desc><rect width="100.749" height="37.559" x="0" y="371.213" class="st6"/><text x="39.04" y="392.39" class="st7">Matter</text></g><g id="shape1076-20" transform="translate(360.232,-38.5591)"><title>Dynamic connector.1076</title><path d="M7.09 403.09 L7.09 402.73 L7.09 243.32" class="st4"/></g><g id="shape1079-27" transform="translate(3.0663,-115.803)"><title>Nordic Sun.1079</title><desc>JSON library</desc><rect width="100.749" height="37.559" x="0" y="371.213" class="st8"/><text x="27.7" y="392.39" class="st7">JSON library</text></g><g id="shape1080-30" transform="translate(3.89432,-210.055)"><title>Nordic Sun.1080</title><desc>Codec</desc><rect width="100.749" height="37.559" x="0" y="371.213" class="st1"/><text x="34.48" y="393.29" class="st2">Codec</text></g><g id="shape1081-33" transform="translate(46.7683,-153.362)"><title>Dynamic connector.1081</title><path d="M6.76 403.09 L6.76 402.73 L7.41 358.12" class="st4"/></g><g id="shape1083-40" transform="translate(1,-342.575)"><title>Sheet.1083</title><rect width="68.031" height="65.197" x="0" y="343.575" class="st9"/></g><g id="shape1084-42" transform="translate(9.50394,-388.025)"><title>Nordic Sun.1012</title><rect width="14.645" height="14.645" x="0" y="394.127" class="st6"/></g><g id="shape1086-44" transform="translate(9.50394,-350.351)"><title>Nordic Lake.1014</title><rect width="14.645" height="14.645" x="0" y="394.127" class="st1"/></g><g id="shape1088-46" transform="translate(9.50394,-369.364)"><title>Nordic Red.1016</title><rect width="14.645" height="14.645" x="0" y="394.127" class="st8"/></g><g id="shape1094-48" transform="translate(316.944,-309.268)"><title>Nordic Sun.1094</title><desc>Matter sample (light bulb)</desc><rect width="100.749" height="37.559" x="0" y="371.213" class="st6"/><text x="25.03" y="387.59" class="st7">Matter sample<tspan x="31.7" class="st3" dy="1.2em">(light bulb)</tspan></text></g><g id="shape1095-52" transform="translate(316.944,-335.134)"><title>Dynamic connector.1095</title><path d="M-5.68 415.86 L-6.04 415.86 L-47.58 415.86" class="st4"/></g><g id="shape1096-59" transform="translate(316.944,-1)"><title>Nordic Sun.1096</title><desc>Zephyr net</desc><rect width="100.749" height="37.559" x="0" y="371.213" class="st8"/><text x="31.25" y="392.39" class="st7">Zephyr net</text></g><g id="shape1103-62" transform="translate(212.949,-115.803)"><title>Dynamic connector.1103</title><path d="M-0 414.45 L-0 414.81 C1.99 448.63 39.03 450.06 77.35 447.03 C117.66 443.83 159.39 435.7 154.37 486.02" class="st10"/></g><g id="shape1104-67" transform="translate(360.232,-247.614)"><title>Dynamic connector.1104</title><path d="M7.09 403.09 L7.09 402.73 L7.09 353.16" class="st4"/></g><g id="shape1105-74" transform="translate(161.777,-127.85)"><title>Dynamic connector.1105</title><path d="M0 401.69 L-51.89 401.69" class="st11"/></g><g id="shape1106-79" transform="translate(54.269,-247.614)"><title>Dynamic connector.1106</title><path d="M0.02 403.09 L0.02 402.73 C0.17 383.21 1.8 358.27 18.69 344.67 C37.52 329.51 75.29 328.42 102.27 328.34 L102.63 328.34" class="st12"/></g><g id="shape1107-87" transform="translate(4.46456,-390.197)"><title>Sheet.1107</title><desc>Matter</desc><rect width="68.031" height="9.071" x="0" y="399.701" class="st13"/><text x="22.68" y="406.64" class="st14">Matter</text></g><g id="shape1113-90" transform="translate(7.29921,-372.339)"><title>Sheet.1113</title><desc>Zephyr</desc><rect width="68.031" height="9.071" x="0" y="399.701" class="st13"/><text x="21.57" y="406.64" class="st14">Zephyr</text></g><g id="shape1114-93" transform="translate(9.50394,-353.346)"><title>Sheet.1114</title><desc>AWS IoT</desc><rect width="68.031" height="9.071" x="0" y="399.701" class="st13"/><text x="18.01" y="406.64" class="st14">AWS IoT</text></g></g></svg>