<svg xmlns="http://www.w3.org/2000/svg" xmlns:ev="http://www.w3.org/2001/xml-events" xmlns:xlink="http://www.w3.org/1999/xlink" width="863.652" height="510.724" class="st14" color-interpolation-filters="sRGB" viewBox="0 0 647.739 383.043" xml:space="preserve"><style type="text/css">.st1{fill:#fff}.st2{stroke:#000;stroke-linecap:round;stroke-linejoin:round;stroke-width:.24}.st3{fill:#000;font-family:Arial;font-size:1.00001em;font-weight:700}.st4,.st5{stroke:#000}.st4{marker-end:url(#mrkr13-86);stroke-linecap:round;stroke-linejoin:round;stroke-width:.24}.st5{fill:#000;fill-opacity:1;stroke-opacity:1;stroke-width:.08695652173913}.st6{fill:#fff;stroke:none;stroke-linecap:butt;stroke-width:7.2}.st7{fill:#000;font-family:Arial;font-size:.666664em}.st8{marker-start:url(#mrkr13-94);stroke:#000;stroke-linecap:round;stroke-linejoin:round;stroke-width:.24}.st9{fill:#000;font-family:Arial;font-size:.833336em}.st10{font-size:.799995em}.st11{fill:#fff;stroke:none;stroke-linecap:butt}.st12{marker-end:url(#mrkr13-86);marker-start:url(#mrkr10-196);stroke:#000;stroke-linecap:round;stroke-linejoin:round;stroke-width:.24}.st13{fill:#000;fill-opacity:1;stroke:#000;stroke-opacity:1;stroke-width:.057142857142857}.st14{fill:none;fill-rule:evenodd;font-size:12px;overflow:visible;stroke-linecap:square;stroke-miterlimit:3}</style><defs id="Markers"><g id="lend13"><path d="M 3 1 L 0 0 L 3 -1 L 3 1" style="stroke:none"/></g><marker id="mrkr13-86" class="st5" markerUnits="strokeWidth" orient="auto" overflow="visible" refX="-34.5"><use transform="scale(-11.5,-11.5)" xlink:href="#lend13"/></marker><marker id="mrkr13-94" class="st5" markerUnits="strokeWidth" orient="auto" overflow="visible" refX="33"><use transform="scale(11.5)" xlink:href="#lend13"/></marker><g id="lend10"><path d="M 0 0.75 C -0.414214 0.75 -0.75 0.414214 -0.75 0 -0.75 -0.414214 -0.414214 -0.75 0 -0.75 0.414214 -0.75 0.75 -0.414214 0.75 0 0.75 0.414214 0.414214 0.75 0 0.75 Z" style="stroke:none"/></g><marker id="mrkr10-196" class="st13" markerUnits="strokeWidth" orient="auto" overflow="visible" refX="0"><use transform="scale(17.5)" xlink:href="#lend10"/></marker></defs><g><title>engine</title><g id="group1-1" transform="translate(18.7167,-18.12)"><title>Object</title><g id="shape2-2" transform="translate(51.0236,0)"><title>Sheet.2</title><path d="M0 383.04 L0 105.25 L0 383.04 Z" class="st1"/></g><g id="shape3-5"><title>Sheet.3</title><path d="M51.02 383.04 L0 383.04 L51.02 383.04 Z" class="st1"/></g><g id="shape4-8"><title>Sheet.4</title><path d="M51.02 383.04 L0 383.04 L51.02 383.04 Z" class="st1"/></g><g id="shape5-11"><title>Sheet.5</title><path d="M51.02 383.04 L0 383.04 L51.02 383.04 Z" class="st1"/></g><g id="shape6-14"><title>Sheet.6</title><desc>Idle</desc><path d="M51.02 383.04 L51.02 105.25 L0 105.25 L0 383.04 L51.02 383.04 ZM0 383.04 L0 105.25 L0 383.04 ZM51.02 105.25 L51.02 383.04 L51.02 105.25 Z" class="st1"/><path d="M51.02 383.04 L51.02 105.25" class="st2"/><path d="M0 383.04 L0 105.25" class="st2"/><path d="M0 105.25 L51.02 105.25" class="st2"/><path d="M0 383.04 L51.02 383.04" class="st2"/><text x="15.18" y="247.75" class="st3">Idle</text></g></g><g id="group14-21" transform="translate(356.04,-133.406)"><title>Object.14</title><g id="shape15-22" transform="translate(134.22,0)"><title>Sheet.15</title><path d="M0 383.04 L0 333.92 L0 383.04 Z" class="st1"/></g><g id="shape16-25"><title>Sheet.16</title><path d="M134.22 383.04 L0 383.04 L134.22 383.04 Z" class="st1"/></g><g id="shape17-28"><title>Sheet.17</title><path d="M134.22 383.04 L0 383.04 L134.22 383.04 Z" class="st1"/></g><g id="shape18-31"><title>Sheet.18</title><path d="M134.22 383.04 L0 383.04 L134.22 383.04 Z" class="st1"/></g><g id="shape19-34"><title>Sheet.19</title><desc>Transmitter test</desc><path d="M134.22 383.04 L134.22 333.92 L0 333.92 L0 383.04 L134.22 383.04 ZM0 383.04 L0 333.92 L0 383.04 ZM134.22 333.92 L134.22 383.04 L134.22 333.92 Z" class="st1"/><path d="M134.22 383.04 L134.22 333.92" class="st2"/><path d="M0 383.04 L0 333.92" class="st2"/><path d="M0 333.92 L134.22 333.92" class="st2"/><path d="M0 383.04 L134.22 383.04" class="st2"/><text x="21.76" y="362.08" class="st3">Transmitter test</text></g></g><g id="group20-41" transform="translate(356.04,-225.049)"><title>Object.20</title><g id="shape21-42" transform="translate(134.22,0)"><title>Sheet.21</title><path d="M0 383.04 L0 333.92 L0 383.04 Z" class="st1"/></g><g id="shape22-45"><title>Sheet.22</title><path d="M134.22 383.04 L0 383.04 L134.22 383.04 Z" class="st1"/></g><g id="shape23-48"><title>Sheet.23</title><path d="M134.22 383.04 L0 383.04 L134.22 383.04 Z" class="st1"/></g><g id="shape24-51"><title>Sheet.24</title><path d="M134.22 383.04 L0 383.04 L134.22 383.04 Z" class="st1"/></g><g id="shape25-54"><title>Sheet.25</title><desc>Receiver test</desc><path d="M134.22 383.04 L134.22 333.92 L0 333.92 L0 383.04 L134.22 383.04 ZM0 383.04 L0 333.92 L0 383.04 ZM134.22 333.92 L134.22 383.04 L134.22 333.92 Z" class="st1"/><path d="M134.22 383.04 L134.22 333.92" class="st2"/><path d="M0 383.04 L0 333.92" class="st2"/><path d="M0 333.92 L134.22 333.92" class="st2"/><path d="M0 383.04 L134.22 383.04" class="st2"/><text x="29.75" y="362.08" class="st3">Receiver test</text></g></g><g id="group26-61" transform="translate(356.04,-40.7972)"><title>Object.26</title><g id="shape27-62" transform="translate(134.22,0)"><title>Sheet.27</title><path d="M0 383.04 L0 333.92 L0 383.04 Z" class="st1"/></g><g id="shape28-65"><title>Sheet.28</title><path d="M134.22 383.04 L0 383.04 L134.22 383.04 Z" class="st1"/></g><g id="shape29-68"><title>Sheet.29</title><path d="M134.22 383.04 L0 383.04 L134.22 383.04 Z" class="st1"/></g><g id="shape30-71"><title>Sheet.30</title><path d="M134.22 383.04 L0 383.04 L134.22 383.04 Z" class="st1"/></g><g id="shape31-74"><title>Sheet.31</title><desc>Carrier test</desc><path d="M134.22 383.04 L134.22 333.92 L0 333.92 L0 383.04 L134.22 383.04 ZM0 383.04 L0 333.92 L0 383.04 ZM134.22 333.92 L134.22 383.04 L134.22 333.92 Z" class="st1"/><path d="M134.22 383.04 L134.22 333.92" class="st2"/><path d="M0 383.04 L0 333.92" class="st2"/><path d="M0 333.92 L134.22 333.92" class="st2"/><path d="M0 383.04 L134.22 383.04" class="st2"/><text x="35.09" y="362.08" class="st3">Carrier test</text></g></g><g id="shape33-81" transform="translate(107.217,115.474) rotate(-90)"><title>Self-call</title><desc>LE_CMD_TRANSMITTER_TEST</desc><path d="M0 383.04 L0 455.75 L-13.5 455.75 L-13.5 391.32" class="st4"/><rect width="118.683" height="9.6" x="397.423" y="-10.469" class="st6" transform="rotate(90)"/><text x="397.42" y="-3.27" class="st7" transform="rotate(90)">LE_CMD_TRANSMITTER_TEST</text></g><g id="shape38-89" transform="translate(107.229,138.151) rotate(-90)"><title>Self-call.38</title><desc>LE_CMD_RECEIVER_TEST</desc><path d="M0 390.96 L0 391.32 L0 458.16 L-13.5 458.16 L-13.5 383.04" class="st8"/><rect width="102.694" height="9.6" x="397.61" y="17.877" class="st6" transform="rotate(90)"/><text x="397.61" y="25.08" class="st7" transform="rotate(90)">LE_CMD_RECEIVER_TEST</text></g><g id="shape39-97" transform="translate(107.332,206.856) rotate(-90)"><title>Self-call.39</title><desc>LE_CMD_TRANSMITTER_TEST</desc><path d="M0 383.04 L0 455.75 L-13.5 455.75 L-13.5 391.32" class="st4"/><rect width="118.683" height="9.6" x="397.423" y="-10.469" class="st6" transform="rotate(90)"/><text x="397.42" y="-3.27" class="st7" transform="rotate(90)">LE_CMD_TRANSMITTER_TEST</text></g><g id="shape40-104" transform="translate(107.344,229.533) rotate(-90)"><title>Self-call.40</title><desc>LE_CMD_RECEIVER_TEST</desc><path d="M0 390.96 L0 391.32 L0 458.16 L-13.5 458.16 L-13.5 383.04" class="st8"/><rect width="102.694" height="9.6" x="397.61" y="17.877" class="st6" transform="rotate(90)"/><text x="397.61" y="25.08" class="st7" transform="rotate(90)">LE_CMD_RECEIVER_TEST</text></g><g id="shape43-111" transform="translate(107.407,299.726) rotate(-90)"><title>Self-call.43</title><desc>LE_CMD_TRANSMITTER_TEST</desc><path d="M0 383.04 L0 455.75 L-13.5 455.75 L-13.5 391.32" class="st4"/><rect width="118.683" height="9.6" x="397.423" y="-10.469" class="st6" transform="rotate(90)"/><text x="397.42" y="-3.27" class="st7" transform="rotate(90)">LE_CMD_TRANSMITTER_TEST</text></g><g id="shape44-118" transform="translate(107.419,322.403) rotate(-90)"><title>Self-call.44</title><desc>LE_CMD_RECEIVER_TEST</desc><path d="M0 390.96 L0 391.32 L0 458.16 L-13.5 458.16 L-13.5 383.04" class="st8"/><rect width="102.694" height="9.6" x="397.61" y="17.877" class="st6" transform="rotate(90)"/><text x="397.61" y="25.08" class="st7" transform="rotate(90)">LE_CMD_RECEIVER_TEST</text></g><g id="shape45-125" transform="translate(69.7403,-261.892)"><title>Message.right</title><desc>LE_CMD_RECEIVER_TEST</desc><path d="M0 383.04 L278.02 383.04" class="st4"/><rect width="128.37" height="12" x="77.574" y="377.036" class="st6"/><text x="77.57" y="386.04" class="st9">LE_CMD_RECEIVER_TEST</text></g><g id="shape46-132" transform="translate(69.7403,-249.611)"><title>Message.right.46</title><desc>LE_CMD_TEST_END</desc><path d="M7.92 383.04 L8.28 383.04 L286.3 383.04" class="st8"/><rect width="98.36" height="12" x="92.579" y="377.227" class="st6"/><text x="92.58" y="386.23" class="st9">LE_CMD_TEST_END</text></g><g id="shape47-139" transform="translate(69.7403,-237.33)"><title>Message.right.47</title><desc>LE_CMD_RESET</desc><path d="M7.92 383.04 L8.28 383.04 L286.3 383.04" class="st8"/><rect width="79.468" height="12" x="102.025" y="377.227" class="st6"/><text x="102.02" y="386.23" class="st9">LE_CMD_RESET</text></g><g id="shape48-146" transform="translate(69.7403,-171.191)"><title>Message.right.48</title><desc>LE_CMD_TRANSMITTER_TEST, pkt = 0x0F || 0x55 || PRBS9</desc><path d="M0 383.04 L278.02 383.04" class="st4"/><rect width="251.158" height="12" x="16.18" y="377.036" class="st6"/><text x="16.18" y="386.04" class="st9">LE_CMD_TRANSMITTER_TEST<tspan class="st10">, pkt = 0x0F || 0x55 || PRBS9</tspan></text></g><g id="shape49-154" transform="translate(69.7403,-158.91)"><title>Message.right.49</title><desc>LE_CMD_TEST_END</desc><path d="M7.92 383.04 L8.28 383.04 L286.3 383.04" class="st8"/><rect width="98.36" height="12" x="92.579" y="377.227" class="st11"/><text x="92.58" y="386.23" class="st9">LE_CMD_TEST_END</text></g><g id="shape50-161" transform="translate(69.7403,-146.629)"><title>Message.right.50</title><desc>LE_CMD_RESET</desc><path d="M7.92 383.04 L8.28 383.04 L286.3 383.04" class="st8"/><rect width="79.468" height="12" x="102.025" y="377.227" class="st6"/><text x="102.02" y="386.23" class="st9">LE_CMD_RESET</text></g><g id="shape51-168" transform="translate(69.7403,-76.6977)"><title>Message.right.51</title><desc>LE_CMD_TRANSMITTER_TEST, pkt = Vendor Specific</desc><path d="M0 383.04 L278.02 383.04" class="st4"/><rect width="228.62" height="12" x="27.727" y="377.036" class="st6"/><text x="27.73" y="386.04" class="st9">LE_CMD_TRANSMITTER_TEST<tspan class="st10">, pkt = Vendor Specific</tspan></text></g><g id="shape52-176" transform="translate(69.7403,-64.4167)"><title>Message.right.52</title><desc>LE_CMD_TEST_END</desc><path d="M7.92 383.04 L8.28 383.04 L286.3 383.04" class="st8"/><rect width="98.36" height="12" x="92.579" y="377.227" class="st6"/><text x="92.58" y="386.23" class="st9">LE_CMD_TEST_END</text></g><g id="shape53-183" transform="translate(69.7403,-52.1357)"><title>Message.right.53</title><desc>LE_CMD_RESET</desc><path d="M7.92 383.04 L8.28 383.04 L286.3 383.04" class="st8"/><rect width="79.468" height="12" x="102.025" y="377.227" class="st6"/><text x="102.02" y="386.23" class="st9">LE_CMD_RESET</text></g><g id="shape57-190" transform="translate(37.1379,-356.315)"><title>Dynamic connector</title><desc>dtm_init()</desc><path d="M7.08 383.04 L7.09 383.04 L7.09 435.16" class="st12"/><rect width="41.675" height="12" x="-13.747" y="407.239" class="st6"/><text x="-13.75" y="416.24" class="st9">dtm_init()</text></g></g></svg>