<svg xmlns="http://www.w3.org/2000/svg" xmlns:ev="http://www.w3.org/2001/xml-events" xmlns:xlink="http://www.w3.org/1999/xlink" width="369.289" height="429.365" class="st15" color-interpolation-filters="sRGB" viewBox="0 0 276.967 322.024" xml:space="preserve"><style type="text/css">.st1{fill:#00a9ce;stroke:none;stroke-width:1}.st2{fill:#fff;font-family:Arial;font-size:1.16666em}.st3{fill:#0033a0;stroke:none;stroke-width:1}.st4{fill:#fff;font-family:Arial;font-size:1.00001em}.st5{font-size:1em}.st6,.st7{fill:#f58220;stroke:none;stroke-width:1}.st7{fill:#768692}.st8,.st9{stroke:#333f48}.st8{marker-end:url(#mrkr13-23);stroke-linecap:butt;stroke-width:1}.st9{fill:#333f48;fill-opacity:1;stroke-opacity:1;stroke-width:.28409090909091}.st10,.st11{stroke-linecap:butt;stroke-width:1}.st10{marker-start:url(#mrkr13-34);stroke:#333f48}.st11{stroke:#00a9ce}.st12,.st13{fill:#fff;stroke:#000;stroke-width:1}.st13{fill:none;stroke:none}.st14{fill:#000;font-family:Arial;font-size:.666664em}.st15{fill:none;fill-rule:evenodd;font-size:12px;overflow:visible;stroke-linecap:square;stroke-miterlimit:3}</style><defs id="Markers"><g id="lend13"><path d="M 3 1 L 0 0 L 3 -1 L 3 1" style="stroke:none"/></g><marker id="mrkr13-23" class="st9" markerUnits="strokeWidth" orient="auto" overflow="visible" refX="-10.56"><use transform="scale(-3.52,-3.52)" xlink:href="#lend13"/></marker><marker id="mrkr13-34" class="st9" markerUnits="strokeWidth" orient="auto" overflow="visible" refX="10.2"><use transform="scale(3.52)" xlink:href="#lend13"/></marker></defs><g><title>Page-1</title><g id="shape6-1" transform="translate(1,-201.073)"><title>Nordic Blue</title><desc>Application Event Manager</desc><rect width="271.29" height="54.64" x="0" y="267.383" class="st1"/><text x="51.98" y="298.9" class="st2">Application Event Manager</text></g><g id="shape9-4" transform="translate(1,-93.7334)"><title>Nordic Blue.9</title><desc>LEDs module</desc><rect width="72.864" height="54.64" x="0" y="267.383" class="st3"/><text x="21.76" y="291.1" class="st4">LEDs <tspan x="16.75" class="st5" dy="1.2em">module</tspan></text></g><g id="shape10-8" transform="translate(181.581,-93.7334)"><title>Nordic Blue.10</title><desc>led_state module</desc><rect width="90.709" height="54.64" x="0" y="267.383" class="st6"/><text x="21" y="291.1" class="st4">led_state <tspan x="25.68" class="st5" dy="1.2em">module</tspan></text></g><g id="shape12-12" transform="translate(1,-46.9757)"><title>Nordic Blue.12</title><desc>PWM driver</desc><rect width="72.864" height="31.963" x="0" y="290.061" class="st1"/><text x="5.1" y="309.64" class="st4">PWM driver</text></g><g id="shape13-15" transform="translate(2.67296,-1)"><title>Nordic Blue.13</title><desc>Hardware</desc><rect width="271.29" height="31.963" x="0" y="290.061" class="st7"/><text x="105.3" y="310.24" class="st2">Hardware</text></g><g id="shape25-18" transform="translate(20.7828,-148.374)"><title>Dynamic connector.25</title><path d="M7.02 322.02 L7.13 279.88" class="st8"/></g><g id="shape27-24" transform="translate(55.9982,-201.073)"><title>Dynamic connector.27</title><path d="M-7.09 322.02 L-7.09 364.16" class="st8"/></g><g id="shape28-29" transform="translate(222.998,-201.073)"><title>Dynamic connector.28</title><path d="M-7.02 332.22 L-7.02 332.58 L-7.19 374.72" class="st10"/></g><g id="shape29-35" transform="translate(246.841,-148.374)"><title>Dynamic connector.29</title><path d="M-7.04 311.82 L-7.04 311.46 L-7.16 269.32" class="st10"/></g><g id="shape33-40" transform="translate(30.3456,-93.7334)"><title>Dynamic connector.33</title><path d="M7.09 322.02 L7.09 336.82" class="st11"/></g><g id="shape45-43" transform="translate(91.2904,-93.7334)"><title>Nordic Blue.45</title><desc>Button module</desc><rect width="72.864" height="54.64" x="0" y="267.383" class="st3"/><text x="19.09" y="291.1" class="st4">Button <tspan x="16.75" class="st5" dy="1.2em">module</tspan></text></g><g id="shape61-47" transform="translate(129.77,-201.073)"><title>Dynamic connector.61</title><path d="M6.87 322.02 L7.21 364.16" class="st8"/></g><g id="shape72-52" transform="translate(91.2904,-46.9757)"><title>Nordic Blue.72</title><desc>GPIO driver</desc><rect width="72.864" height="31.963" x="0" y="290.061" class="st1"/><text x="4.76" y="309.64" class="st4">GPIO driver</text></g><g id="shape73-55" transform="translate(120.636,-78.9387)"><title>Dynamic connector.73</title><path d="M7.09 322.02 L7.09 307.23" class="st11"/></g><g id="shape74-58" transform="translate(139.904,-266.032)"><title>Sheet.74</title><rect width="136.063" height="54.64" x="0" y="267.383" class="st12"/></g><g id="shape75-60" transform="translate(144.156,-295.702)"><title>Nordic Blue.75</title><rect width="25.512" height="7.869" x="0" y="314.155" class="st6"/></g><g id="shape76-62" transform="translate(144.156,-283.039)"><title>Nordic Blue.76</title><rect width="25.512" height="7.869" x="0" y="314.155" class="st1"/></g><g id="shape79-64" transform="translate(169.667,-279.037)"><title>Sheet.79</title><desc>Other NCS components</desc><rect width="106.299" height="15.874" x="0" y="306.15" class="st13"/><text x="4" y="316.49" class="st14">Other NCS components</text></g><g id="shape82-67" transform="translate(164.423,-266.882)"><title>Dynamic connector.82</title><path d="M0 314.94 L-4.75 314.94" class="st8"/></g><g id="shape83-72" transform="translate(169.667,-292.11)"><title>Sheet.83</title><desc>Custom module</desc><rect width="106.299" height="15.874" x="0" y="306.15" class="st13"/><text x="4" y="316.49" class="st14">Custom module</text></g><g id="shape84-75" transform="translate(169.667,-266.032)"><title>Sheet.84</title><desc>Events</desc><rect width="106.299" height="15.874" x="0" y="306.15" class="st13"/><text x="4" y="316.49" class="st14">Events</text></g><g id="shape86-78" transform="translate(144.156,-308.741)"><title>Nordic Blue.86</title><rect width="25.512" height="7.869" x="0" y="314.155" class="st3"/></g><g id="shape87-80" transform="translate(169.667,-305.15)"><title>Sheet.87</title><desc>CAF modules and events</desc><rect width="106.299" height="15.874" x="0" y="306.15" class="st13"/><text x="4" y="316.49" class="st14">CAF modules and events</text></g><g id="shape90-83" transform="translate(134.805,-47.056)"><title>Dynamic connector</title><path d="M-7.08 322.1 L-7.09 336.12" class="st11"/></g><g id="shape91-86" transform="translate(44.5183,-47.056)"><title>Dynamic connector.91</title><path d="M-7.09 322.1 L-7.09 336.12" class="st11"/></g><g id="shape92-89" transform="translate(108.439,-148.374)"><title>Dynamic connector.92</title><path d="M7.09 322.02 L7.09 279.88" class="st8"/></g></g></svg>