<svg xmlns="http://www.w3.org/2000/svg" xmlns:ev="http://www.w3.org/2001/xml-events" xmlns:xlink="http://www.w3.org/1999/xlink" width="763.016" height="739.234" class="st20" color-interpolation-filters="sRGB" viewBox="0 0 572.262 554.425" xml:space="preserve"><style type="text/css">.st1,.st2{fill:#d9e1e2;stroke:none;stroke-width:1}.st2{fill:#00a9ce;marker-end:url(#mrkr4-8);marker-start:url(#mrkr4-6)}.st3{fill:#feffff;fill-opacity:1;stroke:#feffff;stroke-opacity:1;stroke-width:.28409090909091}.st4{fill:#fff;font-family:Arial;font-size:.666664em}.st5{font-size:1em}.st6{fill:#0033a0;marker-end:url(#mrkr4-8);marker-start:url(#mrkr4-6);stroke:none;stroke-width:1}.st7{fill:#333f48}.st10,.st7,.st8,.st9{stroke:none;stroke-width:1}.st8{fill:#768692;marker-end:url(#mrkr4-8);marker-start:url(#mrkr4-6)}.st9{fill:#00a9ce}.st10{fill:#768692}.st11,.st12{stroke:#333f48}.st11{marker-end:url(#mrkr4-90);marker-start:url(#mrkr4-88);stroke-linecap:butt;stroke-width:1}.st12{fill:#333f48;fill-opacity:1;stroke-opacity:1;stroke-width:.28409090909091}.st13,.st14{fill:none;stroke:#768692;stroke-width:1}.st14{stroke:none}.st15{fill:#333f48;font-family:Arial;font-size:.666664em}.st16,.st17{stroke:#768692}.st16{fill:none;stroke-dasharray:7,5;stroke-width:1}.st17{fill:#768692;fill-opacity:1;stroke-opacity:1;stroke-width:.28409090909091}.st18{fill:none;marker-end:url(#mrkr4-8);marker-start:url(#mrkr4-6);stroke:none;stroke-width:1}.st19{fill:#768692;font-family:Arial;font-size:.666664em}.st20{fill:none;fill-rule:evenodd;font-size:12px;overflow:visible;stroke-linecap:square;stroke-miterlimit:3}</style><defs id="Markers"><g id="lend4"><path style="stroke:none" d="M 2 1 L 0 0 L 2 -1 L 2 1"/></g><marker id="mrkr4-6" class="st3" markerUnits="strokeWidth" orient="auto" overflow="visible" refX="7.04"><use transform="scale(3.52)" xlink:href="#lend4"/></marker><marker id="mrkr4-8" class="st3" markerUnits="strokeWidth" orient="auto" overflow="visible" refX="-7.04"><use transform="scale(-3.52,-3.52)" xlink:href="#lend4"/></marker><marker id="mrkr4-88" class="st12" markerUnits="strokeWidth" orient="auto" overflow="visible" refX="6.68"><use transform="scale(3.52)" xlink:href="#lend4"/></marker><marker id="mrkr4-90" class="st12" markerUnits="strokeWidth" orient="auto" overflow="visible" refX="-7.04"><use transform="scale(-3.52,-3.52)" xlink:href="#lend4"/></marker><marker id="mrkr4-158" class="st17" markerUnits="strokeWidth" orient="auto" overflow="visible" refX="7.04"><use transform="scale(3.52)" xlink:href="#lend4"/></marker><marker id="mrkr4-160" class="st17" markerUnits="strokeWidth" orient="auto" overflow="visible" refX="-7.04"><use transform="scale(-3.52,-3.52)" xlink:href="#lend4"/></marker></defs><g><title>Page-1</title><g id="shape99-1" transform="translate(165.846,-486.416)"><title>Sheet.99</title><rect width="196.421" height="49.833" x="0" y="504.592" class="st1"/></g><g id="shape104-3" transform="translate(196.759,-158.646)"><title>Nordic Blue.139</title><desc>CAF Click detector</desc><rect width="47.492" height="32.158" x="0" y="522.267" class="st2"/><text x="5.97" y="535.95" class="st4">CAF <tspan class="st5">Click </tspan><tspan x="9.29" class="st5" dy="1.2em">detector</tspan></text></g><g id="shape106-12" transform="translate(170.375,-278.439)"><title>Nordic Blueslate.142</title><desc>Application Event Manager</desc><rect width="78.595" height="31.562" x="0" y="522.863" class="st6"/><text x="19.73" y="536.24" class="st4">Application<tspan x="12.17" class="st5" dy="1.2em">Event Manager</tspan></text></g><g id="shape111-18" transform="translate(54.2758,-46.0494)"><title>Nordic Middle Grey.154</title><desc>Edge Impulse C++ library</desc><rect width="61.051" height="28.295" x="0" y="526.13" class="st7"/><text x="6.07" y="537.88" class="st4">Edge Impulse <tspan x="10.96" class="st5" dy="1.2em">C++ library</tspan></text></g><g id="shape112-22" transform="translate(63.0069,-104.247)"><title>Nordic Middle Grey.155</title><desc>EI wrapper</desc><rect width="43.589" height="25.048" x="0" y="529.377" class="st2"/><text x="18.02" y="539.5" class="st4">EI <tspan x="7.34" class="st5" dy="1.2em">wrapper</tspan></text></g><g id="shape113-28" transform="translate(146.977,-158.646)"><title>Nordic Blue.160</title><desc>CAF Buttons</desc><rect width="47.492" height="32.158" x="0" y="522.267" class="st2"/><text x="15.75" y="535.95" class="st4">CAF <tspan x="10.18" class="st5" dy="1.2em">Buttons</tspan></text></g><g id="shape116-34" transform="translate(154.419,-104.247)"><title>Nordic Blue.186</title><desc>GPIO driver</desc><rect width="31.912" height="25.048" x="0" y="529.377" class="st8"/><text x="5.95" y="539.5" class="st4">GPIO <tspan x="5.95" class="st5" dy="1.2em">driver</tspan></text></g><g id="shape117-40" transform="translate(130.768,-357.742)"><title>Nordic Blue.198</title><desc>EI data forwarder</desc><rect width="47.492" height="25.048" x="0" y="529.377" class="st2"/><text x="11.07" y="539.5" class="st4">EI data <tspan x="6.85" class="st5" dy="1.2em">forwarder</tspan></text></g><g id="shape120-46" transform="translate(130.768,-404.542)"><title>Nordic Blue.201</title><desc>UART driver</desc><rect width="47.492" height="25.048" x="0" y="529.377" class="st8"/><text x="12.86" y="539.5" class="st4">UART <tspan x="13.74" class="st5" dy="1.2em">driver</tspan></text></g><g id="shape121-52" transform="translate(183.892,-404.542)"><title>Nordic Blue.202</title><desc>NUS</desc><rect width="47.492" height="25.048" x="0" y="529.377" class="st2"/><text x="15.3" y="544.3" class="st4">NUS</text></g><g id="shape122-57" transform="translate(171.082,-505.269)"><title>Nordic Blue.203</title><desc>Nordic proprietary Bluetooth® LE Link layer</desc><rect width="90.589" height="28.429" x="0" y="525.996" class="st9"/><text x="13.51" y="533.01" class="st4">Nordic proprietary <tspan x="10.99" class="st5" dy="1.2em">Bluetooth® LE Link </tspan><tspan x="36.62" class="st5" dy="1.2em">layer</tspan></text></g><g id="shape123-62" transform="translate(265.34,-505.269)"><title>Nordic Blue.205</title><desc>Zephyr SW Bluetooth® LE Link layer</desc><rect width="90.589" height="28.429" x="0" y="525.996" class="st10"/><text x="25.29" y="533.01" class="st4">Zephyr SW<tspan x="10.99" class="st5" dy="1.2em">Bluetooth® LE Link </tspan><tspan x="36.62" class="st5" dy="1.2em">layer</tspan></text></g><g id="shape124-67" transform="translate(171.082,-491.286)"><title>Nordic Blue.206</title><desc>Host layer</desc><rect width="184.846" height="9.247" x="0" y="545.178" class="st10"/><text x="74.42" y="552.2" class="st4">Host layer</text></g><g id="shape125-70" transform="translate(13.9351,-104.247)"><title>Nordic Middle Grey.209</title><desc>Sensor simulator</desc><rect width="43.589" height="25.048" x="0" y="529.377" class="st2"/><text x="9.12" y="539.5" class="st4">Sensor <tspan x="5.57" class="st5" dy="1.2em">simulator</tspan></text></g><g id="shape126-76" transform="translate(110.117,-104.247)"><title>Nordic Middle Grey.210</title><desc>LED driver</desc><rect width="31.912" height="25.048" x="0" y="529.377" class="st8"/><text x="8.17" y="539.5" class="st4">LED <tspan x="5.95" class="st5" dy="1.2em">driver</tspan></text></g><g id="shape128-82" transform="translate(178.26,-370.266)"><title>Dynamic connector.96</title><path d="M6.68 554.43 L7.04 554.43 L29.38 554.43 L29.38 527.19" class="st11"/></g><g id="shape138-91" transform="translate(77.7146,-74.3442)"><title>Dynamic connector.227</title><path d="M7.09 547.75 L7.09 547.39 L7.09 531.56" class="st11"/></g><g id="group141-98" transform="translate(13.5431,-490.616)"><title>Sheet.141</title><g id="shape142-99"><title>Nordic Light Grey.2333</title><rect width="78.084" height="39.853" x="0" y="514.572" class="st13"/></g><g id="shape143-101" transform="translate(4.74791,-26.4224)"><title>Nordic Blue.1617</title><rect width="15.003" height="9.357" x="0" y="545.069" class="st9"/></g><g id="shape144-103" transform="translate(19.7505,-26.4224)"><title>Sheet.144</title><desc>NCS</desc><rect width="52.75" height="9.357" x="0" y="545.069" class="st14"/><text x="4" y="552.15" class="st15">NCS</text></g><g id="shape145-106" transform="translate(4.74791,-15.2485)"><title>Nordic Blue.1618</title><rect width="15.003" height="9.357" x="0" y="545.069" class="st10"/></g><g id="shape146-108" transform="translate(19.7505,-15.2485)"><title>Sheet.146</title><desc>Zephyr</desc><rect width="52.75" height="9.357" x="0" y="545.069" class="st14"/><text x="4" y="552.15" class="st15">Zephyr</text></g><g id="shape147-111" transform="translate(4.74791,-4.07451)"><title>Nordic Blue.2341</title><rect width="15.003" height="9.357" x="0" y="545.069" class="st7"/></g><g id="shape148-113" transform="translate(19.7505,-4.07451)"><title>Sheet.148</title><desc>Other</desc><rect width="52.75" height="9.357" x="0" y="545.069" class="st14"/><text x="4" y="552.15" class="st15">Other</text></g></g><g id="shape149-116" transform="translate(246.89,-158.646)"><title>Nordic Blue.125</title><desc>CAF Power Manager</desc><rect width="46.843" height="32.158" x="0" y="522.267" class="st2"/><text x="15.42" y="531.15" class="st4">CAF <tspan x="12.08" class="st5" dy="1.2em">Power </tspan><tspan x="7.63" class="st5" dy="1.2em">Manager</tspan></text></g><g id="shape151-123" transform="translate(248.328,-104.247)"><title>Nordic Blue.2193</title><desc>OS power mgmt</desc><rect width="43.589" height="25.048" x="0" y="529.377" class="st8"/><text x="4.01" y="539.5" class="st4">OS power <tspan x="11.79" class="st5" dy="1.2em">mgmt</tspan></text></g><g id="shape152-129" transform="translate(20.4382,-357.151)"><title>Nordic Blue.2192</title><desc>USB State</desc><rect width="31.912" height="25.048" x="0" y="529.377" class="st2"/><text x="7.73" y="539.5" class="st4">USB <tspan x="6.62" class="st5" dy="1.2em">State</tspan></text></g><g id="shape153-135" transform="translate(20.4382,-403.883)"><title>Nordic Blue.2195</title><desc>USB stack</desc><rect width="31.912" height="26.366" x="0" y="528.059" class="st8"/><text x="7.73" y="538.84" class="st4">USB <tspan x="6.62" class="st5" dy="1.2em">stack</tspan></text></g><g id="shape156-141" transform="translate(29.3074,-382.199)"><title>Dynamic connector.137</title><path d="M7.09 547.75 L7.09 547.39 L7.09 539.78" class="st11"/></g><g id="shape157-148" transform="translate(270.311,-190.805)"><title>Dynamic connector</title><path d="M0 547.75 L0 547.39 L0 517.67 L-60.64 517.67 L-60.64 473.83" class="st11"/></g><g id="shape301-155" transform="translate(215.248,-348.745)"><title>Nordic Blue.2345</title><path d="M0 554.43 L147.02 554.43 L147.02 511.38 L0 511.38 L0 554.43 Z" class="st16"/></g><g id="shape302-161" transform="translate(209.455,-389.242)"><title>Sheet.302</title><desc>Bluetooth® LE</desc><rect width="64.911" height="14.917" x="0" y="539.508" class="st18"/><text x="6.6" y="549.37" class="st19">B<tspan class="st5">luetooth® </tspan>LE</text></g><g id="shape1000-167" transform="translate(20.1659,-451.933)"><title>Nordic Blue.1000</title><desc>USB driver</desc><rect width="31.912" height="26.366" x="0" y="528.059" class="st8"/><text x="7.73" y="538.84" class="st4">USB <tspan x="5.95" class="st5" dy="1.2em">driver</tspan></text></g><g id="shape1002-173" transform="translate(29.1713,-430.249)"><title>Dynamic connector.1002</title><path d="M7.09 547.75 L7.09 547.39 L7.09 539.78" class="st11"/></g><g id="shape1003-180" transform="translate(36.394,-357.151)"><title>Dynamic connector.1003</title><path d="M0 561.11 L0 561.47 L0 572.8 L173.28 572.8 L173.28 594.54" class="st11"/></g><g id="shape1004-187" transform="translate(57.2147,-357.151)"><title>Nordic Blue.1004</title><desc>LED State</desc><rect width="31.912" height="25.048" x="0" y="529.377" class="st2"/><text x="8.17" y="539.5" class="st4">LED<tspan class="st5"> </tspan><tspan x="6.62" class="st5" dy="1.2em">State</tspan></text></g><g id="shape1006-194" transform="translate(93.9912,-357.742)"><title>Nordic Blue.1006</title><desc>ML State</desc><rect width="31.912" height="25.048" x="0" y="529.377" class="st2"/><text x="10.4" y="539.5" class="st4">ML<tspan class="st5"> </tspan><tspan x="6.62" class="st5" dy="1.2em">State</tspan></text></g><g id="shape1010-201" transform="translate(183.892,-437.5)"><title>Nordic Blue.1010</title><desc>NSMS</desc><rect width="47.492" height="25.048" x="0" y="529.377" class="st2"/><text x="12.19" y="544.3" class="st4">NSMS</text></g><g id="shape1011-206" transform="translate(109.947,-382.79)"><title>Dynamic connector.1011</title><path d="M0 547.75 L0 547.39 L0 487.19 L66.91 487.19" class="st11"/></g><g id="shape1012-213" transform="translate(219.117,-357.742)"><title>Nordic Blue.1012</title><desc>CAF advertising</desc><rect width="50.373" height="25.048" x="0" y="529.377" class="st2"/><text x="17.19" y="539.5" class="st4">CAF <tspan x="5.84" class="st5" dy="1.2em">advertising</tspan></text></g><g id="shape1014-219" transform="translate(73.1706,-357.151)"><title>Dynamic connector.1014</title><path d="M0 561.11 L0 561.47 L0 572.8 L136.5 572.8 L136.5 594.54" class="st11"/></g><g id="shape1016-226" transform="translate(154.514,-357.742)"><title>Dynamic connector.1016</title><path d="M0 561.11 L0 561.47 L0 573.43 L55.16 573.43 L55.16 595.13" class="st11"/></g><g id="shape1018-233" transform="translate(274.366,-357.742)"><title>Nordic Blue.1018</title><desc>CAF State</desc><rect width="38.698" height="25.048" x="0" y="529.377" class="st2"/><text x="11.35" y="539.5" class="st4">CAF <tspan x="10.01" class="st5" dy="1.2em">State</tspan></text></g><g id="shape1019-239" transform="translate(319.688,-357.742)"><title>Nordic Blue.1019</title><desc>CAF SMP</desc><rect width="38.698" height="25.048" x="0" y="529.377" class="st2"/><text x="11.35" y="539.5" class="st4">CAF <tspan x="10.68" class="st5" dy="1.2em">SMP</tspan></text></g><g id="shape1020-245" transform="translate(317.018,-425.833)"><title>Nordic Blue.1020</title><desc>SMP Bluetooth</desc><rect width="44.036" height="25.048" x="0" y="529.377" class="st8"/><text x="13.35" y="539.5" class="st4">SMP <tspan x="5.12" class="st5" dy="1.2em">Bluetooth</tspan></text></g><g id="shape1021-251" transform="translate(200.05,-462.548)"><title>Dynamic connector.1021</title><path d="M7.05 547.75 L7.05 547.39 L7.12 537.6" class="st11"/></g><g id="shape1022-258" transform="translate(230.927,-417.066)"><title>Dynamic connector.1022</title><path d="M7.14 554.43 L7.5 554.43 L13.72 554.43 L13.72 492.12" class="st11"/></g><g id="shape1023-265" transform="translate(298.986,-391.788)"><title>Dynamic connector.1023</title><path d="M-6.72 547.75 L-6.72 547.39 L-7.45 466.84" class="st11"/></g><g id="shape1024-272" transform="translate(346.123,-450.881)"><title>Dynamic connector.1024</title><path d="M-7.09 547.75 L-7.09 547.39 L-7.09 525.93" class="st11"/></g><g id="shape1025-279" transform="translate(331.639,-425.833)"><title>Dynamic connector.1025</title><path d="M6.87 561.1 L6.88 561.46 L7.3 590.43" class="st11"/></g><g id="shape1026-286" transform="translate(12.648,-157.857)"><title>Nordic Blue.1026</title><desc>Sensor Simulation Control</desc><rect width="47.492" height="33.477" x="0" y="520.948" class="st2"/><text x="11.07" y="530.49" class="st4">Sensor <tspan x="5.07" class="st5" dy="1.2em">Simulation </tspan><tspan x="10.85" class="st5" dy="1.2em">Control</tspan></text></g><g id="shape1028-293" transform="translate(69.0247,-158.646)"><title>Nordic Blue.1028</title><desc>ML runner</desc><rect width="31.912" height="32.158" x="0" y="522.267" class="st2"/><text x="10.4" y="535.95" class="st4">ML <tspan x="4.39" class="st5" dy="1.2em">runner</tspan></text></g><g id="shape1029-299" transform="translate(109.947,-158.646)"><title>Nordic Blue.1029</title><desc>CAF LEDs</desc><rect width="31.912" height="32.158" x="0" y="522.267" class="st2"/><text x="7.96" y="535.95" class="st4">CAF <tspan x="6.17" class="st5" dy="1.2em">LEDs</tspan></text></g><g id="shape1034-305" transform="translate(301.177,-219.938)"><title>Nordic Blue.1034</title><desc>IPC service</desc><rect width="47.492" height="25.048" x="0" y="529.377" class="st8"/><text x="17.08" y="539.5" class="st4">IPC <tspan x="11.08" class="st5" dy="1.2em">service</tspan></text></g><g id="shape1036-311" transform="translate(396.26,-277.389)"><title>Nordic Blueslate.1036</title><desc>Application Event Manager Proxy</desc><rect width="64.911" height="33.933" x="0" y="520.492" class="st6"/><text x="12.89" y="530.26" class="st4">Application<tspan x="5.33" class="st5" dy="1.2em">Event Manager</tspan><tspan class="st5"> </tspan><tspan x="22.23" class="st5" dy="1.2em">Proxy</tspan></text></g><g id="shape1039-319" transform="translate(331.938,-244.986)"><title>Dynamic connector.1039</title><path d="M-7.05 547.75 L-7.05 547.39 L-7.13 531.04" class="st11"/></g><g id="shape1040-326" transform="translate(292.324,-275.415)"><title>Nordic Blueslate.1040</title><desc>Application Event Manager Proxy</desc><rect width="64.911" height="37.098" x="0" y="517.327" class="st6"/><text x="12.89" y="528.68" class="st4">Application<tspan x="5.33" class="st5" dy="1.2em">Event Manager</tspan><tspan class="st5"> </tspan><tspan x="22.23" class="st5" dy="1.2em">Proxy</tspan></text></g><g id="shape1041-334" transform="translate(479.99,-277.389)"><title>Nordic Blueslate.1041</title><desc>Application Event Manager</desc><rect width="57.177" height="33.933" x="0" y="520.492" class="st6"/><text x="9.02" y="530.26" class="st4">Application<tspan x="18.36" class="st5" dy="1.2em">Event </tspan><tspan x="12.8" class="st5" dy="1.2em">Manager</tspan></text></g><g id="shape1042-341" transform="translate(404.969,-220.067)"><title>Nordic Blue.1042</title><desc>IPC Service</desc><rect width="47.492" height="26.929" x="0" y="527.496" class="st8"/><text x="17.08" y="538.56" class="st4">IPC <tspan x="10.41" class="st5" dy="1.2em">Service</tspan></text></g><g id="shape1043-347" transform="translate(511.878,-156.244)"><title>Nordic Blue.1043</title><desc>CAF Sensor data aggregator</desc><rect width="46.843" height="37.098" x="0" y="517.327" class="st2"/><text x="15.42" y="523.88" class="st4">CAF <tspan x="10.75" class="st5" dy="1.2em">Sensor </tspan><tspan x="15.64" class="st5" dy="1.2em">data </tspan><tspan x="4.07" class="st5" dy="1.2em">aggregator</tspan></text></g><g id="shape1046-355" transform="translate(457.993,-156.244)"><title>Nordic Blue.1046</title><desc>CAF Sensor Manager</desc><rect width="44.036" height="37.098" x="0" y="517.327" class="st2"/><text x="14.02" y="528.68" class="st4">CAF <tspan x="9.34" class="st5" dy="1.2em">Sensor </tspan><tspan x="6.23" class="st5" dy="1.2em">Manager</tspan></text></g><g id="shape1047-362" transform="translate(7.87096,-7.87096)"><title>Nordic Blue.1047</title><path d="M0 554.43 L365.46 554.43 L365.46 20.21 L0 20.21 L0 554.43 Z" class="st16"/></g><g id="shape1048-366" transform="translate(382.973,-95.6299)"><title>Nordic Blue.1048</title><path d="M0 554.43 L181.42 554.43 L181.42 301.31 L0 301.31 L0 554.43 Z" class="st16"/></g><g id="shape1049-370" transform="translate(458.196,-102.716)"><title>Nordic Blue.1049</title><desc>Sensor driver</desc><rect width="43.589" height="26.929" x="0" y="527.496" class="st8"/><text x="9.12" y="538.56" class="st4">Sensor <tspan x="11.79" class="st5" dy="1.2em">driver</tspan></text></g><g id="shape1050-376" transform="translate(435.802,-246.996)"><title>Dynamic connector.1050</title><path d="M-7.09 547.75 L-7.09 547.39 L-7.09 531.07" class="st11"/></g><g id="shape1051-383" transform="translate(508.578,-277.389)"><title>Dynamic connector.1051</title><path d="M0 561.11 L0 561.47 L0 615.56 L-28.59 615.56 L-28.59 631.43" class="st11"/></g><g id="shape1052-390" transform="translate(508.578,-277.389)"><title>Dynamic connector.1052</title><path d="M0 561.11 L0 561.47 L0 615.56 L26.72 615.56 L26.72 631.43" class="st11"/></g><g id="shape1053-397" transform="translate(486.946,-156.244)"><title>Dynamic connector.1053</title><path d="M-7.05 561.11 L-7.06 561.47 L-7.12 574.33" class="st11"/></g><g id="shape1054-404" transform="translate(147.427,-404.542)"><title>Dynamic connector.1054</title><path d="M7.09 561.11 L7.09 561.47 L7.09 569.14" class="st11"/></g><g id="shape1055-411" transform="translate(109.947,-357.742)"><title>Dynamic connector.1055</title><path d="M0 561.11 L0 561.47 L0 573.39 L99.73 573.39 L99.73 595.13" class="st11"/></g><g id="shape1056-418" transform="translate(293.715,-357.742)"><title>Dynamic connector.1056</title><path d="M0 561.11 L0 561.47 L0 573.43 L-84.04 573.43 L-84.04 595.13" class="st11"/></g><g id="shape1058-425" transform="translate(389.417,-213.82)"><title>Nordic Blue.1058</title><path d="M0 554.43 L78.6 554.43 L78.6 450.65 L0 450.65 L0 554.43 Z" class="st16"/></g><g id="shape1059-429" transform="translate(285.482,-213.82)"><title>Nordic Blue.1059</title><path d="M0 554.43 L78.6 554.43 L78.6 450.65 L0 450.65 L0 554.43 Z" class="st16"/></g><g id="shape1063-433" transform="translate(36.394,-191.334)"><title>Dynamic connector.1063</title><path d="M0 547.75 L0 547.39 L0 518.32 L173.28 518.32 L173.28 474.36" class="st11"/></g><g id="shape1068-440" transform="translate(43.1483,-157.857)"><title>Dynamic connector.1068</title><path d="M-6.91 561.1 L-6.92 561.46 L-7.26 575.95" class="st11"/></g><g id="shape1069-447" transform="translate(91.9775,-158.646)"><title>Dynamic connector.1069</title><path d="M-7.04 561.11 L-7.04 561.47 L-7.13 576.74" class="st11"/></g><g id="shape1070-454" transform="translate(277.303,-158.646)"><title>Dynamic connector.1070</title><path d="M-7.04 561.11 L-7.04 561.47 L-7.14 576.74" class="st11"/></g><g id="shape1071-461" transform="translate(163.442,-158.646)"><title>Dynamic connector.1071</title><path d="M7 561.1 L7.01 561.46 L7.17 576.74" class="st11"/></g><g id="shape1072-468" transform="translate(118.901,-158.646)"><title>Dynamic connector.1072</title><path d="M7.04 561.11 L7.04 561.47 L7.13 576.74" class="st11"/></g><g id="shape1073-475" transform="translate(248.97,-301.178)"><title>Dynamic connector.1073</title><path d="M6.68 561.42 L7.04 561.43 L36.31 561.6" class="st11"/></g><g id="shape1074-482" transform="translate(388.643,-350.748)"><title>Sheet.1074</title><desc>PPR</desc><rect width="39.685" height="11.339" x="0" y="543.087" class="st14"/><text x="4" y="551.16" class="st15">PPR</text></g><g id="shape1075-485" transform="translate(7.87096,-542.087)"><title>Sheet.1075</title><desc>APP</desc><rect width="39.685" height="11.339" x="0" y="543.087" class="st14"/><text x="4" y="551.16" class="st15">APP</text></g><g id="shape1076-488" transform="translate(364.077,-257.973)"><title>Dynamic connector.1076</title><path d="M6.68 547.44 L7.04 547.44 L18.3 547.24" class="st11"/></g><g id="shape1077-495" transform="translate(461.17,-287.269)"><title>Dynamic connector.1077</title><path d="M6.68 547.34 L7.04 547.34 L11.78 547.34" class="st11"/></g><g id="shape1078-502" transform="translate(244.304,-357.742)"><title>Dynamic connector.1078</title><path d="M0 561.11 L0 561.47 L0 573.43 L-34.63 573.43 L-34.63 595.13" class="st11"/></g><g id="shape1079-509" transform="translate(209.673,-310.001)"><title>Dynamic connector.1079</title><path d="M0 547.75 L0 547.39 L0 525.69 L129.36 525.69 L129.36 513.72" class="st11"/></g><g id="shape1080-516" transform="translate(84.9806,-190.805)"><title>Dynamic connector.1080</title><path d="M0 547.75 L0 547.39 L0 517.79 L124.69 517.79 L124.69 473.83" class="st11"/></g><g id="shape1081-523" transform="translate(125.903,-190.805)"><title>Dynamic connector.1081</title><path d="M0 547.75 L0 547.39 L0 517.79 L83.77 517.79 L83.77 473.83" class="st11"/></g><g id="shape1082-530" transform="translate(170.723,-190.805)"><title>Dynamic connector.1082</title><path d="M0 547.75 L0 547.39 L0 517.79 L38.95 517.79 L38.95 473.83" class="st11"/></g><g id="shape1083-537" transform="translate(222.176,-190.805)"><title>Dynamic connector.1083</title><path d="M-1.67 547.75 L-1.67 547.39 L-1.67 517.67 L-12.5 517.67 L-12.5 473.83" class="st11"/></g></g></svg>