<svg xmlns="http://www.w3.org/2000/svg" xmlns:ev="http://www.w3.org/2001/xml-events" xmlns:xlink="http://www.w3.org/1999/xlink" width="739.831" height="652.586" class="st17" color-interpolation-filters="sRGB" viewBox="0 0 554.873 489.44" xml:space="preserve"><style type="text/css">.st1{fill:#d9e1e2;marker-end:url(#mrkr4-6);marker-start:url(#mrkr4-4);stroke:none;stroke-width:1}.st2{fill:#333f48;fill-opacity:1;stroke:#333f48;stroke-opacity:1;stroke-width:.28409090909091}.st3{fill:#00a9ce;marker-end:url(#mrkr4-12);marker-start:url(#mrkr4-10);stroke:none;stroke-width:1}.st4{fill:#feffff;fill-opacity:1;stroke:#feffff;stroke-opacity:1;stroke-width:.28409090909091}.st5{fill:#fff;font-family:Arial;font-size:.75em}.st6{font-size:1em}.st7,.st8{stroke-width:1}.st7{fill:#0033a0;marker-end:url(#mrkr4-12);marker-start:url(#mrkr4-10);stroke:none}.st8{marker-end:url(#mrkr4-6);marker-start:url(#mrkr4-55);stroke:#333f48;stroke-linecap:butt}.st10,.st9{marker-end:url(#mrkr4-12);marker-start:url(#mrkr4-10);stroke:none;stroke-width:1}.st9{fill:#333f48}.st10{fill:#768692}.st11,.st12{stroke:#768692}.st11{fill:none;marker-end:url(#mrkr4-255);marker-start:url(#mrkr4-253);stroke-width:1}.st12{fill:#768692;fill-opacity:1;stroke-opacity:1;stroke-width:.28409090909091}.st13{fill:none;marker-end:url(#mrkr4-12);marker-start:url(#mrkr4-10);stroke:none;stroke-width:1}.st14{fill:#333f48;font-family:Arial;font-size:.75em}.st15{fill:none;stroke:#768692;stroke-dasharray:7,5;stroke-width:1}.st16{fill:#768692;font-family:Arial;font-size:.75em}.st17{fill:none;fill-rule:evenodd;font-size:12px;overflow:visible;stroke-linecap:square;stroke-miterlimit:3}</style><defs id="Markers"><g id="lend4"><path d="M 2 1 L 0 0 L 2 -1 L 2 1" style="stroke:none"/></g><marker id="mrkr4-4" class="st2" markerUnits="strokeWidth" orient="auto" overflow="visible" refX="7.04"><use transform="scale(3.52)" xlink:href="#lend4"/></marker><marker id="mrkr4-6" class="st2" markerUnits="strokeWidth" orient="auto" overflow="visible" refX="-7.04"><use transform="scale(-3.52,-3.52)" xlink:href="#lend4"/></marker><marker id="mrkr4-10" class="st4" markerUnits="strokeWidth" orient="auto" overflow="visible" refX="7.04"><use transform="scale(3.52)" xlink:href="#lend4"/></marker><marker id="mrkr4-12" class="st4" markerUnits="strokeWidth" orient="auto" overflow="visible" refX="-7.04"><use transform="scale(-3.52,-3.52)" xlink:href="#lend4"/></marker><marker id="mrkr4-55" class="st2" markerUnits="strokeWidth" orient="auto" overflow="visible" refX="6.68"><use transform="scale(3.52)" xlink:href="#lend4"/></marker><marker id="mrkr4-253" class="st12" markerUnits="strokeWidth" orient="auto" overflow="visible" refX="7.04"><use transform="scale(3.52)" xlink:href="#lend4"/></marker><marker id="mrkr4-255" class="st12" markerUnits="strokeWidth" orient="auto" overflow="visible" refX="-7.04"><use transform="scale(-3.52,-3.52)" xlink:href="#lend4"/></marker></defs><g><title>Page-1</title><g id="shape99-1" transform="translate(202.486,-407.086)"><title>Sheet.99</title><rect width="316.28" height="74.483" x="0" y="414.957" class="st1"/></g><g id="shape100-7" transform="translate(35.1673,-126.669)"><title>Nordic Blue</title><desc>Sensor simulation control</desc><rect width="84.498" height="26.929" x="0" y="462.51" class="st3"/><text x="6.48" y="473.28" class="st5">Sensor simulation <tspan x="28.74" class="st6" dy="1.2em">control</tspan></text></g><g id="shape101-15" transform="translate(187.335,-126.669)"><title>Nordic Blue.136</title><desc>CAF LEDs</desc><rect width="42.377" height="26.929" x="0" y="462.51" class="st3"/><text x="12.19" y="473.28" class="st5">CAF <tspan x="10.18" class="st6" dy="1.2em">LEDs</tspan></text></g><g id="shape102-21" transform="translate(67.0774,-292.429)"><title>Nordic Blue.137</title><desc>LED state</desc><rect width="51.059" height="26.929" x="0" y="462.51" class="st3"/><text x="5.77" y="478.68" class="st5">LED state</text></g><g id="shape103-26" transform="translate(129.301,-292.429)"><title>Nordic Blue.138</title><desc>ML state</desc><rect width="47.973" height="26.929" x="0" y="462.51" class="st3"/><text x="6.73" y="478.68" class="st5">ML state</text></g><g id="shape104-31" transform="translate(299.155,-126.669)"><title>Nordic Blue.139</title><desc>CAF Click detector</desc><rect width="61.471" height="26.929" x="0" y="462.51" class="st3"/><text x="10.74" y="473.28" class="st5">CAF <tspan class="st6">Click </tspan><tspan x="14.48" class="st6" dy="1.2em">detector</tspan></text></g><g id="shape105-38" transform="translate(127.79,-126.669)"><title>Nordic Blue.141</title><desc>ML runner</desc><rect width="51.059" height="26.929" x="0" y="462.51" class="st3"/><text x="5.02" y="478.68" class="st5">ML runner</text></g><g id="shape106-43" transform="translate(188.439,-196.011)"><title>Nordic Blueslate.142</title><desc>Application Event Manager</desc><rect width="136.063" height="54.64" x="0" y="434.799" class="st7"/><text x="46.02" y="459.42" class="st5">Application<tspan x="37.51" class="st6" dy="1.2em">Event Manager</tspan></text></g><g id="shape107-49" transform="translate(329.891,-153.598)"><title>Dynamic connector.145</title><path d="M0 482.76 L0 482.4 L0 469.34 L-73.42 469.34 L-73.42 454.07" class="st8"/></g><g id="shape108-57" transform="translate(208.524,-153.598)"><title>Dynamic connector.150</title><path d="M0 482.76 L0 482.4 L0 469.34 L47.95 469.34 L47.95 454.07" class="st8"/></g><g id="shape109-64" transform="translate(153.319,-153.598)"><title>Dynamic connector.151</title><path d="M0 482.76 L0 482.4 L0 469.34 L103.15 469.34 L103.15 454.07" class="st8"/></g><g id="shape110-71" transform="translate(77.4165,-153.598)"><title>Dynamic connector.152</title><path d="M0 482.76 L0 482.4 L0 469.34 L179.05 469.34 L179.05 454.07" class="st8"/></g><g id="shape111-78" transform="translate(111.573,-7.87096)"><title>Nordic Middle Grey.154</title><desc>Edge Impulse C++ library</desc><rect width="77.656" height="35.991" x="0" y="453.449" class="st9"/><text x="11.31" y="468.74" class="st5">Edge Impulse <tspan x="16.82" class="st6" dy="1.2em">C++ library</tspan></text></g><g id="shape112-84" transform="translate(119.666,-70.7911)"><title>Nordic Middle Grey.155</title><desc>EI wrapper</desc><rect width="61.471" height="26.929" x="0" y="462.51" class="st3"/><text x="8.98" y="478.68" class="st5">EI wrapper</text></g><g id="shape113-89" transform="translate(240.438,-126.669)"><title>Nordic Blue.160</title><desc>CAF Buttons</desc><rect width="51.059" height="26.929" x="0" y="462.51" class="st3"/><text x="16.53" y="473.28" class="st5">CAF <tspan x="10.27" class="st6" dy="1.2em">Buttons</tspan></text></g><g id="shape114-95" transform="translate(367.006,-124.036)"><title>Nordic Blue.114</title><desc>CAF Sensor manager</desc><rect width="61.471" height="29.562" x="0" y="459.878" class="st3"/><text x="6.23" y="471.96" class="st5">CAF <tspan class="st6">Sensor </tspan><tspan x="12.98" class="st6" dy="1.2em">manager</tspan></text></g><g id="shape115-102" transform="translate(268.306,-153.598)"><title>Dynamic connector.81</title><path d="M-2.34 482.76 L-2.34 482.4 L-2.34 469.34 L-11.83 469.34 L-11.83 454.07" class="st8"/></g><g id="shape116-109" transform="translate(240.438,-70.7911)"><title>Nordic Blue.186</title><desc>GPIO driver</desc><rect width="51.059" height="26.929" x="0" y="462.51" class="st10"/><text x="14.28" y="473.28" class="st5">GPIO <tspan x="14.28" class="st6" dy="1.2em">driver</tspan></text></g><g id="shape117-115" transform="translate(188.439,-293.065)"><title>Nordic Blue.198</title><desc>EI data forwarder</desc><rect width="51.059" height="26.929" x="0" y="462.51" class="st3"/><text x="11.27" y="473.28" class="st5">EI data <tspan x="6.52" class="st6" dy="1.2em">forwarder</tspan></text></g><g id="shape118-121" transform="translate(400.452,-293.065)"><title>Nordic Blue.199</title><desc>CAF State</desc><rect width="56.05" height="26.929" x="0" y="462.51" class="st3"/><text x="7.27" y="478.68" class="st5">CAF State</text></g><g id="shape119-126" transform="translate(329.891,-293.065)"><title>Nordic Blue.200</title><desc>CAF advertising</desc><rect width="65.711" height="26.929" x="0" y="462.51" class="st3"/><text x="23.86" y="473.28" class="st5">CAF<tspan class="st6"> </tspan><tspan x="11.09" class="st6" dy="1.2em">advertising</tspan></text></g><g id="shape120-133" transform="translate(188.439,-346.263)"><title>Nordic Blue.201</title><desc>UART driver</desc><rect width="51.059" height="22.579" x="0" y="466.86" class="st10"/><text x="13.28" y="475.45" class="st5">UART <tspan x="14.28" class="st6" dy="1.2em">driver</tspan></text></g><g id="shape121-139" transform="translate(247.399,-346.923)"><title>Nordic Blue.202</title><desc>NUS</desc><rect width="51.059" height="22.028" x="0" y="467.412" class="st3"/><text x="16.03" y="481.13" class="st5">NUS</text></g><g id="shape122-144" transform="translate(210.99,-437.703)"><title>Nordic Blue.203</title><desc>Nordic proprietary Bluetooth® LE Link layer</desc><rect width="147.113" height="36.708" x="0" y="452.731" class="st3"/><text x="7.46" y="468.39" class="st5">Nordic proprietary Bluetooth® LE <tspan x="54.3" class="st6" dy="1.2em">Link layer</tspan></text></g><g id="shape123-150" transform="translate(364.061,-437.703)"><title>Nordic Blue.205</title><desc>Zephyr SW Bluetooth® LE Link layer</desc><rect width="147.113" height="36.708" x="0" y="452.731" class="st10"/><text x="51.05" y="468.39" class="st5">Zephyr SW<tspan x="23.96" class="st6" dy="1.2em">Bluetooth® LE Link layer</tspan></text></g><g id="shape124-156" transform="translate(210.99,-414.995)"><title>Nordic Blue.206</title><desc>Host layer</desc><rect width="300.184" height="18.354" x="0" y="471.085" class="st10"/><text x="129.84" y="482.96" class="st5">Host layer</text></g><g id="shape125-161" transform="translate(46.6808,-70.7911)"><title>Nordic Middle Grey.209</title><desc>Sensor simulator</desc><rect width="61.471" height="26.929" x="0" y="462.51" class="st3"/><text x="16.48" y="473.28" class="st5">Sensor <tspan x="12.48" class="st6" dy="1.2em">simulator</tspan></text></g><g id="shape126-167" transform="translate(187.335,-70.7911)"><title>Nordic Middle Grey.210</title><desc>LED driver</desc><rect width="42.377" height="26.929" x="0" y="462.51" class="st10"/><text x="12.43" y="473.28" class="st5">LED <tspan x="9.94" class="st6" dy="1.2em">driver</tspan></text></g><g id="shape127-173" transform="translate(367.006,-70.7911)"><title>Nordic Blue.212</title><desc>Sensor driver</desc><rect width="61.471" height="26.929" x="0" y="462.51" class="st10"/><text x="16.48" y="473.28" class="st5">Sensor <tspan x="19.48" class="st6" dy="1.2em">driver</tspan></text></g><g id="shape128-179" transform="translate(239.498,-306.529)"><title>Dynamic connector.96</title><path d="M6.68 489.44 L7.04 489.44 L33.43 489.44 L33.43 456.09" class="st8"/></g><g id="shape129-186" transform="translate(153.288,-292.429)"><title>Dynamic connector.217</title><path d="M0 496.12 L0 496.48 L0 508.45 L103.18 508.45 L103.18 524.18" class="st8"/></g><g id="shape130-193" transform="translate(92.6069,-292.429)"><title>Dynamic connector.218</title><path d="M0 496.12 L0 496.48 L0 508.45 L163.86 508.45 L163.86 524.18" class="st8"/></g><g id="shape131-200" transform="translate(362.746,-293.065)"><title>Dynamic connector.219</title><path d="M0 496.12 L0 496.48 L0 509.08 L-106.28 509.08 L-106.28 525.45" class="st8"/></g><g id="shape132-207" transform="translate(428.477,-293.065)"><title>Dynamic connector.220</title><path d="M0 496.12 L0 496.48 L0 509.08 L-172.01 509.08 L-172.01 525.45" class="st8"/></g><g id="shape133-214" transform="translate(397.742,-153.598)"><title>Dynamic connector.221</title><path d="M0 482.76 L0 482.4 L0 469.34 L-141.27 469.34 L-141.27 454.07" class="st8"/></g><g id="shape134-221" transform="translate(390.655,-97.7202)"><title>Dynamic connector.222</title><path d="M7.09 482.76 L7.09 482.4 L7.09 470.16" class="st8"/></g><g id="shape135-228" transform="translate(258.881,-97.7202)"><title>Dynamic connector.223</title><path d="M7.09 482.76 L7.09 482.4 L7.09 467.53" class="st8"/></g><g id="shape137-235" transform="translate(70.3299,-97.7202)"><title>Dynamic connector.226</title><path d="M7.09 482.76 L7.09 482.4 L7.09 467.53" class="st8"/></g><g id="shape138-242" transform="translate(143.315,-43.862)"><title>Dynamic connector.227</title><path d="M7.09 482.76 L7.09 482.4 L7.09 469.55" class="st8"/></g><g id="group141-249" transform="translate(10.7056,-426.619)"><title>Sheet.141</title><g id="shape142-250"><title>Nordic Light Grey.2333</title><rect width="80.452" height="54.64" x="0" y="434.799" class="st11"/></g><g id="shape143-256" transform="translate(4.89191,-36.2259)"><title>Nordic Blue.1617</title><rect width="15.458" height="12.828" x="0" y="476.612" class="st3"/></g><g id="shape144-260" transform="translate(20.3495,-36.2259)"><title>Sheet.144</title><desc>NCS</desc><rect width="54.35" height="12.828" x="0" y="476.612" class="st13"/><text x="4" y="485.73" class="st14">NCS</text></g><g id="shape145-265" transform="translate(4.89191,-20.9061)"><title>Nordic Blue.1618</title><rect width="15.458" height="12.828" x="0" y="476.612" class="st10"/></g><g id="shape146-269" transform="translate(20.3495,-20.9061)"><title>Sheet.146</title><desc>Zephyr</desc><rect width="54.35" height="12.828" x="0" y="476.612" class="st13"/><text x="4" y="485.73" class="st14">Zephyr</text></g><g id="shape147-274" transform="translate(4.89191,-5.58627)"><title>Nordic Blue.2341</title><rect width="15.458" height="12.828" x="0" y="476.612" class="st9"/></g><g id="shape148-278" transform="translate(20.3495,-5.58627)"><title>Sheet.148</title><desc>Other</desc><rect width="54.35" height="12.828" x="0" y="476.612" class="st13"/><text x="4" y="485.73" class="st14">Other</text></g></g><g id="shape149-283" transform="translate(434.395,-126.669)"><title>Nordic Blue.125</title><desc>CAF Power Manager</desc><rect width="61.471" height="26.929" x="0" y="462.51" class="st3"/><text x="7.73" y="473.28" class="st5">CAF Power <tspan x="12.98" class="st6" dy="1.2em">Manager</tspan></text></g><g id="shape151-289" transform="translate(439.601,-70.7911)"><title>Nordic Blue.2193</title><desc>OS power mgmt</desc><rect width="51.059" height="26.929" x="0" y="462.51" class="st10"/><text x="5.52" y="473.28" class="st5">OS power <tspan x="14.28" class="st6" dy="1.2em">mgmt</tspan></text></g><g id="shape155-295" transform="translate(143.315,-97.7202)"><title>Dynamic connector.135</title><path d="M7.09 482.76 L7.09 482.4 L7.09 467.53" class="st8"/></g><g id="shape157-302" transform="translate(465.13,-153.598)"><title>Dynamic connector</title><path d="M0 482.76 L0 482.4 L0 469.34 L-208.66 469.34 L-208.66 454.07" class="st8"/></g><g id="shape159-309" transform="translate(458.044,-97.7202)"><title>Dynamic connector.158</title><path d="M7.09 482.76 L7.09 482.4 L7.09 467.53" class="st8"/></g><g id="shape160-316" transform="translate(206.882,-319.994)"><title>Dynamic connector.159</title><path d="M7.09 482.76 L7.09 482.4 L7.09 470.21" class="st8"/></g><g id="shape161-323" transform="translate(460.923,-293.065)"><title>Nordic Blue.162</title><desc>CAF SMP</desc><rect width="47.973" height="26.929" x="0" y="462.51" class="st3"/><text x="14.99" y="473.28" class="st5">CAF <tspan x="14.23" class="st6" dy="1.2em">SMP</tspan></text></g><g id="shape162-329" transform="translate(484.909,-293.065)"><title>Dynamic connector.163</title><path d="M0 496.12 L0 496.48 L0 509.08 L-228.44 509.08 L-228.44 525.45" class="st8"/></g><g id="shape163-336" transform="translate(450.979,-346.923)"><title>Nordic Blue.165</title><desc>SMP Bluetooth</desc><rect width="65.711" height="28.346" x="0" y="461.093" class="st10"/><text x="23.1" y="472.57" class="st5">SMP <tspan x="13.84" class="st6" dy="1.2em">Bluetooth</tspan></text></g><g id="shape264-342" transform="translate(490.422,-346.923)"><title>Dynamic connector.264</title><path d="M-6.96 496.12 L-6.97 496.48 L-7.2 509.33" class="st8"/></g><g id="shape267-349" transform="translate(475.365,-399.999)"><title>Dynamic connector.267</title></g><g id="shape290-350" transform="translate(476.279,-375.269)"><title>Dynamic connector.290</title><path d="M7.09 482.76 L7.09 482.4 L7.09 464.66" class="st8"/></g><g id="shape300-357" transform="translate(215.61,-97.7202)"><title>Dynamic connector.300</title><path d="M-7.09 482.76 L-7.09 482.4 L-7.09 467.53" class="st8"/></g><g id="shape301-364" transform="translate(324.502,-283.391)"><title>Nordic Blue.2345</title><path d="M0 489.44 L191.65 489.44 L191.65 443.16 L0 443.16 L0 489.44 Z" class="st15"/></g><g id="shape302-368" transform="translate(324.184,-328.983)"><title>Sheet.302</title><desc>Bluetooth® LE</desc><rect width="78.584" height="16.038" x="0" y="473.402" class="st13"/><text x="10.21" y="484.12" class="st16">B<tspan class="st6">luetooth® </tspan>LE</text></g><g id="shape303-374" transform="translate(421.739,-329.652)"><title>Dynamic connector.303</title><path d="M6.63 482.76 L6.63 482.4 L7.54 419.05" class="st8"/></g><g id="shape309-381" transform="translate(7.87096,-292.429)"><title>Nordic Blue.309</title><desc>USB State</desc><rect width="51.059" height="26.929" x="0" y="462.51" class="st3"/><text x="4.52" y="478.68" class="st5">USB State</text></g><g id="shape310-386" transform="translate(33.4004,-292.429)"><title>Dynamic connector.310</title><path d="M0 496.12 L0 496.48 L0 508.45 L223.07 508.45 L223.07 524.18" class="st8"/></g><g id="shape311-393" transform="translate(16.3749,-344.088)"><title>Nordic Blue.311</title><desc>USB Stack</desc><rect width="34.309" height="22.579" x="0" y="466.86" class="st10"/><text x="7.9" y="475.45" class="st5">USB <tspan x="5.9" class="st6" dy="1.2em">Stack</tspan></text></g><g id="shape312-399" transform="translate(16.3749,-391.398)"><title>Nordic Blue.312</title><desc>USB driver</desc><rect width="34.309" height="22.028" x="0" y="467.412" class="st10"/><text x="7.9" y="475.73" class="st5">USB <tspan x="5.9" class="st6" dy="1.2em">driver</tspan></text></g><g id="shape313-405" transform="translate(26.3782,-319.359)"><title>Dynamic connector.313</title><path d="M7.06 482.76 L7.06 482.4 L7.11 471.75" class="st8"/></g><g id="shape315-412" transform="translate(26.4425,-366.668)"><title>Dynamic connector.315</title><path d="M7.09 482.76 L7.09 482.4 L7.09 471.75" class="st8"/></g><g id="shape317-419" transform="translate(247.399,-375.269)"><title>Nordic Blue.317</title><desc>NSMS</desc><rect width="51.059" height="22.028" x="0" y="467.412" class="st3"/><text x="12.53" y="481.13" class="st5">NSMS</text></g><g id="shape319-424" transform="translate(153.288,-319.359)"><title>Dynamic connector.319</title><path d="M0 482.76 L0 482.4 L0 422.51 L87.07 422.51" class="st8"/></g><g id="shape320-431" transform="translate(298.458,-357.937)"><title>Dynamic connector.320</title><path d="M6.68 489.44 L7.04 489.44 L45.04 489.44 L45.04 447.33" class="st8"/></g><g id="shape322-438" transform="translate(298.458,-382.923)"><title>Dynamic connector.322</title><path d="M6.68 489.44 L7.04 489.44 L21.22 489.44 L21.22 472.32" class="st8"/></g><g id="shape323-445" transform="translate(213.969,-293.065)"><title>Dynamic connector.323</title><path d="M0 496.12 L0 496.48 L0 509.08 L42.5 509.08 L42.5 524.81" class="st8"/></g></g></svg>