<svg xmlns="http://www.w3.org/2000/svg" xmlns:ev="http://www.w3.org/2001/xml-events" xmlns:xlink="http://www.w3.org/1999/xlink" width="679.212" height="199.979" class="st12" color-interpolation-filters="sRGB" viewBox="0 0 509.409 149.984" xml:space="preserve"><style type="text/css">.st1{fill:#00a9ce;stroke:none;stroke-width:1}.st2{fill:#fff;font-family:Calibri;font-size:1.00001em}.st3{fill:#0077c8;stroke:none;stroke-width:1}.st4,.st5{stroke:#008bab}.st4{marker-start:url(#mrkr4-25);stroke-linecap:butt;stroke-width:1}.st5{fill:#008bab;fill-opacity:1;stroke-opacity:1;stroke-width:.28409090909091}.st6{fill:none;stroke:none;stroke-width:1}.st7{fill:#00a9ce;font-family:Calibri;font-size:1.00001em}.st8{fill:none;stroke:#768692;stroke-width:2}.st10,.st9{fill:#768692}.st9{font-family:Calibri;font-size:1.16666em}.st10{stroke:none;stroke-width:1}.st11{font-size:1em}.st12{fill:none;fill-rule:evenodd;font-size:12px;overflow:visible;stroke-linecap:square;stroke-miterlimit:3}</style><defs id="Markers"><g id="lend4"><path d="M 2 1 L 0 0 L 2 -1 L 2 1" style="stroke:none"/></g><marker id="mrkr4-25" class="st5" markerUnits="strokeWidth" orient="auto" overflow="visible" refX="6.68"><use transform="scale(3.52)" xlink:href="#lend4"/></marker></defs><g><title>Page-1</title><g id="shape1725-1" transform="translate(167.252,-99.7953)"><title>Nordic Blueslate.1725</title><desc>nrfconnect/sdk-zephyr</desc><rect width="136.063" height="22.677" x="0" y="127.307" class="st1"/><text x="12.57" y="142.85" class="st2">nrfconnect/sdk-zephyr</text></g><g id="shape1727-4" transform="translate(357.173,-43.1024)"><title>Nordic Blueslate.1727</title><desc>nrfconnect/sdk-nrf</desc><rect width="136.063" height="51.024" x="0" y="98.961" class="st1"/><text x="21.96" y="128.67" class="st2">nrfconnect/sdk-nrf</text></g><g id="shape1728-7" transform="translate(167.252,-71.4488)"><title>Nordic Blueslate.1728</title><desc>nrfconnect/sdk-nrfxlib</desc><rect width="136.063" height="22.677" x="0" y="127.307" class="st1"/><text x="13.46" y="142.85" class="st2">nrfconnect/sdk-nrfxlib</text></g><g id="shape1729-10" transform="translate(167.252,-43.1024)"><title>Nordic Blueslate.1729</title><desc>nrfconnect/sdk-nrfx</desc><rect width="136.063" height="22.677" x="0" y="127.307" class="st1"/><text x="19.36" y="142.85" class="st2">nrfconnect/sdk-nrfx</text></g><g id="shape1730-13" transform="translate(1,-18.2992)"><title>Nordic Blueslate.1730</title><desc>(other modules)</desc><rect width="102.472" height="22.677" x="0" y="127.307" class="st3"/><text x="11.87" y="142.25" class="st2">(other modules)</text></g><g id="shape1731-16" transform="translate(167.252,-14.7559)"><title>Nordic Blueslate.1731</title><desc>nrfconnect/sdk-mcuboot</desc><rect width="136.063" height="22.677" x="0" y="127.307" class="st1"/><text x="7.06" y="142.85" class="st2">nrfconnect/sdk-mcuboot</text></g><g id="group1737-19" transform="translate(311.376,-43.1024)"><title>Sheet.1737</title><g id="shape1732-20" transform="translate(-82.7018,-2.95513) rotate(-33.4633)"><title>Sheet.1732</title><path d="M4.98 145.53 L5.25 145.29 A30.6512 25.1719 43.72 0 1 39.08 149.98" class="st4"/></g><g id="shape1734-26" transform="translate(123.547,251.455) rotate(146.411)"><title>Sheet.1734</title><path d="M5 145.56 L5.27 145.32 A30.8532 25.3143 41.93 0 1 39.56 149.98" class="st4"/></g><g id="shape1735-31" transform="translate(3.89764,-9.08062)"><title>Sheet.1735</title><desc>west</desc><rect width="31.89" height="33.725" x="0" y="116.259" class="st6"/><text x="4.31" y="136.72" class="st7">west</text></g></g><g id="shape1738-34" transform="translate(156.94,-2)"><title>Nordic Blueslate.1738</title><desc>GitHub nrf-connect organization (Git)</desc><rect width="350.47" height="145.984" x="0" y="4" class="st8"/><text x="69.1" y="20.6" class="st9">GitHub nrf-connect organization (Git)</text></g><g id="group1744-37" transform="translate(111.534,-43.1024)"><title>Sheet.1744</title><g id="shape1745-38" transform="translate(-82.7018,-2.95513) rotate(-33.4633)"><title>Sheet.1745</title><path d="M4.98 145.53 L5.25 145.29 A30.6512 25.1719 43.72 0 1 39.08 149.98" class="st4"/></g><g id="shape1746-43" transform="translate(123.547,251.455) rotate(146.411)"><title>Sheet.1746</title><path d="M5 145.56 L5.27 145.32 A30.8532 25.3143 41.93 0 1 39.56 149.98" class="st4"/></g><g id="shape1747-48" transform="translate(3.89764,-9.08062)"><title>Sheet.1747</title><desc>west</desc><rect width="31.89" height="33.725" x="0" y="116.259" class="st6"/><text x="4.31" y="136.72" class="st7">west</text></g></g><g id="shape1748-51" transform="translate(1,-94.126)"><title>Nordic Blueslate.1748</title><desc>zephyrproject-rtos/zephyr</desc><rect width="102.472" height="28.346" x="0" y="121.638" class="st10"/><text x="15.56" y="132.21" class="st2">zephyrproject-<tspan x="22.84" class="st11" dy="1.2em">rtos/zephyr</tspan></text></g><g id="shape1750-55" transform="translate(1,-54.4409)"><title>Nordic Blueslate.1750</title><desc>zephyrproject-rtos/mcuboot</desc><rect width="102.472" height="28.346" x="0" y="121.638" class="st10"/><text x="15.56" y="132.21" class="st2">zephyrproject-<tspan x="17.33" class="st11" dy="1.2em">rtos/mcuboot</tspan></text></g></g></svg>