<svg xmlns="http://www.w3.org/2000/svg" xmlns:ev="http://www.w3.org/2001/xml-events" xmlns:xlink="http://www.w3.org/1999/xlink" width="461.502" height="372.26" class="st17" color-interpolation-filters="sRGB" viewBox="0 0 346.126 279.195" xml:space="preserve"><style type="text/css">.st1{fill:none;stroke:#0033a0;stroke-width:1}.st2{fill:#0033a0;font-family:Arial;font-size:.75em}.st3,.st4{fill:#6ad1e3;stroke:none;stroke-width:1}.st4{fill:#333f48}.st5,.st6{fill:#feffff;font-family:Arial;font-size:.833336em}.st6{fill:#fff;font-size:.916672em}.st7{font-size:1em}.st8{fill:none;stroke:none;stroke-width:1}.st9{fill:#333f48;font-family:Arial;font-size:.916672em}.st10{marker-end:url(#mrkr4-33);stroke-linecap:butt;stroke-width:1}.st10,.st11,.st12{stroke:#768692}.st11{fill:#768692;fill-opacity:1;stroke-opacity:1;stroke-width:.28409090909091}.st12{marker-end:url(#mrkr4-33);marker-start:url(#mrkr4-55);stroke-linecap:butt;stroke-width:1}.st13{fill:#768692;font-family:Arial;font-size:.75em}.st14{fill:#d9e1e2;stroke:none;stroke-width:1}.st15{fill:#333f48;font-family:Arial;font-size:.75em}.st16{marker-start:url(#mrkr4-55);stroke:#768692;stroke-linecap:butt;stroke-width:1}.st17{fill:none;fill-rule:evenodd;font-size:12px;overflow:visible;stroke-linecap:square;stroke-miterlimit:3}</style><defs id="Markers"><g id="lend4"><path d="M 2 1 L 0 0 L 2 -1 L 2 1" style="stroke:none"/></g><marker id="mrkr4-33" class="st11" markerUnits="strokeWidth" orient="auto" overflow="visible" refX="-7.04"><use transform="scale(-3.52,-3.52)" xlink:href="#lend4"/></marker><marker id="mrkr4-55" class="st11" markerUnits="strokeWidth" orient="auto" overflow="visible" refX="6.68"><use transform="scale(3.52)" xlink:href="#lend4"/></marker></defs><g><title>Page-1</title><g id="shape140-1" transform="translate(1,-1)"><title>Sheet.140</title><desc>nRF5340 SoC</desc><rect width="344.126" height="277.195" x="0" y="2" class="st1"/><text x="143.55" y="272.49" class="st2">nRF5340 SoC</text></g><g id="group136-4" transform="translate(191.471,-35.0157)"><title>Sheet.136</title><g id="shape137-5"><title>Nordic Blue.24</title><rect width="146.568" height="238.11" x="0" y="41.085" class="st3"/></g></g><g id="shape138-7" transform="translate(191.471,-23.6772)"><title>Sheet.138</title><rect width="146.568" height="249.449" x="0" y="29.746" class="st3"/></g><g id="shape130-9" transform="translate(8.06095,-23.9967)"><title>Sheet.130</title><rect width="146.568" height="249.449" x="0" y="29.746" class="st3"/></g><g id="shape144-11" transform="translate(12.4185,-30.0577)"><title>Sheet.144</title><desc>Application</desc><rect width="137.853" height="158.029" x="0" y="121.166" class="st4"/><text x="44.47" y="134.17" class="st5">Application</text></g><g id="shape5-14" transform="translate(17.4067,-198.008)"><title>Nordic Blue</title><desc>Bluetooth LE Host</desc><rect width="127.877" height="42.52" x="0" y="236.675" class="st4"/><text x="19.61" y="261.24" class="st6">Bluetooth LE Host</text></g><g id="shape6-17" transform="translate(199.975,-105.882)"><title>Nordic Blue.6</title><desc>SoftDevice Controller (LE Isochronous Channels)</desc><rect width="127.877" height="134.646" x="0" y="144.549" class="st4"/><text x="11.97" y="195.37" class="st6">SoftDevice Controller <tspan x="23.89" class="st7" dy="2.4em">(LE Isochronous </tspan><tspan x="38.87" class="st7" dy="1.2em">Channels)</tspan></text></g><g id="shape34-22" transform="translate(191.471,-240.528)"><title>Sheet.34</title><desc>Network core</desc><rect width="146.568" height="32.598" x="0" y="246.597" class="st8"/><text x="40.89" y="266.2" class="st9">Network core</text></g><g id="shape36-25" transform="translate(7.21909,-240.528)"><title>Sheet.36</title><desc>Application core</desc><rect width="150.82" height="32.598" x="0" y="246.597" class="st8"/><text x="36.28" y="266.2" class="st9">Application core</text></g><g id="shape45-28" transform="translate(117.435,-198.008)"><title>Dynamic connector.45</title><path d="M7.02 279.19 L7.13 307.95" class="st10"/></g><g id="shape46-34" transform="translate(114.611,-198.008)"><title>Dynamic connector.46</title><path d="M-7.03 279.19 L-7.12 307.95" class="st10"/></g><g id="shape68-39" transform="translate(126.858,-122.029)"><title>Dynamic connector.68</title><path d="M7.09 278.22 L7.09 273.03" class="st10"/></g><g id="shape72-44" transform="translate(123.155,-198.008)"><title>Dynamic connector.72</title><path d="M-7.07 279.19 L-7.1 307.95" class="st10"/></g><g id="shape82-49" transform="translate(145.283,-212.181)"><title>Dynamic connector.82</title><path d="M6.68 272.11 L7.04 272.11 L47.65 272.11" class="st12"/></g><g id="shape83-57" transform="translate(146.701,-219.268)"><title>Sheet.83</title><desc>HCI IPC</desc><rect width="51.024" height="21.26" x="0" y="257.935" class="st8"/><text x="9.01" y="271.27" class="st13">HCI IPC</text></g><g id="shape86-60" transform="translate(68.4304,-111.622)"><title>Dynamic connector.86</title><path d="M0 286.21 L18.79 286.31" class="st10"/></g><g id="shape87-65" transform="translate(94.2598,-95.2585)"><title>Dynamic connector.87</title><path d="M0 286.25 L-18.79 286.29" class="st10"/></g><g id="group145-70" transform="translate(17.4067,-37.7411)"><title>Sheet.145</title><g id="group102-71"><title>Sheet.102</title><g id="shape24-72"><title>Nordic Blue.24</title><rect width="51.024" height="85.258" x="0" y="193.937" class="st14"/></g></g><g id="shape123-74"><title>Sheet.123</title><desc>Peripheral modules</desc><rect width="51.024" height="85.258" x="0" y="193.937" class="st14"/><text x="5" y="233.87" class="st15">Peripheral <tspan x="8.5" class="st7" dy="1.2em">modules</tspan></text></g></g><g id="group146-78" transform="translate(94.2598,-37.7411)"><title>Sheet.146</title><g id="shape25-79"><title>Nordic Blue.25</title><rect width="51.024" height="85.258" x="0" y="193.937" class="st14"/></g><g id="shape84-81"><title>Sheet.84</title><desc>Audio modules</desc><rect width="51.024" height="85.258" x="0" y="193.937" class="st8"/><text x="14" y="233.87" class="st15">Audio <tspan x="8.5" class="st7" dy="1.2em">modules</tspan></text></g></g><g id="group147-85" transform="translate(94.2598,-135.231)"><title>Sheet.147</title><g id="shape148-86"><title>Nordic Blue.25</title><rect width="51.024" height="26.979" x="0" y="252.216" class="st14"/></g><g id="shape149-88"><title>Sheet.149</title><desc>Bluetooth modules</desc><rect width="51.024" height="26.979" x="0" y="252.216" class="st8"/><text x="6.5" y="263.01" class="st15">Bluetooth <tspan x="8.5" class="st7" dy="1.2em">modules</tspan></text></g></g><g id="shape150-92" transform="translate(126.858,-162.211)"><title>Dynamic connector</title><path d="M7.09 279.19 L7.09 250.51" class="st10"/></g><g id="shape152-97" transform="translate(117.504,-122.029)"><title>Dynamic connector.152</title><path d="M7.09 271.54 L7.09 271.18 L7.09 265.99" class="st16"/></g><g id="shape154-102" transform="translate(108.717,-122.029)"><title>Dynamic connector.154</title><path d="M7.09 271.54 L7.09 271.18 L7.09 265.99" class="st16"/></g><g id="shape155-107" transform="translate(100.496,-122.063)"><title>Dynamic connector.155</title><path d="M7.09 271.59 L7.09 271.23 L7.09 265.94" class="st16"/></g></g></svg>