<svg xmlns="http://www.w3.org/2000/svg" xmlns:ev="http://www.w3.org/2001/xml-events" xmlns:xlink="http://www.w3.org/1999/xlink" width="741.195" height="791.935" class="st39" color-interpolation-filters="sRGB" viewBox="0 0 555.896 593.951" xml:space="preserve"><style type="text/css">.st1,.st2{fill:#d9e1e2;stroke:none;stroke-width:1}.st2{fill:#333f48}.st3{fill:#fff;font-family:Arial;font-size:.916672em}.st4{fill:#6ad1e3;stroke:#333f48;stroke-dasharray:7,5;stroke-width:1}.st5{fill:#333f48;font-family:Arial;font-size:.916672em}.st6{font-size:1em}.st7{fill:#6ad1e3;stroke:none;stroke-width:1}.st8,.st9{stroke:#6ad1e3}.st8{marker-end:url(#mrkr4-53);marker-start:url(#mrkr4-51);stroke-linecap:butt;stroke-width:1}.st9{fill:#6ad1e3;fill-opacity:1;stroke-opacity:1;stroke-width:.28409090909091}.st10{fill:#0033a0;stroke:#0033a0;stroke-width:1}.st11{fill:#feffff;font-family:Arial;font-size:.916672em}.st12{fill:#00a9ce;stroke:none;stroke-width:1}.st13{fill:none;stroke:#768692;stroke-dasharray:3,3}.st13,.st14,.st15{stroke-width:1}.st14{fill:#00a9ce;stroke:#333f48;stroke-dasharray:7,5}.st15{fill:#768692;stroke:none}.st16{fill:#fff;font-family:Arial;font-size:.666664em}.st17,.st18{fill:none;stroke-width:1}.st17{stroke:#333f48;stroke-dasharray:.01,5}.st18{stroke:none}.st19,.st20{stroke:#768692}.st19{marker-end:url(#mrkr4-99);stroke-linecap:butt;stroke-width:1}.st20{fill:#768692;fill-opacity:1;stroke-opacity:1;stroke-width:.28409090909091}.st21{fill:#768692;font-family:Arial;font-size:.75em}.st22,.st23{stroke:#d0df00}.st22{marker-end:url(#mrkr4-127);stroke-linecap:butt;stroke-width:1}.st23{fill:#d0df00;fill-opacity:1;stroke-opacity:1;stroke-width:.28409090909091}.st24,.st25{stroke:#00a9ce}.st24{marker-end:url(#mrkr4-138);stroke-linecap:butt;stroke-width:1}.st25{fill:#00a9ce;fill-opacity:1;stroke-opacity:1;stroke-width:.28409090909091}.st26{marker-start:url(#mrkr4-147);stroke:#768692;stroke-linecap:butt;stroke-width:1}.st27{fill:#768692;font-family:Arial;font-size:.666664em}.st28,.st29{marker-end:url(#mrkr4-138);marker-start:url(#mrkr4-162);stroke:#00a9ce;stroke-linecap:butt;stroke-width:1}.st29{marker-end:url(#mrkr4-99);marker-start:url(#mrkr4-147);stroke:#768692}.st30,.st31{fill:none;stroke:#333f48;stroke-width:1}.st31{fill:#d0df00;stroke:none}.st32{fill:#333f48;font-family:Arial;font-size:.75em}.st33{fill:#fff;stroke:#333f48;stroke-dasharray:3,3;stroke-width:1}.st34{marker-end:url(#mrkr4-127)}.st34,.st35{marker-start:url(#mrkr4-266);stroke:#d0df00;stroke-linecap:butt;stroke-width:1}.st36{fill:#333f48;font-size:.666664em}.st36,.st37,.st38{font-family:Arial}.st37{fill:#fff;font-size:.583328em}.st38{fill:#333f48;font-size:.833336em}.st39{fill:none;fill-rule:evenodd;font-size:12px;overflow:visible;stroke-linecap:square;stroke-miterlimit:3}</style><defs id="Markers"><g id="lend4"><path d="M 2 1 L 0 0 L 2 -1 L 2 1" style="stroke:none"/></g><marker id="mrkr4-51" class="st9" markerUnits="strokeWidth" orient="auto" overflow="visible" refX="6.68"><use transform="scale(3.52)" xlink:href="#lend4"/></marker><marker id="mrkr4-53" class="st9" markerUnits="strokeWidth" orient="auto" overflow="visible" refX="-7.04"><use transform="scale(-3.52,-3.52)" xlink:href="#lend4"/></marker><marker id="mrkr4-99" class="st20" markerUnits="strokeWidth" orient="auto" overflow="visible" refX="-7.04"><use transform="scale(-3.52,-3.52)" xlink:href="#lend4"/></marker><marker id="mrkr4-127" class="st23" markerUnits="strokeWidth" orient="auto" overflow="visible" refX="-7.04"><use transform="scale(-3.52,-3.52)" xlink:href="#lend4"/></marker><marker id="mrkr4-138" class="st25" markerUnits="strokeWidth" orient="auto" overflow="visible" refX="-7.04"><use transform="scale(-3.52,-3.52)" xlink:href="#lend4"/></marker><marker id="mrkr4-147" class="st20" markerUnits="strokeWidth" orient="auto" overflow="visible" refX="6.68"><use transform="scale(3.52)" xlink:href="#lend4"/></marker><marker id="mrkr4-162" class="st25" markerUnits="strokeWidth" orient="auto" overflow="visible" refX="6.68"><use transform="scale(3.52)" xlink:href="#lend4"/></marker><marker id="mrkr4-266" class="st23" markerUnits="strokeWidth" orient="auto" overflow="visible" refX="6.68"><use transform="scale(3.52)" xlink:href="#lend4"/></marker></defs><g><title>Page-1</title><g id="shape241-1" transform="translate(150.251,-427.959)"><title>Nordic Blue</title><rect width="202.677" height="64.153" x="0" y="529.798" class="st1"/></g><g id="shape242-3" transform="translate(425.211,-531.079)"><title>Nordic Blue.6</title><desc>SoftDevice Controller</desc><rect width="129.685" height="42.52" x="0" y="551.431" class="st2"/><text x="12.88" y="575.99" class="st3">SoftDevice Controller</text></g><g id="shape243-6" transform="translate(425.211,-9.50394)"><title>Nordic Blue.7</title><desc>Radio</desc><path d="M0 593.95 L53.15 593.95 L53.15 551.43 L0 551.43 L0 593.95 Z" class="st4"/><text x="12.2" y="575.99" class="st5">Radio</text></g><g id="shape244-9" transform="translate(501.747,-9.50394)"><title>Nordic Blue.8</title><desc>UART (debug)</desc><path d="M0 593.95 L53.15 593.95 L53.15 551.43 L0 551.43 L0 593.95 Z" class="st4"/><text x="11.6" y="569.39" class="st5">UART <tspan x="7.62" class="st6" dy="1.2em">(debug)</tspan></text></g><g id="shape245-13" transform="translate(44.1469,-9.50394)"><title>Nordic Blue.9</title><desc>UART (debug)</desc><path d="M0 593.95 L53.15 593.95 L53.15 551.43 L0 551.43 L0 593.95 Z" class="st4"/><text x="11.6" y="569.39" class="st5">UART <tspan x="7.62" class="st6" dy="1.2em">(debug)</tspan></text></g><g id="shape246-17" transform="translate(14.1876,-66.1969)"><title>Nordic Blue.10</title><desc>TWI/I2C</desc><path d="M0 593.95 L53.15 593.95 L53.15 551.43 L0 551.43 L0 593.95 Z" class="st4"/><text x="6.41" y="575.99" class="st5">TWI/I2C</text></g><g id="shape247-20" transform="translate(77.9671,-66.1969)"><title>Nordic Blue.11</title><desc>SPI4</desc><path d="M0 593.95 L53.15 593.95 L53.15 551.43 L0 551.43 L0 593.95 Z" class="st4"/><text x="14.65" y="575.99" class="st5">SPI4</text></g><g id="shape248-23" transform="translate(77.9671,-151.236)"><title>Nordic Blue.12</title><desc>SD card</desc><rect width="53.15" height="42.52" x="0" y="551.431" class="st7"/><text x="6.71" y="575.99" class="st5">SD card</text></g><g id="shape249-26" transform="translate(40.6915,-196.926)"><title>Nordic Blue.13</title><desc>HW codec (CS47L63)</desc><rect width="63.779" height="42.52" x="0" y="551.431" class="st7"/><text x="6.52" y="569.39" class="st5">HW codec <tspan x="5.29" class="st6" dy="1.2em">(CS47L63)</tspan></text></g><g id="shape250-30" transform="translate(14.1876,-151.236)"><title>Nordic Blue.14</title><desc>Power module (INA231)</desc><rect width="53.15" height="42.52" x="0" y="551.431" class="st7"/><text x="10.99" y="562.79" class="st5">Power <tspan x="8.54" class="st6" dy="1.2em">module </tspan><tspan x="4.57" class="st6" dy="1.2em">(INA231)</tspan></text></g><g id="shape251-35" transform="translate(44.1469,-300.055)"><title>Nordic Blue.15</title><desc>Error handler</desc><rect width="53.15" height="42.52" x="0" y="551.431" class="st7"/><text x="14.35" y="569.39" class="st5">Error <tspan x="8.23" class="st6" dy="1.2em">handler</tspan></text></g><g id="shape252-39" transform="translate(74.4238,-250.449)"><title>Nordic Blue.16</title><desc>Buttons</desc><rect width="53.15" height="42.52" x="0" y="551.431" class="st7"/><text x="7.92" y="575.99" class="st5">Buttons</text></g><g id="shape253-42" transform="translate(10.6443,-250.449)"><title>Nordic Blue.17</title><desc>LEDs</desc><rect width="53.15" height="42.52" x="0" y="551.431" class="st7"/><text x="13.13" y="575.99" class="st5">LEDs</text></g><g id="shape254-45" transform="translate(33.6758,-108.717)"><title>Dynamic connector</title><path d="M7.09 587.27 L7.09 586.91 L7.09 558.47" class="st8"/></g><g id="shape255-54" transform="translate(155.37,-167.462)"><title>Nordic Blueslate</title><desc>Synchronization module (audio_datapath.c)</desc><rect width="220.802" height="54.64" x="0" y="539.311" class="st10"/><text x="51.7" y="563.33" class="st11">Synchronization module <tspan x="64.53" class="st6" dy="1.2em">(audio_datapath.c)</tspan></text></g><g id="shape256-58" transform="translate(155.37,-73.2835)"><title>Nordic Lake</title><desc>audio_i2s.c</desc><rect width="220.802" height="33.38" x="0" y="560.57" class="st12"/><text x="82.58" y="580.56" class="st11">audio_i2s.c</text></g><g id="shape257-61" transform="translate(149.643,-2.03534)"><title>Nordic Blue.25</title><path d="M0 593.95 L232.35 593.95 L232.35 185.38 L0 185.38 L0 593.95 Z" class="st13"/></g><g id="shape258-63" transform="translate(97.4553,-108.717)"><title>Dynamic connector.26</title><path d="M7.09 587.27 L7.09 586.91 L7.09 558.47" class="st8"/></g><g id="shape259-70" transform="translate(72.5813,-196.926)"><title>Dynamic connector.29</title><path d="M0 600.63 L0 600.99 L0 659.48 L20.41 659.48 L20.41 675.12" class="st8"/></g><g id="shape260-77" transform="translate(239.196,-9.50394)"><title>Nordic Lake.30</title><desc>I2S (audio)</desc><path d="M0 593.95 L53.15 593.95 L53.15 551.43 L0 551.43 L0 593.95 Z" class="st14"/><text x="18.32" y="569.39" class="st11">I2S <tspan x="9.45" class="st6" dy="1.2em">(audio)</tspan></text></g><g id="shape262-81" transform="translate(155.37,-370.903)"><title>Nordic Sky</title><desc>audio_sync_timer.c</desc><rect width="78.503" height="24.113" x="0" y="569.838" class="st15"/><text x="4.79" y="584.29" class="st16">audio_sync_timer.c</text></g><g id="shape263-84" transform="translate(396.865,-1)"><title>Nordic Blue.33</title><path d="M0 593.95 L0.28 593.95 L0.28 4.34 L0 4.34 L0 593.95 Z" class="st17"/></g><g id="shape264-86" transform="translate(396.865,-573.598)"><title>Sheet.264</title><desc>Network core</desc><rect width="85.039" height="18.425" x="0" y="575.526" class="st18"/><text x="10.12" y="588.04" class="st5">Network core</text></g><g id="shape265-89" transform="translate(304.739,-573.598)"><title>Sheet.265</title><desc>Application core</desc><rect width="92.409" height="18.425" x="0" y="575.526" class="st18"/><text x="7.07" y="588.04" class="st5">Application core</text></g><g id="shape267-92" transform="translate(165.535,-258.953)"><title>Nordic Middle Grey.42</title><rect width="117.943" height="86.74" x="0" y="507.211" class="st1"/></g><g id="shape268-94" transform="translate(154.006,-370.903)"><title>Dynamic connector.44</title><path d="M6.59 593.95 L7.54 735.71" class="st19"/></g><g id="shape269-100" transform="translate(253.715,-427.959)"><title>Dynamic connector.45</title><path d="M7.09 593.95 L7.09 673.64" class="st19"/></g><g id="shape270-105" transform="translate(231.038,-427.959)"><title>Dynamic connector.46</title><path d="M7.09 593.95 L7.09 673.64" class="st19"/></g><g id="shape273-110" transform="translate(221.117,-229.189)"><title>Sheet.273</title><desc>bad_frame</desc><rect width="53.15" height="21.26" x="0" y="572.691" class="st18"/><text x="4" y="586.02" class="st21">bad_frame</text></g><g id="shape274-113" transform="translate(165.535,-229.189)"><title>Sheet.274</title><desc>sdu_ref</desc><rect width="39.231" height="21.26" x="0" y="572.691" class="st18"/><text x="5.21" y="586.02" class="st21">sdu_ref</text></g><g id="shape275-116" transform="translate(260.802,-509.819)"><title>Sheet.275</title><desc>bad_frame</desc><rect width="53.15" height="21.26" x="0" y="572.691" class="st18"/><text x="4" y="586.02" class="st21">bad_frame</text></g><g id="shape276-119" transform="translate(198.893,-510.178)"><title>Sheet.276</title><desc>sdu_ref</desc><rect width="39.231" height="21.26" x="0" y="572.691" class="st18"/><text x="5.21" y="586.02" class="st21">sdu_ref</text></g><g id="shape277-122" transform="translate(242.362,-427.959)"><title>Dynamic connector.72</title><path d="M7.09 593.95 L7.09 673.64" class="st22"/></g><g id="shape278-128" transform="translate(205.951,-317.118)"><title>Dynamic connector.73</title><path d="M7.09 593.95 L7.09 681.33" class="st22"/></g><g id="shape279-133" transform="translate(201.543,-167.745)"><title>Dynamic connector.74</title><path d="M-7.09 594.79 L-7.09 600.24" class="st24"/></g><g id="shape281-139" transform="translate(163.006,-349.27)"><title>Sheet.281</title><desc>cur_time</desc><rect width="42.52" height="21.26" x="0" y="572.691" class="st18"/><text x="4" y="586.02" class="st21">cur_time</text></g><g id="shape282-142" transform="translate(226.786,-167.462)"><title>Dynamic connector.77</title><path d="M7.09 600.63 L7.09 600.99 L7.09 654.75" class="st26"/></g><g id="shape283-148" transform="translate(233.873,-139.898)"><title>Sheet.283</title><desc>frame_start_ts</desc><rect width="66.614" height="17.008" x="0" y="576.943" class="st18"/><text x="4" y="587.85" class="st27">frame_start_ts</text></g><g id="shape284-151" transform="translate(243.794,-52.0236)"><title>Dynamic connector.80</title><path d="M7.09 593.95 L7.09 579.73" class="st19"/></g><g id="shape285-156" transform="translate(270.156,-52.0236)"><title>Dynamic connector.81</title><path d="M7.09 587.27 L7.09 586.91 L7.09 579.73" class="st28"/></g><g id="shape286-164" transform="translate(352.928,-545.252)"><title>Dynamic connector.82</title><path d="M6.68 586.86 L7.04 586.86 L65.24 586.86" class="st29"/></g><g id="shape287-171" transform="translate(357.18,-552.339)"><title>Sheet.287</title><desc>HCI IPC</desc><rect width="42.52" height="21.26" x="0" y="572.691" class="st18"/><text x="4.76" y="586.02" class="st21">HCI IPC</text></g><g id="shape288-174" transform="translate(149.55,-395.016)"><title>Sheet.288</title><desc>Audio modules</desc><rect width="71.566" height="15.591" x="0" y="578.36" class="st18"/><text x="4" y="588.86" class="st21">Audio modules</text></g><g id="shape289-177" transform="translate(137.191,-285.557)"><title>Dynamic connector.86</title><path d="M1.72 586.86 L5.41 586.86" class="st19"/></g><g id="shape290-182" transform="translate(151.06,-275.961)"><title>Dynamic connector.87</title><path d="M-2.02 586.86 L-5.11 586.86" class="st19"/></g><g id="group291-187" transform="translate(2.53133,-1)"><title>Sheet.291</title><g id="shape292-188"><title>Nordic Blue.24</title><path d="M0 593.95 L136.38 593.95 L136.38 214.43 L0 214.43 L0 593.95 Z" class="st13"/></g><g id="shape293-190" transform="translate(0,-362.569)"><title>Sheet.293</title><desc>Peripheral modules</desc><rect width="136.381" height="16.956" x="0" y="576.995" class="st18"/><text x="4" y="588.17" class="st21">Peripheral modules</text></g></g><g id="shape294-193" transform="translate(2.88994,-403.52)"><title>Nordic Blue.103</title><rect width="127.877" height="189.431" x="0" y="404.52" class="st30"/></g><g id="shape295-195" transform="translate(12.7002,-536.678)"><title>Nordic Lake.104</title><rect width="16.019" height="10.061" x="0" y="583.89" class="st31"/></g><g id="shape296-197" transform="translate(29.8533,-587.717)"><title>Dynamic connector.105</title><path d="M0 601.02 L-12.71 601.04" class="st19"/></g><g id="shape297-202" transform="translate(33.6886,-575.578)"><title>Sheet.297</title><desc>Control data</desc><rect width="71.566" height="10.061" x="0" y="583.89" class="st18"/><text x="4" y="591.62" class="st32">Control data</text></g><g id="shape298-205" transform="translate(29.8533,-575.528)"><title>Dynamic connector.107</title><path d="M0 601.02 L-12.71 601.04" class="st22"/></g><g id="shape299-210" transform="translate(33.6886,-563.389)"><title>Sheet.299</title><desc>Compressed audio</desc><rect width="97.078" height="10.061" x="0" y="583.89" class="st18"/><text x="4" y="591.62" class="st32">Compressed audio</text></g><g id="shape300-213" transform="translate(29.8533,-563.339)"><title>Dynamic connector.109</title><path d="M0 601.02 L-12.71 601.04" class="st24"/></g><g id="shape301-218" transform="translate(33.6886,-551.2)"><title>Sheet.301</title><desc>Uncompressed audio</desc><rect width="97.078" height="10.061" x="0" y="583.89" class="st18"/><text x="4" y="591.62" class="st32">Uncompressed audio</text></g><g id="shape302-221" transform="translate(12.7002,-513.287)"><title>Nordic Lake.111</title><rect width="16.019" height="10.061" x="0" y="583.89" class="st12"/></g><g id="shape303-223" transform="translate(33.4717,-531.357)"><title>Sheet.303</title><desc>Block working on compressed audio</desc><rect width="97.078" height="10.061" x="0" y="583.89" class="st18"/><text x="4" y="586.22" class="st32">Block working on <tspan x="4" class="st6" dy="1.2em">compressed audio</tspan></text></g><g id="shape304-227" transform="translate(33.6886,-508.113)"><title>Sheet.304</title><desc>Block working on uncompressed audio</desc><rect width="97.078" height="10.061" x="0" y="583.89" class="st18"/><text x="4" y="586.22" class="st32">Block working on <tspan x="4" class="st6" dy="1.2em">uncompressed audio</tspan></text></g><g id="shape305-231" transform="translate(12.7002,-409.189)"><title>Nordic Lake.114</title><path d="M0 593.95 L16.02 593.95 L16.02 583.89 L0 583.89 L0 593.95 Z" class="st33"/></g><g id="shape306-233" transform="translate(33.6886,-409.189)"><title>Sheet.306</title><desc>HW layer element</desc><rect width="97.078" height="10.061" x="0" y="583.89" class="st18"/><text x="4" y="591.62" class="st32">HW layer element</text></g><g id="shape307-236" transform="translate(12.7002,-490.466)"><title>Nordic Lake.115</title><rect width="16.019" height="10.061" x="0" y="583.89" class="st7"/></g><g id="shape308-238" transform="translate(33.6886,-490.466)"><title>Sheet.308</title><desc>Peripheral module</desc><rect width="97.078" height="10.061" x="0" y="583.89" class="st18"/><text x="4" y="591.62" class="st32">Peripheral module</text></g><g id="shape309-241" transform="translate(12.7002,-473.459)"><title>Nordic Lake.117</title><rect width="16.019" height="10.061" x="0" y="583.89" class="st2"/></g><g id="shape310-243" transform="translate(34.0387,-473.459)"><title>Sheet.310</title><desc>Large main module</desc><rect width="97.078" height="10.061" x="0" y="583.89" class="st18"/><text x="4" y="591.62" class="st32">Large main module</text></g><g id="shape311-246" transform="translate(33.6886,-452.059)"><title>Sheet.311</title><desc>Application source files</desc><rect width="97.078" height="10.061" x="0" y="583.89" class="st18"/><text x="4" y="586.22" class="st32">Application <tspan x="4" class="st6" dy="1.2em">source files</tspan></text></g><g id="shape312-250" transform="translate(12.7002,-456.451)"><title>Nordic Lake.120</title><rect width="16.019" height="10.061" x="0" y="583.89" class="st15"/></g><g id="shape313-252" transform="translate(12.7002,-446.39)"><title>Nordic Lake.121</title><rect width="16.019" height="10.061" x="0" y="583.89" class="st1"/></g><g id="shape314-254" transform="translate(12.7002,-431.727)"><title>Nordic Lake.123</title><rect width="16.019" height="10.061" x="0" y="583.89" class="st10"/></g><g id="shape315-256" transform="translate(33.33,-421.236)"><title>Sheet.315</title><desc>Synchronization module</desc><rect width="97.078" height="21.26" x="0" y="572.691" class="st18"/><text x="4" y="580.62" class="st32">Synchronization <tspan x="4" class="st6" dy="1.2em">module</tspan></text></g><g id="shape316-260" transform="translate(444.522,-531.079)"><title>Dynamic connector.126</title><path d="M6.91 600.63 L6.91 600.99 L7.26 1065.97" class="st34"/></g><g id="shape317-268" transform="translate(150.251,-531.079)"><title>Nordic Blue.128</title><desc>Bluetooth LE Host</desc><rect width="202.677" height="42.52" x="0" y="551.431" class="st2"/><text x="57.01" y="575.99" class="st3">Bluetooth LE Host</text></g><g id="shape318-271" transform="translate(253.715,-492.111)"><title>Dynamic connector.129</title><path d="M7.09 587.27 L7.09 586.91 L7.09 554.98" class="st26"/></g><g id="shape319-276" transform="translate(242.377,-492.111)"><title>Dynamic connector.130</title><path d="M7.09 587.27 L7.09 586.91 L7.09 554.98" class="st35"/></g><g id="shape320-281" transform="translate(245.211,-492.111)"><title>Dynamic connector.131</title><path d="M-7.09 587.27 L-7.09 586.91 L-7.09 554.98" class="st26"/></g><g id="shape321-286" transform="translate(147.089,-417.693)"><title>Nordic Blue.129</title><path d="M0 593.95 L235.6 593.95 L235.6 501.82 L0 501.82 L0 593.95 Z" class="st13"/></g><g id="shape322-288" transform="translate(147.089,-491.394)"><title>Sheet.322</title><desc>Bluetooth modules</desc><rect width="85.039" height="18.425" x="0" y="575.526" class="st18"/><text x="6.49" y="587.44" class="st21">Bluetooth modules</text></g><g id="shape326-291" transform="translate(204.282,-443.345)"><title>Nordic Light Grey.142</title><desc>broadcast_sink.c</desc><rect width="94.615" height="33.38" x="0" y="560.57" class="st15"/><text x="17.29" y="579.66" class="st16">broadcast_sink.c</text></g><g id="shape328-294" transform="translate(227.9,-222.699)"><title>Dynamic connector.48</title><path d="M-6.86 587.27 L-6.86 586.91 L-7.35 498.93" class="st26"/></g><g id="shape329-299" transform="translate(212.594,-317.715)"><title>Dynamic connector.47</title><path d="M-7.07 593.95 L-7.1 681.93" class="st19"/></g><g id="shape330-304" transform="translate(199.211,-317.118)"><title>Nordic Lake.43</title><desc>Bluetooth LE RX FIFO</desc><rect width="63.779" height="24.113" x="0" y="569.838" class="st31"/><text x="8.98" y="579.49" class="st36">Bluetooth LE <tspan x="16.11" class="st6" dy="1.2em">RX FIFO</tspan></text></g><g id="shape333-308" transform="translate(170.093,-273.126)"><title>Sheet.333</title><desc>main.c</desc><rect width="107.717" height="17.425" x="0" y="576.526" class="st15"/><text x="43.55" y="587.34" class="st37">main.c</text></g><g id="group334-311" transform="translate(155.37,-115.446)"><title>Sheet.334</title><g id="shape335-312"><title>Nordic Light Grey.335</title><desc>sw_codec_select.c</desc><rect width="75.37" height="38.967" x="0" y="554.984" class="st15"/><text x="4.11" y="587.55" class="st16">sw_codec_select.c</text></g><g id="shape336-315" transform="translate(11.1102,-15.2894)"><title>Nordic Lake.336</title><desc>Decoder</desc><rect width="53.15" height="18.425" x="0" y="575.526" class="st31"/><text x="7.68" y="587.74" class="st38">Decoder</text></g></g><g id="shape337-318" transform="translate(187.37,-118.141)"><title>Dynamic connector.337</title><path d="M7.09 596.65 L7.09 598.39" class="st24"/></g></g></svg>