<svg xmlns="http://www.w3.org/2000/svg" xmlns:ev="http://www.w3.org/2001/xml-events" xmlns:xlink="http://www.w3.org/1999/xlink" width="741.195" height="791.935" class="st38" color-interpolation-filters="sRGB" viewBox="0 0 555.896 593.951" xml:space="preserve"><style type="text/css">.st1,.st2{stroke:#d0df00}.st1{marker-end:url(#mrkr4-6);stroke-linecap:butt;stroke-width:1}.st2{fill:#d0df00;fill-opacity:1;stroke-opacity:1;stroke-width:.28409090909091}.st3{fill:#d9e1e2;stroke:none;stroke-width:1}.st4{fill:#333f48;font-family:Arial;font-size:.75em}.st5{fill:#768692;stroke:none;stroke-width:1}.st6{fill:#fff;font-family:Arial;font-size:.666664em}.st7{fill:#333f48;stroke:none;stroke-width:1}.st8{fill:#fff;font-family:Arial;font-size:.916672em}.st9{fill:#6ad1e3;stroke:#333f48;stroke-dasharray:7,5;stroke-width:1}.st10{fill:#333f48;font-family:Arial;font-size:.916672em}.st11{font-size:1em}.st12{fill:#6ad1e3;stroke:none;stroke-width:1}.st13,.st14{stroke:#6ad1e3}.st13{marker-end:url(#mrkr4-65);marker-start:url(#mrkr4-63);stroke-linecap:butt;stroke-width:1}.st14{fill:#6ad1e3;fill-opacity:1;stroke-opacity:1;stroke-width:.28409090909091}.st15{fill:#0033a0;stroke:#0033a0;stroke-width:1}.st16{fill:#feffff;font-family:Arial;font-size:.916672em}.st17{fill:#00a9ce;stroke:none}.st17,.st18,.st19{stroke-width:1}.st18{fill:none;stroke:#768692;stroke-dasharray:3,3}.st19{fill:#00a9ce;stroke:#333f48;stroke-dasharray:7,5}.st20{fill:#feffff;font-family:Arial;font-size:.666664em}.st21,.st22{fill:none}.st21,.st22,.st23{stroke-width:1}.st21{stroke:#333f48;stroke-dasharray:.01,5}.st22,.st23{stroke:none}.st23{fill:#d0df00}.st24{fill:#333f48;font-family:Arial;font-size:.833336em}.st25,.st26{stroke:#768692}.st25{marker-end:url(#mrkr4-117);stroke-linecap:butt;stroke-width:1}.st26{fill:#768692;fill-opacity:1;stroke-opacity:1;stroke-width:.28409090909091}.st27{marker-start:url(#mrkr4-123);stroke-linecap:butt;stroke-width:1}.st27,.st28,.st29{stroke:#00a9ce}.st28{fill:#00a9ce;fill-opacity:1;stroke-opacity:1;stroke-width:.28409090909091}.st29{marker-end:url(#mrkr4-129);stroke-linecap:butt;stroke-width:1}.st30{fill:#768692;font-family:Arial;font-size:.75em}.st31{marker-start:url(#mrkr4-148);stroke:#768692;stroke-linecap:butt;stroke-width:1}.st32{fill:#768692;font-family:Arial;font-size:.666664em}.st33,.st34{marker-end:url(#mrkr4-129);marker-start:url(#mrkr4-123);stroke:#00a9ce;stroke-linecap:butt;stroke-width:1}.st34{marker-end:url(#mrkr4-117);marker-start:url(#mrkr4-148);stroke:#768692}.st35{fill:none;stroke:#333f48}.st35,.st36,.st37{stroke-width:1}.st36{fill:#fff;stroke:#333f48;stroke-dasharray:3,3}.st37{marker-end:url(#mrkr4-6);marker-start:url(#mrkr4-266);stroke:#d0df00;stroke-linecap:butt}.st38{fill:none;fill-rule:evenodd;font-size:12px;overflow:visible;stroke-linecap:square;stroke-miterlimit:3}</style><defs id="Markers"><g id="lend4"><path d="M 2 1 L 0 0 L 2 -1 L 2 1" style="stroke:none"/></g><marker id="mrkr4-6" class="st2" markerUnits="strokeWidth" orient="auto" overflow="visible" refX="-7.04"><use transform="scale(-3.52,-3.52)" xlink:href="#lend4"/></marker><marker id="mrkr4-63" class="st14" markerUnits="strokeWidth" orient="auto" overflow="visible" refX="6.68"><use transform="scale(3.52)" xlink:href="#lend4"/></marker><marker id="mrkr4-65" class="st14" markerUnits="strokeWidth" orient="auto" overflow="visible" refX="-7.04"><use transform="scale(-3.52,-3.52)" xlink:href="#lend4"/></marker><marker id="mrkr4-117" class="st26" markerUnits="strokeWidth" orient="auto" overflow="visible" refX="-7.04"><use transform="scale(-3.52,-3.52)" xlink:href="#lend4"/></marker><marker id="mrkr4-123" class="st28" markerUnits="strokeWidth" orient="auto" overflow="visible" refX="6.68"><use transform="scale(3.52)" xlink:href="#lend4"/></marker><marker id="mrkr4-129" class="st28" markerUnits="strokeWidth" orient="auto" overflow="visible" refX="-7.04"><use transform="scale(-3.52,-3.52)" xlink:href="#lend4"/></marker><marker id="mrkr4-148" class="st26" markerUnits="strokeWidth" orient="auto" overflow="visible" refX="6.68"><use transform="scale(3.52)" xlink:href="#lend4"/></marker><marker id="mrkr4-266" class="st2" markerUnits="strokeWidth" orient="auto" overflow="visible" refX="6.68"><use transform="scale(3.52)" xlink:href="#lend4"/></marker></defs><g><title>Page-1</title><g id="shape238-1" transform="translate(327.338,-382.464)"><title>Dynamic connector.68</title><path d="M-7.01 593.95 L-7.14 545.98" class="st1"/></g><g id="shape239-7" transform="translate(288.049,-246.533)"><title>Nordic Middle Grey</title><desc>audio_system.c</desc><rect width="91.808" height="134.85" x="0" y="459.101" class="st3"/><text x="25.28" y="587.25" class="st4">audio_system.c</text></g><g id="shape240-10" transform="translate(292.408,-316.504)"><title>Nordic Light Grey</title><desc>sw_codec_select.c</desc><rect width="84.189" height="59.965" x="0" y="533.986" class="st5"/><text x="13.04" y="587.55" class="st6">sw_codec_select.c</text></g><g id="shape241-13" transform="translate(150.251,-437.471)"><title>Nordic Blue</title><rect width="202.677" height="54.64" x="0" y="539.311" class="st3"/></g><g id="shape242-15" transform="translate(425.211,-531.079)"><title>Nordic Blue.6</title><desc>SoftDevice Controller</desc><rect width="129.685" height="42.52" x="0" y="551.431" class="st7"/><text x="12.88" y="575.99" class="st8">SoftDevice Controller</text></g><g id="shape243-18" transform="translate(425.211,-9.50394)"><title>Nordic Blue.7</title><desc>Radio</desc><path d="M0 593.95 L53.15 593.95 L53.15 551.43 L0 551.43 L0 593.95 Z" class="st9"/><text x="12.2" y="575.99" class="st10">Radio</text></g><g id="shape244-21" transform="translate(501.747,-9.50394)"><title>Nordic Blue.8</title><desc>UART (debug)</desc><path d="M0 593.95 L53.15 593.95 L53.15 551.43 L0 551.43 L0 593.95 Z" class="st9"/><text x="11.6" y="569.39" class="st10">UART <tspan x="7.62" class="st11" dy="1.2em">(debug)</tspan></text></g><g id="shape245-25" transform="translate(44.1469,-9.50394)"><title>Nordic Blue.9</title><desc>UART (debug)</desc><path d="M0 593.95 L53.15 593.95 L53.15 551.43 L0 551.43 L0 593.95 Z" class="st9"/><text x="11.6" y="569.39" class="st10">UART <tspan x="7.62" class="st11" dy="1.2em">(debug)</tspan></text></g><g id="shape246-29" transform="translate(14.1876,-66.1969)"><title>Nordic Blue.10</title><desc>TWI/I2C</desc><path d="M0 593.95 L53.15 593.95 L53.15 551.43 L0 551.43 L0 593.95 Z" class="st9"/><text x="6.41" y="575.99" class="st10">TWI/I2C</text></g><g id="shape247-32" transform="translate(77.9671,-66.1969)"><title>Nordic Blue.11</title><desc>SPI4</desc><path d="M0 593.95 L53.15 593.95 L53.15 551.43 L0 551.43 L0 593.95 Z" class="st9"/><text x="14.65" y="575.99" class="st10">SPI4</text></g><g id="shape248-35" transform="translate(77.9671,-151.236)"><title>Nordic Blue.12</title><desc>SD card</desc><rect width="53.15" height="42.52" x="0" y="551.431" class="st12"/><text x="6.71" y="575.99" class="st10">SD card</text></g><g id="shape249-38" transform="translate(40.6915,-196.926)"><title>Nordic Blue.13</title><desc>HW codec (CS47L63)</desc><rect width="63.779" height="42.52" x="0" y="551.431" class="st12"/><text x="6.52" y="569.39" class="st10">HW codec <tspan x="5.29" class="st11" dy="1.2em">(CS47L63)</tspan></text></g><g id="shape250-42" transform="translate(14.1876,-151.236)"><title>Nordic Blue.14</title><desc>Power module (INA231)</desc><rect width="53.15" height="42.52" x="0" y="551.431" class="st12"/><text x="10.99" y="562.79" class="st10">Power <tspan x="8.54" class="st11" dy="1.2em">module </tspan><tspan x="4.57" class="st11" dy="1.2em">(INA231)</tspan></text></g><g id="shape251-47" transform="translate(44.1469,-300.055)"><title>Nordic Blue.15</title><desc>Error handler</desc><rect width="53.15" height="42.52" x="0" y="551.431" class="st12"/><text x="14.35" y="569.39" class="st10">Error <tspan x="8.23" class="st11" dy="1.2em">handler</tspan></text></g><g id="shape252-51" transform="translate(74.4238,-250.449)"><title>Nordic Blue.16</title><desc>Buttons</desc><rect width="53.15" height="42.52" x="0" y="551.431" class="st12"/><text x="7.92" y="575.99" class="st10">Buttons</text></g><g id="shape253-54" transform="translate(10.6443,-250.449)"><title>Nordic Blue.17</title><desc>LEDs</desc><rect width="53.15" height="42.52" x="0" y="551.431" class="st12"/><text x="13.13" y="575.99" class="st10">LEDs</text></g><g id="shape254-57" transform="translate(33.6758,-108.717)"><title>Dynamic connector</title><path d="M7.09 587.27 L7.09 586.91 L7.09 558.47" class="st13"/></g><g id="shape255-66" transform="translate(155.37,-167.462)"><title>Nordic Blueslate</title><desc>Synchronization module (audio_datapath.c)</desc><rect width="220.802" height="54.64" x="0" y="539.311" class="st15"/><text x="51.7" y="563.33" class="st16">Synchronization module <tspan x="64.53" class="st11" dy="1.2em">(audio_datapath.c)</tspan></text></g><g id="shape256-70" transform="translate(155.37,-101.63)"><title>Nordic Lake</title><desc>audio_i2s.c</desc><rect width="220.802" height="33.38" x="0" y="560.57" class="st17"/><text x="82.58" y="580.56" class="st16">audio_i2s.c</text></g><g id="shape257-73" transform="translate(149.55,-2.03534)"><title>Nordic Blue.25</title><desc>`</desc><path d="M0 593.95 L232.44 593.95 L232.44 197.93 L0 197.93 L0 593.95 Z" class="st18"/><text x="114.39" y="399.24" class="st8">`</text></g><g id="shape258-76" transform="translate(97.4553,-108.717)"><title>Dynamic connector.26</title><path d="M7.09 587.27 L7.09 586.91 L7.09 558.47" class="st13"/></g><g id="shape259-83" transform="translate(72.5813,-196.926)"><title>Dynamic connector.29</title><path d="M0 600.63 L0 600.99 L0 659.48 L20.41 659.48 L20.41 675.12" class="st13"/></g><g id="shape260-90" transform="translate(239.196,-9.50394)"><title>Nordic Lake.30</title><desc>I2S (audio)</desc><path d="M0 593.95 L53.15 593.95 L53.15 551.43 L0 551.43 L0 593.95 Z" class="st19"/><text x="18.32" y="569.39" class="st16">I2S <tspan x="9.45" class="st11" dy="1.2em">(audio)</tspan></text></g><g id="shape261-94" transform="translate(295.526,-276.819)"><title>Nordic Lake.31</title><desc>I2S RX FIFO</desc><rect width="53.15" height="33.38" x="0" y="560.57" class="st17"/><text x="20.57" y="574.86" class="st20">I2S <tspan x="10.8" class="st11" dy="1.2em">RX FIFO</tspan></text></g><g id="shape262-98" transform="translate(155.37,-351.265)"><title>Nordic Sky</title><desc>audio_sync_timer.c</desc><rect width="78.503" height="24.113" x="0" y="569.838" class="st5"/><text x="4.79" y="584.29" class="st6">audio_sync_timer.c</text></g><g id="shape263-101" transform="translate(396.865,-1)"><title>Nordic Blue.33</title><path d="M0 593.95 L0.28 593.95 L0.28 4.34 L0 4.34 L0 593.95 Z" class="st21"/></g><g id="shape264-103" transform="translate(396.865,-573.598)"><title>Sheet.264</title><desc>Network core</desc><rect width="85.039" height="18.425" x="0" y="575.526" class="st22"/><text x="10.12" y="588.04" class="st10">Network core</text></g><g id="shape265-106" transform="translate(304.739,-573.598)"><title>Sheet.265</title><desc>Application core</desc><rect width="92.409" height="18.425" x="0" y="575.526" class="st22"/><text x="7.07" y="588.04" class="st10">Application core</text></g><g id="shape266-109" transform="translate(295.526,-333.829)"><title>Nordic Lake.37</title><desc>Encoder</desc><rect width="53.15" height="33.38" x="0" y="560.57" class="st23"/><text x="7.95" y="580.26" class="st24">Encoder</text></g><g id="shape268-112" transform="translate(154.503,-351.265)"><title>Dynamic connector.44</title><path d="M7.09 593.95 L7.09 716.07" class="st25"/></g><g id="shape271-118" transform="translate(293.4,-307.85)"><title>Dynamic connector.49</title><path d="M7.09 600.63 L7.09 600.99 L7.09 678.81" class="st27"/></g><g id="shape272-124" transform="translate(293.4,-309.308)"><title>Dynamic connector.50</title><path d="M7.09 593.95 L7.09 576.47" class="st29"/></g><g id="shape279-130" transform="translate(214.03,-167.462)"><title>Dynamic connector.74</title><path d="M-7.09 593.95 L-7.09 619.36" class="st29"/></g><g id="shape280-135" transform="translate(293.4,-167.462)"><title>Dynamic connector.75</title><path d="M7.09 600.63 L7.09 600.99 L7.09 626.4" class="st27"/></g><g id="shape281-140" transform="translate(163.006,-329.632)"><title>Sheet.281</title><desc>cur_time</desc><rect width="42.52" height="21.26" x="0" y="572.691" class="st22"/><text x="4" y="586.02" class="st30">cur_time</text></g><g id="shape282-143" transform="translate(226.786,-167.462)"><title>Dynamic connector.77</title><path d="M7.09 600.63 L7.09 600.99 L7.09 626.4" class="st31"/></g><g id="shape283-149" transform="translate(233.873,-139.898)"><title>Sheet.283</title><desc>frame_start_ts</desc><rect width="66.614" height="17.008" x="0" y="576.943" class="st22"/><text x="4" y="587.85" class="st32">frame_start_ts</text></g><g id="shape284-152" transform="translate(243.794,-52.0236)"><title>Dynamic connector.80</title><path d="M7.09 593.95 L7.09 551.38" class="st25"/></g><g id="shape285-157" transform="translate(270.156,-52.0236)"><title>Dynamic connector.81</title><path d="M7.09 587.27 L7.09 586.91 L7.09 551.38" class="st33"/></g><g id="shape286-164" transform="translate(352.928,-545.252)"><title>Dynamic connector.82</title><path d="M6.68 586.86 L7.04 586.86 L65.24 586.86" class="st34"/></g><g id="shape287-171" transform="translate(357.18,-552.339)"><title>Sheet.287</title><desc>HCI IPC</desc><rect width="42.52" height="21.26" x="0" y="572.691" class="st22"/><text x="4.76" y="586.02" class="st30">HCI IPC</text></g><g id="shape288-174" transform="translate(149.55,-382.464)"><title>Sheet.288</title><desc>Audio modules</desc><rect width="71.566" height="15.591" x="0" y="578.36" class="st22"/><text x="4" y="588.86" class="st30">Audio modules</text></g><g id="shape289-177" transform="translate(137.191,-285.557)"><title>Dynamic connector.86</title><path d="M1.72 586.86 L5.41 586.86" class="st25"/></g><g id="shape290-182" transform="translate(151.06,-275.961)"><title>Dynamic connector.87</title><path d="M-2.02 586.86 L-5.11 586.86" class="st25"/></g><g id="group291-187" transform="translate(2.53133,-1)"><title>Sheet.291</title><g id="shape292-188"><title>Nordic Blue.24</title><path d="M0 593.95 L136.38 593.95 L136.38 214.43 L0 214.43 L0 593.95 Z" class="st18"/></g><g id="shape293-190" transform="translate(0,-362.569)"><title>Sheet.293</title><desc>Peripheral modules</desc><rect width="136.381" height="16.956" x="0" y="576.995" class="st22"/><text x="4" y="588.17" class="st30">Peripheral modules</text></g></g><g id="shape294-193" transform="translate(2.88994,-403.52)"><title>Nordic Blue.103</title><rect width="127.877" height="189.431" x="0" y="404.52" class="st35"/></g><g id="shape295-195" transform="translate(12.7002,-536.678)"><title>Nordic Lake.104</title><rect width="16.019" height="10.061" x="0" y="583.89" class="st23"/></g><g id="shape296-197" transform="translate(29.8533,-587.717)"><title>Dynamic connector.105</title><path d="M0 601.02 L-12.71 601.04" class="st25"/></g><g id="shape297-202" transform="translate(33.6886,-575.578)"><title>Sheet.297</title><desc>Control data</desc><rect width="71.566" height="10.061" x="0" y="583.89" class="st22"/><text x="4" y="591.62" class="st4">Control data</text></g><g id="shape298-205" transform="translate(29.8533,-575.528)"><title>Dynamic connector.107</title><path d="M0 601.02 L-12.71 601.04" class="st1"/></g><g id="shape299-210" transform="translate(33.6886,-563.389)"><title>Sheet.299</title><desc>Compressed audio</desc><rect width="97.078" height="10.061" x="0" y="583.89" class="st22"/><text x="4" y="591.62" class="st4">Compressed audio</text></g><g id="shape300-213" transform="translate(29.8533,-563.339)"><title>Dynamic connector.109</title><path d="M0 601.02 L-12.71 601.04" class="st29"/></g><g id="shape301-218" transform="translate(33.6886,-551.2)"><title>Sheet.301</title><desc>Uncompressed audio</desc><rect width="97.078" height="10.061" x="0" y="583.89" class="st22"/><text x="4" y="591.62" class="st4">Uncompressed audio</text></g><g id="shape302-221" transform="translate(12.7002,-513.287)"><title>Nordic Lake.111</title><rect width="16.019" height="10.061" x="0" y="583.89" class="st17"/></g><g id="shape303-223" transform="translate(33.4717,-531.357)"><title>Sheet.303</title><desc>Block working on compressed audio</desc><rect width="97.078" height="10.061" x="0" y="583.89" class="st22"/><text x="4" y="586.22" class="st4">Block working on <tspan x="4" class="st11" dy="1.2em">compressed audio</tspan></text></g><g id="shape304-227" transform="translate(33.6886,-508.113)"><title>Sheet.304</title><desc>Block working on uncompressed audio</desc><rect width="97.078" height="10.061" x="0" y="583.89" class="st22"/><text x="4" y="586.22" class="st4">Block working on <tspan x="4" class="st11" dy="1.2em">uncompressed audio</tspan></text></g><g id="shape305-231" transform="translate(12.7002,-409.189)"><title>Nordic Lake.114</title><path d="M0 593.95 L16.02 593.95 L16.02 583.89 L0 583.89 L0 593.95 Z" class="st36"/></g><g id="shape306-233" transform="translate(33.6886,-409.189)"><title>Sheet.306</title><desc>HW layer element</desc><rect width="97.078" height="10.061" x="0" y="583.89" class="st22"/><text x="4" y="591.62" class="st4">HW layer element</text></g><g id="shape307-236" transform="translate(12.7002,-490.466)"><title>Nordic Lake.115</title><rect width="16.019" height="10.061" x="0" y="583.89" class="st12"/></g><g id="shape308-238" transform="translate(33.6886,-490.466)"><title>Sheet.308</title><desc>Peripheral module</desc><rect width="97.078" height="10.061" x="0" y="583.89" class="st22"/><text x="4" y="591.62" class="st4">Peripheral module</text></g><g id="shape309-241" transform="translate(12.7002,-473.459)"><title>Nordic Lake.117</title><rect width="16.019" height="10.061" x="0" y="583.89" class="st7"/></g><g id="shape310-243" transform="translate(34.0387,-473.459)"><title>Sheet.310</title><desc>Large main module</desc><rect width="97.078" height="10.061" x="0" y="583.89" class="st22"/><text x="4" y="591.62" class="st4">Large main module</text></g><g id="shape311-246" transform="translate(33.6886,-452.059)"><title>Sheet.311</title><desc>Application source files</desc><rect width="97.078" height="10.061" x="0" y="583.89" class="st22"/><text x="4" y="586.22" class="st4">Application <tspan x="4" class="st11" dy="1.2em">source files</tspan></text></g><g id="shape312-250" transform="translate(12.7002,-456.451)"><title>Nordic Lake.120</title><rect width="16.019" height="10.061" x="0" y="583.89" class="st5"/></g><g id="shape313-252" transform="translate(12.7002,-446.39)"><title>Nordic Lake.121</title><rect width="16.019" height="10.061" x="0" y="583.89" class="st3"/></g><g id="shape314-254" transform="translate(12.7002,-431.727)"><title>Nordic Lake.123</title><rect width="16.019" height="10.061" x="0" y="583.89" class="st15"/></g><g id="shape315-256" transform="translate(33.33,-421.236)"><title>Sheet.315</title><desc>Synchronization module</desc><rect width="97.078" height="21.26" x="0" y="572.691" class="st22"/><text x="4" y="580.62" class="st4">Synchronization <tspan x="4" class="st11" dy="1.2em">module</tspan></text></g><g id="shape316-260" transform="translate(444.522,-531.079)"><title>Dynamic connector.126</title><path d="M6.91 600.63 L6.91 600.99 L7.26 1065.97" class="st37"/></g><g id="shape317-268" transform="translate(150.251,-531.079)"><title>Nordic Blue.128</title><desc>Bluetooth LE Host</desc><rect width="202.677" height="42.52" x="0" y="551.431" class="st7"/><text x="57.01" y="575.99" class="st8">Bluetooth LE Host</text></g><g id="shape321-271" transform="translate(147.089,-428.031)"><title>Nordic Blue.129</title><path d="M0 593.95 L235.6 593.95 L235.6 512.16 L0 512.16 L0 593.95 Z" class="st18"/></g><g id="shape322-273" transform="translate(147.089,-491.394)"><title>Sheet.322</title><desc>Bluetooth modules</desc><rect width="85.039" height="18.425" x="0" y="575.526" class="st22"/><text x="6.49" y="587.44" class="st30">Bluetooth modules</text></g><g id="shape323-276" transform="translate(204.282,-448.101)"><title>Nordic Light Grey.139</title><desc>broadcast_source.c</desc><rect width="94.615" height="33.38" x="0" y="560.57" class="st5"/><text x="12.4" y="579.66" class="st6">broadcast_source.c</text></g><g id="shape327-279" transform="translate(313.243,-492.111)"><title>Dynamic connector.143</title><path d="M7.09 593.95 L7.09 562.02" class="st1"/></g><g id="shape328-284" transform="translate(291.969,-403.52)"><title>Nordic Sky.328</title><desc>main.c</desc><rect width="85.039" height="18.425" x="0" y="575.526" class="st5"/><text x="30.74" y="587.14" class="st6">main.c</text></g></g></svg>