<svg xmlns="http://www.w3.org/2000/svg" xmlns:ev="http://www.w3.org/2001/xml-events" xmlns:xlink="http://www.w3.org/1999/xlink" width="593.316" height="787.942" class="st14" color-interpolation-filters="sRGB" viewBox="0 0 444.987 590.957" xml:space="preserve"><style type="text/css">.st1,.st2{fill:#d9e1e2;stroke:none;stroke-width:1}.st2{stroke:#feffff}.st3{fill:#000;font-family:Arial;font-size:.916672em}.st4{fill:#0077c8;stroke:none;stroke-width:1}.st5{fill:#fff;font-family:Arial;font-size:.916672em}.st6,.st7{fill:#768692;stroke:none;stroke-width:1}.st7{fill:#00a9ce}.st8{fill:#feffff;font-family:Arial;font-size:.916672em}.st9{fill:#00a9ce;stroke:#0077c8;stroke-width:3.25}.st10{font-size:1em}.st11,.st12{fill:#fff;font-family:Arial;font-size:.75em}.st12{fill:#feffff;font-size:.666664em}.st13{fill:#00a9ce;stroke:#d9e1e2;stroke-width:2.25}.st14{fill:none;fill-rule:evenodd;font-size:12px;overflow:visible;stroke-linecap:square;stroke-miterlimit:3}</style><g><title>Page-1</title><g id="shape28-1" transform="translate(1,-1)"><title>Nordic Light Grey</title><rect width="442.987" height="588.957" x="0" y="2" class="st1"/></g><g id="shape56-3" transform="translate(11.2805,-45.0551)"><title>Sheet.56</title><desc>RPU (MeOS)</desc><rect width="422.426" height="153.071" x="0" y="437.886" class="st2"/><text x="340.8" y="451.79" class="st3">RPU (MeOS)</text></g><g id="shape39-6" transform="translate(25.202,-81.9055)"><title>Nordic Blue.1005</title><desc>LMAC</desc><rect width="394.583" height="22.677" x="0" y="568.28" class="st4"/><text x="182.01" y="582.92" class="st5">LMAC</text></g><g id="shape52-9" transform="translate(25.202,-52.1417)"><title>Nordic Blue.52</title><desc>Baseband</desc><rect width="394.583" height="22.677" x="0" y="568.28" class="st4"/><text x="172.52" y="582.92" class="st5">Baseband</text></g><g id="shape55-12" transform="translate(1,-1)"><title>Nordic Blue.55</title><desc>FullMAC (Zephyr)</desc><rect width="442.987" height="34.016" x="0" y="556.941" class="st6"/><text x="178.1" y="577.25" class="st5">FullMAC (Zephyr)</text></g><g id="shape57-15" transform="translate(25.202,-111.669)"><title>Nordic Blue.57</title><desc>UMAC</desc><rect width="394.583" height="65.197" x="0" y="525.76" class="st4"/><text x="181.1" y="539.66" class="st5">UMAC</text></g><g id="shape58-18" transform="translate(38.2414,-124.536)"><title>Sheet.58</title><desc>mac80211</desc><rect width="368.504" height="28.346" x="0" y="562.61" class="st7"/><text x="46.79" y="580.08" class="st8">mac80211</text></g><g id="shape59-21" transform="translate(300.699,-134.346)"><title>Sheet.59</title><desc>cfg80211</desc><rect width="106.299" height="20.409" x="0" y="570.547" class="st9"/><text x="30.52" y="584.05" class="st8">cfg80211</text></g><g id="shape78-24" transform="translate(11.2805,-205.213)"><title>Sheet.78</title><rect width="422.426" height="376.358" x="0" y="214.598" class="st2"/></g><g id="shape75-26" transform="translate(334.745,-370.384)"><title>Nordic Blue.1000</title><desc>WPA supplicant</desc><rect width="85.039" height="109.042" x="0" y="481.915" class="st7"/><text x="29.99" y="533.14" class="st5">WPA <tspan x="17.75" class="st10" dy="1.2em">supplicant</tspan></text></g><g id="shape72-30" transform="translate(25.3176,-484.753)"><title>Nordic Blue.8</title><desc>Socket API</desc><rect width="303.419" height="33.162" x="0" y="557.795" class="st7"/><text x="124.5" y="577.68" class="st5">Socket API</text></g><g id="shape74-33" transform="translate(25.202,-370.384)"><title>Nordic Blue.10</title><desc>L2 network technologies</desc><rect width="303.423" height="33.162" x="0" y="557.795" class="st7"/><text x="92.4" y="577.68" class="st5">L2 network technologies</text></g><g id="shape84-36" transform="translate(25.202,-213.717)"><title>Nordic Blue.84</title><desc>Wi-Fi driver</desc><rect width="394.583" height="147.402" x="0" y="443.555" class="st4"/><text x="169.18" y="457.46" class="st5">Wi-Fi driver</text></g><g id="shape85-39" transform="translate(38.2414,-222.22)"><title>Sheet.85</title><desc>Bus IF</desc><rect width="368.504" height="22.677" x="0" y="568.28" class="st7"/><text x="168.36" y="582.92" class="st8">Bus IF</text></g><g id="shape87-42" transform="translate(38.2414,-252.457)"><title>Sheet.87</title><desc>HAL</desc><rect width="368.504" height="22.677" x="0" y="568.28" class="st7"/><text x="173.55" y="582.92" class="st8">HAL</text></g><g id="shape88-45" transform="translate(38.2414,-282.693)"><title>Sheet.88</title><desc>UMAC IF</desc><rect width="368.504" height="22.677" x="0" y="568.28" class="st7"/><text x="161.64" y="582.92" class="st8">UMAC IF</text></g><g id="shape91-48" transform="translate(25.3176,-408.324)"><title>Nordic Blue.91</title><desc>Network IF abstraction</desc><rect width="303.419" height="33.162" x="0" y="557.795" class="st7"/><text x="96.69" y="577.68" class="st5">Network IF abstraction</text></g><g id="shape118-51" transform="translate(334.745,-484.753)"><title>Nordic Blue.118</title><desc>Network management API</desc><rect width="85.039" height="34.016" x="0" y="556.941" class="st7"/><text x="26.02" y="571.25" class="st11">Network <tspan x="7.75" class="st10" dy="1.2em">management API</tspan></text></g><g id="shape89-55" transform="translate(38.2413,-312.929)"><title>Sheet.89</title><desc>Data IF</desc><rect width="287.545" height="22.677" x="0" y="568.28" class="st7"/><text x="125.74" y="582.92" class="st8">Data IF</text></g><g id="shape90-58" transform="translate(330.21,-312.929)"><title>Sheet.90</title><desc>WPA supplicant IF</desc><rect width="76.535" height="22.677" x="0" y="568.28" class="st7"/><text x="5.37" y="582.02" class="st12">WPA supplicant IF</text></g><g id="shape119-61" transform="translate(25.202,-522.693)"><title>Sheet.119</title><desc>Network applications</desc><rect width="394.583" height="49.606" x="0" y="541.35" class="st7"/><text x="146.54" y="555.25" class="st8">Network applications</text></g><g id="shape120-64" transform="translate(23.8963,-521.276)"><title>Nordic Blue.120</title><desc>Application protocols</desc><rect width="202.677" height="19.843" x="0" y="571.114" class="st13"/><text x="50.59" y="584.34" class="st5">Application protocols</text></g><g id="group125-67" transform="translate(25.3136,-446.264)"><title>Sheet.125</title><g id="shape73-68"><title>Nordic Blue.9</title><desc>Network protocols</desc><rect width="221.102" height="33.162" x="0" y="557.795" class="st7"/><text x="66.53" y="577.68" class="st5">Network protocols</text></g><g id="shape117-71" transform="translate(226.887,-0.548534)"><title>Nordic Blue.117</title><desc>Non-IP sockets</desc><rect width="76.535" height="33.162" x="0" y="557.795" class="st7"/><text x="21.15" y="571.08" class="st5">Non-IP <tspan x="19.62" class="st10" dy="1.2em">sockets</tspan></text></g></g></g></svg>