<svg xmlns="http://www.w3.org/2000/svg" xmlns:ev="http://www.w3.org/2001/xml-events" xmlns:xlink="http://www.w3.org/1999/xlink" width="602.412" height="622.548" class="st17" color-interpolation-filters="sRGB" viewBox="0 0 451.809 466.912" xml:space="preserve"><style type="text/css">.st1,.st2{fill:#00a9ce;stroke:#feffff;stroke-width:1}.st2{fill:#ffcd00;stroke:none}.st3{fill:#333f48;font-family:Arial;font-size:.75em}.st4{fill:#768692;stroke:none;stroke-width:1}.st5{fill:#fff;font-family:Arial;font-size:.75em}.st6,.st7{fill:#d0df00;stroke:none;stroke-width:1}.st7{fill:#00a9ce}.st8{fill:#feffff;font-family:Arial;font-size:.75em}.st9{font-size:1em}.st10,.st11{stroke:#00a9ce}.st10{marker-end:url(#mrkr13-63);stroke-linecap:butt;stroke-width:1}.st11{fill:#00a9ce;fill-opacity:1;stroke-opacity:1;stroke-width:.28409090909091}.st12{fill:none;stroke:none;stroke-width:1}.st13{fill:#00a9ce;font-family:Arial;font-size:.75em}.st14,.st15{stroke-width:1}.st14{marker-end:url(#mrkr4-92);stroke:#00a9ce;stroke-linecap:butt}.st15{fill:#fff;stroke:#000}.st16{fill:#000;font-family:Arial;font-size:.916672em}.st17{fill:none;fill-rule:evenodd;font-size:12px;overflow:visible;stroke-linecap:square;stroke-miterlimit:3}</style><defs id="Markers"><g id="lend13"><path d="M 3 1 L 0 0 L 3 -1 L 3 1" style="stroke:none"/></g><marker id="mrkr13-63" class="st11" markerUnits="strokeWidth" orient="auto" overflow="visible" refX="-10.56"><use transform="scale(-3.52,-3.52)" xlink:href="#lend13"/></marker><g id="lend4"><path d="M 2 1 L 0 0 L 2 -1 L 2 1" style="stroke:none"/></g><marker id="mrkr4-92" class="st11" markerUnits="strokeWidth" orient="auto" overflow="visible" refX="-7.04"><use transform="scale(-3.52,-3.52)" xlink:href="#lend4"/></marker></defs><g><title>Page-1</title><g id="shape251-1" transform="translate(24.5097,-193.896)"><title>Circle.78</title><path d="M0 457.98 A8.92913 8.92913 0 0 1 17.86 457.98 A8.92913 8.92913 0 1 1 0 457.98 Z" class="st1"/></g><g id="shape262-3" transform="translate(140.267,-139.896)"><title>Nordic Sun</title><desc>LED 3</desc><rect width="54.64" height="23.591" x="0" y="443.321" class="st2"/><text x="14.81" y="457.82" class="st3">LED 3</text></g><g id="shape263-6" transform="translate(200.24,-139.896)"><title>Nordic Sun.263</title><desc>LED 4</desc><rect width="54.64" height="23.591" x="0" y="443.321" class="st2"/><text x="14.81" y="457.82" class="st3">LED 4</text></g><g id="shape268-9" transform="translate(140.267,-406.809)"><title>Nordic Middle Grey.172</title><desc>LED 3</desc><rect width="54.64" height="23.591" x="0" y="443.321" class="st4"/><text x="14.81" y="457.82" class="st5">LED 3</text></g><g id="shape269-12" transform="translate(199.441,-406.809)"><title>Nordic Middle Grey.269</title><desc>LED 4</desc><rect width="54.64" height="23.591" x="0" y="443.321" class="st4"/><text x="14.81" y="457.82" class="st5">LED 4</text></g><g id="shape272-15" transform="translate(140.267,-352.494)"><title>Nordic Sun.272</title><desc>LED 3</desc><rect width="54.64" height="23.591" x="0" y="443.321" class="st2"/><text x="14.81" y="457.82" class="st3">LED 3</text></g><g id="shape273-18" transform="translate(199.441,-352.494)"><title>Nordic Middle Grey.273</title><desc>LED 4</desc><rect width="54.64" height="23.591" x="0" y="443.321" class="st4"/><text x="14.81" y="457.82" class="st5">LED 4</text></g><g id="shape276-21" transform="translate(199.441,-298.179)"><title>Nordic Middle Grey.276</title><desc>LED 4</desc><rect width="54.64" height="23.591" x="0" y="443.321" class="st4"/><text x="14.81" y="457.82" class="st5">LED 4</text></g><g id="shape278-24" transform="translate(200.24,-243.204)"><title>Nordic Sun.278</title><desc>LED 4</desc><rect width="54.64" height="23.591" x="0" y="443.321" class="st2"/><text x="14.81" y="457.82" class="st3">LED 4</text></g><g id="shape293-27" transform="translate(140.267,-6.41682)"><title>Nordic Middle Grey.293</title><desc>LED 3</desc><rect width="54.64" height="23.591" x="0" y="443.321" class="st4"/><text x="14.81" y="457.82" class="st5">LED 3</text></g><g id="shape308-30" transform="translate(140.267,-298.179)"><title>Nordic Grass.308</title><desc>LED 3</desc><rect width="54.64" height="23.591" x="0" y="443.321" class="st6"/><text x="14.81" y="457.82" class="st3">LED 3</text></g><g id="shape310-33" transform="translate(200.24,-6.41682)"><title>Nordic Grass.310</title><desc>LED 4</desc><rect width="54.64" height="23.591" x="0" y="443.321" class="st6"/><text x="14.81" y="457.82" class="st3">LED 4</text></g><g id="shape312-36" transform="translate(1,-401.392)"><title>Sheet.312</title><desc>Startup</desc><ellipse cx="32.439" cy="452.408" class="st7" rx="32.439" ry="14.504"/><text x="17.93" y="455.11" class="st8">Startup</text></g><g id="shape314-39" transform="translate(1,-347.078)"><title>Sheet.314</title><desc>LTE connecting</desc><ellipse cx="32.439" cy="452.408" class="st7" rx="32.439" ry="14.504"/><text x="24.19" y="449.71" class="st8">LTE <tspan x="10.67" class="st9" dy="1.2em">connecting</tspan></text></g><g id="shape316-43" transform="translate(1,-292.763)"><title>Sheet.316</title><desc>LTE connected</desc><ellipse cx="32.439" cy="452.408" class="st7" rx="32.439" ry="14.504"/><text x="24.19" y="449.71" class="st8">LTE <tspan x="11.67" class="st9" dy="1.2em">connected</tspan></text></g><g id="shape318-47" transform="translate(1,-237.787)"><title>Sheet.318</title><desc>nRF Cloud connecting</desc><ellipse cx="32.439" cy="452.408" class="st7" rx="32.439" ry="14.504"/><text x="10.93" y="449.71" class="st8">nRF Cloud <tspan x="10.67" class="st9" dy="1.2em">connecting</tspan></text></g><g id="shape321-51" transform="translate(1.01627,-56.2114)"><title>Sheet.321</title><desc>Associated</desc><ellipse cx="32.439" cy="452.408" class="st7" rx="32.439" ry="14.504"/><text x="10.43" y="455.11" class="st8">Associated</text></g><g id="shape323-54" transform="translate(1.01627,-1)"><title>Sheet.323</title><desc>nRF Cloud connected</desc><ellipse cx="32.439" cy="452.408" class="st7" rx="32.439" ry="14.504"/><text x="10.93" y="449.71" class="st8">nRF Cloud <tspan x="11.67" class="st9" dy="1.2em">connected</tspan></text></g><g id="shape325-58" transform="translate(40.5254,-401.392)"><title>Dynamic connector.325</title><path d="M-7.09 466.91 L-7.09 481.66" class="st10"/></g><g id="shape326-64" transform="translate(40.8039,-352.494)"><title>Dynamic connector.326</title><path d="M-7.08 466.91 L-7.09 487.08" class="st10"/></g><g id="shape327-69" transform="translate(40.5335,-297.519)"><title>Dynamic connector.327</title><path d="M-7.08 466.91 L-7.09 487.08" class="st10"/></g><g id="shape328-74" transform="translate(40.5335,-243.204)"><title>Dynamic connector.328</title><path d="M-7.08 466.91 L-7.09 487.08" class="st10"/></g><g id="shape329-79" transform="translate(42.3679,-202.825)"><title>Dynamic connector.329</title><path d="M0 466.91 L156.74 466.91 L156.74 489.94" class="st10"/></g><g id="shape331-84" transform="translate(65.8776,-203.771)"><title>Sheet.331</title><desc>Not associated</desc><rect width="87.024" height="10.488" x="0" y="456.424" class="st12"/><text x="13.75" y="464.37" class="st13">Not associated</text></g><g id="shape337-87" transform="translate(199.425,-136.306)"><title>Dynamic connector</title><path d="M0 466.91 L0 488.17 L-158.93 488.17" class="st14"/></g><g id="shape341-93" transform="translate(54.7991,-83.046)"><title>Sheet.341</title><rect width="140" height="19" x="0" y="447.912" class="st12"/></g><g id="shape342-95" transform="translate(65.878,-99.6327)"><title>Sheet.342</title><desc>Add device on nRF Cloud</desc><rect width="111.189" height="19" x="0" y="447.912" class="st12"/><text x="4.31" y="460.11" class="st13">Add device on nRF Cloud</text></g><g id="shape345-98" transform="translate(26.3603,-193.896)"><title>Dynamic connector.345</title><path d="M7.08 466.91 L7.09 565.03" class="st10"/></g><g id="shape346-103" transform="translate(26.3603,-61.7064)"><title>Dynamic connector.346</title><path d="M7.08 466.91 L7.09 488.05" class="st10"/></g><g id="group347-108" transform="translate(338.84,-406.809)"><title>Sheet.347</title><g id="shape301-109"><title>Sheet.301</title><rect width="111.969" height="59.102" x="0" y="407.809" class="st15"/></g><g id="shape279-111" transform="translate(8.43064,-40.2205)"><title>Nordic Middle Grey.279</title><rect width="54.64" height="11.795" x="0" y="455.116" class="st4"/></g><g id="shape281-113" transform="translate(8.43064,-5.18261)"><title>Nordic Sun.281</title><rect width="54.64" height="11.795" x="0" y="455.116" class="st2"/></g><g id="shape300-115" transform="translate(61.6536,-39.2599)"><title>Sheet.300</title><desc>Off</desc><rect width="31.181" height="11.795" x="0" y="455.116" class="st12"/><text x="4" y="464.31" class="st16">Off</text></g><g id="shape280-118" transform="translate(8.43064,-23.8319)"><title>Nordic Grass.280</title><rect width="54.64" height="11.795" x="0" y="455.116" class="st6"/></g><g id="shape304-120" transform="translate(61.6536,-23.8319)"><title>Sheet.304</title><desc>On</desc><rect width="31.181" height="11.795" x="0" y="455.116" class="st12"/><text x="4" y="464.31" class="st16">On</text></g><g id="shape306-123" transform="translate(59.2724,-4.77503)"><title>Sheet.306</title><rect width="31.181" height="11.795" x="0" y="455.116" class="st12"/></g><g id="shape307-125" transform="translate(63.0709,-4.77503)"><title>Sheet.307</title><desc>Blink</desc><rect width="34.98" height="11.795" x="0" y="455.116" class="st12"/><text x="4" y="464.31" class="st16">Blink</text></g></g><g id="shape349-128" transform="translate(140.267,-243.204)"><title>Nordic Middle Grey.349</title><desc>LED 3</desc><rect width="54.64" height="23.591" x="0" y="443.321" class="st4"/><text x="14.81" y="457.82" class="st5">LED 3</text></g></g></svg>