<svg xmlns="http://www.w3.org/2000/svg" xmlns:ev="http://www.w3.org/2001/xml-events" xmlns:xlink="http://www.w3.org/1999/xlink" width="593.397" height="390.979" class="st19" color-interpolation-filters="sRGB" viewBox="0 0 445.048 293.235" xml:space="preserve"><style type="text/css">.st1,.st2{fill:#d9e1e2;stroke:none;stroke-width:1}.st2{fill:none;stroke:#000}.st3{fill:#000;font-family:Arial;font-size:.666664em}.st4,.st5{font-size:1em}.st5{fill:#0077c8}.st6{fill:#333f48}.st6,.st7,.st8{font-size:1em}.st7{fill:#f58220}.st8{fill:#ee2f4e}.st9{fill:#00a9ce;stroke:none;stroke-width:1}.st10{fill:#feffff;font-family:Arial;font-size:.833336em}.st11,.st12{stroke:#333f48}.st11{marker-end:url(#mrkr4-30);stroke-linecap:butt;stroke-width:1}.st12{fill:#333f48;fill-opacity:1;stroke-opacity:1;stroke-width:.28409090909091}.st13{fill:none;stroke:none;stroke-width:1}.st14{fill:#0077c8;font-family:Arial}.st14,.st15{font-size:.75em}.st15,.st16{font-family:Arial}.st15{fill:#333f48}.st16{fill:#ee2f4e;font-size:.666664em}.st17{font-size:1em;text-decoration:underline}.st18{fill:#333f48;font-family:Arial;font-size:.666664em}.st19{fill:none;fill-rule:evenodd;font-size:12px;overflow:visible;stroke-linecap:square;stroke-miterlimit:3}</style><defs id="Markers"><g id="lend4"><path d="M 2 1 L 0 0 L 2 -1 L 2 1" style="stroke:none"/></g><marker id="mrkr4-30" class="st12" markerUnits="strokeWidth" orient="auto" overflow="visible" refX="-7.04"><use transform="scale(-3.52,-3.52)" xlink:href="#lend4"/></marker></defs><g><title>Page-1</title><g id="shape447-1" transform="translate(279.32,-51.1397)"><title>Nordic Light Grey</title><rect width="164.728" height="17.326" x="0" y="275.908" class="st1"/></g><g id="shape371-3" transform="translate(279.32,-1)"><title>Sheet.371</title><desc>PEER OPERATION TRIGGERS - ble_peer_event - timeout - selector...</desc><rect width="164.728" height="67.466" x="0" y="225.768" class="st2"/><text x="4" y="240.9" class="st3">PEER OPERATION TRIGGERS <tspan x="4" class="st4" dy="2.4em">-</tspan> <tspan class="st5">ble_peer_event </tspan><tspan x="4" class="st6" dy="1.2em">-</tspan><tspan class="st6"> </tspan><tspan class="st7">timeout </tspan><tspan x="4" class="st4" dy="1.538em">-</tspan> <tspan class="st8">selector_event</tspan> (predefined selector)</text></g><g id="shape448-13" transform="translate(98.7172,-157.796)"><title>Nordic Blue.448</title><desc>STATE_STANDBY</desc><rect width="123.732" height="33.62" x="0" y="259.615" class="st9"/><text x="19.36" y="279.72" class="st10">STATE_STANDBY</text></g><g id="shape449-16" transform="translate(7.37078,-240.001)"><title>Nordic Blue.449</title><desc>STATE_IDLE</desc><rect width="123.732" height="33.62" x="0" y="259.615" class="st9"/><text x="31.86" y="279.72" class="st10">STATE_IDLE</text></g><g id="shape450-19" transform="translate(87.9141,-82.4802)"><title>Nordic Blue.450</title><desc>STATE_DONGLE_STANDBY</desc><rect width="145.339" height="33.62" x="0" y="259.615" class="st9"/><text x="6.26" y="279.72" class="st10">STATE_DONGLE_STANDBY</text></g><g id="shape451-22" transform="translate(185.324,-240.001)"><title>Nordic Blue.451</title><desc>STATE_DISABLED_STANDBY</desc><rect width="159.512" height="33.62" x="0" y="259.615" class="st9"/><text x="9.73" y="279.72" class="st10">STATE_DISABLED_STANDBY</text></g><g id="shape452-25" transform="translate(265.079,-240.001)"><title>Dynamic connector</title><path d="M0 293.23 L0 318.94 L-95.99 318.94 L-95.99 334.78" class="st11"/></g><g id="shape453-31" transform="translate(69.2369,-240.001)"><title>Dynamic connector.453</title><path d="M0 293.23 L0 318.94 L81.43 318.94 L81.43 334.78" class="st11"/></g><g id="shape454-36" transform="translate(142.725,-157.796)"><title>Dynamic connector.454</title><path d="M7.09 293.23 L7.09 327.89" class="st11"/></g><g id="shape455-41" transform="translate(98.7172,-174.606)"><title>Dynamic connector.455</title><path d="M0 293.23 L-45.99 293.23 L-45.99 234.88" class="st11"/></g><g id="shape457-46" transform="translate(163.418,-116.1)"><title>Dynamic connector.457</title><path d="M7.09 293.23 L7.09 258.58" class="st11"/></g><g id="shape458-51" transform="translate(87.9141,-1)"><title>Nordic Blue.458</title><desc>STATE_DONGLE</desc><rect width="145.339" height="33.62" x="0" y="259.615" class="st9"/><text x="32.66" y="279.72" class="st10">STATE_DONGLE</text></g><g id="shape459-54" transform="translate(156.331,-82.4802)"><title>Dynamic connector.459</title><path d="M-7.09 293.23 L-7.09 334.05" class="st11"/></g><g id="shape460-59" transform="translate(164.268,-34.6199)"><title>Dynamic connector.460</title><path d="M7.09 293.23 L7.09 252.41" class="st11"/></g><g id="shape462-64" transform="translate(69.8038,-217.126)"><title>Sheet.462</title><desc>power_down_event</desc><rect width="86.811" height="11.008" x="0" y="282.227" class="st13"/><text x="4" y="290.43" class="st14">power_down_event</text></g><g id="shape463-67" transform="translate(27.355,-161.27)"><title>Sheet.463</title><desc>wake_up_event</desc><rect width="71.362" height="11.008" x="0" y="282.227" class="st13"/><text x="4" y="290.43" class="st14">wake_up_event</text></g><g id="shape464-70" transform="translate(169.087,-217.126)"><title>Sheet.464</title><desc>(on initialization)</desc><rect width="95.992" height="11.008" x="0" y="282.227" class="st13"/><text x="15.48" y="290.43" class="st15">(on initialization)</text></g><g id="shape468-73" transform="translate(173.938,-51.1397)"><title>Sheet.468</title><desc>power_down_event</desc><rect width="92.945" height="11.008" x="0" y="282.227" class="st13"/><text x="4" y="290.43" class="st14">power_down_event</text></g><g id="shape469-76" transform="translate(68.3225,-51.1397)"><title>Sheet.469</title><desc>wake_up_event</desc><rect width="78.173" height="11.008" x="0" y="282.227" class="st13"/><text x="4" y="290.43" class="st14">wake_up_event</text></g><g id="shape471-79" transform="translate(172.953,-124.902)"><title>Sheet.471</title><desc>DONGLE_PEER_SELECTOR_POS (PEER_OPERATION_SELECTED)</desc><rect width="145.339" height="22.609" x="0" y="270.625" class="st13"/><text x="4" y="279.53" class="st16">DONGLE_PEER_SELECTOR_POS <tspan x="4" class="st6" dy="1.2em">(PEER_OPERATION_SELECTED)</tspan></text></g><g id="shape472-83" transform="translate(1,-120.485)"><title>Sheet.472</title><desc>not DONGLE_PEER_SELECTOR_POS (PEER_OPERATION_SELECTED)</desc><rect width="145.339" height="31.444" x="0" y="261.79" class="st13"/><text x="130.22" y="270.31" class="st16"><tspan class="st17">not </tspan><tspan x="12.41" class="st4" dy="1.2em">DONGLE_PEER_SELECTOR_POS </tspan><tspan x="15.98" class="st6" dy="1.2em">(PEER_OPERATION_SELECTED)</tspan></text></g><g id="shape473-89" transform="translate(7.37078,-273.621)"><title>Sheet.473</title><desc>See Diagram #1</desc><rect width="70.122" height="18.614" x="0" y="274.621" class="st13"/><text x="4" y="286.33" class="st18">See Diagram #1</text></g><g id="shape474-92" transform="translate(274.713,-273.621)"><title>Sheet.474</title><desc>See Diagram #1</desc><rect width="70.122" height="18.614" x="0" y="274.621" class="st13"/><text x="8.31" y="286.33" class="st18">See Diagram #1</text></g></g></svg>