<svg xmlns="http://www.w3.org/2000/svg" xmlns:xlink="http://www.w3.org/1999/xlink" id="Layer_1" width="451" height="289" x="0" y="0" enable-background="new 0 0 451 289" version="1.0" viewBox="0 0 451 289" xml:space="preserve"><g><line x1="211.94" x2="191.54" y1="82.419" y2="114.939" fill="none" stroke="#000" stroke-linecap="round" stroke-linejoin="round" stroke-miterlimit="10" stroke-width=".72"/><line x1="270.86" x2="234.32" y1="53.859" y2="64.779" fill="none" stroke="#000" stroke-linecap="round" stroke-linejoin="round" stroke-miterlimit="10" stroke-width=".72"/><line x1="285.86" x2="323.3" y1="98.439" y2="118.479" fill="none" stroke="#000" stroke-linecap="round" stroke-linejoin="round" stroke-miterlimit="10" stroke-width=".24"/><polyline fill="none" stroke="#000" stroke-linecap="round" stroke-linejoin="bevel" stroke-miterlimit="10" stroke-width=".72" points="231.74 67.119 231.38 67.599 231.26 68.139 231.32 68.679 231.62 69.159 232.04 69.519"/><line x1="229.76" x2="302.24" y1="91.419" y2="135.219" fill="none" stroke="#000" stroke-linecap="round" stroke-linejoin="round" stroke-miterlimit="10" stroke-width=".24"/><polyline fill="none" stroke="#000" stroke-linecap="round" stroke-linejoin="bevel" stroke-miterlimit="10" stroke-width=".72" points="213.98 81.939 213.44 81.699 212.84 81.759 212.3 81.999 211.94 82.419"/><polyline fill="none" stroke="#000" stroke-linecap="round" stroke-linejoin="round" stroke-miterlimit="10" stroke-width=".72" points="325.94 75.579 315.26 70.779 304.52 66.219 293.72 61.839 282.8 57.759 271.76 53.859"/><line x1="271.76" x2="270.86" y1="53.859" y2="53.859" fill="none" stroke="#000" stroke-linecap="round" stroke-linejoin="bevel" stroke-miterlimit="10" stroke-width=".72"/><polyline fill="none" stroke="#000" stroke-linecap="round" stroke-linejoin="bevel" stroke-miterlimit="10" stroke-width=".72" points="358.16 92.019 352.94 88.959 347.66 86.019 342.32 83.199 336.92 80.499 331.4 77.979 325.88 75.579"/><path fill="none" stroke="#000" stroke-linecap="round" stroke-linejoin="bevel" stroke-miterlimit="10" stroke-width=".72" d="M394.76,117.939l-4.92-4.14c-8.124-6.746-17.058-13.028-26.1-18.48l-5.58-3.24"/><path fill="none" stroke="#000" stroke-linecap="round" stroke-linejoin="bevel" stroke-miterlimit="10" stroke-width=".72" d="M448.64,219.579l-1.56-6.12c-2.691-10.378-5.906-20.17-9.9-30.12l-2.4-5.82"/><path fill="none" stroke="#000" stroke-linecap="round" stroke-linejoin="bevel" stroke-miterlimit="10" stroke-width=".72" d="M434.78,177.459l-2.16-5.16c-3.665-8.522-8.048-16.699-12.9-24.6l-3-4.62"/><polyline fill="none" stroke="#000" stroke-linecap="round" stroke-linejoin="bevel" stroke-miterlimit="10" stroke-width=".72" points="416.78 143.079 413.48 138.579 410 134.199 406.46 129.939 402.68 125.799 398.78 121.839 394.76 117.999"/><path fill="none" stroke="#000" stroke-linecap="round" stroke-linejoin="bevel" stroke-miterlimit="10" stroke-width=".72" d="M443.66,246.399l1.26-3.24c2.359-6.452,3.593-13.298,3.78-20.16l-0.06-3.42"/><polyline fill="none" stroke="#000" stroke-linecap="round" stroke-linejoin="bevel" stroke-miterlimit="10" stroke-width=".72" points="438.08 258.339 439.7 255.459 441.14 252.519 442.46 249.459 443.66 246.399"/><line x1="437.78" x2="438.02" y1="258.699" y2="258.339" fill="none" stroke="#000" stroke-linecap="round" stroke-linejoin="bevel" stroke-miterlimit="10" stroke-width=".72"/><polyline fill="none" stroke="#000" stroke-linecap="round" stroke-linejoin="round" stroke-miterlimit="10" stroke-width=".72" points="189.44 119.619 200.12 128.859 211.04 137.799"/><polyline fill="none" stroke="#000" stroke-linecap="round" stroke-linejoin="bevel" stroke-miterlimit="10" stroke-width=".72" points="189.26 118.599 189.14 118.959 189.2 119.319 189.44 119.619"/><path fill="none" stroke="#000" stroke-linecap="round" stroke-linejoin="round" stroke-miterlimit="10" stroke-width=".72" d="M211.04,137.799l10.38,8.64c21.15,17.047,42.599,34.575,65.82,48.78l7.98,4.68"/><polyline fill="none" stroke="#000" stroke-linecap="round" stroke-linejoin="round" stroke-miterlimit="10" stroke-width=".24" points="363.02 177.339 353.18 180.159 343.4 183.219 333.68 186.459 324.02 189.879 314.42 193.479 304.94 197.259"/><polyline fill="none" stroke="#000" stroke-linecap="round" stroke-linejoin="round" stroke-miterlimit="10" stroke-width=".24" points="360.38 163.239 350.48 167.799 340.7 172.599 330.98 177.579 321.44 182.859 311.96 188.319 302.66 194.019"/><line x1="363.02" x2="360.38" y1="177.339" y2="163.239" fill="none" stroke="#000" stroke-linecap="round" stroke-linejoin="round" stroke-miterlimit="10" stroke-width=".24"/><line x1="304.94" x2="302.66" y1="197.259" y2="194.019" fill="none" stroke="#000" stroke-linecap="round" stroke-linejoin="round" stroke-miterlimit="10" stroke-width=".24"/><polyline fill="none" stroke="#000" stroke-linecap="round" stroke-linejoin="round" stroke-miterlimit="10" stroke-width=".24" points="390.14 114.039 385.28 123.459 380.6 132.999 376.04 142.599 371.72 152.319"/><polyline fill="none" stroke="#000" stroke-linecap="round" stroke-linejoin="round" stroke-miterlimit="10" stroke-width=".24" points="393.44 116.799 388.52 152.979 371.72 152.319"/><path fill="none" stroke="#000" stroke-linecap="round" stroke-linejoin="bevel" stroke-miterlimit="10" stroke-width=".24" d="M350.48,143.739l0.12-1.86c0.132-7.026-2.742-13.717-8.16-18.24l-1.5-1.2"/><path fill="none" stroke="#000" stroke-linecap="round" stroke-linejoin="bevel" stroke-miterlimit="10" stroke-width=".24" d="M318.08,144.639l3.12,0.78c6.917,1.729,15.006,2.165,22.08,1.32l3.18-0.42"/><polyline fill="none" stroke="#000" stroke-linecap="round" stroke-linejoin="round" stroke-miterlimit="10" stroke-width=".24" points="302.24 135.219 307.4 138.519 312.68 141.699 318.08 144.639"/><line x1="325.88" x2="233.84" y1="113.559" y2="65.019" fill="none" stroke="#000" stroke-linecap="round" stroke-linejoin="round" stroke-miterlimit="10" stroke-width=".24"/><polyline fill="none" stroke="#000" stroke-linecap="round" stroke-linejoin="bevel" stroke-miterlimit="10" stroke-width=".24" points="340.94 122.439 337.34 119.979 333.62 117.639 329.78 115.479 325.82 113.559"/><line x1="311.3" x2="287.54" y1="132.759" y2="118.239" fill="none" stroke="#000" stroke-linecap="round" stroke-linejoin="round" stroke-miterlimit="10" stroke-width=".24"/><path fill="none" stroke="#000" stroke-linecap="round" stroke-linejoin="bevel" stroke-miterlimit="10" stroke-width=".24" d="M336.08,130.179l-1.2-1.86c-2.62-3.737-5.693-6.56-9.66-8.82l-1.98-0.96"/><path fill="none" stroke="#000" stroke-linecap="round" stroke-linejoin="bevel" stroke-miterlimit="10" stroke-width=".24" d="M311.36,132.759l2.04,1.02c4.32,2.165,10.938,3.175,15.72,2.52l2.28-0.36"/><path fill="none" stroke="#000" stroke-linecap="round" stroke-linejoin="round" stroke-miterlimit="10" stroke-width=".24" d="M331.4,135.939l2.16-0.6c2.506-0.496,3.384-1.487,2.82-4.08l-0.3-1.08"/><line x1="233.72" x2="231.68" y1="65.139" y2="67.119" fill="none" stroke="#000" stroke-linecap="round" stroke-linejoin="round" stroke-miterlimit="10" stroke-width=".72"/><line x1="234.38" x2="233.78" y1="64.779" y2="65.139" fill="none" stroke="#000" stroke-linecap="round" stroke-linejoin="bevel" stroke-miterlimit="10" stroke-width=".72"/><path fill="none" stroke="#000" stroke-linecap="round" stroke-linejoin="round" stroke-miterlimit="10" stroke-width=".24" d="M402.08,269.859l-4.8-5.94c-22.872-27.479-51.324-49.24-83.76-64.26l-6.96-3.06"/><polyline fill="none" stroke="#000" stroke-linecap="round" stroke-linejoin="bevel" stroke-miterlimit="10" stroke-width=".72" points="403.46 271.599 404 272.199 404.72 272.619 405.5 272.919 406.34 273.039 407.18 272.979 407.96 272.679"/><path fill="none" stroke="#000" stroke-linecap="round" stroke-linejoin="round" stroke-miterlimit="10" stroke-width=".24" d="M191.54,114.939l9.12,8.22c27.497,24.504,57.086,46.662,88.32,66.18l10.5,6.42"/><path fill="none" stroke="#000" stroke-linecap="round" stroke-linejoin="round" stroke-miterlimit="10" stroke-width=".72" d="M197.72,157.419l7.62,12.84c15.507,25.527,32.287,50.276,50.22,74.16l9.06,11.82"/><line x1="197.54" x2="197.66" y1="157.119" y2="157.419" fill="none" stroke="#000" stroke-linecap="round" stroke-linejoin="bevel" stroke-miterlimit="10" stroke-width=".72"/><path fill="none" stroke="#000" stroke-linecap="round" stroke-linejoin="bevel" stroke-miterlimit="10" stroke-width=".72" d="M264.68,256.239l2.04,2.52c12.644,15.188,31.469,24.387,51.18,25.32l3.3,0.06"/><path fill="none" stroke="#000" stroke-linecap="round" stroke-linejoin="bevel" stroke-miterlimit="10" stroke-width=".72" d="M321.2,284.199l5.7-0.06c13.224-0.255,26.414-1.802,39.36-4.5l5.52-1.26"/><line x1="371.84" x2="372.32" y1="278.319" y2="278.139" fill="none" stroke="#000" stroke-linecap="round" stroke-linejoin="bevel" stroke-miterlimit="10" stroke-width=".72"/><line x1="381.68" x2="372.32" y1="271.659" y2="278.139" fill="none" stroke="#000" stroke-linecap="round" stroke-linejoin="round" stroke-miterlimit="10" stroke-width=".72"/><line x1="408.5" x2="437.78" y1="272.499" y2="258.699" fill="none" stroke="#000" stroke-linecap="round" stroke-linejoin="round" stroke-miterlimit="10" stroke-width=".72"/><path fill="none" stroke="#000" stroke-linecap="round" stroke-linejoin="round" stroke-miterlimit="10" stroke-width=".72" d="M383.96,264.879l-6-5.76c-17.963-17.058-38.854-31.756-60.78-43.26l-7.44-3.72"/><line x1="235.88" x2="189.86" y1="164.499" y2="125.139" fill="none" stroke="#000" stroke-linecap="round" stroke-linejoin="round" stroke-miterlimit="10" stroke-width=".72"/><line x1="188.48" x2="197.54" y1="130.239" y2="157.119" fill="none" stroke="#000" stroke-linecap="round" stroke-linejoin="round" stroke-miterlimit="10" stroke-width=".72"/><line x1="230.36" x2="188.48" y1="166.479" y2="130.239" fill="none" stroke="#000" stroke-linecap="round" stroke-linejoin="round" stroke-miterlimit="10" stroke-width=".24"/><path fill="none" stroke="#000" stroke-linecap="round" stroke-linejoin="round" stroke-miterlimit="10" stroke-width=".24" d="M378.8,268.839l-5.64-5.46c-18.91-17.884-40.793-33.317-63.96-45.18l-7.02-3.48"/><line x1="261.5" x2="264.86" y1="189.999" y2="192.219" fill="none" stroke="#000" stroke-linecap="round" stroke-linejoin="round" stroke-miterlimit="10" stroke-width=".24"/><path fill="none" stroke="#000" stroke-linecap="round" stroke-linejoin="bevel" stroke-miterlimit="10" stroke-width=".24" d="M302.12,214.719l1.2,0.12c1.87,0.049,4.071-0.66,5.52-1.86l0.84-0.84"/><line x1="231.44" x2="235.1" y1="168.519" y2="171.219" fill="none" stroke="#000" stroke-linecap="round" stroke-linejoin="round" stroke-miterlimit="10" stroke-width=".24"/><path fill="none" stroke="#000" stroke-linecap="round" stroke-linejoin="bevel" stroke-miterlimit="10" stroke-width=".42" d="M235.88,164.559l-0.54,0.9c-0.959,2.289-0.988,3.924-0.06,6.24l0.54,0.96"/><polyline fill="none" stroke="#000" stroke-linecap="round" stroke-linejoin="round" stroke-miterlimit="10" stroke-width=".42" points="235.88 164.559 245.36 171.399 254.9 178.059 264.56 184.599"/><polyline fill="none" stroke="#000" stroke-linecap="round" stroke-linejoin="round" stroke-miterlimit="10" stroke-width=".42" points="267.32 186.399 277.76 193.119 288.32 199.659 298.94 205.959 309.74 212.139"/><path fill="none" stroke="#000" stroke-linecap="round" stroke-linejoin="bevel" stroke-miterlimit="10" stroke-width=".42" d="M292.22,209.799l1.2,0.18c2.436,0.283,4.939-0.47,6.9-1.92l0.9-0.78"/><polyline fill="none" stroke="#000" stroke-linecap="round" stroke-linejoin="bevel" stroke-miterlimit="10" stroke-width=".24" points="231.74 160.959 231.14 161.739 230.72 162.639 230.42 163.539 230.24 164.559 230.24 165.519 230.42 166.479"/><path fill="none" stroke="#000" stroke-linecap="round" stroke-linejoin="bevel" stroke-miterlimit="10" stroke-width=".42" d="M264.56,184.599l-0.78,0.6c-1.31,1.022-2.115,2.618-2.28,4.26v0.96"/><path fill="none" stroke="#000" stroke-linecap="round" stroke-linejoin="bevel" stroke-miterlimit="10" stroke-width=".42" d="M267.32,186.459l-0.72,0.66c-1.184,1.124-1.781,3.011-1.74,4.62l0.12,1.02"/><path fill="none" stroke="#000" stroke-linecap="round" stroke-linejoin="bevel" stroke-miterlimit="10" stroke-width=".24" d="M276.8,119.919l-0.84-2.28c-2.596-6.195-6.354-11.412-11.52-15.72l-1.92-1.5"/><path fill="none" stroke="#000" stroke-linecap="round" stroke-linejoin="bevel" stroke-miterlimit="10" stroke-width=".24" d="M262.58,100.419l-1.62-1.2l-1.68-1.08l-1.74-0.9l-1.86-0.78l-1.86-0.6l-1.98-0.42l-1.08-0.06c-2.525,0.114-4.925,1.566-6.24,3.72 l-0.48,0.96"/><path fill="none" stroke="#000" stroke-linecap="round" stroke-linejoin="bevel" stroke-miterlimit="10" stroke-width=".24" d="M292.7,112.659l-0.54-2.28c-1.897-6.186-5.002-11.171-9.72-15.6l-1.8-1.5l-2.1-1.98l-2.22-1.86l-2.28-1.68l-2.46-1.56l-2.52-1.38"/><path fill="none" stroke="#000" stroke-linecap="round" stroke-linejoin="bevel" stroke-miterlimit="10" stroke-width=".24" d="M269.12,84.759l-1.2-0.6c-2.495-1.074-3.939-1.152-6.6-0.72l-1.32,0.42l-0.3,0.18"/><line x1="246.2" x2="259.64" y1="93.399" y2="84.039" fill="none" stroke="#000" stroke-linecap="round" stroke-linejoin="round" stroke-miterlimit="10" stroke-width=".24"/><polyline fill="none" stroke="#000" stroke-linecap="round" stroke-linejoin="bevel" stroke-miterlimit="10" stroke-width=".24" points="246.2 93.399 245.3 94.179 244.52 95.019 243.8 95.919 243.26 96.939 242.84 98.079 242.54 99.159"/><polyline fill="none" stroke="#000" stroke-linecap="round" stroke-linejoin="bevel" stroke-miterlimit="10" stroke-width=".24" points="300.62 106.299 297.74 108.399 294.98 110.619 292.4 113.019 289.88 115.599 287.6 118.239"/><line x1="285.5" x2="285.68" y1="125.079" y2="120.939" fill="none" stroke="#000" stroke-linecap="round" stroke-linejoin="round" stroke-miterlimit="10" stroke-width=".24"/><line x1="287.54" x2="286.04" y1="118.239" y2="120.039" fill="none" stroke="#000" stroke-linecap="round" stroke-linejoin="round" stroke-miterlimit="10" stroke-width=".24"/><polyline fill="none" stroke="#000" stroke-linecap="round" stroke-linejoin="bevel" stroke-miterlimit="10" stroke-width=".24" points="286.04 120.039 285.8 120.459 285.68 120.939"/><line x1="259.4" x2="240.98" y1="84.219" y2="74.319" fill="none" stroke="#000" stroke-linecap="round" stroke-linejoin="round" stroke-miterlimit="10" stroke-width=".24"/><line x1="314.06" x2="301.7" y1="132.459" y2="124.899" fill="none" stroke="#000" stroke-linecap="round" stroke-linejoin="round" stroke-miterlimit="10" stroke-width=".24"/><line x1="313.52" x2="326.54" y1="114.699" y2="121.659" fill="none" stroke="#000" stroke-linecap="round" stroke-linejoin="round" stroke-miterlimit="10" stroke-width=".24"/><line x1="313.46" x2="322.58" y1="117.879" y2="122.799" fill="none" stroke="#000" stroke-linecap="round" stroke-linejoin="round" stroke-miterlimit="10" stroke-width=".24"/><line x1="315.14" x2="306.5" y1="129.219" y2="123.939" fill="none" stroke="#000" stroke-linecap="round" stroke-linejoin="round" stroke-miterlimit="10" stroke-width=".24"/><line x1="314.06" x2="326.54" y1="132.459" y2="121.659" fill="none" stroke="#000" stroke-linecap="round" stroke-linejoin="round" stroke-miterlimit="10" stroke-width=".24"/><line x1="301.7" x2="313.52" y1="124.899" y2="114.699" fill="none" stroke="#000" stroke-linecap="round" stroke-linejoin="round" stroke-miterlimit="10" stroke-width=".24"/><line x1="306.5" x2="313.46" y1="123.939" y2="117.879" fill="none" stroke="#000" stroke-linecap="round" stroke-linejoin="round" stroke-miterlimit="10" stroke-width=".24"/><line x1="315.14" x2="322.58" y1="129.219" y2="122.799" fill="none" stroke="#000" stroke-linecap="round" stroke-linejoin="round" stroke-miterlimit="10" stroke-width=".24"/><line x1="346.4" x2="349.16" y1="146.319" y2="145.899" fill="none" stroke="#000" stroke-linecap="round" stroke-linejoin="round" stroke-miterlimit="10" stroke-width=".24"/><polyline fill="none" stroke="#000" stroke-linecap="round" stroke-linejoin="bevel" stroke-miterlimit="10" stroke-width=".24" points="349.16 145.899 349.64 145.719 350 145.419 350.3 145.059 350.42 144.579"/><line x1="350.48" x2="350.42" y1="143.739" y2="144.519" fill="none" stroke="#000" stroke-linecap="round" stroke-linejoin="round" stroke-miterlimit="10" stroke-width=".24"/><line x1="359.84" x2="350" y1="152.079" y2="145.419" fill="none" stroke="#000" stroke-linecap="round" stroke-linejoin="bevel" stroke-miterlimit="10" stroke-width=".24"/><polyline fill="none" stroke="#000" stroke-linecap="round" stroke-linejoin="bevel" stroke-miterlimit="10" stroke-width=".24" points="371.72 152.319 365.78 152.019 359.84 152.079"/><polyline fill="none" stroke="#000" stroke-linecap="round" stroke-linejoin="bevel" stroke-miterlimit="10" stroke-width=".24" points="359.9 152.079 359.78 154.839 359.84 157.659 360.08 160.479 360.44 163.239"/><path fill="none" stroke="#000" stroke-linecap="round" stroke-linejoin="bevel" stroke-miterlimit="10" stroke-width=".24" d="M318.02,141.879l3.12,0.6c5.144,0.813,10.863,1.017,16.02,0.24l3.18-0.48"/><line x1="317.6" x2="318.02" y1="141.699" y2="141.819" fill="none" stroke="#000" stroke-linecap="round" stroke-linejoin="bevel" stroke-miterlimit="10" stroke-width=".24"/><line x1="317.6" x2="285.62" y1="141.699" y2="123.039" fill="none" stroke="#000" stroke-linecap="round" stroke-linejoin="round" stroke-miterlimit="10" stroke-width=".24"/><path fill="none" stroke="#000" stroke-linecap="round" stroke-linejoin="bevel" stroke-miterlimit="10" stroke-width=".24" d="M340.28,142.179l0.06-1.86c-0.068-6.029-3.324-12.384-8.22-15.9l-1.56-1.08"/><line x1="340.34" x2="350" y1="142.239" y2="145.419" fill="none" stroke="#000" stroke-linecap="round" stroke-linejoin="round" stroke-miterlimit="10" stroke-width=".24"/><path fill="none" stroke="#000" stroke-linecap="round" stroke-linejoin="bevel" stroke-miterlimit="10" stroke-width=".24" d="M273.5,117.879l-0.9-2.22c-1.976-4.393-4.975-8.28-8.52-11.52l-1.8-1.5l-1.62-1.2l-1.68-1.08l-1.74-0.9l-1.86-0.78l-1.86-0.6 l-1.98-0.42l-1.08-0.06c-2.046,0.117-3.366,0.671-4.74,2.22l-0.66,0.9"/><polyline fill="none" stroke="#000" stroke-linecap="round" stroke-linejoin="round" stroke-miterlimit="10" stroke-width=".72" points="242.48 80.739 229.94 85.059 229.76 91.419"/><line x1="242.48" x2="245.48" y1="80.739" y2="93.999" fill="none" stroke="#000" stroke-linecap="round" stroke-linejoin="round" stroke-miterlimit="10" stroke-width=".24"/><line x1="299.42" x2="300.92" y1="125.499" y2="115.539" fill="none" stroke="#000" stroke-linecap="round" stroke-linejoin="round" stroke-miterlimit="10" stroke-width=".24"/><polyline fill="none" stroke="#000" stroke-linecap="round" stroke-linejoin="bevel" stroke-miterlimit="10" stroke-width=".24" points="302.3 114.279 301.82 114.399 301.4 114.699 301.1 115.059 300.92 115.539"/><line x1="302.24" x2="313.4" y1="114.279" y2="113.199" fill="none" stroke="#000" stroke-linecap="round" stroke-linejoin="round" stroke-miterlimit="10" stroke-width=".24"/><line x1="301.34" x2="294.86" y1="114.699" y2="110.679" fill="none" stroke="#000" stroke-linecap="round" stroke-linejoin="round" stroke-miterlimit="10" stroke-width=".24"/><line x1="425.18" x2="396.56" y1="273.879" y2="286.599" fill="none" stroke="#000" stroke-linecap="round" stroke-linejoin="round" stroke-miterlimit="10" stroke-width=".24"/><line x1="378.8" x2="381.68" y1="268.839" y2="271.659" fill="none" stroke="#000" stroke-linecap="round" stroke-linejoin="round" stroke-miterlimit="10" stroke-width=".24"/><polyline fill="none" stroke="#000" stroke-linecap="round" stroke-linejoin="round" stroke-miterlimit="10" stroke-width=".24" points="374.72 276.519 396.56 286.599 379.52 273.159"/><polyline fill="none" stroke="#000" stroke-linecap="round" stroke-linejoin="round" stroke-miterlimit="10" stroke-width=".24" points="393.08 278.079 383 270.759 383.96 264.879"/><line x1="381.68" x2="383.96" y1="271.659" y2="264.879" fill="none" stroke="#000" stroke-linecap="round" stroke-linejoin="round" stroke-miterlimit="10" stroke-width=".72"/><line x1="425.18" x2="432.68" y1="273.879" y2="268.179" fill="none" stroke="#000" stroke-linecap="round" stroke-linejoin="round" stroke-miterlimit="10" stroke-width=".24"/><polyline fill="none" stroke="#000" stroke-linecap="round" stroke-linejoin="bevel" stroke-miterlimit="10" stroke-width=".24" points="432.68 268.179 433.04 267.819 433.22 267.339 433.28 266.859"/><line x1="433.28" x2="432.8" y1="266.859" y2="261.039" fill="none" stroke="#000" stroke-linecap="round" stroke-linejoin="round" stroke-miterlimit="10" stroke-width=".24"/><polyline fill="none" stroke="#000" stroke-linecap="round" stroke-linejoin="round" stroke-miterlimit="10" stroke-width=".24" points="393.08 278.079 406.94 275.859 408.5 272.499"/><polyline fill="none" stroke="#000" stroke-linecap="round" stroke-linejoin="bevel" stroke-miterlimit="10" stroke-width=".24" points="307.1 191.319 304.82 192.339 302.66 193.539 300.62 194.919 298.7 196.419 296.9 198.099 295.28 199.959"/><path fill="none" stroke="#000" stroke-linecap="round" stroke-linejoin="round" stroke-miterlimit="10" stroke-width=".72" d="M393.62,270.279l-5.82-6.06c-23.674-23.774-51.395-43.655-81.48-58.5l-7.56-3.6"/><line x1="306.56" x2="298.76" y1="196.599" y2="202.119" fill="none" stroke="#000" stroke-linecap="round" stroke-linejoin="round" stroke-miterlimit="10" stroke-width=".24"/><polyline fill="none" stroke="#000" stroke-linecap="round" stroke-linejoin="bevel" stroke-miterlimit="10" stroke-width=".24" points="393.62 270.279 390.86 270.879 388.16 271.599 385.52 272.619"/><polyline fill="none" stroke="#000" stroke-linecap="round" stroke-linejoin="round" stroke-miterlimit="10" stroke-width=".72" points="189.86 125.139 187.82 126.939 188.48 130.239"/><line x1="270.92" x2="257.12" y1="85.779" y2="96.999" fill="none" stroke="#000" stroke-linecap="round" stroke-linejoin="round" stroke-miterlimit="10" stroke-width=".24"/><line x1="275.24" x2="261.62" y1="88.539" y2="99.639" fill="none" stroke="#000" stroke-linecap="round" stroke-linejoin="round" stroke-miterlimit="10" stroke-width=".24"/><line x1="279.02" x2="265.46" y1="91.659" y2="102.759" fill="none" stroke="#000" stroke-linecap="round" stroke-linejoin="round" stroke-miterlimit="10" stroke-width=".24"/><line x1="282.62" x2="268.88" y1="94.959" y2="106.179" fill="none" stroke="#000" stroke-linecap="round" stroke-linejoin="round" stroke-miterlimit="10" stroke-width=".24"/><line x1="285.86" x2="271.82" y1="98.439" y2="109.899" fill="none" stroke="#000" stroke-linecap="round" stroke-linejoin="round" stroke-miterlimit="10" stroke-width=".24"/><line x1="288.38" x2="274.1" y1="101.919" y2="113.559" fill="none" stroke="#000" stroke-linecap="round" stroke-linejoin="round" stroke-miterlimit="10" stroke-width=".24"/><line x1="291.32" x2="276.74" y1="107.919" y2="119.799" fill="none" stroke="#000" stroke-linecap="round" stroke-linejoin="round" stroke-miterlimit="10" stroke-width=".24"/><line x1="292.46" x2="280.04" y1="111.639" y2="121.779" fill="none" stroke="#000" stroke-linecap="round" stroke-linejoin="round" stroke-miterlimit="10" stroke-width=".24"/><line x1="266.6" x2="252.14" y1="83.679" y2="95.439" fill="none" stroke="#000" stroke-linecap="round" stroke-linejoin="round" stroke-miterlimit="10" stroke-width=".24"/><line x1="263.78" x2="248.12" y1="83.199" y2="95.979" fill="none" stroke="#000" stroke-linecap="round" stroke-linejoin="round" stroke-miterlimit="10" stroke-width=".24"/><line x1="294.26" x2="298.76" y1="199.359" y2="202.119" fill="none" stroke="#000" stroke-linecap="round" stroke-linejoin="round" stroke-miterlimit="10" stroke-width=".72"/><line x1="408.02" x2="408.5" y1="272.739" y2="272.499" fill="none" stroke="#000" stroke-linecap="round" stroke-linejoin="round" stroke-miterlimit="10" stroke-width=".72"/><polyline fill="none" stroke="#000" stroke-linecap="round" stroke-linejoin="round" stroke-miterlimit="10" stroke-width=".72" points="232.04 69.519 240.98 74.319 242.48 80.739"/><line x1="229.76" x2="213.98" y1="91.419" y2="81.939" fill="none" stroke="#000" stroke-linecap="round" stroke-linejoin="round" stroke-miterlimit="10" stroke-width=".72"/><line x1="191.54" x2="189.26" y1="114.939" y2="118.539" fill="none" stroke="#000" stroke-linecap="round" stroke-linejoin="round" stroke-miterlimit="10" stroke-width=".72"/><polyline fill="none" stroke="#000" stroke-linecap="round" stroke-linejoin="bevel" stroke-miterlimit="10" stroke-width=".24" points="230.42 166.479 230.6 167.199 230.96 167.859 231.44 168.459"/><path fill="none" stroke="#000" stroke-linecap="round" stroke-linejoin="bevel" stroke-miterlimit="10" stroke-width=".24" d="M257.78,211.179l0.78,1.02c1.942,2.326,5.233,3.54,8.22,3.18l1.32-0.24"/><path fill="none" stroke="#000" stroke-linecap="round" stroke-linejoin="bevel" stroke-miterlimit="10" stroke-width=".24" d="M254.78,199.839l-0.24,1.5c-0.312,3.031,0.516,6.156,2.28,8.64l0.96,1.2"/><line x1="259.64" x2="257.72" y1="198.219" y2="197.799" fill="none" stroke="#000" stroke-linecap="round" stroke-linejoin="bevel" stroke-miterlimit="10" stroke-width=".24"/><polyline fill="none" stroke="#000" stroke-linecap="round" stroke-linejoin="bevel" stroke-miterlimit="10" stroke-width=".24" points="271.22 208.959 270.68 207.459 269.96 206.079 269.06 204.819"/><polyline fill="none" stroke="#000" stroke-linecap="round" stroke-linejoin="bevel" stroke-miterlimit="10" stroke-width=".24" points="257.66 197.859 256.94 197.919 256.22 198.159 255.62 198.579 255.14 199.179 254.78 199.839"/><path fill="none" stroke="#000" stroke-linecap="round" stroke-linejoin="bevel" stroke-miterlimit="10" stroke-width=".24" d="M267.44,215.259l0.78-0.18c2.29-0.831,3.55-2.937,3.18-5.34l-0.24-0.78"/><polyline fill="none" stroke="#000" stroke-linecap="round" stroke-linejoin="bevel" stroke-miterlimit="10" stroke-width=".24" points="269 204.879 266.84 202.839 264.56 201.039 262.16 199.419"/><line x1="262.22" x2="259.64" y1="199.419" y2="198.219" fill="none" stroke="#000" stroke-linecap="round" stroke-linejoin="bevel" stroke-miterlimit="10" stroke-width=".24"/><polyline fill="none" stroke="#000" stroke-linecap="round" stroke-linejoin="bevel" stroke-miterlimit="10" stroke-width=".42" points="272.3 218.919 273.2 218.319 274.1 217.599 274.82 216.759 275.42 215.799 275.84 214.779 276.14 213.699"/><path fill="none" stroke="#000" stroke-linecap="round" stroke-linejoin="bevel" stroke-miterlimit="10" stroke-width=".42" d="M276.08,213.639l0.06-1.44c-0.01-2.046-0.929-5.22-2.1-6.9l-0.84-1.2"/><path fill="none" stroke="#000" stroke-linecap="round" stroke-linejoin="bevel" stroke-miterlimit="10" stroke-width=".42" d="M267.74,198.159l-1.32-1.02c-3.126-2.609-12.673-8.441-15.18-2.22l-0.24,0.84l-0.36,1.8c-0.921,6.737,1.402,13.212,6.12,18.06 l1.32,1.2"/><path fill="none" stroke="#000" stroke-linecap="round" stroke-linejoin="bevel" stroke-miterlimit="10" stroke-width=".42" d="M258.02,216.759l1.2,0.9c3.343,2.301,7.708,2.95,11.58,1.74l1.44-0.54"/><polyline fill="none" stroke="#000" stroke-linecap="round" stroke-linejoin="bevel" stroke-miterlimit="10" stroke-width=".42" points="273.2 204.159 272.06 202.479 270.74 200.919 269.3 199.479 267.74 198.159"/><polyline fill="none" stroke="#000" stroke-linecap="round" stroke-linejoin="bevel" stroke-miterlimit="10" stroke-width=".72" points="402.08 269.859 399.26 269.799 396.44 269.919 393.62 270.279"/><line x1="402.08" x2="403.4" y1="269.859" y2="271.599" fill="none" stroke="#000" stroke-linecap="round" stroke-linejoin="round" stroke-miterlimit="10" stroke-width=".72"/><polyline fill="none" stroke="#000" stroke-linecap="round" stroke-linejoin="round" stroke-miterlimit="10" stroke-width=".42" points="235.82 172.659 248.54 181.719 261.5 190.479"/><polyline fill="none" stroke="#000" stroke-linecap="round" stroke-linejoin="round" stroke-miterlimit="10" stroke-width=".42" points="264.98 192.699 278.54 201.399 292.28 209.799"/><line x1="294.02" x2="302.18" y1="210.039" y2="214.719" fill="none" stroke="#000" stroke-linecap="round" stroke-linejoin="round" stroke-miterlimit="10" stroke-width=".24"/><line x1="267.32" x2="264.56" y1="186.399" y2="184.599" fill="none" stroke="#000" stroke-linecap="round" stroke-linejoin="round" stroke-miterlimit="10" stroke-width=".24"/><line x1="340.34" x2="335.72" y1="142.239" y2="134.499" fill="none" stroke="#000" stroke-linecap="round" stroke-linejoin="round" stroke-miterlimit="10" stroke-width=".24"/><line x1="140.9" x2="198.92" y1="94.299" y2="94.299" fill="none" stroke="#000" stroke-linecap="round" stroke-linejoin="round" stroke-miterlimit="10" stroke-width=".72"/><path fill-rule="evenodd" d="M2.96,89.499h-0.3l-0.18,0.06l-0.12,0.06l-0.06,0.12v6.72l0.06,0.36l0.12,0.6 c0.238,0.558,0.362,1.009,0.84,1.44l0.12,0.12l0.24,0.18l0.24,0.18c1.165,0.671,3.41,0.706,4.5-0.12l0.3-0.18l0.18-0.24l-2.76-0.12 c-0.596,0.072-1.438-0.238-1.8-0.72H4.28l-0.18-0.24l-0.12-0.3l-0.18-0.3l-0.06-0.24l-0.06-0.3v-6.84l-0.06-0.12l-0.12-0.06 l-0.18-0.06" clip-rule="evenodd"/><polyline fill-rule="evenodd" points="9.32 89.499 8.96 89.499 8.78 89.559 8.66 89.619 8.6 89.739 8.6 96.579 8.54 96.879 8.48 97.119 8.42 97.179 8.18 97.779 8 98.019 7.76 98.199 7.46 98.379 7.22 98.499 7.1 98.559 6.8 98.619 6.5 98.679 6.14 98.679 8.9 98.799 9.08 98.679 9.44 98.199 9.68 97.599 9.74 97.539 9.92 96.639 9.98 96.279 9.98 89.739 9.92 89.619 9.8 89.559 9.62 89.499" clip-rule="evenodd"/><path fill-rule="evenodd" d="M12.08,97.839h-0.06l-0.12,0.12v0.18l-0.06,0.3v0.06l0.06,0.3l2.82-0.12H14.6 c-0.53,0.066-1.778-0.362-2.16-0.72h-0.06" clip-rule="evenodd"/><path fill-rule="evenodd" d="M17.54,90.399l-2.4,0.12h0.24c0.815,0.131,0.977,0.242,1.68,0.6l0.24,0.12 l0.12-0.06l0.06-0.12l0.06-0.18v-0.24" clip-rule="evenodd"/><path fill-rule="evenodd" d="M15.2,89.379h-0.3l-0.3,0.06c-2.075,0.197-3.064,2.159-2.16,3.96l0.18,0.24 l0.42,0.42c0.277,0.388,1.455,0.887,1.92,1.08l0.3,0.18l0.18,0.06l0.3,0.18l0.24,0.18l0.12,0.06l0.18,0.24l0.24,0.24l0.06,0.12 l0.06,0.24l0.06,0.36v0.12l-0.12,0.6h-0.06l-0.12,0.3l-0.24,0.24H16.1l-0.3,0.18l-0.3,0.12l-0.12,0.06l-0.36,0.06h-0.3l-2.82,0.12 l0.12,0.24l0.06,0.06c2.314,1.544,6.387,0.741,6-2.7l-0.06-0.3l-0.24-0.6c-0.719-1.041-1.977-1.444-3.06-1.98l-0.24-0.12l-0.3-0.18 l-0.06-0.12l-0.24-0.18l-0.18-0.24l-0.06-0.12l-0.12-0.3l-0.06-0.36l0.06-0.24l0.06-0.3l0.12-0.18l0.18-0.24l0.24-0.18l0.3-0.12 l0.06-0.06l0.3-0.06h0.36l2.4-0.12l-0.06-0.18v-0.06l-0.12-0.12v-0.06l-0.3-0.18l-0.24-0.06l-0.6-0.24l-0.36-0.06l-0.36-0.06" clip-rule="evenodd"/><path fill-rule="evenodd" d="M26.06,94.959l-3,0.06h0.12c2.745-0.236,3.021,3.654,0.24,3.54h-1.98l4.68,0.06 l0.18-0.24c0.635-0.836,0.645-2.171,0.06-3.06l-0.18-0.24" clip-rule="evenodd"/><path fill-rule="evenodd" d="M25.58,90.459l-2.76,0.18h0.36c2.322,0.07,1.975,3.441-0.18,3.3h-1.56l3.66,0.18 c1.044-0.627,1.255-2.065,0.84-3.12l-0.18-0.3" clip-rule="evenodd"/><path fill-rule="evenodd" d="M22.88,89.559h-2.34l-0.3,0.12l-0.06,0.12l-0.06,0.3v9.24l0.12,0.24h0.06 l0.3,0.12h3.06l0.3-0.06h0.3l0.24-0.06c0.716-0.243,0.638-0.185,1.32-0.6l0.06-0.12l0.24-0.24l-4.68-0.06v-3.54h1.62l3-0.06 l-0.24-0.24l-0.24-0.18l-0.18-0.06l-0.6-0.24h0.06l0.24-0.12l-3.66-0.18v-3.3h1.38l2.76-0.18l-0.24-0.24 c-0.741-0.595-0.847-0.433-1.74-0.66h-0.3" clip-rule="evenodd"/><path fill-rule="evenodd" d="M37.22,97.839l-0.24,0.12c-0.435,0.316-0.893,0.648-1.44,0.72l-0.36,0.06 l2.22,0.06l0.06-0.12v-0.54l-0.06-0.18l-0.06-0.12" clip-rule="evenodd"/><path fill-rule="evenodd" d="M32.72,93.159l-0.36,0.48c-0.681,1.492-0.693,3.544,0.12,4.98l0.18,0.24 l0.24,0.24c1.166,1.044,3.117,0.936,4.32,0l0.12-0.18l0.06-0.12l-2.22-0.06c-2.553,0.257-2.605-5.384-0.36-5.52l0.3-0.06" clip-rule="evenodd"/><path fill-rule="evenodd" d="M35.18,92.079h-0.06c-1.056,0.101-1.485,0.153-2.28,0.96l-0.12,0.12h2.4 c0.753,0.089,1.189,0.238,1.8,0.72l0.24,0.12l0.18-0.12l0.06-0.06v-0.6l-0.06-0.18v-0.12l-0.18-0.12v-0.06l-0.3-0.18l-0.18-0.12 l-0.3-0.12l-0.24-0.06l-0.3-0.12h-0.06l-0.3-0.06" clip-rule="evenodd"/><path fill-rule="evenodd" d="M44.9,93.099l-2.64,0.06h0.12c0.609,0.05,1.247,0.273,1.56,0.84H44l0.12,0.3 c0.671,1.555,0.398,4.589-1.92,4.44l-2.64,0.12h0.06l0.18,0.24c1.12,0.968,3.487,1.011,4.62,0.06l0.24-0.18l0.18-0.24 c1.088-1.086,1.167-3.521,0.54-4.86l-0.12-0.3l-0.18-0.24" clip-rule="evenodd"/><path fill-rule="evenodd" d="M42.32,92.079h-0.06c-3.468-0.122-4.381,4.086-2.88,6.54l0.18,0.24l2.64-0.12 h-0.12c-2.771,0.192-2.773-5.859,0.18-5.58l2.64-0.06v-0.06c-0.525-0.511-1.183-0.825-1.92-0.9l-0.3-0.06" clip-rule="evenodd"/><polyline fill-rule="evenodd" points="49.16 93.099 48.92 93.399 50.12 93.459 50.42 93.339 50.72 93.219 51.02 93.219" clip-rule="evenodd"/><polyline fill-rule="evenodd" points="48.32 92.199 48.02 92.199 47.84 92.259 47.72 92.319 47.72 99.519 47.78 99.579 47.84 99.699 48.08 99.759 48.68 99.759 48.86 99.699 49.04 99.519 49.04 94.539 49.16 94.419 49.34 94.179 49.82 93.699 50.06 93.579 50.12 93.459 48.92 93.399 48.92 92.439 48.86 92.319 48.8 92.259 48.62 92.199" clip-rule="evenodd"/><path fill-rule="evenodd" d="M51.26,92.079h-0.24c-0.62,0.055-1.154,0.389-1.62,0.78l-0.24,0.24l1.86,0.12 h0.36l0.3,0.12l0.24,0.18l0.24,0.24v0.06l0.18,0.24l0.06,0.36l0.06,0.24l0.06,0.36v4.56l0.12,0.12l0.18,0.06h0.66l0.18-0.06 l0.12-0.12v-5.1l-0.12-0.6v-0.06l-0.12-0.3c-0.135-0.451-0.646-1.021-1.08-1.2l-0.24-0.12l-0.3-0.06l-0.3-0.06" clip-rule="evenodd"/><polyline fill-rule="evenodd" points="57.62 93.099 57.38 93.399 58.58 93.459 59.18 93.219 59.48 93.219" clip-rule="evenodd"/><polyline fill-rule="evenodd" points="56.78 92.199 56.48 92.199 56.3 92.259 56.18 92.319 56.18 99.519 56.24 99.579 56.3 99.699 56.54 99.759 57.14 99.759 57.32 99.699 57.44 99.579 57.5 99.519 57.5 94.539 57.62 94.419 57.8 94.179 58.28 93.699 58.52 93.579 58.58 93.459 57.38 93.399 57.38 92.439 57.32 92.319 57.26 92.259 57.08 92.199" clip-rule="evenodd"/><path fill-rule="evenodd" d="M59.72,92.079h-0.24c-0.62,0.055-1.154,0.389-1.62,0.78l-0.24,0.24l1.86,0.12 h0.36l0.3,0.12l0.24,0.18l0.24,0.24v0.06l0.18,0.24l0.06,0.36l0.06,0.24l0.06,0.36v4.56l0.12,0.12l0.18,0.06h0.66l0.18-0.06 l0.12-0.12v-5.1l-0.12-0.6v-0.06l-0.12-0.3c-0.135-0.451-0.646-1.021-1.08-1.2l-0.24-0.12l-0.3-0.06l-0.3-0.06" clip-rule="evenodd"/><path fill-rule="evenodd" d="M70.16,98.259l-0.3,0.06c-0.618,0.353-1.337,0.478-2.04,0.48l-2.76,0.06 l0.06,0.06l0.24,0.24c0.865,0.656,1.953,0.721,3,0.66l0.3-0.06h0.18l0.3-0.06l0.3-0.12l0.24-0.06l0.3-0.12l0.24-0.12l0.06-0.12 l0.06-0.06v-0.18l0.06-0.18l-0.06-0.24v-0.12l-0.06-0.12" clip-rule="evenodd"/><path fill-rule="evenodd" d="M69.92,93.039l-2.4,0.06h0.36c0.988,0.287,1.362,0.779,1.5,1.8v0.36h-3.84 l-1.32,0.06l-0.06,0.36c-0.07,0.861,0.225,2.591,0.9,3.18l2.76-0.06h-0.18c-1.405-0.127-2.045-0.84-2.1-2.22v-0.36h4.68l0.3-0.12 l0.06-0.12l0.06-0.3v-0.96l-0.12-0.6l-0.12-0.24l-0.12-0.3l-0.18-0.24" clip-rule="evenodd"/><path fill-rule="evenodd" d="M67.58,92.079H67.4c-1.834,0.116-2.819,1.18-3.18,2.94v0.3l1.32-0.06v-0.18 c0.053-1.127,0.834-1.983,1.98-1.98l2.4-0.06l-0.12-0.18c-0.465-0.343-0.982-0.659-1.56-0.72l-0.3-0.06" clip-rule="evenodd"/><path fill-rule="evenodd" d="M77.54,97.839l-0.24,0.12c-0.435,0.316-0.893,0.648-1.44,0.72l-0.36,0.06 l2.22,0.06l0.06-0.12v-0.54l-0.06-0.18l-0.06-0.12" clip-rule="evenodd"/><path fill-rule="evenodd" d="M73.04,93.159l-0.36,0.48c-0.681,1.492-0.693,3.544,0.12,4.98l0.18,0.24 l0.24,0.24c1.166,1.044,3.117,0.936,4.32,0l0.12-0.18l0.06-0.12l-2.22-0.06c-2.553,0.257-2.605-5.384-0.36-5.52l0.3-0.06" clip-rule="evenodd"/><path fill-rule="evenodd" d="M75.5,92.079h-0.06c-1.056,0.101-1.485,0.153-2.28,0.96l-0.12,0.12h2.4 c0.753,0.089,1.189,0.237,1.8,0.72l0.24,0.12l0.18-0.12l0.06-0.06v-0.6l-0.06-0.18v-0.12l-0.18-0.12v-0.06l-0.3-0.18L77,92.439 l-0.3-0.12l-0.24-0.06l-0.3-0.12H76.1l-0.3-0.06" clip-rule="evenodd"/><polyline fill-rule="evenodd" points="82.94 98.499 82.82 98.559 82.64 98.619 82.4 98.679 82.34 98.679 82.04 98.739 83.12 98.739 83.06 98.619 83.06 98.499" clip-rule="evenodd"/><path fill-rule="evenodd" d="M80.42,90.279l-0.3,0.06h-0.24l-0.12,0.24v1.68h-1.08l-0.12,0.12v0.12l-0.06,0.3 v0.12l0.06,0.24l0.24,0.18h0.96v4.2c-0.031,0.512,0.159,1.472,0.6,1.8l0.24,0.18l0.3,0.18c0.557,0.161,1.923,0.287,2.22-0.36v-0.6 h-1.08c-0.907-0.038-0.964-0.782-0.96-1.5v-3.9h1.8l0.24-0.24v-0.6L83,92.259h-1.92v-1.68l-0.06-0.12l-0.12-0.12h-0.18" clip-rule="evenodd"/><path fill-rule="evenodd" d="M90.5,93.099l-2.64,0.06h0.12c0.609,0.05,1.247,0.273,1.56,0.84h0.06l0.12,0.3 c0.671,1.555,0.398,4.589-1.92,4.44l-2.64,0.12h0.06l0.18,0.24c1.12,0.968,3.487,1.011,4.62,0.06l0.24-0.18l0.18-0.24 c1.088-1.086,1.167-3.521,0.54-4.86l-0.12-0.3l-0.18-0.24" clip-rule="evenodd"/><path fill-rule="evenodd" d="M87.92,92.079h-0.06c-3.468-0.122-4.381,4.086-2.88,6.54l0.18,0.24l2.64-0.12 h-0.12c-2.771,0.192-2.773-5.859,0.18-5.58l2.64-0.06v-0.06c-0.525-0.511-1.184-0.825-1.92-0.9l-0.3-0.06" clip-rule="evenodd"/><polyline fill-rule="evenodd" points="97.4 93.219 96.26 93.339 96.56 93.339 96.86 93.399 97.04 93.459 97.22 93.519 97.34 93.399" clip-rule="evenodd"/><polyline fill-rule="evenodd" points="93.86 92.199 93.56 92.199 93.38 92.259 93.26 92.319 93.26 99.519 93.32 99.579 93.38 99.699 93.62 99.759 94.22 99.759 94.4 99.699 94.58 99.519 94.58 94.839 94.7 94.599 95.06 94.119 95.3 93.879 95.48 93.639 95.6 93.519 94.46 93.459 94.46 92.439 94.4 92.319 94.34 92.259 94.16 92.199" clip-rule="evenodd"/><path fill-rule="evenodd" d="M96.38,92.079H96.2l-0.3,0.06l-0.18,0.06l-0.24,0.18l-0.24,0.18L95,92.799 l-0.18,0.12l-0.18,0.24l-0.18,0.3l1.14,0.06l0.3-0.12l0.06-0.06h0.3l1.14-0.12v-0.3c0.024-0.512,0.03-0.704-0.54-0.78l-0.24-0.06" clip-rule="evenodd"/><path fill-rule="evenodd" d="M102.08,98.139h-0.06l-0.06,0.12l-0.06,0.18c-0.138,1.101,0.463,1.084,1.5,1.32 l0.06,0.06h0.3c0.797,0.031,1.692-0.023,2.34-0.54l0.24-0.24l0.18-0.24h-2.88l-0.3-0.12l-0.3-0.06l-0.24-0.12l-0.18-0.12 l-0.24-0.12" clip-rule="evenodd"/><path fill-rule="evenodd" d="M106.52,92.919l-1.92,0.18h0.06c0.615-0.034,0.932,0.162,1.44,0.42l0.24,0.12 l0.12-0.12l0.06-0.18v-0.24" clip-rule="evenodd"/><path fill-rule="evenodd" d="M104.6,92.079h-0.18l-0.36,0.06l-0.3,0.06c-0.688,0.141-1.255,0.563-1.56,1.2 l-0.06,0.18l-0.06,0.3c-0.128,0.595,0.058,1.278,0.54,1.68l0.06,0.06l0.48,0.36l0.06,0.06c0.461,0.225,1.468,0.454,1.8,0.78 l0.24,0.12l0.18,0.24l0.12,0.18l0.06,0.3l-0.06,0.24l-0.06,0.3l-0.06,0.12l-0.24,0.24l-0.18,0.06l-0.3,0.12l-0.24,0.06h-0.36h2.4 l0.18-0.24v-0.06c0.509-1.176-0.034-2.444-1.32-2.82l-0.3-0.12l-0.06-0.06l-0.3-0.12c-0.443-0.197-1.014-0.309-1.26-0.78 l-0.12-0.18l-0.06-0.3v-0.12l0.12-0.3v-0.06l0.24-0.24l0.06-0.12l0.3-0.12l0.3-0.06h0.3l1.92-0.18l-0.06-0.18v-0.06l-0.12-0.12 l-0.24-0.18h-0.12l-0.3-0.12l-0.18-0.06l-0.3-0.06l-0.24-0.06" clip-rule="evenodd"/><polyline fill-rule="evenodd" points="110 99.519 109.82 99.699 109.64 99.759 109.04 99.759 108.8 99.699 108.74 99.579 108.68 99.519 108.68 89.019 108.74 88.899 108.8 88.839 109.04 88.779 109.64 88.779 109.82 88.839 109.94 88.899 110 89.019 110 99.519" clip-rule="evenodd"/><path fill-rule="evenodd" d="M118.04,93.099l-2.64,0.06h0.12c0.499,0.059,1.053,0.18,1.38,0.6l0.18,0.24h0.06 l0.12,0.3c0.671,1.555,0.398,4.589-1.92,4.44l-2.64,0.12h0.06l0.18,0.24c1.12,0.968,3.487,1.011,4.62,0.06l0.24-0.18l0.18-0.24 c1.088-1.086,1.167-3.521,0.54-4.86l-0.12-0.3l-0.18-0.24" clip-rule="evenodd"/><path fill-rule="evenodd" d="M115.46,92.079h-0.06c-3.468-0.122-4.381,4.086-2.88,6.54l0.18,0.24l2.64-0.12 h-0.12c-2.771,0.192-2.773-5.859,0.18-5.58l2.64-0.06v-0.06l-0.24-0.18c-0.426-0.458-1.075-0.628-1.68-0.72l-0.3-0.06" clip-rule="evenodd"/><polyline fill-rule="evenodd" points="124.28 98.499 124.16 98.559 123.98 98.619 123.74 98.679 123.68 98.679 123.38 98.739 124.46 98.739 124.4 98.619 124.4 98.499" clip-rule="evenodd"/><path fill-rule="evenodd" d="M121.76,90.279l-0.3,0.06h-0.24l-0.12,0.24v1.68h-1.08l-0.12,0.12v0.12l-0.06,0.3 v0.12l0.06,0.24l0.24,0.18h0.96v4.2c-0.031,0.512,0.159,1.472,0.6,1.8l0.24,0.18l0.3,0.18c0.557,0.161,1.924,0.287,2.22-0.36v-0.6 h-1.08c-0.907-0.038-0.964-0.782-0.96-1.5v-3.9h1.8l0.24-0.24v-0.6l-0.12-0.24h-1.92v-1.68l-0.06-0.12l-0.12-0.12h-0.18" clip-rule="evenodd"/><line x1="123.56" x2="147.38" y1="6.939" y2="26.619" fill="none" stroke="#000" stroke-linecap="round" stroke-linejoin="round" stroke-miterlimit="10" stroke-width=".72"/><line x1="126.98" x2="150.8" y1="2.739" y2="22.419" fill="none" stroke="#000" stroke-linecap="round" stroke-linejoin="round" stroke-miterlimit="10" stroke-width=".72"/><path fill="none" stroke="#000" stroke-linecap="round" stroke-linejoin="bevel" stroke-miterlimit="10" stroke-width=".72" d="M126.92,2.739l-0.6-0.24c-2.432-0.59-4.21,1.594-3.18,3.9l0.42,0.48"/><line x1="147.32" x2="156.2" y1="29.559" y2="36.939" fill="none" stroke="#000" stroke-linecap="round" stroke-linejoin="round" stroke-miterlimit="10" stroke-width=".72"/><line x1="154.52" x2="161.6" y1="21.759" y2="27.519" fill="none" stroke="#000" stroke-linecap="round" stroke-linejoin="round" stroke-miterlimit="10" stroke-width=".72"/><line x1="159.92" x2="189.74" y1="49.599" y2="73.059" fill="none" stroke="#000" stroke-linecap="round" stroke-linejoin="round" stroke-miterlimit="10" stroke-width=".72"/><line x1="182.24" x2="197.72" y1="63.579" y2="52.299" fill="none" stroke="#000" stroke-linecap="round" stroke-linejoin="round" stroke-miterlimit="10" stroke-width=".24"/><line x1="193.76" x2="204.38" y1="70.659" y2="62.919" fill="none" stroke="#000" stroke-linecap="round" stroke-linejoin="round" stroke-miterlimit="10" stroke-width=".24"/><polyline fill="none" stroke="#000" stroke-linecap="round" stroke-linejoin="round" stroke-miterlimit="10" stroke-width=".24" points="210.8 71.739 204.56 76.299 195.86 69.159"/><line x1="204.2" x2="210.8" y1="66.279" y2="71.739" fill="none" stroke="#000" stroke-linecap="round" stroke-linejoin="round" stroke-miterlimit="10" stroke-width=".72"/><line x1="156.62" x2="162.14" y1="35.859" y2="39.339" fill="none" stroke="#000" stroke-linecap="round" stroke-linejoin="round" stroke-miterlimit="10" stroke-width=".24"/><path fill="none" stroke="#000" stroke-linecap="round" stroke-linejoin="bevel" stroke-miterlimit="10" stroke-width=".24" d="M162.14,39.339l0.66,2.16c1.519,4.939,4.509,9.675,8.16,13.32l1.62,1.5l2.28,2.04l2.34,1.86l2.52,1.74l2.58,1.62"/><path fill="none" stroke="#000" stroke-linecap="round" stroke-linejoin="bevel" stroke-miterlimit="10" stroke-width=".72" d="M177.32,28.479l0.84,2.34c1.996,4.939,4.405,8.7,8.1,12.54l1.8,1.74"/><polyline fill="none" stroke="#000" stroke-linecap="round" stroke-linejoin="bevel" stroke-miterlimit="10" stroke-width=".72" points="188 45.039 190.28 47.079 192.62 48.939 195.14 50.679 197.72 52.299"/><line x1="156.62" x2="161.6" y1="35.859" y2="27.519" fill="none" stroke="#000" stroke-linecap="round" stroke-linejoin="round" stroke-miterlimit="10" stroke-width=".24"/><line x1="164.06" x2="172.52" y1="26.739" y2="25.299" fill="none" stroke="#000" stroke-linecap="round" stroke-linejoin="round" stroke-miterlimit="10" stroke-width=".72"/><line x1="164.06" x2="170.42" y1="26.739" y2="30.939" fill="none" stroke="#000" stroke-linecap="round" stroke-linejoin="round" stroke-miterlimit="10" stroke-width=".24"/><line x1="161.6" x2="167.72" y1="27.519" y2="31.659" fill="none" stroke="#000" stroke-linecap="round" stroke-linejoin="round" stroke-miterlimit="10" stroke-width=".24"/><line x1="161.6" x2="164.06" y1="27.519" y2="26.739" fill="none" stroke="#000" stroke-linecap="round" stroke-linejoin="round" stroke-miterlimit="10" stroke-width=".72"/><line x1="172.52" x2="177.32" y1="25.299" y2="28.479" fill="none" stroke="#000" stroke-linecap="round" stroke-linejoin="round" stroke-miterlimit="10" stroke-width=".72"/><polyline fill="none" stroke="#000" stroke-linecap="round" stroke-linejoin="bevel" stroke-miterlimit="10" stroke-width=".72" points="156.26 36.939 155.78 38.499 155.54 40.179 155.48 41.859 155.6 43.479 155.9 45.159 156.32 46.719"/><line x1="196.46" x2="203.66" y1="71.979" y2="77.919" fill="none" stroke="#000" stroke-linecap="round" stroke-linejoin="round" stroke-miterlimit="10" stroke-width=".72"/><line x1="193.76" x2="193.58" y1="70.659" y2="73.959" fill="none" stroke="#000" stroke-linecap="round" stroke-linejoin="round" stroke-miterlimit="10" stroke-width=".24"/><polyline fill="none" stroke="#000" stroke-linecap="round" stroke-linejoin="round" stroke-miterlimit="10" stroke-width=".24" points="182.24 63.579 189.74 69.759 193.76 70.659"/><polyline fill="none" stroke="#000" stroke-linecap="round" stroke-linejoin="round" stroke-miterlimit="10" stroke-width=".24" points="162.14 39.339 167.72 31.659 177.44 28.959"/><polyline fill="none" stroke="#000" stroke-linecap="round" stroke-linejoin="round" stroke-miterlimit="10" stroke-width=".24" points="150.62 28.479 152.66 24.459 156.86 23.679"/><polyline fill="none" stroke="#000" stroke-linecap="round" stroke-linejoin="round" stroke-miterlimit="10" stroke-width=".24" points="153.62 30.939 155.66 26.919 159.8 26.079"/><polyline fill="none" stroke="#000" stroke-linecap="round" stroke-linejoin="round" stroke-miterlimit="10" stroke-width=".24" points="156.38 33.579 158.42 29.499 160.64 29.079"/><line x1="150.68" x2="147.38" y1="22.419" y2="26.259" fill="none" stroke="#000" stroke-linecap="round" stroke-linejoin="round" stroke-miterlimit="10" stroke-width=".24"/><line x1="150.8" x2="154.52" y1="22.419" y2="21.759" fill="none" stroke="#000" stroke-linecap="round" stroke-linejoin="round" stroke-miterlimit="10" stroke-width=".72"/><line x1="147.38" x2="147.32" y1="26.619" y2="29.559" fill="none" stroke="#000" stroke-linecap="round" stroke-linejoin="round" stroke-miterlimit="10" stroke-width=".72"/><polyline fill="none" stroke="#000" stroke-linecap="round" stroke-linejoin="round" stroke-miterlimit="10" stroke-width=".72" points="204.38 62.919 204.38 57.879 197.72 52.299"/><line x1="204.56" x2="203.66" y1="76.299" y2="77.919" fill="none" stroke="#000" stroke-linecap="round" stroke-linejoin="round" stroke-miterlimit="10" stroke-width=".24"/><line x1="203.66" x2="209.96" y1="77.919" y2="73.359" fill="none" stroke="#000" stroke-linecap="round" stroke-linejoin="round" stroke-miterlimit="10" stroke-width=".72"/><polyline fill="none" stroke="#000" stroke-linecap="round" stroke-linejoin="round" stroke-miterlimit="10" stroke-width=".72" points="159.02 50.679 155.48 47.739 156.32 46.779"/><line x1="159.02" x2="159.92" y1="50.679" y2="49.599" fill="none" stroke="#000" stroke-linecap="round" stroke-linejoin="round" stroke-miterlimit="10" stroke-width=".72"/><line x1="210.8" x2="209.96" y1="71.739" y2="73.359" fill="none" stroke="#000" stroke-linecap="round" stroke-linejoin="round" stroke-miterlimit="10" stroke-width=".72"/><line x1="193.58" x2="196.4" y1="73.959" y2="71.919" fill="none" stroke="#000" stroke-linecap="round" stroke-linejoin="round" stroke-miterlimit="10" stroke-width=".72"/><line x1="204.38" x2="204.2" y1="62.919" y2="66.279" fill="none" stroke="#000" stroke-linecap="round" stroke-linejoin="round" stroke-miterlimit="10" stroke-width=".72"/><line x1="193.58" x2="189.74" y1="73.959" y2="73.059" fill="none" stroke="#000" stroke-linecap="round" stroke-linejoin="round" stroke-miterlimit="10" stroke-width=".72"/><line x1="189.74" x2="189.74" y1="69.759" y2="73.059" fill="none" stroke="#000" stroke-linecap="round" stroke-linejoin="round" stroke-miterlimit="10" stroke-width=".24"/><line x1="156.62" x2="156.26" y1="35.859" y2="36.939" fill="none" stroke="#000" stroke-linecap="round" stroke-linejoin="bevel" stroke-miterlimit="10" stroke-width=".24"/><line x1="202.16" x2="204.2" y1="64.599" y2="66.279" fill="none" stroke="#000" stroke-linecap="round" stroke-linejoin="round" stroke-miterlimit="10" stroke-width=".24"/><line x1="196.46" x2="194.36" y1="71.979" y2="70.239" fill="none" stroke="#000" stroke-linecap="round" stroke-linejoin="round" stroke-miterlimit="10" stroke-width=".24"/><line x1="147.38" x2="147.38" y1="26.259" y2="26.619" fill="none" stroke="#000" stroke-linecap="round" stroke-linejoin="round" stroke-miterlimit="10" stroke-width=".24"/><line x1="150.8" x2="150.68" y1="22.419" y2="22.419" fill="none" stroke="#000" stroke-linecap="round" stroke-linejoin="round" stroke-miterlimit="10" stroke-width=".24"/></g></svg>