<svg xmlns="http://www.w3.org/2000/svg" xmlns:ev="http://www.w3.org/2001/xml-events" xmlns:xlink="http://www.w3.org/1999/xlink" width="741.195" height="791.935" class="st43" color-interpolation-filters="sRGB" viewBox="0 0 555.896 593.951" xml:space="preserve"><style type="text/css">.st1,.st2{stroke:#d0df00}.st1{marker-end:url(#mrkr4-6);stroke-linecap:butt;stroke-width:1}.st2{fill:#d0df00;fill-opacity:1;stroke-opacity:1;stroke-width:.28409090909091}.st3{fill:#d9e1e2;stroke:none;stroke-width:1}.st4{fill:#333f48;font-family:Arial;font-size:.75em}.st5{fill:#768692;stroke:none;stroke-width:1}.st6{fill:#fff;font-family:Arial;font-size:.666664em}.st7,.st8{fill:#333f48}.st7{font-family:Arial;font-size:.833336em}.st8{stroke:none;stroke-width:1}.st9{fill:#fff;font-family:Arial;font-size:.916672em}.st10{font-size:1em}.st11{fill:#6ad1e3;stroke:#333f48;stroke-dasharray:7,5;stroke-width:1}.st12{fill:#333f48;font-family:Arial;font-size:.916672em}.st13{fill:#6ad1e3;stroke:none;stroke-width:1}.st14,.st15{stroke:#6ad1e3}.st14{marker-end:url(#mrkr4-67);marker-start:url(#mrkr4-65);stroke-linecap:butt;stroke-width:1}.st15{fill:#6ad1e3;fill-opacity:1;stroke-opacity:1;stroke-width:.28409090909091}.st16{fill:#0033a0;stroke:#0033a0;stroke-width:1}.st17{fill:#feffff;font-family:Arial;font-size:.916672em}.st18{fill:#00a9ce;stroke:none}.st18,.st19,.st20{stroke-width:1}.st19{fill:none;stroke:#768692;stroke-dasharray:3,3}.st20{fill:#00a9ce;stroke:#333f48;stroke-dasharray:7,5}.st21{fill:#feffff;font-family:Arial;font-size:.666664em}.st22,.st23{fill:none}.st22,.st23,.st24{stroke-width:1}.st22{stroke:#333f48;stroke-dasharray:.01,5}.st23,.st24{stroke:none}.st24{fill:#d0df00}.st25,.st26{stroke:#768692}.st25{marker-end:url(#mrkr4-120);stroke-linecap:butt;stroke-width:1}.st26{fill:#768692;fill-opacity:1;stroke-opacity:1;stroke-width:.28409090909091}.st27{marker-start:url(#mrkr4-136);stroke-linecap:butt;stroke-width:1}.st27,.st28,.st29{stroke:#00a9ce}.st28{fill:#00a9ce;fill-opacity:1;stroke-opacity:1;stroke-width:.28409090909091}.st29{marker-end:url(#mrkr4-142);stroke-linecap:butt;stroke-width:1}.st30{fill:#768692;font-family:Arial;font-size:.75em}.st31{marker-start:url(#mrkr4-183);stroke:#768692;stroke-linecap:butt;stroke-width:1}.st32{fill:#768692;font-family:Arial;font-size:.666664em}.st33,.st34{marker-end:url(#mrkr4-142);marker-start:url(#mrkr4-136);stroke:#00a9ce;stroke-linecap:butt;stroke-width:1}.st34{marker-end:url(#mrkr4-120);marker-start:url(#mrkr4-183);stroke:#768692}.st35,.st36{fill:none;stroke:#333f48;stroke-width:1}.st36{fill:#fff;stroke-dasharray:3,3}.st37{marker-end:url(#mrkr4-6)}.st37,.st38{marker-start:url(#mrkr4-302);stroke:#d0df00;stroke-linecap:butt;stroke-width:1}.st39,.st40,.st41{fill:#333f48;font-family:Arial;font-size:.666664em}.st40,.st41{fill:#fff;font-size:.625008em}.st41{font-size:.583328em}.st42{fill:#d9e1e2;fill-opacity:.58;stroke:none;stroke-width:1}.st43{fill:none;fill-rule:evenodd;font-size:12px;overflow:visible;stroke-linecap:square;stroke-miterlimit:3}</style><defs id="Markers"><g id="lend4"><path d="M 2 1 L 0 0 L 2 -1 L 2 1" style="stroke:none"/></g><marker id="mrkr4-6" class="st2" markerUnits="strokeWidth" orient="auto" overflow="visible" refX="-7.04"><use transform="scale(-3.52,-3.52)" xlink:href="#lend4"/></marker><marker id="mrkr4-65" class="st15" markerUnits="strokeWidth" orient="auto" overflow="visible" refX="6.68"><use transform="scale(3.52)" xlink:href="#lend4"/></marker><marker id="mrkr4-67" class="st15" markerUnits="strokeWidth" orient="auto" overflow="visible" refX="-7.04"><use transform="scale(-3.52,-3.52)" xlink:href="#lend4"/></marker><marker id="mrkr4-120" class="st26" markerUnits="strokeWidth" orient="auto" overflow="visible" refX="-7.04"><use transform="scale(-3.52,-3.52)" xlink:href="#lend4"/></marker><marker id="mrkr4-136" class="st28" markerUnits="strokeWidth" orient="auto" overflow="visible" refX="6.68"><use transform="scale(3.52)" xlink:href="#lend4"/></marker><marker id="mrkr4-142" class="st28" markerUnits="strokeWidth" orient="auto" overflow="visible" refX="-7.04"><use transform="scale(-3.52,-3.52)" xlink:href="#lend4"/></marker><marker id="mrkr4-183" class="st26" markerUnits="strokeWidth" orient="auto" overflow="visible" refX="6.68"><use transform="scale(3.52)" xlink:href="#lend4"/></marker><marker id="mrkr4-302" class="st2" markerUnits="strokeWidth" orient="auto" overflow="visible" refX="6.68"><use transform="scale(3.52)" xlink:href="#lend4"/></marker></defs><g><title>Page-1</title><g id="shape68-1" transform="translate(313.491,-382.464)"><title>Dynamic connector.68</title><path d="M6.84 593.95 L7.26 555.5" class="st1"/></g><g id="shape41-7" transform="translate(288.049,-261.787)"><title>Nordic Middle Grey</title><desc>audio_system.c</desc><rect width="91.808" height="134.85" x="0" y="459.101" class="st3"/><text x="25.28" y="587.25" class="st4">audio_system.c</text></g><g id="shape40-10" transform="translate(292.408,-331.758)"><title>Nordic Light Grey</title><desc>sw_codec_select.c</desc><rect width="84.189" height="59.965" x="0" y="533.986" class="st5"/><text x="13.04" y="587.55" class="st6">sw_codec_select.c</text></g><g id="shape5-13" transform="translate(150.251,-427.959)"><title>Nordic Blue</title><desc>One of the following:</desc><rect width="202.677" height="64.153" x="0" y="529.798" class="st3"/><text x="55.75" y="542.8" class="st7">One of the following:</text></g><g id="shape6-16" transform="translate(425.211,-531.079)"><title>Nordic Blue.6</title><desc>LE Audio Controller Subsystem for nRF53</desc><rect width="129.685" height="42.52" x="0" y="551.431" class="st8"/><text x="17.15" y="569.39" class="st9">LE Audio Controller <tspan x="11.66" class="st10" dy="1.2em">S</tspan>ubsystem for nRF53</text></g><g id="shape7-20" transform="translate(425.211,-9.50394)"><title>Nordic Blue.7</title><desc>Radio</desc><path d="M0 593.95 L53.15 593.95 L53.15 551.43 L0 551.43 L0 593.95 Z" class="st11"/><text x="12.2" y="575.99" class="st12">Radio</text></g><g id="shape8-23" transform="translate(501.747,-9.50394)"><title>Nordic Blue.8</title><desc>UART (debug)</desc><path d="M0 593.95 L53.15 593.95 L53.15 551.43 L0 551.43 L0 593.95 Z" class="st11"/><text x="11.6" y="569.39" class="st12">UART <tspan x="7.62" class="st10" dy="1.2em">(debug)</tspan></text></g><g id="shape9-27" transform="translate(44.1469,-9.50394)"><title>Nordic Blue.9</title><desc>UART (debug)</desc><path d="M0 593.95 L53.15 593.95 L53.15 551.43 L0 551.43 L0 593.95 Z" class="st11"/><text x="11.6" y="569.39" class="st12">UART <tspan x="7.62" class="st10" dy="1.2em">(debug)</tspan></text></g><g id="shape10-31" transform="translate(14.1876,-66.1969)"><title>Nordic Blue.10</title><desc>TWI/I2C</desc><path d="M0 593.95 L53.15 593.95 L53.15 551.43 L0 551.43 L0 593.95 Z" class="st11"/><text x="6.41" y="575.99" class="st12">TWI/I2C</text></g><g id="shape11-34" transform="translate(77.9671,-66.1969)"><title>Nordic Blue.11</title><desc>SPI4</desc><path d="M0 593.95 L53.15 593.95 L53.15 551.43 L0 551.43 L0 593.95 Z" class="st11"/><text x="14.65" y="575.99" class="st12">SPI4</text></g><g id="shape12-37" transform="translate(77.9671,-151.236)"><title>Nordic Blue.12</title><desc>SD card</desc><rect width="53.15" height="42.52" x="0" y="551.431" class="st13"/><text x="6.71" y="575.99" class="st12">SD card</text></g><g id="shape13-40" transform="translate(40.6915,-196.926)"><title>Nordic Blue.13</title><desc>HW codec (CS47L63)</desc><rect width="63.779" height="42.52" x="0" y="551.431" class="st13"/><text x="6.52" y="569.39" class="st12">HW codec <tspan x="5.29" class="st10" dy="1.2em">(CS47L63)</tspan></text></g><g id="shape14-44" transform="translate(14.1876,-151.236)"><title>Nordic Blue.14</title><desc>Power module (INA231)</desc><rect width="53.15" height="42.52" x="0" y="551.431" class="st13"/><text x="10.99" y="562.79" class="st12">Power <tspan x="8.54" class="st10" dy="1.2em">module </tspan><tspan x="4.57" class="st10" dy="1.2em">(INA231)</tspan></text></g><g id="shape15-49" transform="translate(44.1469,-300.055)"><title>Nordic Blue.15</title><desc>Error handler</desc><rect width="53.15" height="42.52" x="0" y="551.431" class="st13"/><text x="14.35" y="569.39" class="st12">Error <tspan x="8.23" class="st10" dy="1.2em">handler</tspan></text></g><g id="shape16-53" transform="translate(74.4238,-250.449)"><title>Nordic Blue.16</title><desc>Buttons</desc><rect width="53.15" height="42.52" x="0" y="551.431" class="st13"/><text x="7.92" y="575.99" class="st12">Buttons</text></g><g id="shape17-56" transform="translate(10.6443,-250.449)"><title>Nordic Blue.17</title><desc>LEDs</desc><rect width="53.15" height="42.52" x="0" y="551.431" class="st13"/><text x="13.13" y="575.99" class="st12">LEDs</text></g><g id="shape18-59" transform="translate(33.6758,-108.717)"><title>Dynamic connector</title><path d="M7.09 587.27 L7.09 586.91 L7.09 558.47" class="st14"/></g><g id="shape22-68" transform="translate(155.37,-167.462)"><title>Nordic Blueslate</title><desc>Synchronization module (audio_datapath.c)</desc><rect width="220.802" height="54.64" x="0" y="539.311" class="st16"/><text x="51.7" y="563.33" class="st17">Synchronization module <tspan x="64.53" class="st10" dy="1.2em">(audio_datapath.c)</tspan></text></g><g id="shape23-72" transform="translate(155.37,-101.63)"><title>Nordic Lake</title><desc>audio_i2s.c</desc><rect width="220.802" height="33.38" x="0" y="560.57" class="st18"/><text x="82.58" y="580.56" class="st17">audio_i2s.c</text></g><g id="shape25-75" transform="translate(149.55,-2.03534)"><title>Nordic Blue.25</title><path d="M0 593.95 L232.44 593.95 L232.44 185.38 L0 185.38 L0 593.95 Z" class="st19"/></g><g id="shape26-77" transform="translate(97.4553,-108.717)"><title>Dynamic connector.26</title><path d="M7.09 587.27 L7.09 586.91 L7.09 558.47" class="st14"/></g><g id="shape29-84" transform="translate(72.5813,-196.926)"><title>Dynamic connector.29</title><path d="M0 600.63 L0 600.99 L0 659.48 L20.41 659.48 L20.41 675.12" class="st14"/></g><g id="shape30-91" transform="translate(239.196,-9.50394)"><title>Nordic Lake.30</title><desc>I2S (audio)</desc><path d="M0 593.95 L53.15 593.95 L53.15 551.43 L0 551.43 L0 593.95 Z" class="st20"/><text x="18.32" y="569.39" class="st17">I2S <tspan x="9.45" class="st10" dy="1.2em">(audio)</tspan></text></g><g id="shape31-95" transform="translate(295.526,-292.073)"><title>Nordic Lake.31</title><desc>I2S RX FIFO</desc><rect width="53.15" height="33.38" x="0" y="560.57" class="st18"/><text x="20.57" y="574.86" class="st21">I2S <tspan x="10.8" class="st10" dy="1.2em">RX FIFO</tspan></text></g><g id="shape32-99" transform="translate(155.37,-370.903)"><title>Nordic Sky</title><desc>audio_sync_timer.c</desc><rect width="78.503" height="24.113" x="0" y="569.838" class="st5"/><text x="4.79" y="584.29" class="st6">audio_sync_timer.c</text></g><g id="shape33-102" transform="translate(396.865,-1)"><title>Nordic Blue.33</title><path d="M0 593.95 L0.28 593.95 L0.28 4.34 L0 4.34 L0 593.95 Z" class="st22"/></g><g id="shape34-104" transform="translate(396.865,-573.598)"><title>Sheet.34</title><desc>Network core</desc><rect width="85.039" height="18.425" x="0" y="575.526" class="st23"/><text x="10.12" y="588.04" class="st12">Network core</text></g><g id="shape36-107" transform="translate(304.739,-573.598)"><title>Sheet.36</title><desc>Application core</desc><rect width="92.409" height="18.425" x="0" y="575.526" class="st23"/><text x="7.07" y="588.04" class="st12">Application core</text></g><g id="shape37-110" transform="translate(295.526,-349.084)"><title>Nordic Lake.37</title><desc>Encoder</desc><rect width="53.15" height="33.38" x="0" y="560.57" class="st24"/><text x="7.95" y="580.26" class="st7">Encoder</text></g><g id="shape42-113" transform="translate(165.535,-258.953)"><title>Nordic Middle Grey.42</title><rect width="117.943" height="86.74" x="0" y="507.211" class="st3"/></g><g id="shape44-115" transform="translate(154.006,-370.903)"><title>Dynamic connector.44</title><path d="M6.59 593.95 L7.54 735.71" class="st25"/></g><g id="shape45-121" transform="translate(253.715,-427.959)"><title>Dynamic connector.45</title><path d="M7.09 593.95 L7.09 673.64" class="st25"/></g><g id="shape46-126" transform="translate(231.038,-427.959)"><title>Dynamic connector.46</title><path d="M7.09 593.95 L7.09 673.64" class="st25"/></g><g id="shape49-131" transform="translate(293.4,-307.85)"><title>Dynamic connector.49</title><path d="M7.09 600.63 L7.09 600.99 L7.09 678.81" class="st27"/></g><g id="shape50-137" transform="translate(293.4,-324.563)"><title>Dynamic connector.50</title><path d="M7.09 593.95 L7.09 576.47" class="st29"/></g><g id="shape58-143" transform="translate(221.117,-229.189)"><title>Sheet.58</title><desc>bad_frame</desc><rect width="53.15" height="21.26" x="0" y="572.691" class="st23"/><text x="4" y="586.02" class="st30">bad_frame</text></g><g id="shape65-146" transform="translate(165.535,-229.189)"><title>Sheet.65</title><desc>sdu_ref</desc><rect width="39.231" height="21.26" x="0" y="572.691" class="st23"/><text x="5.21" y="586.02" class="st30">sdu_ref</text></g><g id="shape66-149" transform="translate(260.802,-509.819)"><title>Sheet.66</title><desc>bad_frame</desc><rect width="53.15" height="21.26" x="0" y="572.691" class="st23"/><text x="4" y="586.02" class="st30">bad_frame</text></g><g id="shape71-152" transform="translate(198.893,-510.178)"><title>Sheet.71</title><desc>sdu_ref</desc><rect width="39.231" height="21.26" x="0" y="572.691" class="st23"/><text x="5.21" y="586.02" class="st30">sdu_ref</text></g><g id="shape72-155" transform="translate(242.377,-427.959)"><title>Dynamic connector.72</title><path d="M7.09 593.95 L7.09 673.64" class="st1"/></g><g id="shape73-160" transform="translate(205.951,-317.118)"><title>Dynamic connector.73</title><path d="M7.09 593.95 L7.09 681.33" class="st1"/></g><g id="shape74-165" transform="translate(214.03,-167.462)"><title>Dynamic connector.74</title><path d="M-7.09 593.95 L-7.09 619.36" class="st29"/></g><g id="shape75-170" transform="translate(293.4,-167.462)"><title>Dynamic connector.75</title><path d="M7.09 600.63 L7.09 600.99 L7.09 626.4" class="st27"/></g><g id="shape76-175" transform="translate(163.006,-349.27)"><title>Sheet.76</title><desc>cur_time</desc><rect width="42.52" height="21.26" x="0" y="572.691" class="st23"/><text x="4" y="586.02" class="st30">cur_time</text></g><g id="shape77-178" transform="translate(226.786,-167.462)"><title>Dynamic connector.77</title><path d="M7.09 600.63 L7.09 600.99 L7.09 626.4" class="st31"/></g><g id="shape79-184" transform="translate(233.873,-139.898)"><title>Sheet.79</title><desc>frame_start_ts</desc><rect width="66.614" height="17.008" x="0" y="576.943" class="st23"/><text x="4" y="587.85" class="st32">frame_start_ts</text></g><g id="shape80-187" transform="translate(243.794,-52.0236)"><title>Dynamic connector.80</title><path d="M7.09 593.95 L7.09 551.38" class="st25"/></g><g id="shape81-192" transform="translate(270.156,-52.0236)"><title>Dynamic connector.81</title><path d="M7.09 587.27 L7.09 586.91 L7.09 551.38" class="st33"/></g><g id="shape82-199" transform="translate(352.928,-545.252)"><title>Dynamic connector.82</title><path d="M6.68 586.86 L7.04 586.86 L65.24 586.86" class="st34"/></g><g id="shape83-206" transform="translate(357.18,-552.339)"><title>Sheet.83</title><desc>HCI RPMSG</desc><rect width="42.52" height="21.26" x="0" y="572.691" class="st23"/><text x="13.51" y="580.62" class="st30">HCI <tspan x="4.76" class="st10" dy="1.2em">RPMSG</tspan></text></g><g id="shape84-210" transform="translate(149.55,-395.016)"><title>Sheet.84</title><desc>Audio modules</desc><rect width="71.566" height="15.591" x="0" y="578.36" class="st23"/><text x="4" y="588.86" class="st30">Audio modules</text></g><g id="shape86-213" transform="translate(137.191,-285.557)"><title>Dynamic connector.86</title><path d="M1.72 586.86 L5.41 586.86" class="st25"/></g><g id="shape87-218" transform="translate(151.06,-275.961)"><title>Dynamic connector.87</title><path d="M-2.02 586.86 L-5.11 586.86" class="st25"/></g><g id="group102-223" transform="translate(2.53133,-1)"><title>Sheet.102</title><g id="shape24-224"><title>Nordic Blue.24</title><path d="M0 593.95 L136.38 593.95 L136.38 214.43 L0 214.43 L0 593.95 Z" class="st19"/></g><g id="shape85-226" transform="translate(0,-362.569)"><title>Sheet.85</title><desc>Peripheral modules</desc><rect width="136.381" height="16.956" x="0" y="576.995" class="st23"/><text x="4" y="588.17" class="st30">Peripheral modules</text></g></g><g id="shape103-229" transform="translate(2.88994,-403.52)"><title>Nordic Blue.103</title><rect width="127.877" height="189.431" x="0" y="404.52" class="st35"/></g><g id="shape104-231" transform="translate(12.7002,-536.678)"><title>Nordic Lake.104</title><rect width="16.019" height="10.061" x="0" y="583.89" class="st24"/></g><g id="shape105-233" transform="translate(29.8533,-587.717)"><title>Dynamic connector.105</title><path d="M0 601.02 L-12.71 601.04" class="st25"/></g><g id="shape106-238" transform="translate(33.6886,-575.578)"><title>Sheet.106</title><desc>Control data</desc><rect width="71.566" height="10.061" x="0" y="583.89" class="st23"/><text x="4" y="591.62" class="st4">Control data</text></g><g id="shape107-241" transform="translate(29.8533,-575.528)"><title>Dynamic connector.107</title><path d="M0 601.02 L-12.71 601.04" class="st1"/></g><g id="shape108-246" transform="translate(33.6886,-563.389)"><title>Sheet.108</title><desc>Compressed audio</desc><rect width="97.078" height="10.061" x="0" y="583.89" class="st23"/><text x="4" y="591.62" class="st4">Compressed audio</text></g><g id="shape109-249" transform="translate(29.8533,-563.339)"><title>Dynamic connector.109</title><path d="M0 601.02 L-12.71 601.04" class="st29"/></g><g id="shape110-254" transform="translate(33.6886,-551.2)"><title>Sheet.110</title><desc>Uncompressed audio</desc><rect width="97.078" height="10.061" x="0" y="583.89" class="st23"/><text x="4" y="591.62" class="st4">Uncompressed audio</text></g><g id="shape111-257" transform="translate(12.7002,-513.287)"><title>Nordic Lake.111</title><rect width="16.019" height="10.061" x="0" y="583.89" class="st18"/></g><g id="shape112-259" transform="translate(33.4717,-531.357)"><title>Sheet.112</title><desc>Block working on compressed audio</desc><rect width="97.078" height="10.061" x="0" y="583.89" class="st23"/><text x="4" y="586.22" class="st4">Block working on <tspan x="4" class="st10" dy="1.2em">compressed audio</tspan></text></g><g id="shape113-263" transform="translate(33.6886,-508.113)"><title>Sheet.113</title><desc>Block working on uncompressed audio</desc><rect width="97.078" height="10.061" x="0" y="583.89" class="st23"/><text x="4" y="586.22" class="st4">Block working on <tspan x="4" class="st10" dy="1.2em">uncompressed audio</tspan></text></g><g id="shape114-267" transform="translate(12.7002,-409.189)"><title>Nordic Lake.114</title><path d="M0 593.95 L16.02 593.95 L16.02 583.89 L0 583.89 L0 593.95 Z" class="st36"/></g><g id="shape115-269" transform="translate(33.6886,-409.189)"><title>Sheet.115</title><desc>HW layer element</desc><rect width="97.078" height="10.061" x="0" y="583.89" class="st23"/><text x="4" y="591.62" class="st4">HW layer element</text></g><g id="shape116-272" transform="translate(12.7002,-490.466)"><title>Nordic Lake.115</title><rect width="16.019" height="10.061" x="0" y="583.89" class="st13"/></g><g id="shape117-274" transform="translate(33.6886,-490.466)"><title>Sheet.117</title><desc>Peripheral module</desc><rect width="97.078" height="10.061" x="0" y="583.89" class="st23"/><text x="4" y="591.62" class="st4">Peripheral module</text></g><g id="shape118-277" transform="translate(12.7002,-473.459)"><title>Nordic Lake.117</title><rect width="16.019" height="10.061" x="0" y="583.89" class="st8"/></g><g id="shape119-279" transform="translate(34.0387,-473.459)"><title>Sheet.119</title><desc>Large main module</desc><rect width="97.078" height="10.061" x="0" y="583.89" class="st23"/><text x="4" y="591.62" class="st4">Large main module</text></g><g id="shape120-282" transform="translate(33.6886,-452.059)"><title>Sheet.120</title><desc>Application source files</desc><rect width="97.078" height="10.061" x="0" y="583.89" class="st23"/><text x="4" y="586.22" class="st4">Application <tspan x="4" class="st10" dy="1.2em">source files</tspan></text></g><g id="shape121-286" transform="translate(12.7002,-456.451)"><title>Nordic Lake.120</title><rect width="16.019" height="10.061" x="0" y="583.89" class="st5"/></g><g id="shape122-288" transform="translate(12.7002,-446.39)"><title>Nordic Lake.121</title><rect width="16.019" height="10.061" x="0" y="583.89" class="st3"/></g><g id="shape123-290" transform="translate(12.7002,-431.727)"><title>Nordic Lake.123</title><rect width="16.019" height="10.061" x="0" y="583.89" class="st16"/></g><g id="shape124-292" transform="translate(33.33,-421.236)"><title>Sheet.124</title><desc>Synchronization module</desc><rect width="97.078" height="21.26" x="0" y="572.691" class="st23"/><text x="4" y="580.62" class="st4">Synchronization <tspan x="4" class="st10" dy="1.2em">module</tspan></text></g><g id="shape126-296" transform="translate(444.522,-531.079)"><title>Dynamic connector.126</title><path d="M6.91 600.63 L6.91 600.99 L7.26 1065.97" class="st37"/></g><g id="shape128-304" transform="translate(150.251,-531.079)"><title>Nordic Blue.128</title><desc>Bluetooth LE Host</desc><rect width="202.677" height="42.52" x="0" y="551.431" class="st8"/><text x="57.01" y="575.99" class="st9">Bluetooth LE Host</text></g><g id="shape129-307" transform="translate(253.715,-492.111)"><title>Dynamic connector.129</title><path d="M7.09 587.27 L7.09 586.91 L7.09 554.98" class="st31"/></g><g id="shape130-312" transform="translate(242.377,-492.111)"><title>Dynamic connector.130</title><path d="M7.09 587.27 L7.09 586.91 L7.09 554.98" class="st38"/></g><g id="shape131-317" transform="translate(245.211,-492.111)"><title>Dynamic connector.131</title><path d="M-7.09 587.27 L-7.09 586.91 L-7.09 554.98" class="st31"/></g><g id="shape132-322" transform="translate(147.089,-417.693)"><title>Nordic Blue.129</title><path d="M0 593.95 L235.6 593.95 L235.6 501.82 L0 501.82 L0 593.95 Z" class="st19"/></g><g id="shape138-324" transform="translate(147.089,-491.394)"><title>Sheet.138</title><desc>Bluetooth modules</desc><rect width="85.039" height="18.425" x="0" y="575.526" class="st23"/><text x="6.49" y="587.44" class="st30">Bluetooth modules</text></g><g id="shape139-327" transform="translate(154.848,-455.961)"><title>Nordic Light Grey.139</title><desc>broadcast_source.c</desc><rect width="94.615" height="18" x="0" y="575.95" class="st5"/><text x="12.4" y="587.35" class="st6">broadcast_source.c</text></g><g id="shape140-330" transform="translate(254.061,-455.961)"><title>Nordic Light Grey.140</title><desc>unicast_client.c</desc><rect width="94.615" height="18" x="0" y="575.95" class="st5"/><text x="19.96" y="587.35" class="st6">unicast_client.c</text></g><g id="shape141-333" transform="translate(254.061,-434.701)"><title>Nordic Light Grey.141</title><desc>unicast_server.c</desc><rect width="94.615" height="18" x="0" y="575.95" class="st5"/><text x="18.18" y="587.35" class="st6">unicast_server.c</text></g><g id="shape142-336" transform="translate(154.848,-434.701)"><title>Nordic Light Grey.142</title><desc>broadcast_sink.c</desc><rect width="94.615" height="18" x="0" y="575.95" class="st5"/><text x="17.29" y="587.35" class="st6">broadcast_sink.c</text></g><g id="shape143-339" transform="translate(313.243,-492.111)"><title>Dynamic connector.143</title><path d="M7.09 593.95 L7.09 562.02" class="st1"/></g><g id="shape48-344" transform="translate(227.9,-222.699)"><title>Dynamic connector.48</title><path d="M-6.86 587.27 L-6.86 586.91 L-7.35 498.93" class="st31"/></g><g id="shape47-349" transform="translate(212.594,-317.715)"><title>Dynamic connector.47</title><path d="M-7.07 593.95 L-7.1 681.93" class="st25"/></g><g id="shape43-354" transform="translate(199.211,-317.118)"><title>Nordic Lake.43</title><desc>Bluetooth LE RX FIFO</desc><rect width="63.779" height="24.113" x="0" y="569.838" class="st24"/><text x="8.98" y="579.49" class="st39">Bluetooth LE <tspan x="16.11" class="st10" dy="1.2em">RX FIFO</tspan></text></g><g id="shape145-358" transform="translate(170.093,-292.968)"><title>Sheet.145</title><desc>streamctrl_unicast_client.c</desc><rect width="107.717" height="8.504" x="0" y="585.447" class="st5"/><text x="9.67" y="591.95" class="st40">streamctrl_unicast_client.c</text></g><g id="shape147-361" transform="translate(170.093,-283.047)"><title>Sheet.147</title><desc>streamctrl_unicast_server.c</desc><rect width="107.717" height="8.504" x="0" y="585.447" class="st5"/><text x="8.01" y="591.95" class="st40">streamctrl_unicast_server.c</text></g><g id="shape148-364" transform="translate(170.093,-273.126)"><title>Sheet.148</title><desc>streamctrl_broadcast_source.c</desc><rect width="107.717" height="8.504" x="0" y="585.447" class="st5"/><text x="6.01" y="591.8" class="st41">streamctrl_broadcast_source.c</text></g><g id="shape150-367" transform="translate(170.093,-263.205)"><title>Sheet.150</title><desc>streamctrl_broadcast_sink.c</desc><rect width="107.717" height="8.504" x="0" y="585.447" class="st5"/><text x="7.17" y="591.95" class="st40">streamctrl_broadcast_sink.c</text></g><g id="shape151-370" transform="translate(165.535,-301.472)"><title>Sheet.151</title><desc>One of the following:</desc><rect width="117.943" height="12.756" x="0" y="581.195" class="st42"/><text x="17.95" y="590.27" class="st4">One of the following:</text></g></g></svg>