<svg xmlns="http://www.w3.org/2000/svg" xmlns:svg="http://www.w3.org/2000/svg" id="Layer_1" width="352" height="265" x="0" y="0" enable-background="new 0 0 352 265" version="1.0" viewBox="0 0 352 265" xml:space="preserve"><g id="g524" transform="translate(1.3022113,-0.32555283)"><line id="line2" x1="118.674" x2="154.194" y1="81.71" y2="81.71" fill="none" stroke="#000" stroke-linecap="round" stroke-linejoin="round" stroke-miterlimit="10" stroke-width=".24"/><polyline id="polyline4" fill="none" stroke="#000" stroke-linecap="round" stroke-linejoin="bevel" stroke-miterlimit="10" stroke-width=".24" points="154.194 81.71 154.434 81.65 154.674 81.59 155.034 81.23 155.154 80.75"/><line id="line6" x1="166.674" x2="228.294" y1="81.71" y2="81.71" fill="none" stroke="#000" stroke-linecap="round" stroke-linejoin="round" stroke-miterlimit="10" stroke-width=".24"/><polyline id="polyline8" fill="none" stroke="#000" stroke-linecap="round" stroke-linejoin="bevel" stroke-miterlimit="10" stroke-width=".24" points="165.714 80.75 165.834 81.23 166.194 81.59 166.434 81.65 166.674 81.71"/><line id="line10" x1="113.874" x2="113.874" y1="86.57" y2="138.77" fill="none" stroke="#000" stroke-linecap="round" stroke-linejoin="round" stroke-miterlimit="10" stroke-width=".24"/><path id="path12" fill="none" stroke="#000" stroke-linecap="round" stroke-linejoin="bevel" stroke-miterlimit="10" stroke-width=".24" d="m 118.674,81.77 -0.78,0.06 c -2.231,0.496 -3.464,1.729 -3.96,3.96 l -0.06,0.78"/><line id="line14" x1="128.634" x2="154.194" y1="153.59" y2="153.59" fill="none" stroke="#000" stroke-linecap="round" stroke-linejoin="round" stroke-miterlimit="10" stroke-width=".24"/><path id="path16" fill="none" stroke="#000" stroke-linecap="round" stroke-linejoin="bevel" stroke-miterlimit="10" stroke-width=".24" d="m 228.294,153.53 0.78,-0.06 c 2.231,-0.496 3.464,-1.729 3.96,-3.96 l 0.06,-0.78"/><line id="line18" x1="233.094" x2="233.094" y1="86.57" y2="91.73" fill="none" stroke="#000" stroke-linecap="round" stroke-linejoin="round" stroke-miterlimit="10" stroke-width=".24"/><line id="line20" x1="233.094" x2="233.094" y1="143.57" y2="148.73" fill="none" stroke="#000" stroke-linecap="round" stroke-linejoin="round" stroke-miterlimit="10" stroke-width=".24"/><path id="path22" fill="none" stroke="#000" stroke-linecap="round" stroke-linejoin="bevel" stroke-miterlimit="10" stroke-width=".24" d="m 233.094,86.57 -0.06,-0.78 c -0.496,-2.231 -1.729,-3.464 -3.96,-3.96 l -0.78,-0.06"/><line id="line24" x1="117.594" x2="151.794" y1="75.41" y2="75.41" fill="none" stroke="#000" stroke-linecap="round" stroke-linejoin="round" stroke-miterlimit="10" stroke-width=".24"/><line id="line26" x1="127.374" x2="151.794" y1="159.95" y2="159.95" fill="none" stroke="#000" stroke-linecap="round" stroke-linejoin="round" stroke-miterlimit="10" stroke-width=".24"/><polyline id="polyline28" fill="none" stroke="#000" stroke-linecap="round" stroke-linejoin="bevel" stroke-miterlimit="10" stroke-width=".24" points="124.974 158.99 125.694 159.47 126.114 159.71 126.954 159.95 127.374 159.95"/><path id="path30" fill="none" stroke="#000" stroke-linecap="round" stroke-linejoin="bevel" stroke-miterlimit="10" stroke-width=".24" d="m 229.374,159.89 1.14,-0.06 c 4.638,-0.531 8.348,-4.242 8.88,-8.88 l 0.06,-1.14"/><line id="line32" x1="107.514" x2="107.514" y1="85.49" y2="140.03" fill="none" stroke="#000" stroke-linecap="round" stroke-linejoin="round" stroke-miterlimit="10" stroke-width=".24"/><path id="path34" fill="none" stroke="#000" stroke-linecap="round" stroke-linejoin="bevel" stroke-miterlimit="10" stroke-width=".24" d="m 117.594,75.41 -1.14,0.06 c -4.638,0.531 -8.349,4.242 -8.88,8.88 l -0.06,1.14"/><line id="line36" x1="239.454" x2="239.454" y1="85.49" y2="89.33" fill="none" stroke="#000" stroke-linecap="round" stroke-linejoin="round" stroke-miterlimit="10" stroke-width=".24"/><path id="path38" fill="none" stroke="#000" stroke-linecap="round" stroke-linejoin="bevel" stroke-miterlimit="10" stroke-width=".24" d="m 239.454,85.49 -0.06,-1.14 c -0.532,-4.638 -4.242,-8.348 -8.88,-8.88 l -1.14,-0.06"/><line id="line40" x1="239.454" x2="239.454" y1="145.97" y2="149.81" fill="none" stroke="#000" stroke-linecap="round" stroke-linejoin="round" stroke-miterlimit="10" stroke-width=".24"/><path id="path42" fill="none" stroke="#000" stroke-linecap="round" stroke-linejoin="bevel" stroke-miterlimit="10" stroke-width=".24" d="m 239.454,145.97 -0.06,-0.66 c -0.335,-1.448 -1.191,-2.305 -2.64,-2.64 l -0.66,-0.06"/><line id="line44" x1="113.874" x2="128.634" y1="138.77" y2="153.59" fill="none" stroke="#000" stroke-linecap="round" stroke-linejoin="round" stroke-miterlimit="10" stroke-width=".24"/><line id="line46" x1="108.474" x2="125.034" y1="142.43" y2="158.93" fill="none" stroke="#000" stroke-linecap="round" stroke-linejoin="round" stroke-miterlimit="10" stroke-width=".24"/><polyline id="polyline48" fill="none" stroke="#000" stroke-linecap="round" stroke-linejoin="bevel" stroke-miterlimit="10" stroke-width=".24" points="107.514 140.03 107.514 140.45 107.754 141.29 107.934 141.71 108.234 142.07 108.474 142.43"/><line id="line50" x1="155.154" x2="155.154" y1="78.77" y2="80.75" fill="none" stroke="#000" stroke-linecap="round" stroke-linejoin="round" stroke-miterlimit="10" stroke-width=".24"/><path id="path52" fill="none" stroke="#000" stroke-linecap="round" stroke-linejoin="bevel" stroke-miterlimit="10" stroke-width=".24" d="m 155.154,78.77 -0.06,-0.66 c -0.335,-1.449 -1.191,-2.305 -2.64,-2.64 l -0.66,-0.06"/><line id="line54" x1="155.154" x2="155.154" y1="154.55" y2="156.59" fill="none" stroke="#000" stroke-linecap="round" stroke-linejoin="round" stroke-miterlimit="10" stroke-width=".24"/><polyline id="polyline56" fill="none" stroke="#000" stroke-linecap="round" stroke-linejoin="bevel" stroke-miterlimit="10" stroke-width=".24" points="155.154 154.55 155.034 154.07 154.674 153.71 154.434 153.65 154.194 153.59"/><path id="path58" fill="none" stroke="#000" stroke-linecap="round" stroke-linejoin="bevel" stroke-miterlimit="10" stroke-width=".24" d="m 151.794,159.95 0.66,-0.06 c 1.448,-0.334 2.306,-1.192 2.64,-2.64 l 0.06,-0.66"/><line id="line60" x1="165.714" x2="165.714" y1="78.77" y2="80.75" fill="none" stroke="#000" stroke-linecap="round" stroke-linejoin="round" stroke-miterlimit="10" stroke-width=".24"/><path id="path62" fill="none" stroke="#000" stroke-linecap="round" stroke-linejoin="bevel" stroke-miterlimit="10" stroke-width=".24" d="m 169.074,75.41 -0.66,0.06 c -1.448,0.335 -2.306,1.191 -2.64,2.64 l -0.06,0.66"/><line id="line64" x1="165.714" x2="165.714" y1="154.55" y2="156.59" fill="none" stroke="#000" stroke-linecap="round" stroke-linejoin="round" stroke-miterlimit="10" stroke-width=".24"/><polyline id="polyline66" fill="none" stroke="#000" stroke-linecap="round" stroke-linejoin="bevel" stroke-miterlimit="10" stroke-width=".24" points="166.674 153.59 166.434 153.65 166.194 153.71 165.834 154.07 165.714 154.55"/><path id="path68" fill="none" stroke="#000" stroke-linecap="round" stroke-linejoin="bevel" stroke-miterlimit="10" stroke-width=".24" d="m 165.714,156.59 0.06,0.66 c 0.334,1.448 1.192,2.306 2.64,2.64 l 0.66,0.06"/><line id="line70" x1="236.094" x2="234.114" y1="92.69" y2="92.69" fill="none" stroke="#000" stroke-linecap="round" stroke-linejoin="round" stroke-miterlimit="10" stroke-width=".24"/><path id="path72" fill="none" stroke="#000" stroke-linecap="round" stroke-linejoin="bevel" stroke-miterlimit="10" stroke-width=".24" d="m 236.094,92.69 0.66,-0.06 c 1.449,-0.334 2.305,-1.192 2.64,-2.64 l 0.06,-0.66"/><polyline id="polyline74" fill="none" stroke="#000" stroke-linecap="round" stroke-linejoin="bevel" stroke-miterlimit="10" stroke-width=".24" points="233.154 91.73 233.274 92.21 233.634 92.57 233.874 92.63 234.114 92.69"/><line id="line76" x1="236.094" x2="234.114" y1="142.61" y2="142.61" fill="none" stroke="#000" stroke-linecap="round" stroke-linejoin="round" stroke-miterlimit="10" stroke-width=".24"/><polyline id="polyline78" fill="none" stroke="#000" stroke-linecap="round" stroke-linejoin="bevel" stroke-miterlimit="10" stroke-width=".24" points="234.114 142.61 233.874 142.67 233.634 142.73 233.274 143.09 233.154 143.57"/><line id="line80" x1="169.074" x2="229.374" y1="75.41" y2="75.41" fill="none" stroke="#000" stroke-linecap="round" stroke-linejoin="round" stroke-miterlimit="10" stroke-width=".24"/><line id="line82" x1="169.074" x2="229.374" y1="159.95" y2="159.95" fill="none" stroke="#000" stroke-linecap="round" stroke-linejoin="round" stroke-miterlimit="10" stroke-width=".24"/><line id="line84" x1="166.674" x2="228.294" y1="153.59" y2="153.59" fill="none" stroke="#000" stroke-linecap="round" stroke-linejoin="round" stroke-miterlimit="10" stroke-width=".24"/><line id="line86" x1="2.214" x2="243.714" y1="1.97" y2="1.97" fill="none" stroke="#000" stroke-linecap="round" stroke-linejoin="round" stroke-miterlimit="10" stroke-width=".72"/><line id="line88" x1="262.974" x2="262.974" y1="21.23" y2="243.71" fill="none" stroke="#000" stroke-linecap="round" stroke-linejoin="round" stroke-miterlimit="10" stroke-width=".72"/><path id="path90" fill="none" stroke="#000" stroke-linecap="round" stroke-linejoin="bevel" stroke-miterlimit="10" stroke-width=".72" d="m 243.714,262.97 1.5,-0.06 c 9.446,-0.72 16.98,-8.254 17.7,-17.7 l 0.06,-1.5"/><path id="path92" fill="none" stroke="#000" stroke-linecap="round" stroke-linejoin="bevel" stroke-miterlimit="10" stroke-width=".72" d="m 262.974,21.23 -0.06,-1.5 c -0.72,-9.446 -8.254,-16.98 -17.7,-17.7 l -1.5,-0.06"/><polyline id="polyline94" fill="none" stroke="#000" stroke-linecap="round" stroke-linejoin="round" stroke-miterlimit="10" stroke-width=".72" points="243.714 263.03 2.214 263.03 2.214 1.97"/><line id="line96" x1="221.514" x2="164.994" y1="145.37" y2="145.37" fill="none" stroke="#000" stroke-linecap="round" stroke-linejoin="round" stroke-miterlimit="10" stroke-width=".24"/><polyline id="polyline98" fill="none" stroke="#000" stroke-linecap="round" stroke-linejoin="bevel" stroke-miterlimit="10" stroke-width=".24" points="163.974 144.95 164.214 145.13 164.454 145.25 164.694 145.37 164.994 145.37"/><path id="path100" fill="none" stroke="#000" stroke-linecap="round" stroke-linejoin="bevel" stroke-miterlimit="10" stroke-width=".24" d="m 221.514,145.37 0.78,-0.06 c 2.231,-0.496 3.464,-1.729 3.96,-3.96 l 0.06,-0.78"/><line id="line102" x1="152.874" x2="152.874" y1="92.57" y2="133.25" fill="none" stroke="#000" stroke-linecap="round" stroke-linejoin="round" stroke-miterlimit="10" stroke-width=".24"/><path id="path104" fill="none" stroke="#000" stroke-linecap="round" stroke-linejoin="bevel" stroke-miterlimit="10" stroke-width=".24" d="m 157.674,87.77 -0.78,0.06 c -2.231,0.496 -3.464,1.729 -3.96,3.96 l -0.06,0.78"/><line id="line106" x1="157.674" x2="221.514" y1="87.71" y2="87.71" fill="none" stroke="#000" stroke-linecap="round" stroke-linejoin="round" stroke-miterlimit="10" stroke-width=".24"/><line id="line108" x1="226.314" x2="226.314" y1="140.57" y2="92.57" fill="none" stroke="#000" stroke-linecap="round" stroke-linejoin="round" stroke-miterlimit="10" stroke-width=".24"/><path id="path110" fill="none" stroke="#000" stroke-linecap="round" stroke-linejoin="bevel" stroke-miterlimit="10" stroke-width=".24" d="m 226.314,92.57 -0.06,-0.78 c -0.496,-2.231 -1.729,-3.464 -3.96,-3.96 l -0.78,-0.06"/><line id="line112" x1="160.254" x2="160.254" y1="124.73" y2="94.79" fill="none" stroke="#000" stroke-linecap="round" stroke-linejoin="round" stroke-miterlimit="10" stroke-width=".24"/><path id="path114" fill="none" stroke="#000" stroke-linecap="round" stroke-linejoin="bevel" stroke-miterlimit="10" stroke-width=".24" d="m 165.054,89.99 -0.78,0.06 c -2.231,0.496 -3.464,1.729 -3.96,3.96 l -0.06,0.78"/><line id="line116" x1="167.994" x2="217.914" y1="132.41" y2="132.41" fill="none" stroke="#000" stroke-linecap="round" stroke-linejoin="round" stroke-miterlimit="10" stroke-width=".24"/><path id="path118" fill="none" stroke="#000" stroke-linecap="round" stroke-linejoin="bevel" stroke-miterlimit="10" stroke-width=".24" d="m 217.914,132.41 0.48,-0.06 c 0.836,-0.119 1.741,-1.024 1.86,-1.86 l 0.06,-0.48"/><line id="line120" x1="220.314" x2="220.314" y1="130.01" y2="92.39" fill="none" stroke="#000" stroke-linecap="round" stroke-linejoin="round" stroke-miterlimit="10" stroke-width=".24"/><path id="path122" fill="none" stroke="#000" stroke-linecap="round" stroke-linejoin="bevel" stroke-miterlimit="10" stroke-width=".24" d="m 220.314,92.39 -0.06,-0.48 c -0.119,-0.836 -1.024,-1.741 -1.86,-1.86 l -0.48,-0.06"/><line id="line124" x1="165.054" x2="217.914" y1="89.99" y2="89.99" fill="none" stroke="#000" stroke-linecap="round" stroke-linejoin="round" stroke-miterlimit="10" stroke-width=".24"/><line id="line126" x1="160.254" x2="167.994" y1="124.73" y2="132.41" fill="none" stroke="#000" stroke-linecap="round" stroke-linejoin="round" stroke-miterlimit="10" stroke-width=".24"/><line id="line128" x1="153.294" x2="163.974" y1="134.27" y2="144.95" fill="none" stroke="#000" stroke-linecap="round" stroke-linejoin="round" stroke-miterlimit="10" stroke-width=".24"/><polyline id="polyline130" fill="none" stroke="#000" stroke-linecap="round" stroke-linejoin="bevel" stroke-miterlimit="10" stroke-width=".24" points="152.874 133.25 152.874 133.55 153.114 134.03 153.294 134.27"/><path id="path256" fill-rule="evenodd" d="m 51.354,194.85 h -2.58 0.3 c 0.867,0.062 1.474,0.473 1.56,1.38 v 0.48 c 0.037,0.838 -0.742,1.576 -1.56,1.56 l -0.36,0.06 h -1.02 l 3.36,0.12 0.36,-0.36 0.3,-0.6 0.12,-0.48 v -0.3 l 0.06,-0.3 v -0.06 l -0.06,-0.3 -0.06,-0.24 -0.06,-0.3 -0.06,-0.24 -0.18,-0.24" clip-rule="evenodd"/><path id="path258" fill-rule="evenodd" d="m 48.834,193.89 h -1.92 l -0.24,0.12 -0.06,0.12 -0.06,0.24 v 7.98 l 0.06,0.12 0.06,0.06 h 0.18 l 0.3,0.06 0.24,-0.06 h 0.18 l 0.12,-0.06 v -3.24 h 1.02 c 0.747,0.035 1.564,-0.122 2.16,-0.6 l 0.18,-0.18 -3.36,-0.12 v -3.48 h 3.66 l -0.18,-0.24 c -0.761,-0.589 -0.902,-0.522 -1.74,-0.72 h -0.3" clip-rule="evenodd"/><polyline id="polyline260" fill-rule="evenodd" points="54.774 42.35 54.774 42.47 54.654 42.53 54.474 42.53 54.234 42.59 53.934 42.53 53.754 42.53 53.694 42.47 53.634 42.35 53.634 34.07 53.694 33.95 53.754 33.89 53.934 33.89 54.234 33.83 54.474 33.89 54.654 33.89 54.774 33.95 54.774 42.35" clip-rule="evenodd" transform="translate(0,160)"/><path id="path262" fill-rule="evenodd" d="m 59.154,194.61 -0.9,0.54 0.06,0.12 c 0.05,0.358 0.554,1.03 0.72,1.5 l 2.64,4.92 0.84,-0.72 -0.06,-0.12 c -0.376,-0.745 -0.741,-1.483 -1.14,-2.22 l -0.12,-0.24" clip-rule="evenodd"/><path id="path264" fill-rule="evenodd" d="m 58.194,193.89 h -0.66 l -0.24,0.12 -0.12,0.12 -0.06,0.24 v 7.98 l 0.06,0.12 0.06,0.06 h 0.18 l 0.3,0.06 0.24,-0.06 h 0.18 l 0.12,-0.06 v -0.12 c 0,-2.3 0,-4.6 0,-6.9 v -0.3 l 0.9,-0.54 -0.18,-0.36 h -0.06 l -0.18,-0.24 -0.24,-0.06 -0.06,-0.06" clip-rule="evenodd"/><path id="path266" fill-rule="evenodd" d="m 63.114,193.89 h -0.3 l -0.18,0.06 -0.12,0.06 v 0.06 c 0,2.3 0,4.6 0,6.9 l -0.84,0.72 0.12,0.24 0.42,0.42 v 0.06 l 0.24,0.12 h 0.84 l 0.18,-0.12 0.12,-0.12 0.06,-0.24 v -7.98 l -0.12,-0.12 -0.18,-0.06" clip-rule="evenodd"/><polyline id="polyline268" fill-rule="evenodd" points="66.714 41.03 66.654 41.03 66.414 41.09 66.174 41.21 66.054 41.45 66.054 42.17 66.174 42.41 66.414 42.53 66.474 42.59 66.834 42.59 67.074 42.53 67.314 42.41 67.434 42.17 67.434 41.45 67.314 41.21 67.074 41.09 67.014 41.09" clip-rule="evenodd" transform="translate(0,160)"/><polyline id="polyline270" fill-rule="evenodd" points="66.714 36.41 66.654 36.41 66.414 36.47 66.174 36.59 66.054 36.83 66.054 37.55 66.174 37.79 66.414 37.91 66.474 37.91 66.714 37.97 66.834 37.97 67.074 37.91 67.314 37.79 67.434 37.55 67.434 36.83 67.314 36.59 67.074 36.47 67.014 36.41" clip-rule="evenodd" transform="translate(0,160)"/><path id="path272" fill-rule="evenodd" d="m 51.354,209.31 h -2.58 0.3 c 0.867,0.062 1.474,0.473 1.56,1.38 v 0.48 c 0.037,0.838 -0.742,1.576 -1.56,1.56 l -0.36,0.06 h -1.02 l 3.36,0.12 0.36,-0.36 0.3,-0.6 0.12,-0.48 v -0.3 l 0.06,-0.3 v -0.06 l -0.06,-0.3 -0.06,-0.24 -0.06,-0.3 -0.06,-0.24 -0.18,-0.24" clip-rule="evenodd"/><path id="path274" fill-rule="evenodd" d="m 48.834,208.35 h -1.92 l -0.24,0.12 -0.06,0.12 -0.06,0.24 v 7.98 l 0.06,0.12 0.06,0.06 h 0.18 l 0.3,0.06 0.24,-0.06 h 0.18 l 0.12,-0.06 v -3.24 h 1.02 c 0.747,0.035 1.564,-0.122 2.16,-0.6 l 0.18,-0.18 -3.36,-0.12 v -3.48 h 3.66 l -0.18,-0.24 c -0.761,-0.589 -0.902,-0.522 -1.74,-0.72 h -0.3" clip-rule="evenodd"/><path id="path276" fill-rule="evenodd" d="m 54.174,208.29 -0.24,0.06 h -0.18 l -0.12,0.06 v 5.46 c -0.046,1.084 0.397,2.258 1.38,2.82 l 0.48,0.24 c 0.977,0.33 2.52,0.238 3.36,-0.36 l 0.18,-0.12 0.24,-0.18 -2.4,-0.12 c -0.621,-0.076 -0.739,-0.06 -1.32,-0.42 l -0.24,-0.18 v -0.06 l -0.18,-0.18 -0.12,-0.24 -0.12,-0.3 -0.06,-0.18 v -0.24 l -0.06,-0.3 v -5.52 l -0.06,-0.12 -0.06,-0.06 h -0.18" clip-rule="evenodd"/><polyline id="polyline278" fill-rule="evenodd" points="59.574 48.29 59.274 48.35 59.094 48.35 59.034 48.41 58.974 48.53 58.974 54.35 58.854 54.83 58.734 55.13 58.614 55.37 58.254 55.73 57.774 55.97 57.714 56.03 57.414 56.09 57.174 56.15 56.874 56.15 59.274 56.27 59.334 56.15 59.514 55.91 59.694 55.73 59.814 55.49 59.934 55.19 59.934 55.13 60.054 54.65 60.114 54.35 60.114 48.41 59.994 48.35 59.814 48.35" clip-rule="evenodd" transform="translate(0,160)"/><polyline id="polyline280" fill-rule="evenodd" points="63.054 48.29 62.754 48.35 62.574 48.35 62.514 48.41 62.454 48.53 62.454 56.81 62.514 56.93 62.574 56.99 62.754 56.99 63.054 57.05 63.294 56.99 63.474 56.99 63.594 56.93 63.594 48.41 63.474 48.35 63.294 48.35" clip-rule="evenodd" transform="translate(0,160)"/><polyline id="polyline282" fill-rule="evenodd" points="67.374 48.29 67.074 48.35 66.894 48.35 66.774 48.41 66.654 48.53 63.594 52.37 63.594 52.49 66.774 56.81 66.894 56.93 67.134 56.99 67.194 56.99 67.494 57.05 67.554 57.05 67.794 56.99 67.974 56.99 68.094 56.87 68.094 56.69 64.854 52.37 67.734 48.95 67.854 48.71 67.914 48.53 67.914 48.47 67.794 48.35 67.614 48.35" clip-rule="evenodd" transform="translate(0,160)"/><polyline id="polyline284" fill-rule="evenodd" points="70.314 55.49 70.254 55.49 70.014 55.55 69.774 55.67 69.654 55.91 69.654 56.63 69.774 56.87 70.014 56.99 70.074 57.05 70.434 57.05 70.674 56.99 70.914 56.87 71.034 56.63 71.034 55.91 70.914 55.67 70.674 55.55 70.614 55.55" clip-rule="evenodd" transform="translate(0,160)"/><polyline id="polyline286" fill-rule="evenodd" points="70.314 50.87 70.254 50.87 70.014 50.93 69.774 51.05 69.654 51.29 69.654 52.01 69.774 52.25 70.014 52.37 70.074 52.37 70.314 52.43 70.434 52.43 70.674 52.37 70.914 52.25 71.034 52.01 71.034 51.29 70.914 51.05 70.674 50.93 70.614 50.87" clip-rule="evenodd" transform="translate(0,160)"/><line id="line288" x1="131.514" x2="113.214" y1="225.09" y2="206.79" fill="none" stroke="#000" stroke-linecap="round" stroke-linejoin="round" stroke-miterlimit="10" stroke-width=".24"/><line id="line290" x1="144.654" x2="113.394" y1="225.09" y2="193.83" fill="none" stroke="#000" stroke-linecap="round" stroke-linejoin="round" stroke-miterlimit="10" stroke-width=".24"/><line id="line292" x1="157.794" x2="119.334" y1="225.09" y2="186.63" fill="none" stroke="#000" stroke-linecap="round" stroke-linejoin="round" stroke-miterlimit="10" stroke-width=".24"/><line id="line294" x1="170.874" x2="131.754" y1="225.09" y2="185.97" fill="none" stroke="#000" stroke-linecap="round" stroke-linejoin="round" stroke-miterlimit="10" stroke-width=".24"/><line id="line296" x1="184.014" x2="144.894" y1="225.09" y2="185.97" fill="none" stroke="#000" stroke-linecap="round" stroke-linejoin="round" stroke-miterlimit="10" stroke-width=".24"/><line id="line298" x1="197.154" x2="158.034" y1="225.09" y2="185.97" fill="none" stroke="#000" stroke-linecap="round" stroke-linejoin="round" stroke-miterlimit="10" stroke-width=".24"/><line id="line300" x1="205.914" x2="171.114" y1="220.77" y2="185.97" fill="none" stroke="#000" stroke-linecap="round" stroke-linejoin="round" stroke-miterlimit="10" stroke-width=".24"/><line id="line302" x1="207.474" x2="184.254" y1="209.19" y2="185.97" fill="none" stroke="#000" stroke-linecap="round" stroke-linejoin="round" stroke-miterlimit="10" stroke-width=".24"/><line id="line304" x1="207.474" x2="197.394" y1="196.05" y2="185.97" fill="none" stroke="#000" stroke-linecap="round" stroke-linejoin="round" stroke-miterlimit="10" stroke-width=".24"/><line id="line306" x1="124.614" x2="121.494" y1="224.73" y2="221.61" fill="none" stroke="#000" stroke-linecap="round" stroke-linejoin="round" stroke-miterlimit="10" stroke-width=".24"/><line id="line308" x1="120.174" x2="116.994" y1="220.29" y2="217.11" fill="none" stroke="#000" stroke-linecap="round" stroke-linejoin="round" stroke-miterlimit="10" stroke-width=".24"/><line id="line310" x1="115.674" x2="113.214" y1="215.85" y2="213.33" fill="none" stroke="#000" stroke-linecap="round" stroke-linejoin="round" stroke-miterlimit="10" stroke-width=".24"/><line id="line312" x1="138.114" x2="136.974" y1="225.09" y2="223.95" fill="none" stroke="#000" stroke-linecap="round" stroke-linejoin="round" stroke-miterlimit="10" stroke-width=".24"/><line id="line314" x1="135.654" x2="132.474" y1="222.63" y2="219.51" fill="none" stroke="#000" stroke-linecap="round" stroke-linejoin="round" stroke-miterlimit="10" stroke-width=".24"/><line id="line316" x1="131.154" x2="128.034" y1="218.19" y2="215.01" fill="none" stroke="#000" stroke-linecap="round" stroke-linejoin="round" stroke-miterlimit="10" stroke-width=".24"/><line id="line318" x1="126.714" x2="123.594" y1="213.75" y2="210.57" fill="none" stroke="#000" stroke-linecap="round" stroke-linejoin="round" stroke-miterlimit="10" stroke-width=".24"/><line id="line320" x1="122.274" x2="119.094" y1="209.25" y2="206.13" fill="none" stroke="#000" stroke-linecap="round" stroke-linejoin="round" stroke-miterlimit="10" stroke-width=".24"/><line id="line322" x1="117.774" x2="114.654" y1="204.81" y2="201.63" fill="none" stroke="#000" stroke-linecap="round" stroke-linejoin="round" stroke-miterlimit="10" stroke-width=".24"/><line id="line324" x1="113.334" x2="113.214" y1="200.37" y2="200.25" fill="none" stroke="#000" stroke-linecap="round" stroke-linejoin="round" stroke-miterlimit="10" stroke-width=".24"/><line id="line326" x1="151.134" x2="147.954" y1="225.03" y2="221.85" fill="none" stroke="#000" stroke-linecap="round" stroke-linejoin="round" stroke-miterlimit="10" stroke-width=".24"/><line id="line328" x1="146.634" x2="143.514" y1="220.53" y2="217.41" fill="none" stroke="#000" stroke-linecap="round" stroke-linejoin="round" stroke-miterlimit="10" stroke-width=".24"/><line id="line330" x1="142.194" x2="139.074" y1="216.09" y2="212.97" fill="none" stroke="#000" stroke-linecap="round" stroke-linejoin="round" stroke-miterlimit="10" stroke-width=".24"/><line id="line332" x1="137.754" x2="134.574" y1="211.65" y2="208.47" fill="none" stroke="#000" stroke-linecap="round" stroke-linejoin="round" stroke-miterlimit="10" stroke-width=".24"/><line id="line334" x1="133.254" x2="130.134" y1="207.15" y2="204.03" fill="none" stroke="#000" stroke-linecap="round" stroke-linejoin="round" stroke-miterlimit="10" stroke-width=".24"/><line id="line336" x1="128.814" x2="125.634" y1="202.71" y2="199.53" fill="none" stroke="#000" stroke-linecap="round" stroke-linejoin="round" stroke-miterlimit="10" stroke-width=".24"/><line id="line338" x1="124.374" x2="121.194" y1="198.27" y2="195.09" fill="none" stroke="#000" stroke-linecap="round" stroke-linejoin="round" stroke-miterlimit="10" stroke-width=".24"/><line id="line340" x1="119.874" x2="116.754" y1="193.77" y2="190.65" fill="none" stroke="#000" stroke-linecap="round" stroke-linejoin="round" stroke-miterlimit="10" stroke-width=".24"/><line id="line342" x1="164.334" x2="163.434" y1="225.09" y2="224.25" fill="none" stroke="#000" stroke-linecap="round" stroke-linejoin="round" stroke-miterlimit="10" stroke-width=".24"/><line id="line344" x1="162.114" x2="158.994" y1="222.93" y2="219.75" fill="none" stroke="#000" stroke-linecap="round" stroke-linejoin="round" stroke-miterlimit="10" stroke-width=".24"/><line id="line346" x1="157.674" x2="154.554" y1="218.43" y2="215.31" fill="none" stroke="#000" stroke-linecap="round" stroke-linejoin="round" stroke-miterlimit="10" stroke-width=".24"/><line id="line348" x1="153.234" x2="150.054" y1="213.99" y2="210.87" fill="none" stroke="#000" stroke-linecap="round" stroke-linejoin="round" stroke-miterlimit="10" stroke-width=".24"/><line id="line350" x1="148.734" x2="145.614" y1="209.55" y2="206.37" fill="none" stroke="#000" stroke-linecap="round" stroke-linejoin="round" stroke-miterlimit="10" stroke-width=".24"/><line id="line352" x1="144.294" x2="141.174" y1="205.05" y2="201.93" fill="none" stroke="#000" stroke-linecap="round" stroke-linejoin="round" stroke-miterlimit="10" stroke-width=".24"/><line id="line354" x1="139.854" x2="136.674" y1="200.61" y2="197.43" fill="none" stroke="#000" stroke-linecap="round" stroke-linejoin="round" stroke-miterlimit="10" stroke-width=".24"/><line id="line356" x1="135.354" x2="132.234" y1="196.17" y2="192.99" fill="none" stroke="#000" stroke-linecap="round" stroke-linejoin="round" stroke-miterlimit="10" stroke-width=".24"/><line id="line358" x1="130.914" x2="127.734" y1="191.67" y2="188.55" fill="none" stroke="#000" stroke-linecap="round" stroke-linejoin="round" stroke-miterlimit="10" stroke-width=".24"/><line id="line360" x1="126.474" x2="125.214" y1="187.23" y2="185.97" fill="none" stroke="#000" stroke-linecap="round" stroke-linejoin="round" stroke-miterlimit="10" stroke-width=".24"/><line id="line362" x1="177.474" x2="174.474" y1="225.09" y2="222.15" fill="none" stroke="#000" stroke-linecap="round" stroke-linejoin="round" stroke-miterlimit="10" stroke-width=".24"/><line id="line364" x1="173.154" x2="170.034" y1="220.83" y2="217.65" fill="none" stroke="#000" stroke-linecap="round" stroke-linejoin="round" stroke-miterlimit="10" stroke-width=".24"/><line id="line366" x1="168.714" x2="165.534" y1="216.33" y2="213.21" fill="none" stroke="#000" stroke-linecap="round" stroke-linejoin="round" stroke-miterlimit="10" stroke-width=".24"/><line id="line368" x1="164.214" x2="161.094" y1="211.89" y2="208.77" fill="none" stroke="#000" stroke-linecap="round" stroke-linejoin="round" stroke-miterlimit="10" stroke-width=".24"/><line id="line370" x1="159.774" x2="156.654" y1="207.45" y2="204.27" fill="none" stroke="#000" stroke-linecap="round" stroke-linejoin="round" stroke-miterlimit="10" stroke-width=".24"/><line id="line372" x1="155.334" x2="152.154" y1="202.95" y2="199.83" fill="none" stroke="#000" stroke-linecap="round" stroke-linejoin="round" stroke-miterlimit="10" stroke-width=".24"/><line id="line374" x1="150.834" x2="147.714" y1="198.51" y2="195.39" fill="none" stroke="#000" stroke-linecap="round" stroke-linejoin="round" stroke-miterlimit="10" stroke-width=".24"/><line id="line376" x1="146.394" x2="143.214" y1="194.07" y2="190.89" fill="none" stroke="#000" stroke-linecap="round" stroke-linejoin="round" stroke-miterlimit="10" stroke-width=".24"/><line id="line378" x1="141.954" x2="138.774" y1="189.57" y2="186.45" fill="none" stroke="#000" stroke-linecap="round" stroke-linejoin="round" stroke-miterlimit="10" stroke-width=".24"/><line id="line380" x1="190.554" x2="189.954" y1="225.09" y2="224.49" fill="none" stroke="#000" stroke-linecap="round" stroke-linejoin="round" stroke-miterlimit="10" stroke-width=".24"/><line id="line382" x1="188.634" x2="185.514" y1="223.17" y2="220.05" fill="none" stroke="#000" stroke-linecap="round" stroke-linejoin="round" stroke-miterlimit="10" stroke-width=".24"/><line id="line384" x1="184.194" x2="181.014" y1="218.73" y2="215.55" fill="none" stroke="#000" stroke-linecap="round" stroke-linejoin="round" stroke-miterlimit="10" stroke-width=".24"/><line id="line386" x1="179.694" x2="176.574" y1="214.23" y2="211.11" fill="none" stroke="#000" stroke-linecap="round" stroke-linejoin="round" stroke-miterlimit="10" stroke-width=".24"/><line id="line388" x1="175.254" x2="172.134" y1="209.79" y2="206.67" fill="none" stroke="#000" stroke-linecap="round" stroke-linejoin="round" stroke-miterlimit="10" stroke-width=".24"/><line id="line390" x1="170.814" x2="167.634" y1="205.35" y2="202.17" fill="none" stroke="#000" stroke-linecap="round" stroke-linejoin="round" stroke-miterlimit="10" stroke-width=".24"/><line id="line392" x1="166.314" x2="163.194" y1="200.85" y2="197.73" fill="none" stroke="#000" stroke-linecap="round" stroke-linejoin="round" stroke-miterlimit="10" stroke-width=".24"/><line id="line394" x1="161.874" x2="158.754" y1="196.41" y2="193.29" fill="none" stroke="#000" stroke-linecap="round" stroke-linejoin="round" stroke-miterlimit="10" stroke-width=".24"/><line id="line396" x1="157.434" x2="154.254" y1="191.97" y2="188.79" fill="none" stroke="#000" stroke-linecap="round" stroke-linejoin="round" stroke-miterlimit="10" stroke-width=".24"/><line id="line398" x1="152.934" x2="151.434" y1="187.47" y2="185.97" fill="none" stroke="#000" stroke-linecap="round" stroke-linejoin="round" stroke-miterlimit="10" stroke-width=".24"/><line id="line400" x1="202.494" x2="200.994" y1="223.89" y2="222.39" fill="none" stroke="#000" stroke-linecap="round" stroke-linejoin="round" stroke-miterlimit="10" stroke-width=".24"/><line id="line402" x1="199.674" x2="196.494" y1="221.07" y2="217.95" fill="none" stroke="#000" stroke-linecap="round" stroke-linejoin="round" stroke-miterlimit="10" stroke-width=".24"/><line id="line404" x1="195.174" x2="192.054" y1="216.63" y2="213.45" fill="none" stroke="#000" stroke-linecap="round" stroke-linejoin="round" stroke-miterlimit="10" stroke-width=".24"/><line id="line406" x1="190.734" x2="187.614" y1="212.13" y2="209.01" fill="none" stroke="#000" stroke-linecap="round" stroke-linejoin="round" stroke-miterlimit="10" stroke-width=".24"/><line id="line408" x1="186.294" x2="183.114" y1="207.69" y2="204.57" fill="none" stroke="#000" stroke-linecap="round" stroke-linejoin="round" stroke-miterlimit="10" stroke-width=".24"/><line id="line410" x1="181.794" x2="178.674" y1="203.25" y2="200.07" fill="none" stroke="#000" stroke-linecap="round" stroke-linejoin="round" stroke-miterlimit="10" stroke-width=".24"/><line id="line412" x1="177.354" x2="174.234" y1="198.75" y2="195.63" fill="none" stroke="#000" stroke-linecap="round" stroke-linejoin="round" stroke-miterlimit="10" stroke-width=".24"/><line id="line414" x1="172.914" x2="169.734" y1="194.31" y2="191.19" fill="none" stroke="#000" stroke-linecap="round" stroke-linejoin="round" stroke-miterlimit="10" stroke-width=".24"/><line id="line416" x1="168.414" x2="165.294" y1="189.87" y2="186.69" fill="none" stroke="#000" stroke-linecap="round" stroke-linejoin="round" stroke-miterlimit="10" stroke-width=".24"/><line id="line418" x1="206.214" x2="203.094" y1="214.53" y2="211.35" fill="none" stroke="#000" stroke-linecap="round" stroke-linejoin="round" stroke-miterlimit="10" stroke-width=".24"/><line id="line420" x1="201.774" x2="198.594" y1="210.03" y2="206.91" fill="none" stroke="#000" stroke-linecap="round" stroke-linejoin="round" stroke-miterlimit="10" stroke-width=".24"/><line id="line422" x1="197.274" x2="194.154" y1="205.59" y2="202.47" fill="none" stroke="#000" stroke-linecap="round" stroke-linejoin="round" stroke-miterlimit="10" stroke-width=".24"/><line id="line424" x1="192.834" x2="189.714" y1="201.15" y2="197.97" fill="none" stroke="#000" stroke-linecap="round" stroke-linejoin="round" stroke-miterlimit="10" stroke-width=".24"/><line id="line426" x1="188.394" x2="185.214" y1="196.65" y2="193.53" fill="none" stroke="#000" stroke-linecap="round" stroke-linejoin="round" stroke-miterlimit="10" stroke-width=".24"/><line id="line428" x1="183.894" x2="180.774" y1="192.21" y2="189.09" fill="none" stroke="#000" stroke-linecap="round" stroke-linejoin="round" stroke-miterlimit="10" stroke-width=".24"/><line id="line430" x1="179.454" x2="177.654" y1="187.77" y2="185.97" fill="none" stroke="#000" stroke-linecap="round" stroke-linejoin="round" stroke-miterlimit="10" stroke-width=".24"/><line id="line432" x1="207.474" x2="205.194" y1="202.65" y2="200.37" fill="none" stroke="#000" stroke-linecap="round" stroke-linejoin="round" stroke-miterlimit="10" stroke-width=".24"/><line id="line434" x1="203.874" x2="200.694" y1="199.05" y2="195.87" fill="none" stroke="#000" stroke-linecap="round" stroke-linejoin="round" stroke-miterlimit="10" stroke-width=".24"/><line id="line436" x1="199.374" x2="196.254" y1="194.55" y2="191.43" fill="none" stroke="#000" stroke-linecap="round" stroke-linejoin="round" stroke-miterlimit="10" stroke-width=".24"/><line id="line438" x1="194.934" x2="191.814" y1="190.11" y2="186.99" fill="none" stroke="#000" stroke-linecap="round" stroke-linejoin="round" stroke-miterlimit="10" stroke-width=".24"/><line id="line440" x1="197.814" x2="122.874" y1="185.97" y2="185.97" fill="none" stroke="#000" stroke-linecap="round" stroke-linejoin="round" stroke-miterlimit="10" stroke-width=".24"/><path id="path442" fill="none" stroke="#000" stroke-linecap="round" stroke-linejoin="bevel" stroke-miterlimit="10" stroke-width=".24" d="m 122.874,186.03 -1.08,0.06 c -4.432,0.515 -7.945,4.028 -8.46,8.46 l -0.06,1.08"/><line id="line444" x1="113.214" x2="113.214" y1="195.63" y2="215.49" fill="none" stroke="#000" stroke-linecap="round" stroke-linejoin="round" stroke-miterlimit="10" stroke-width=".24"/><path id="path446" fill="none" stroke="#000" stroke-linecap="round" stroke-linejoin="bevel" stroke-miterlimit="10" stroke-width=".24" d="m 113.274,215.49 0.06,1.08 c 0.516,4.432 4.028,7.945 8.46,8.46 l 1.08,0.06"/><line id="line448" x1="122.874" x2="197.814" y1="225.09" y2="225.09" fill="none" stroke="#000" stroke-linecap="round" stroke-linejoin="round" stroke-miterlimit="10" stroke-width=".24"/><path id="path450" fill="none" stroke="#000" stroke-linecap="round" stroke-linejoin="bevel" stroke-miterlimit="10" stroke-width=".24" d="m 197.814,225.09 1.08,-0.06 c 4.432,-0.515 7.945,-4.028 8.46,-8.46 l 0.06,-1.08"/><line id="line452" x1="207.474" x2="207.474" y1="215.49" y2="195.63" fill="none" stroke="#000" stroke-linecap="round" stroke-linejoin="round" stroke-miterlimit="10" stroke-width=".24"/><path id="path454" fill="none" stroke="#000" stroke-linecap="round" stroke-linejoin="bevel" stroke-miterlimit="10" stroke-width=".24" d="m 207.414,195.63 -0.06,-1.08 c -0.515,-4.432 -4.028,-7.945 -8.46,-8.46 l -1.08,-0.06"/><line id="line494" x1="209.874" x2="282.234" y1="212.19" y2="212.19" fill="none" stroke="#000" stroke-linecap="round" stroke-linejoin="round" stroke-miterlimit="10" stroke-width=".72"/><path id="path496" fill-rule="evenodd" d="m 290.514,207.99 h -3.18 0.12 l 0.3,0.06 c 0.941,-0.049 1.817,0.646 1.86,1.62 l 0.06,0.42 v 0.18 c -0.217,1.245 -0.734,1.805 -1.98,1.98 h -1.62 l 4.08,0.18 c 1.048,-0.86 1.184,-2.693 0.72,-3.9 l -0.18,-0.3" clip-rule="evenodd"/><path id="path498" fill-rule="evenodd" d="m 287.454,206.85 h -2.34 l -0.3,0.12 -0.06,0.18 -0.12,0.3 v 9.72 l 0.06,0.12 0.12,0.12 h 0.24 l 0.3,0.06 0.36,-0.06 h 0.18 l 0.12,-0.12 0.06,-0.12 v -3.78 h 1.62 l 0.36,-0.06 h 0.3 l 0.3,-0.12 0.3,-0.06 h 0.06 l 0.3,-0.18 0.3,-0.12 0.3,-0.18 0.24,-0.24 -4.08,-0.18 v -4.26 h 4.44 l -0.24,-0.24 c -0.581,-0.551 -1.369,-0.841 -2.16,-0.84 l -0.3,-0.06" clip-rule="evenodd"/><path id="path500" fill-rule="evenodd" d="m 293.994,206.79 -0.36,0.06 h -0.18 l -0.12,0.12 -0.06,0.12 v 6.96 l 0.06,0.36 0.12,0.6 c 0.265,0.668 0.319,1.032 0.9,1.56 l 0.06,0.06 0.3,0.24 0.24,0.18 c 1.415,0.717 3.322,0.72 4.68,-0.12 l 0.3,-0.18 0.24,-0.24 -2.94,-0.12 c -0.541,-0.023 -1.536,-0.321 -1.86,-0.78 h -0.06 l -0.18,-0.3 -0.18,-0.24 -0.12,-0.36 -0.06,-0.24 -0.06,-0.3 v -0.36 l -0.06,-0.36 v -6.48 l -0.12,-0.12 h -0.24" clip-rule="evenodd"/><path id="path502" fill-rule="evenodd" d="m 300.534,206.79 -0.3,0.06 h -0.24 l -0.12,0.12 -0.06,0.12 v 7.08 l -0.12,0.6 h -0.06 l -0.12,0.36 c -0.343,0.699 -1.136,1.246 -1.92,1.2 l -0.36,0.06 2.94,0.12 0.12,-0.12 c 0.15,-0.341 0.703,-0.863 0.66,-1.26 l 0.12,-0.3 0.12,-0.6 v -0.36 l 0.06,-0.36 v -6.42 l -0.06,-0.12 -0.12,-0.12 h -0.18" clip-rule="evenodd"/><polyline id="polyline504" fill-rule="evenodd" points="304.734 46.79 304.374 46.85 304.194 46.85 304.074 46.97 304.014 47.09 304.014 57.17 304.074 57.29 304.194 57.41 304.434 57.41 304.734 57.47 305.094 57.41 305.274 57.41 305.394 57.29 305.454 57.17 305.454 47.09 305.394 46.97 305.274 46.85 305.094 46.85" clip-rule="evenodd" transform="translate(0,160)"/><polyline id="polyline506" fill-rule="evenodd" points="310.014 46.79 309.654 46.85 309.474 46.85 309.294 46.97 309.174 47.09 305.454 51.77 305.454 51.95 309.294 57.17 309.474 57.35 309.714 57.41 309.834 57.47 310.254 57.47 310.554 57.41 310.794 57.41 310.914 57.29 310.914 57.05 310.734 56.75 306.954 51.77 310.434 47.57 310.494 47.57 310.674 47.27 310.734 47.09 310.674 46.97 310.554 46.91 310.374 46.85" clip-rule="evenodd" transform="translate(0,160)"/><text style="font-style:normal;font-weight:400;font-size:13.3333px;line-height:1.25;font-family:sans-serif;fill:#000;fill-opacity:1;stroke:none" id="text42456" x="12.804" y="14.212" xml:space="preserve"><tspan id="tspan42454" x="12.804" y="14.212" style="font-style:normal;font-variant:normal;font-weight:400;font-stretch:normal;font-size:13.3333px;font-family:Arial;-inkscape-font-specification:Arial">EID</tspan></text><text style="font-style:normal;font-variant:normal;font-weight:400;font-stretch:normal;font-size:10.6667px;line-height:1.25;font-family:Arial;-inkscape-font-specification:Arial;fill:#000;fill-opacity:1;stroke:none" id="text42472" x="11.436" y="48.675" xml:space="preserve"><tspan id="tspan42470" x="11.436" y="48.675">1234561234561234561</tspan></text><path style="fill:#000;fill-opacity:1;fill-rule:evenodd;stroke:none" id="path42869" d="m 13.71634,15.833279 v 23.722832 h 5.93071 V 15.833279 Z"/><path style="fill:#000;fill-opacity:1;fill-rule:evenodd;stroke:none" id="path42871" d="M 34.43146,15.833279 V 39.556111 H 40.3198 V 15.833279 Z"/><path style="fill:#000;fill-opacity:1;fill-rule:evenodd;stroke:none" id="path42873" d="m 22.6124,15.833279 v 23.722832 h 2.92299 V 15.833279 Z"/><path style="fill:#000;fill-opacity:1;fill-rule:evenodd;stroke:none" id="path42875" d="M 28.50075,15.833279 V 39.556111 H 31.4661 V 15.833279 Z"/><path style="fill:#000;fill-opacity:1;fill-rule:evenodd;stroke:none" id="path42877" d="M 43.28516,15.833279 V 39.556111 H 49.1735 V 15.833279 Z"/><path style="fill:#000;fill-opacity:1;fill-rule:evenodd;stroke:none" id="path42879" d="m 63.95791,15.833279 v 23.722832 h 5.88835 V 15.833279 Z"/><path style="fill:#000;fill-opacity:1;fill-rule:evenodd;stroke:none" id="path42881" d="m 52.13886,15.833279 v 23.722832 h 2.96535 V 15.833279 Z"/><path style="fill:#000;fill-opacity:1;fill-rule:evenodd;stroke:none" id="path42883" d="m 58.0272,15.833279 v 23.722832 h 2.96536 V 15.833279 Z"/><path style="fill:#000;fill-opacity:1;fill-rule:evenodd;stroke:none" id="path42885" d="m 72.81161,15.833279 v 23.722832 h 2.96536 V 15.833279 Z"/><path style="fill:#000;fill-opacity:1;fill-rule:evenodd;stroke:none" id="path42887" d="m 81.66531,15.833279 v 23.722832 h 5.93071 V 15.833279 Z"/><path style="fill:#000;fill-opacity:1;fill-rule:evenodd;stroke:none" id="path42889" d="m 102.33807,15.833279 v 23.722832 h 5.93071 V 15.833279 Z"/><path style="fill:#000;fill-opacity:1;fill-rule:evenodd;stroke:none" id="path42891" d="m 90.51901,15.833279 v 23.722832 h 2.96536 V 15.833279 Z"/><path style="fill:#000;fill-opacity:1;fill-rule:evenodd;stroke:none" id="path42893" d="m 96.44972,15.833279 v 23.722832 h 2.96536 V 15.833279 Z"/><path style="fill:#000;fill-opacity:1;fill-rule:evenodd;stroke:none" id="path42895" d="m 111.23413,15.833279 v 23.722832 h 5.88835 V 15.833279 Z"/><path style="fill:#000;fill-opacity:1;fill-rule:evenodd;stroke:none" id="path42897" d="m 131.90689,15.833279 v 23.722832 h 5.88835 V 15.833279 Z"/><path style="fill:#000;fill-opacity:1;fill-rule:evenodd;stroke:none" id="path42899" d="m 120.08784,15.833279 v 23.722832 h 2.96535 V 15.833279 Z"/><path style="fill:#000;fill-opacity:1;fill-rule:evenodd;stroke:none" id="path42901" d="m 125.97619,15.833279 v 23.722832 h 2.96535 V 15.833279 Z"/><path style="fill:#000;fill-opacity:1;fill-rule:evenodd;stroke:none" id="path42903" d="m 140.7606,15.833279 v 23.722832 h 2.96535 V 15.833279 Z"/><path style="fill:#000;fill-opacity:1;fill-rule:evenodd;stroke:none" id="path42905" d="m 149.6143,15.833279 v 23.722832 h 5.9307 V 15.833279 Z"/><path style="fill:#000;fill-opacity:1;fill-rule:evenodd;stroke:none" id="path42907" d="m 170.28705,15.833279 v 23.722832 h 5.93071 V 15.833279 Z"/><path style="fill:#000;fill-opacity:1;fill-rule:evenodd;stroke:none" id="path42909" d="m 158.468,15.833279 v 23.722832 h 2.96535 V 15.833279 Z"/><path style="fill:#000;fill-opacity:1;fill-rule:evenodd;stroke:none" id="path42911" d="m 164.39871,15.833279 v 23.722832 h 2.92299 V 15.833279 Z"/><path style="fill:#000;fill-opacity:1;fill-rule:evenodd;stroke:none" id="path42913" d="m 179.14075,15.833279 v 23.722832 h 5.93071 V 15.833279 Z"/><path style="fill:#000;fill-opacity:1;fill-rule:evenodd;stroke:none" id="path42915" d="m 199.85587,15.833279 v 23.722832 h 5.88835 V 15.833279 Z"/><path style="fill:#000;fill-opacity:1;fill-rule:evenodd;stroke:none" id="path42917" d="m 188.03682,15.833279 v 23.722832 h 2.92299 V 15.833279 Z"/><path style="fill:#000;fill-opacity:1;fill-rule:evenodd;stroke:none" id="path42919" d="m 193.92516,15.833279 v 23.722832 h 2.96536 V 15.833279 Z"/><path style="fill:#000;fill-opacity:1;fill-rule:evenodd;stroke:none" id="path42921" d="m 208.70957,15.833279 v 23.722832 h 2.92299 V 15.833279 Z"/></g></svg>