<svg xmlns="http://www.w3.org/2000/svg" xmlns:ev="http://www.w3.org/2001/xml-events" xmlns:xlink="http://www.w3.org/1999/xlink" width="611.111" height="370.043" class="st8" color-interpolation-filters="sRGB" viewBox="0 0 458.333 277.532" xml:space="preserve"><style type="text/css">.st1{fill:#00a9ce;stroke:none;stroke-width:1}.st2{fill:#fff;font-family:Arial;font-size:.916672em}.st3{font-size:1em}.st4,.st5{stroke-width:1}.st4{stroke:#00a9ce;stroke-linecap:butt}.st5{fill:none;stroke:none}.st6{fill:#00a9ce;font-family:Arial;font-size:.916672em}.st7{stroke:#00a9ce;stroke-linecap:butt;stroke-width:1.47402}.st8{fill:none;fill-rule:evenodd;font-size:12px;overflow:visible;stroke-linecap:square;stroke-miterlimit:3}</style><g><title>Page-1</title><g id="group21-1" transform="translate(1,-1)"><title>Sheet.21</title><g id="shape6-2" transform="translate(0,-146.943)"><title>Nordic Blue</title><desc>peer nRF7002 DK (Thread-only throughput)</desc><rect width="113.386" height="91.937" x="0" y="185.595" class="st1"/><text x="45.68" y="208.46" class="st2">peer <tspan x="24.9" class="st3" dy="1.2em">nRF7002 DK </tspan><tspan x="25.51" class="st3" dy="2.4em">(Thread</tspan>-only <tspan x="28.56" class="st3" dy="1.2em">throughput)</tspan></text></g><g id="shape7-8"><title>Nordic Blue.6</title><desc>Wi-Fi access point</desc><rect width="113.386" height="91.937" x="0" y="185.595" class="st1"/><text x="11.77" y="234.86" class="st2">Wi-Fi access point</text></g><g id="shape8-11" transform="translate(166.912,-0.337458)"><title>Nordic Blue.7</title><desc>Test PC Wi-Fi iperf</desc><rect width="113.386" height="91.937" x="0" y="185.595" class="st1"/><text x="36.83" y="221.66" class="st2">Test PC <tspan x="31.64" class="st3" dy="2.4em">Wi</tspan>-Fi iperf</text></g><g id="shape9-15" transform="translate(336.523,-0.674916)"><title>Nordic Blue.8</title><desc>DUT nRF7002 DK (Coexistence sample)</desc><rect width="113.386" height="91.937" x="0" y="185.595" class="st1"/><text x="45.39" y="208.46" class="st2">DUT <tspan x="24.9" class="st3" dy="1.2em">nRF7002 DK </tspan><tspan x="24.6" class="st3" dy="2.4em">(Coexistence </tspan><tspan x="37.13" class="st3" dy="1.2em">sample)</tspan></text></g><g id="shape10-21" transform="translate(113.386,-165.79)"><title>Dynamic connector</title><path d="M0 277.53 L114.49 277.53 L114.49 351.05" class="st4"/></g><g id="shape11-24" transform="translate(144.567,-170.187)"><title>Sheet.11</title><desc>USB</desc><rect width="49.89" height="19" x="0" y="258.532" class="st5"/><text x="13.64" y="271.33" class="st6">USB</text></g><g id="shape12-27" transform="translate(113.386,-35.603)"><title>Dynamic connector.27</title><path d="M0 270.61 L53.53 270.28" class="st4"/></g><g id="shape13-30" transform="translate(280.298,-34.3315)"><title>Dynamic connector.28</title><path d="M0 270.61 L56.23 270.28" class="st4"/></g><g id="shape14-33" transform="translate(285.881,-41.2494)"><title>Sheet.14</title><desc>USB</desc><rect width="49.89" height="19" x="0" y="258.532" class="st5"/><text x="13.64" y="271.33" class="st6">USB</text></g><g id="shape15-36" transform="translate(118.863,-42.5209)"><title>Sheet.15</title><desc>RJ45</desc><rect width="49.89" height="19" x="0" y="258.532" class="st5"/><text x="12.11" y="271.33" class="st6">RJ45</text></g><g id="shape16-39" transform="translate(0,-238.88)"><title>Antenna</title><path d="M18.4 241.35 L18.4 256.51 L18.4 277.53" class="st7"/><path d="M27.17 241.35 L9.62 241.35 L18.4 256.51 L27.17 241.35" class="st7"/></g><g id="shape17-43" transform="translate(0,-91.937)"><title>Antenna.32</title><path d="M18.4 241.35 L18.4 256.51 L18.4 277.53" class="st7"/><path d="M27.17 241.35 L9.62 241.35 L18.4 256.51 L27.17 241.35" class="st7"/></g><g id="shape18-47" transform="translate(395.771,-92.6119)"><title>Antenna.33</title><path d="M18.4 241.35 L18.4 256.51 L18.4 277.53" class="st7"/><path d="M27.17 241.35 L9.62 241.35 L18.4 256.51 L27.17 241.35" class="st7"/></g><g id="shape19-51" transform="translate(420.483,-92.6119)"><title>Antenna.34</title><path d="M18.4 241.35 L18.4 256.51 L18.4 277.53" class="st7"/><path d="M27.17 241.35 L9.62 241.35 L18.4 256.51 L27.17 241.35" class="st7"/></g><g id="shape20-55" transform="translate(26.5956,-238.88)"><title>Antenna.20</title><path d="M18.4 241.35 L18.4 256.51 L18.4 277.53" class="st7"/><path d="M27.17 241.35 L9.62 241.35 L18.4 256.51 L27.17 241.35" class="st7"/></g></g></g></svg>