<svg xmlns="http://www.w3.org/2000/svg" xmlns:ev="http://www.w3.org/2001/xml-events" xmlns:xlink="http://www.w3.org/1999/xlink" width="744.376" height="553.533" class="st12" color-interpolation-filters="sRGB" viewBox="0 0 558.282 415.15" xml:space="preserve"><style type="text/css">.st1,.st2{stroke:#333f48}.st1{marker-start:url(#mrkr4-6);stroke-linecap:butt;stroke-width:1}.st2{fill:#333f48;fill-opacity:1;stroke-opacity:1;stroke-width:.28409090909091}.st3{fill:none;stroke:none;stroke-width:1}.st4{fill:#333f48;font-family:Arial;font-size:.666664em}.st5{font-size:1em}.st6,.st7{stroke-width:1}.st6{marker-end:url(#mrkr4-28);stroke:#333f48;stroke-linecap:butt}.st7{fill:#00a9ce;stroke:none}.st8{fill:#fff;font-family:Arial;font-size:.833336em}.st9{fill:#feffff;font-size:1em}.st10{fill:#0077c8;stroke:none;stroke-width:1}.st11{fill:#fff;font-family:Arial;font-size:.916672em}.st12{fill:none;fill-rule:evenodd;font-size:12px;overflow:visible;stroke-linecap:square;stroke-miterlimit:3}</style><defs id="Markers"><g id="lend4"><path d="M 2 1 L 0 0 L 2 -1 L 2 1" style="stroke:none"/></g><marker id="mrkr4-6" class="st2" markerUnits="strokeWidth" orient="auto" overflow="visible" refX="6.68"><use transform="scale(3.52)" xlink:href="#lend4"/></marker><marker id="mrkr4-28" class="st2" markerUnits="strokeWidth" orient="auto" overflow="visible" refX="-7.04"><use transform="scale(-3.52,-3.52)" xlink:href="#lend4"/></marker></defs><g><title>Page-1</title><g id="shape1146-1" transform="translate(457.378,-249.031)"><title>Dynamic connector.1068</title><path d="M6.26 412.83 L6.6 412.7 C24.7 405.59 27.18 400.84 27.82 395.95 C28.52 390.62 27.02 385.13 24.83 380.49 C21.92 374.35 17.79 369.69 11.8 366.39 C4.51 362.37 -5.54 360.36 -18.83 362.14 C-30.78 363.73 -45.35 368.38 -45.84 389.29" class="st1"/></g><g id="shape1159-7" transform="translate(357.777,-331.668)"><title>Sheet.1159</title><desc>EVENT_SCAN_DONE/dhcp_server_start()</desc><rect width="159.162" height="30.032" x="0" y="385.118" class="st3"/><text x="38.02" y="397.73" class="st4">EVENT_SCAN_DONE/<tspan x="44.9" class="st5" dy="1.2em">dhcp_server_start()</tspan></text></g><g id="shape1161-11" transform="translate(199.425,-386.512)"><title>Dynamic connector.1161</title><path d="M-6.68 415.25 L-7.04 415.26 C-17.68 415.74 -29.68 418.29 -36.87 431.96 C-47.61 452.36 -47.61 497.53 -47.61 524.99" class="st1"/></g><g id="shape1162-16" transform="translate(1,-331.668)"><title>Sheet.1162</title><desc>EVENT_PROVISIONING_START/wifi_scan()</desc><rect width="141.732" height="30.032" x="0" y="385.118" class="st3"/><text x="9.52" y="397.73" class="st4">EVENT_PROVISIONING_START/<tspan x="51.75" class="st5" dy="1.2em">wifi_scan()</tspan></text></g><g id="shape1163-20" transform="translate(465.19,-276.393)"><title>Sheet.1163</title><desc>EVENT_AP_ENABLE</desc><rect width="92.092" height="55.276" x="0" y="359.874" class="st3"/><text x="7.14" y="389.91" class="st4">EVENT_AP_ENABLE</text></g><g id="shape1164-23" transform="translate(10.0836,-241.505)"><title>Dynamic connector</title><path d="M0 408.5 L63.83 407.71" class="st6"/></g><g id="shape1166-29" transform="translate(10.0836,-248.151)"><title>Sheet.1166</title><desc>EVENT_INIT</desc><rect width="70.866" height="15.935" x="0" y="399.215" class="st3"/><text x="12.32" y="409.58" class="st4">EVENT_INIT</text></g><g id="shape1169-32" transform="translate(389.135,-182.047)"><title>Sheet.1169</title><desc>EVENT_CREDENTIALS_RECIEVED/ap_disable()</desc><rect width="159.162" height="30.032" x="0" y="385.118" class="st3"/><text x="12.23" y="397.73" class="st4">EVENT_CREDENTIALS_RECIEVED/<tspan x="57.57" class="st5" dy="1.2em">ap_disable()</tspan></text></g><g id="shape1172-36" transform="translate(390.764,-78.0721)"><title>Sheet.1172</title><desc>EVENT_AP_DISABLE()</desc><rect width="99.213" height="15.935" x="0" y="399.215" class="st3"/><text x="6.93" y="409.58" class="st4">EVENT_AP_DISABLE()</text></g><g id="shape1173-39" transform="translate(80.9497,-111.015)"><title>Ellipse.1173</title><desc>STATE_RESET Reboot needed</desc><path d="M0 387.51 A70.8661 27.6378 0 1 1 141.73 387.51 A70.8661 27.6378 0 1 1 -0 387.51 Z" class="st7"/><text x="35.3" y="384.51" class="st8">STATE_RESET<tspan x="36.67" class="st9" dy="1.2em">Reboot needed</tspan></text></g><g id="shape1174-43" transform="translate(80.9497,-1)"><title>Ellipse.1174</title><desc>All states</desc><path d="M0 387.51 A70.8661 27.6378 0 1 1 141.73 387.51 A70.8661 27.6378 0 1 1 -0 387.51 Z" class="st10"/><text x="48.55" y="390.81" class="st11">All states</text></g><g id="shape1177-46" transform="translate(29.3465,-77.5354)"><title>Sheet.1177</title><desc>EVENT_RESET/wifi_credentials_delete_all()</desc><rect width="141.732" height="15.935" x="0" y="399.215" class="st3"/><text x="40.86" y="404.78" class="st4">EVENT_RESET/<tspan x="21.51" class="st5" dy="1.2em">wifi_credentials_delete_all()</tspan></text></g><g id="shape1179-50" transform="translate(199.425,-358.874)"><title>Sheet.1179</title><desc>STATE_UNPROVISIONED</desc><ellipse cx="70.866" cy="387.512" class="st7" rx="70.866" ry="27.638"/><text x="10.02" y="390.51" class="st8">STATE_UNPROVISIONED</text></g><g id="shape1182-53" transform="translate(315.646,-221.394)"><title>Sheet.1182</title><desc>STATE_PROVISIONING</desc><ellipse cx="70.866" cy="387.512" class="st7" rx="70.866" ry="27.638"/><text x="15.3" y="390.51" class="st8">STATE_PROVISIONING</text></g><g id="shape1183-56" transform="translate(80.9497,-221.394)"><title>Sheet.1183</title><desc>STATE_INIT</desc><ellipse cx="70.866" cy="387.512" class="st7" rx="70.866" ry="27.638"/><text x="42.53" y="390.51" class="st8">STATE_INIT</text></g><g id="shape1185-59" transform="translate(315.646,-1)"><title>Sheet.1185</title><desc>STATE_FINISHED</desc><ellipse cx="70.866" cy="387.512" class="st7" rx="70.866" ry="27.638"/><text x="28.64" y="390.51" class="st8">STATE_FINISHED</text></g><g id="shape1186-62" transform="translate(315.646,-111.015)"><title>Sheet.1186</title><desc>STATE_PROVISIONED</desc><ellipse cx="70.866" cy="387.512" class="st7" rx="70.866" ry="27.638"/><text x="17.24" y="390.51" class="st8">STATE_PROVISIONED</text></g><g id="shape1190-65" transform="translate(386.512,-276.669)"><title>Dynamic connector.1190</title><path d="M-0.13 408.47 L-0.14 408.11 C-0.59 380.06 0.61 379.14 -0.14 357.46 C-0.78 338.95 -2.83 305.31 -45.35 305.31" class="st1"/></g><g id="shape1191-70" transform="translate(144.729,-56.2756)"><title>Dynamic connector.1191</title><path d="M7.09 415.15 C7.09 403.53 7.09 382.05 7.09 367.45" class="st6"/></g><g id="shape1192-75" transform="translate(393.598,-166.29)"><title>Dynamic connector.1192</title><path d="M-7.09 408.47 L-7.09 408.11 C-7.09 393.41 -7.09 371.75 -7.09 360.05" class="st1"/></g><g id="shape1194-80" transform="translate(393.598,-55.911)"><title>Dynamic connector.1194</title><path d="M-7.09 408.47 L-7.09 408.11 C-7.09 393.41 -7.09 371.75 -7.09 360.05" class="st1"/></g></g></svg>