<svg xmlns="http://www.w3.org/2000/svg" xmlns:ev="http://www.w3.org/2001/xml-events" xmlns:xlink="http://www.w3.org/1999/xlink" width="611.111" height="370.043" class="st8" color-interpolation-filters="sRGB" viewBox="0 0 458.333 277.532" xml:space="preserve"><style type="text/css">.st1{fill:#00a9ce;stroke:none;stroke-width:1}.st2{fill:#fff;font-family:Arial;font-size:.916672em}.st3{font-size:1em}.st4,.st5{stroke-width:1}.st4{stroke:#00a9ce;stroke-linecap:butt}.st5{fill:none;stroke:none}.st6{fill:#00a9ce;font-family:Arial;font-size:.916672em}.st7{stroke:#00a9ce;stroke-linecap:butt;stroke-width:1.47402}.st8{fill:none;fill-rule:evenodd;font-size:12px;overflow:visible;stroke-linecap:square;stroke-miterlimit:3}</style><g><title>Page-1</title><g id="group35-1" transform="translate(1,-1)"><title>Sheet.35</title><g id="shape5-2" transform="translate(-3.19744E-14,-146.943)"><title>Nordic Blue</title><desc>Bluetooth LE peer nRF5340 DK (Bluetooth LE throughput sample)</desc><rect width="113.386" height="91.937" x="0" y="185.595" class="st1"/><text x="12.66" y="208.46" class="st2">Bluetooth LE peer <tspan x="24.9" class="st3" dy="1.2em">nRF5340 DK </tspan><tspan x="23.37" class="st3" dy="2.4em">(Bluetooth LE </tspan><tspan x="9.3" class="st3" dy="1.2em">throughput sample)</tspan></text></g><g id="shape6-8"><title>Nordic Blue.6</title><desc>Wi-Fi access point</desc><rect width="113.386" height="91.937" x="0" y="185.595" class="st1"/><text x="11.77" y="234.86" class="st2">Wi-Fi access point</text></g><g id="shape7-11" transform="translate(166.912,-0.337458)"><title>Nordic Blue.7</title><desc>Test PC (WLAN iperf server)</desc><rect width="113.386" height="91.937" x="0" y="185.595" class="st1"/><text x="36.83" y="221.66" class="st2">Test PC <tspan x="8.1" class="st3" dy="2.4em">(WLAN iperf server)</tspan></text></g><g id="shape8-15" transform="translate(336.523,-0.674916)"><title>Nordic Blue.8</title><desc>DUT nRF7002 DK (Coexistence sample)</desc><rect width="113.386" height="91.937" x="0" y="185.595" class="st1"/><text x="45.39" y="208.46" class="st2">DUT <tspan x="24.9" class="st3" dy="1.2em">nRF7002 DK </tspan><tspan x="24.6" class="st3" dy="2.4em">(Coexistence </tspan><tspan x="37.13" class="st3" dy="1.2em">sample)</tspan></text></g><g id="shape24-21" transform="translate(113.386,-165.79)"><title>Dynamic connector</title><path d="M0 277.53 L114.49 277.53 L114.49 351.05" class="st4"/></g><g id="shape25-24" transform="translate(144.567,-170.187)"><title>Sheet.25</title><desc>USB</desc><rect width="49.89" height="19" x="0" y="258.532" class="st5"/><text x="13.64" y="271.33" class="st6">USB</text></g><g id="shape27-27" transform="translate(113.386,-35.603)"><title>Dynamic connector.27</title><path d="M0 270.61 L53.53 270.28" class="st4"/></g><g id="shape28-30" transform="translate(280.298,-34.3315)"><title>Dynamic connector.28</title><path d="M0 270.61 L56.23 270.28" class="st4"/></g><g id="shape29-33" transform="translate(285.881,-41.2494)"><title>Sheet.29</title><desc>USB</desc><rect width="49.89" height="19" x="0" y="258.532" class="st5"/><text x="13.64" y="271.33" class="st6">USB</text></g><g id="shape30-36" transform="translate(118.863,-42.5209)"><title>Sheet.30</title><desc>RJ45</desc><rect width="49.89" height="19" x="0" y="258.532" class="st5"/><text x="12.11" y="271.33" class="st6">RJ45</text></g><g id="shape31-39" transform="translate(-2.79776E-14,-238.88)"><title>Antenna</title><path d="M18.4 241.35 L18.4 256.51 L18.4 277.53" class="st7"/><path d="M27.17 241.35 L9.62 241.35 L18.4 256.51 L27.17 241.35" class="st7"/></g><g id="shape32-43" transform="translate(-2.79776E-14,-91.937)"><title>Antenna.32</title><path d="M18.4 241.35 L18.4 256.51 L18.4 277.53" class="st7"/><path d="M27.17 241.35 L9.62 241.35 L18.4 256.51 L27.17 241.35" class="st7"/></g><g id="shape33-47" transform="translate(395.771,-92.6119)"><title>Antenna.33</title><path d="M18.4 241.35 L18.4 256.51 L18.4 277.53" class="st7"/><path d="M27.17 241.35 L9.62 241.35 L18.4 256.51 L27.17 241.35" class="st7"/></g><g id="shape34-51" transform="translate(420.483,-92.6119)"><title>Antenna.34</title><path d="M18.4 241.35 L18.4 256.51 L18.4 277.53" class="st7"/><path d="M27.17 241.35 L9.62 241.35 L18.4 256.51 L27.17 241.35" class="st7"/></g></g></g></svg>