<svg xmlns="http://www.w3.org/2000/svg" xmlns:ev="http://www.w3.org/2001/xml-events" xmlns:xlink="http://www.w3.org/1999/xlink" width="612.552" height="429.365" class="st20" color-interpolation-filters="sRGB" viewBox="0 0 459.414 322.024" xml:space="preserve"><style type="text/css">.st1{fill:#00a9ce;stroke:none;stroke-width:1}.st2{fill:#fff;font-family:Arial;font-size:1.16666em}.st3{fill:#0033a0;stroke:none;stroke-width:1}.st4{fill:#feffff;font-family:Arial;font-size:1.00001em}.st5{font-size:1em}.st6{fill:#fff;font-family:Arial;font-size:1.00001em}.st7,.st8{fill:#f58220;stroke:none;stroke-width:1}.st8{fill:#768692}.st10,.st9{stroke:#333f48}.st9{marker-end:url(#mrkr13-33);stroke-linecap:butt;stroke-width:1}.st10{fill:#333f48;fill-opacity:1;stroke-opacity:1;stroke-width:.28409090909091}.st11,.st12{stroke:#f58220}.st11{marker-end:url(#mrkr13-59);stroke-linecap:butt;stroke-width:1}.st12{fill:#f58220;fill-opacity:1;stroke-opacity:1;stroke-width:.28409090909091}.st13{stroke:#00a9ce;stroke-linecap:butt}.st13,.st14,.st15{stroke-width:1}.st14{marker-start:url(#mrkr13-92);stroke:#333f48;stroke-linecap:butt}.st15{fill:none;stroke:#f58220;stroke-dasharray:7,5}.st16{fill:#f58220;font-family:Calibri;font-size:1.00001em}.st17,.st18{fill:#fff;stroke:#000;stroke-width:1}.st18{fill:none;stroke:none}.st19{fill:#000;font-family:Arial;font-size:.666664em}.st20{fill:none;fill-rule:evenodd;font-size:12px;overflow:visible;stroke-linecap:square;stroke-miterlimit:3}</style><defs id="Markers"><g id="lend13"><path d="M 3 1 L 0 0 L 3 -1 L 3 1" style="stroke:none"/></g><marker id="mrkr13-33" class="st10" markerUnits="strokeWidth" orient="auto" overflow="visible" refX="-10.56"><use transform="scale(-3.52,-3.52)" xlink:href="#lend13"/></marker><marker id="mrkr13-59" class="st12" markerUnits="strokeWidth" orient="auto" overflow="visible" refX="-10.56"><use transform="scale(-3.52,-3.52)" xlink:href="#lend13"/></marker><marker id="mrkr13-92" class="st10" markerUnits="strokeWidth" orient="auto" overflow="visible" refX="10.2"><use transform="scale(3.52)" xlink:href="#lend13"/></marker></defs><g><title>Page-1</title><g id="shape6-1" transform="translate(1,-201.073)"><title>Nordic Blue</title><desc>Application Event Manager</desc><rect width="453.543" height="54.64" x="0" y="267.383" class="st1"/><text x="143.11" y="298.9" class="st2">Application Event Manager</text></g><g id="shape7-4" transform="translate(2.67296,-93.7334)"><title>Nordic Blue.7</title><desc>CAF module 0</desc><rect width="72.864" height="54.64" x="0" y="267.383" class="st3"/><text x="24.43" y="291.1" class="st4">CAF <tspan x="11.75" class="st5" dy="1.2em">module 0</tspan></text></g><g id="shape8-8" transform="translate(92.9634,-93.7334)"><title>Nordic Blue.8</title><desc>CAF module 1</desc><rect width="72.864" height="54.64" x="0" y="267.383" class="st3"/><text x="24.43" y="291.1" class="st4">CAF <tspan x="11.75" class="st5" dy="1.2em">module 1</tspan></text></g><g id="shape9-12" transform="translate(183.254,-93.7334)"><title>Nordic Blue.9</title><desc>CAF module 2</desc><rect width="72.864" height="54.64" x="0" y="267.383" class="st3"/><text x="24.43" y="291.1" class="st6">CAF <tspan x="11.75" class="st5" dy="1.2em">module 2</tspan></text></g><g id="shape10-16" transform="translate(363.835,-93.7334)"><title>Nordic Blue.10</title><desc>User module 0</desc><rect width="87.874" height="54.64" x="0" y="267.383" class="st7"/><text x="4.92" y="298.3" class="st6">User module 0</text></g><g id="shape11-19" transform="translate(2.67296,-46.9757)"><title>Nordic Blue.11</title><desc>Driver 0</desc><rect width="163.155" height="31.963" x="0" y="290.061" class="st1"/><text x="60.57" y="309.64" class="st6">Driver 0</text></g><g id="shape12-22" transform="translate(183.254,-46.9757)"><title>Nordic Blue.12</title><desc>Driver 1</desc><rect width="72.864" height="31.963" x="0" y="290.061" class="st1"/><text x="15.43" y="309.64" class="st6">Driver 1</text></g><g id="shape13-25" transform="translate(2.67296,-1)"><title>Nordic Blue.13</title><desc>Hardware</desc><rect width="453.543" height="31.963" x="0" y="290.061" class="st8"/><text x="196.43" y="310.24" class="st2">Hardware</text></g><g id="shape24-28" transform="translate(203.399,-148.374)"><title>Dynamic connector.24</title><path d="M-7.08 322.02 L-7.09 279.88" class="st9"/></g><g id="shape25-34" transform="translate(217.072,-148.374)"><title>Dynamic connector.25</title><path d="M-7.01 322.02 L-7.13 279.88" class="st9"/></g><g id="shape26-39" transform="translate(230.045,-148.374)"><title>Dynamic connector.26</title><path d="M-7.08 322.02 L-7.09 279.88" class="st9"/></g><g id="shape27-44" transform="translate(233.12,-201.073)"><title>Dynamic connector.27</title><path d="M6.84 322.02 L7.23 364.16" class="st9"/></g><g id="shape28-49" transform="translate(378.34,-201.073)"><title>Dynamic connector.28</title><path d="M7.09 322.02 L7.09 364.16" class="st9"/></g><g id="shape29-54" transform="translate(420.017,-148.374)"><title>Dynamic connector.29</title><path d="M7.09 322.02 L7.09 279.88" class="st11"/></g><g id="shape32-60" transform="translate(135.945,-93.7334)"><title>Dynamic connector.32</title><path d="M-7.07 322.02 L-7.1 336.82" class="st13"/></g><g id="shape33-63" transform="translate(212.599,-93.7334)"><title>Dynamic connector.33</title><path d="M7.09 322.02 L7.09 336.82" class="st13"/></g><g id="shape39-66" transform="translate(32.0289,-93.7334)"><title>Dynamic connector.39</title><path d="M7.08 322.02 L7.1 336.82" class="st13"/></g><g id="shape45-69" transform="translate(273.544,-93.7334)"><title>Nordic Blue.45</title><desc>CAF module 3</desc><rect width="72.864" height="54.64" x="0" y="267.383" class="st3"/><text x="24.43" y="291.1" class="st6">CAF <tspan x="11.75" class="st5" dy="1.2em">module 3</tspan></text></g><g id="shape48-73" transform="translate(32.4646,-47.056)"><title>Dynamic connector.48</title><path d="M7.09 322.1 L7.09 336.12" class="st13"/></g><g id="shape50-76" transform="translate(121.756,-47.056)"><title>Dynamic connector.50</title><path d="M7.09 322.1 L7.09 336.12" class="st13"/></g><g id="shape54-79" transform="translate(212.603,-47.056)"><title>Dynamic connector.54</title><path d="M7.08 322.1 L7.09 336.12" class="st13"/></g><g id="shape57-82" transform="translate(122.316,-148.374)"><title>Dynamic connector.57</title><path d="M7.08 322.02 L7.09 279.88" class="st9"/></g><g id="shape58-87" transform="translate(142.165,-148.374)"><title>Dynamic connector.58</title><path d="M7.09 311.82 L7.09 311.46 L7.09 269.32" class="st14"/></g><g id="shape59-93" transform="translate(103.331,-148.374)"><title>Dynamic connector.59</title><path d="M7.09 322.02 L7.09 279.88" class="st9"/></g><g id="shape60-98" transform="translate(290.984,-148.374)"><title>Dynamic connector.60</title><path d="M7.09 322.02 L7.09 279.88" class="st9"/></g><g id="shape61-103" transform="translate(317.63,-201.073)"><title>Dynamic connector.61</title><path d="M7.09 332.22 L7.09 332.58 L7.09 374.72" class="st14"/></g><g id="shape62-108" transform="translate(49.189,-148.374)"><title>Dynamic connector</title><path d="M7.09 311.82 L7.09 311.46 L7.09 269.32" class="st14"/></g><g id="shape63-113" transform="translate(15.4567,-148.374)"><title>Dynamic connector.63</title><path d="M7.09 322.02 L7.09 279.88" class="st9"/></g><g id="shape71-118" transform="translate(264.437,-41.5276)"><title>Nordic Fall</title><desc>User application</desc><path d="M0 322.02 L193.98 322.02 L193.98 202.47 L0 202.47 L0 322.02 Z" class="st15"/><text x="110.62" y="314.42" class="st16">User application</text></g><g id="shape72-121" transform="translate(273.544,-46.9757)"><title>Nordic Blue.72</title><desc>Library 0</desc><rect width="72.864" height="31.963" x="0" y="290.061" class="st1"/><text x="13.09" y="309.64" class="st6">Library 0</text></g><g id="shape73-124" transform="translate(302.89,-78.9387)"><title>Dynamic connector.73</title><path d="M7.09 322.02 L7.09 307.23" class="st13"/></g><g id="shape74-127" transform="translate(322.157,-266.032)"><title>Sheet.74</title><rect width="136.063" height="54.64" x="0" y="267.383" class="st17"/></g><g id="shape75-129" transform="translate(326.409,-295.702)"><title>Nordic Blue.75</title><rect width="25.512" height="7.869" x="0" y="314.155" class="st7"/></g><g id="shape76-131" transform="translate(326.409,-283.039)"><title>Nordic Blue.76</title><rect width="25.512" height="7.869" x="0" y="314.155" class="st1"/></g><g id="shape79-133" transform="translate(351.921,-279.037)"><title>Sheet.79</title><desc>Other NCS components</desc><rect width="106.299" height="15.874" x="0" y="306.15" class="st18"/><text x="4" y="316.49" class="st19">Other NCS components</text></g><g id="shape82-136" transform="translate(346.677,-266.882)"><title>Dynamic connector.82</title><path d="M0 314.94 L-4.75 314.94" class="st9"/></g><g id="shape83-141" transform="translate(351.921,-292.11)"><title>Sheet.83</title><desc>User modules and events</desc><rect width="106.299" height="15.874" x="0" y="306.15" class="st18"/><text x="4" y="316.49" class="st19">User modules and events</text></g><g id="shape84-144" transform="translate(351.921,-266.032)"><title>Sheet.84</title><desc>Events</desc><rect width="106.299" height="15.874" x="0" y="306.15" class="st18"/><text x="4" y="316.49" class="st19">Events</text></g><g id="shape86-147" transform="translate(326.409,-308.741)"><title>Nordic Blue.86</title><rect width="25.512" height="7.869" x="0" y="314.155" class="st3"/></g><g id="shape87-149" transform="translate(351.921,-305.15)"><title>Sheet.87</title><desc>CAF modules and events</desc><rect width="106.299" height="15.874" x="0" y="306.15" class="st18"/><text x="4" y="316.49" class="st19">CAF modules and events</text></g></g></svg>