<svg xmlns="http://www.w3.org/2000/svg" xmlns:ev="http://www.w3.org/2001/xml-events" xmlns:xlink="http://www.w3.org/1999/xlink" width="614.22" height="648.41" class="st16" color-interpolation-filters="sRGB" viewBox="0 0 460.665 486.307" xml:space="preserve"><style type="text/css">.st1{fill:#0077c8;stroke:none;stroke-width:1}.st2{fill:#fff;font-family:Arial;font-size:.833336em}.st3,.st4{fill:#768692;stroke:none;stroke-width:1}.st4{fill:#0033a0}.st5{fill:#feffff;font-family:Arial;font-size:.833336em}.st6{fill:#333f48;stroke:none;stroke-width:1}.st7,.st8{stroke:#333f48}.st7{marker-end:url(#mrkr13-21);stroke-linecap:butt;stroke-width:1}.st8{fill:#333f48;fill-opacity:1;stroke-opacity:1;stroke-width:.28409090909091}.st10,.st9{stroke-width:1}.st9{marker-end:url(#mrkr13-27);stroke:#333f48;stroke-linecap:butt}.st10{fill:none;marker-end:url(#mrkr13-46);stroke:none}.st11{fill:#00a9ce;fill-opacity:1;stroke:#00a9ce;stroke-opacity:1;stroke-width:.28409090909091}.st12{fill:#333f48;font-family:Arial;font-size:.833336em}.st13{font-size:1em}.st14,.st15{fill:none;stroke:none;stroke-width:1}.st15{fill:#fff;stroke-linecap:butt;stroke-width:7.2}.st16{fill:none;fill-rule:evenodd;font-size:12px;overflow:visible;stroke-linecap:square;stroke-miterlimit:3}</style><defs id="Markers"><g id="lend13"><path d="M 3 1 L 0 0 L 3 -1 L 3 1" style="stroke:none"/></g><marker id="mrkr13-21" class="st8" markerUnits="strokeWidth" orient="auto" overflow="visible" refX="-10.2"><use transform="scale(-3.52,-3.52)" xlink:href="#lend13"/></marker><marker id="mrkr13-27" class="st8" markerUnits="strokeWidth" orient="auto" overflow="visible" refX="-10.56"><use transform="scale(-3.52,-3.52)" xlink:href="#lend13"/></marker><marker id="mrkr13-46" class="st11" markerUnits="strokeWidth" orient="auto" overflow="visible" refX="-10.56"><use transform="scale(-3.52,-3.52)" xlink:href="#lend13"/></marker></defs><g><title>Page-1</title><g id="shape6-1" transform="translate(82.0908,-313.31)"><title>Sheet.6</title><desc>CONNECTED</desc><ellipse cx="40.866" cy="466.214" class="st1" rx="40.866" ry="20.093"/><text x="9.2" y="469.21" class="st2">CONNECTED</text></g><g id="shape7-4" transform="translate(185.105,-163.696)"><title>Sheet.7</title><desc>DISCONNECTING</desc><ellipse cx="48.245" cy="464.997" class="st3" rx="48.245" ry="21.31"/><text x="6.3" y="468" class="st2">DISCONNECTING</text></g><g id="shape8-7" transform="translate(82.0908,-247.106)"><title>Sheet.8</title><desc>SECURED</desc><ellipse cx="40.866" cy="466.214" class="st4" rx="40.866" ry="20.093"/><text x="16.42" y="469.21" class="st5">SECURED</text></g><g id="shape9-10" transform="translate(348.097,-305.056)"><title>Sheet.9</title><desc>CONN_FAILED</desc><ellipse cx="40.866" cy="466.214" class="st6" rx="40.866" ry="20.093"/><text x="5.86" y="469.21" class="st2">CONN_FAILED</text></g><g id="shape10-13" transform="translate(185.105,-82.7404)"><title>Sheet.10</title><desc>DISCONNECTED</desc><ellipse cx="48.245" cy="466.214" class="st6" rx="48.245" ry="20.093"/><text x="8.24" y="469.21" class="st2">DISCONNECTED</text></g><g id="shape12-16" transform="translate(238.79,-407.882)"><title>Dynamic connector.23</title><path d="M0 486.31 C37.54 486.31 99.46 486.31 127.34 500.5 C145.33 509.67 149.15 524.75 149.95 538.39 L149.96 538.75" class="st7"/></g><g id="shape14-22" transform="translate(115.87,-313.31)"><title>Dynamic connector.14</title><path d="M7.09 486.31 L7.09 501.76" class="st9"/></g><g id="shape15-28" transform="translate(240.437,-82.7404)"><title>Dynamic connector.28</title><path d="M-7.09 486.31 L-7.09 521.05" class="st9"/></g><g id="shape17-33" transform="translate(123.828,-247.111)"><title>Dynamic connector.17</title><path d="M0 486.31 C0 501.83 -0 525.17 11.53 536.81 C20.59 545.96 36.77 547.89 50.72 548.3 L51.08 548.31" class="st7"/></g><g id="shape19-38" transform="translate(163.823,-333.403)"><title>Dynamic connector.50</title><path d="M0 486.31 C264.59 478.18 176.29 612.04 128.03 632.19 L127.68 632.27" class="st7"/></g><g id="shape21-43" transform="translate(139.924,-206.315)"><title>Nordic Blue.67</title><desc>Application module requests disconnection (bt_conn_disconnect...</desc><rect width="183.317" height="40.187" x="0" y="446.121" class="st10"/><text x="28.84" y="459.12" class="st12">Application module requests <tspan x="11.88" class="st13" dy="1.2em">disconnection (bt_conn_disconnect)</tspan><tspan x="15.77" class="st13" dy="1.2em">and sends event (ble_peer_event)</tspan></text></g><g id="shape23-50" transform="translate(129.87,-285.465)"><title>Sheet.23</title><desc>Connection encrypted (security_level &gt;= BT_SECURITY_L2)</desc><rect width="192.788" height="30.614" x="0" y="455.693" class="st14"/><text x="4" y="468" class="st12">Connection encrypted<tspan x="4" class="st13" dy="1.2em">(security_level &gt;= BT_SECURITY_L2)</tspan></text></g><g id="shape24-54" transform="translate(226.264,-137.906)"><title>Sheet.24</title><desc>Peer disconnected</desc><rect width="102.333" height="20" x="0" y="466.307" class="st14"/><text x="9.75" y="479.31" class="st12">Peer disconnected</text></g><g id="shape26-57" transform="translate(140.045,-465.307)"><title>Sheet.26</title><desc>Bluetooth® LE peer connects</desc><rect width="183.317" height="20" x="0" y="466.307" class="st14"/><text x="27.93" y="479.31" class="st12">Bluetooth® <tspan class="st13">LE peer connects</tspan></text></g><g id="shape27-61" transform="translate(120.531,-62.8663)"><title>Sheet.27</title><desc>Peer disconnected</desc><rect width="86.583" height="20" x="0" y="466.307" class="st14"/><text x="32.73" y="473.31" class="st12">Peer <tspan x="13.83" class="st13" dy="1.2em">disconnected</tspan></text></g><g id="shape28-65" transform="translate(227.917,-58.693)"><title>Sheet.28</title><desc>bt_conn_unref</desc><rect width="81.732" height="10" x="0" y="476.307" class="st14"/><text x="8.9" y="484.31" class="st12">bt_conn_unr<tspan class="st13">e</tspan>f</text></g><g id="shape29-69" transform="translate(383.587,-206.315)"><title>Sheet.29</title><desc>bt_conn_unref</desc><rect width="76.078" height="10" x="0" y="476.307" class="st14"/><text x="6.07" y="484.31" class="st12">bt_conn_unref</text></g><g id="shape30-72" transform="translate(231.704,-450.543)"><title>Sheet.30</title><desc>bt_conn_ref</desc><rect width="69.93" height="10" x="0" y="476.307" class="st14"/><text x="8.56" y="484.31" class="st12">bt_conn_ref</text></g><g id="shape32-75" transform="translate(196.739,-381.141)"><title>Sheet.32</title><desc>Connection error?</desc><rect width="69.93" height="17.709" x="0" y="468.598" class="st14"/><text x="9.67" y="474.45" class="st12">Connection <tspan x="21.63" class="st13" dy="1.2em">error?</tspan></text></g><g id="shape33-79" transform="translate(82.0908,-267.2)"><title>Dynamic connector.33</title><path d="M0 486.31 C-15.89 513.8 -22.57 536.04 -26.32 558.58 C-30.86 585.88 -31.09 613.63 -8.2 641.42 C10.54 664.18 44.79 686.97 96.55 656.36 L96.86 656.16" class="st7"/></g><g id="shape37-84" transform="translate(75.0042,-326.316)"><title>Dynamic connector.37</title></g><g id="shape44-85" transform="translate(224.617,-452.63)"><title>Circle.1344</title><path d="M0 479.22 A7.08661 7.08661 0 0 1 14.17 479.22 A7.08661 7.08661 0 1 1 0 479.22 Z" class="st6"/></g><g id="shape78-87" transform="translate(224.617,-400.795)"><title>Circle.78</title><path d="M0 479.22 A7.08661 7.08661 0 0 1 14.17 479.22 A7.08661 7.08661 0 1 1 0 479.22 Z" class="st6"/></g><g id="shape81-89" transform="translate(224.617,-407.882)"><title>Dynamic connector</title><path d="M0 486.31 C-25.42 486.31 -66.52 486.31 -85.46 498.16 C-97.75 505.85 -100.72 518.53 -101.43 530.14 L-101.44 530.5" class="st7"/></g><g id="shape82-94" transform="translate(238.79,-452.63)"><title>Dynamic connector.82</title><path d="M-7.09 486.31 L-7.09 513.41" class="st9"/></g><g id="shape89-99" transform="translate(226.264,-163.696)"><title>Dynamic connector.89</title><path d="M7.09 486.31 L7.09 516.52" class="st9"/></g><g id="shape94-104" transform="translate(182.963,-409.775)"><title>Sheet.94</title><desc>NO</desc><rect width="46.917" height="10.335" x="0" y="475.972" class="st14"/><rect width="15" height="12" x="15.959" y="475.14" class="st15"/><text x="15.96" y="484.14" class="st12">NO</text></g><g id="shape104-108" transform="translate(137.216,-2.00012)"><title>Sheet.104</title><desc>Bluetooth® LE peer disconnected Bluetooth® connection can be ...</desc><rect width="183.317" height="20" x="0" y="466.307" class="st14"/><text x="18.48" y="473.31" class="st12">Bluetooth® <tspan class="st13">LE peer disconnected</tspan><tspan x="6.8" class="st13" dy="1.2em"> </tspan>Bluetooth® <tspan class="st13">connection can be reused</tspan></text></g><g id="shape106-114" transform="translate(226.264,-25.0483)"><title>Circle.106</title><path d="M0 479.22 A7.08661 7.08661 0 0 1 14.17 479.22 A7.08661 7.08661 0 1 1 0 479.22 Z" class="st6"/></g><g id="shape107-116" transform="translate(388.963,-305.056)"><title>Dynamic connector.107</title><path d="M0 486.31 C-0 554.54 0 664.71 -32.27 715.58 C-57.41 755.22 -102.15 758.86 -137.97 759.19 L-138.33 759.2" class="st7"/></g><g id="shape108-121" transform="translate(238.79,-409.775)"><title>Sheet.108</title><desc>YES</desc><rect width="46.917" height="10.335" x="0" y="475.972" class="st14"/><rect width="20.01" height="12" x="13.453" y="475.14" class="st15"/><text x="13.45" y="484.14" class="st12">YES</text></g><g id="shape1000-125" transform="translate(82.0908,-333.403)"><title>Dynamic connector.1000</title><path d="M0 486.31 C-4.65 486.31 -55.65 566.9 -65.21 632.66 C-74.89 699.21 -42.15 750.58 -4.45 771.51 C25.77 788.29 59.17 785.53 85.21 774.53 C99.85 768.35 112.16 759.56 127.41 743.51 L127.66 743.25" class="st7"/></g></g></svg>