<svg xmlns="http://www.w3.org/2000/svg" xmlns:ev="http://www.w3.org/2001/xml-events" xmlns:xlink="http://www.w3.org/1999/xlink" width="751.958" height="555.704" class="st21" color-interpolation-filters="sRGB" viewBox="0 0 563.968 416.778" xml:space="preserve"><style type="text/css">.st1,.st2{stroke:#333f48}.st1{marker-end:url(#mrkr13-6);stroke-linecap:butt;stroke-width:1}.st2{fill:#333f48;fill-opacity:1;stroke-opacity:1;stroke-width:.28409090909091}.st3,.st4{stroke:#f58220}.st3{marker-end:url(#mrkr13-12);stroke-linecap:butt;stroke-width:1}.st4{fill:#f58220;fill-opacity:1;stroke-opacity:1;stroke-width:.28409090909091}.st5{fill:none;stroke:none;stroke-width:1}.st6{fill:#ed7d31;font-family:Arial;font-size:.916672em}.st7,.st8{stroke-width:1}.st7{marker-end:url(#mrkr13-31);stroke:#333f48;stroke-linecap:butt}.st8{fill:#0077c8;stroke:none}.st9{fill:#feffff;font-family:Arial;font-size:.916672em}.st10{fill:#768692;stroke:none}.st10,.st11,.st12{stroke-width:1}.st11{fill:#00a9ce;stroke:none}.st12{marker-end:url(#mrkr13-54);stroke:#f58220;stroke-linecap:butt}.st13{fill:#3a4349;font-family:Arial;font-size:1.00001em}.st14{font-size:1em}.st15,.st16,.st17{fill:#333f48;font-family:Arial;font-size:.916672em}.st16,.st17{fill:#f58220;font-size:1.00001em}.st17{fill:#333f48}.st18{marker-end:url(#mrkr13-94);stroke-linecap:butt;stroke-opacity:.77;stroke-width:1}.st18,.st19,.st20{stroke:#f58220}.st19{fill:#f58220;fill-opacity:.77;stroke-opacity:.77;stroke-width:.28409090909091}.st20{fill:none;stroke-dasharray:5.25,3.75;stroke-width:.75}.st21{fill:none;fill-rule:evenodd;font-size:12px;overflow:visible;stroke-linecap:square;stroke-miterlimit:3}</style><defs id="Markers"><g id="lend13"><path d="M 3 1 L 0 0 L 3 -1 L 3 1" style="stroke:none"/></g><marker id="mrkr13-6" class="st2" markerUnits="strokeWidth" orient="auto" overflow="visible" refX="-10.56"><use transform="scale(-3.52,-3.52)" xlink:href="#lend13"/></marker><marker id="mrkr13-12" class="st4" markerUnits="strokeWidth" orient="auto" overflow="visible" refX="-10.56"><use transform="scale(-3.52,-3.52)" xlink:href="#lend13"/></marker><marker id="mrkr13-31" class="st2" markerUnits="strokeWidth" orient="auto" overflow="visible" refX="-10.2"><use transform="scale(-3.52,-3.52)" xlink:href="#lend13"/></marker><marker id="mrkr13-54" class="st4" markerUnits="strokeWidth" orient="auto" overflow="visible" refX="-10.2"><use transform="scale(-3.52,-3.52)" xlink:href="#lend13"/></marker><marker id="mrkr13-94" class="st19" markerUnits="strokeWidth" orient="auto" overflow="visible" refX="-10.56"><use transform="scale(-3.52,-3.52)" xlink:href="#lend13"/></marker></defs><g><title>Page-1</title><g id="shape5-1" transform="translate(222.102,-313.303)"><title>Dynamic connector</title><path d="M0 409.69 L140.12 409.69" class="st1"/></g><g id="shape7-7" transform="translate(436.558,-292.752)"><title>Dynamic connector.43</title><path d="M7.09 416.78 L7.09 527.93" class="st3"/></g><g id="shape11-13" transform="translate(62.6522,-233.391)"><title>Sheet.11</title><rect width="152" height="20" x="0" y="396.778" class="st5"/></g><g id="shape13-15" transform="translate(785.159,312.548) rotate(132.179)"><title>Sheet.13</title><path d="M0 416.78 L38.08 416.78" class="st1"/></g><g id="shape14-20" transform="translate(1,-388.975)"><title>Sheet.14</title><desc>CONFIG_CAF_BUTTONS_PM_EVENTS</desc><rect width="234.126" height="26.803" x="0" y="389.975" class="st5"/><text x="15.91" y="406.68" class="st6">CONFIG_CAF_BUTTONS_PM_EVENTS</text></g><g id="shape15-23" transform="translate(326.984,-1)"><title>Sheet.15</title><desc>CONFIG_CAF_BUTTONS_PM_EVENTS</desc><rect width="234.126" height="26.803" x="0" y="389.975" class="st5"/><text x="15.91" y="406.68" class="st6">CONFIG_CAF_BUTTONS_PM_EVENTS</text></g><g id="shape16-26" transform="translate(673.42,429.446) rotate(138.502)"><title>Sheet.16</title><path d="M-0 416.78 A203.317 144.638 43.58 0 1 229.18 410.48 L229.47 410.69" class="st7"/></g><g id="shape17-32" transform="translate(-54.3528,-74.9543) rotate(-37.5218)"><title>Sheet.17</title><path d="M-0 416.78 A212.976 148.824 51.49 0 1 226.88 410.11 L227.16 410.34" class="st7"/></g><g id="shape18-37" transform="translate(372.778,-292.752)"><title>Sheet.18</title><desc>STATE_SCANNING</desc><ellipse cx="70.866" cy="389.14" class="st8" rx="70.866" ry="27.638"/><text x="21.05" y="392.44" class="st9">STATE_SCANNING</text></g><g id="shape19-40" transform="translate(372.778,-115.759)"><title>Sheet.19</title><desc>STATE_SUSPENDING</desc><ellipse cx="70.866" cy="389.14" class="st10" rx="70.866" ry="27.638"/><text x="13.71" y="392.44" class="st9">STATE_SUSPENDING</text></g><g id="shape20-43" transform="translate(77.5354,-114.386)"><title>Sheet.20</title><desc>STATE_ACTIVE</desc><ellipse cx="70.866" cy="389.14" class="st11" rx="70.866" ry="27.638"/><text x="30.22" y="392.44" class="st9">STATE_ACTIVE</text></g><g id="shape21-46" transform="translate(80.3701,-292.752)"><title>Sheet.21</title><desc>STATE_IDLE</desc><ellipse cx="70.866" cy="389.14" class="st10" rx="70.866" ry="27.638"/><text x="37.86" y="392.44" class="st9">STATE_IDLE</text></g><g id="shape22-49" transform="translate(151.236,-351.807)"><title>Dynamic connector.32</title><path d="M0 420.56 C21.44 411.05 64.63 398.53 124.07 399.09 C168.43 399.5 221.83 407.2 240 418.78 L240.22 419.06" class="st12"/></g><g id="shape23-55" transform="translate(321.882,-200.873)"><title>Sheet.23</title><desc>No button pressed</desc><rect width="66.898" height="44.221" x="0" y="372.557" class="st5"/><text x="4" y="391.07" class="st13">No button<tspan x="4" class="st14" dy="1.2em">pressed</tspan></text></g><g id="shape24-59" transform="translate(211.216,-22.9685)"><title>Sheet.24</title><desc>No button pressed</desc><rect width="101.595" height="12.756" x="0" y="404.022" class="st5"/><text x="5.85" y="413.7" class="st15">No button pressed</text></g><g id="shape25-62" transform="translate(442.496,-218.29)"><title>Sheet.25</title><desc>Power-down event</desc><rect width="120.472" height="26.803" x="0" y="389.975" class="st5"/><text x="4" y="406.98" class="st16">Power-down<tspan class="st14"> </tspan>event</text></g><g id="shape26-66" transform="translate(244.78,-240.654)"><title>Sheet.26</title><desc>Button pressed</desc><rect width="49.522" height="26.803" x="0" y="389.975" class="st5"/><text x="4" y="400.08" class="st15">Button <tspan x="4" class="st14" dy="1.2em">pressed</tspan></text></g><g id="shape27-70" transform="translate(44.937,-229.315)"><title>Sheet.27</title><desc>Power-down event</desc><rect width="120.472" height="26.803" x="0" y="389.975" class="st5"/><text x="4" y="406.98" class="st16">Power-down<tspan class="st14"> </tspan>event</text></g><g id="shape28-74" transform="translate(211.143,-324.15)"><title>Sheet.28</title><desc>Button pressed</desc><rect width="95.619" height="12.756" x="0" y="404.022" class="st5"/><text x="10.81" y="413.7" class="st15">Button pressed</text></g><g id="shape29-77" transform="translate(232.564,-370.921)"><title>Sheet.29</title><desc>Wake-up event</desc><rect width="101.595" height="12.756" x="0" y="404.022" class="st5"/><text x="10.44" y="414" class="st16">Wake-up event</text></g><g id="shape30-80" transform="translate(460.667,-385.221)"><title>Sheet.30</title><desc>Initial scan</desc><rect width="36.396" height="26.803" x="0" y="389.975" class="st5"/><text x="4.19" y="399.78" class="st17">Initial <tspan x="5.52" class="st14" dy="1.2em">scan</tspan></text></g><g id="shape31-84" transform="translate(443.644,-115.759)"><title>Dynamic connector.31</title><path d="M0 416.78 C-17.45 502.48 -117.87 520.67 -202.96 517.01 C-292.75 513.15 -365.48 484.99 -395.82 433.71 C-418.43 395.51 -417.52 344.49 -413.63 308.7 C-410.78 282.42 -406.33 264.35 -370.05 220.25 L-369.82 219.97" class="st7"/></g><g id="shape34-89" transform="translate(142.732,-169.661)"><title>Dynamic connector.34</title><path d="M5.67 416.78 L8.26 304.24" class="st18"/></g><g id="shape36-95" transform="translate(431.951,3.21085) rotate(90)"><title>Right Triangle.77</title><path d="M0 416.78 L304.3 416.78 L-0.07 19.93 L0 416.78 Z" class="st20"/></g><g id="shape37-97" transform="translate(132.274,413.089) rotate(-90)"><title>Right Triangle.41</title><path d="M0 416.78 L316.7 416.78 L0.43 -24.35 L0 416.78 Z" class="st20"/></g></g></svg>