<svg xmlns="http://www.w3.org/2000/svg" xmlns:ev="http://www.w3.org/2001/xml-events" xmlns:xlink="http://www.w3.org/1999/xlink" width="764.442" height="781.669" class="st23" color-interpolation-filters="sRGB" viewBox="0 0 573.332 586.252" xml:space="preserve"><style type="text/css">.st1,.st2{fill:#d9e1e2;stroke:none;stroke-width:1}.st2{fill:#0033a0}.st3{fill:#fff;font-family:Arial;font-size:.916672em}.st4{fill:none;stroke:none;stroke-width:1}.st5,.st6{fill:#333f48;font-family:Arial;font-size:1.16666em}.st6{fill:#768692;font-size:.833336em}.st7{font-size:1em}.st10,.st8,.st9{font-family:Arial}.st8,.st9{fill:#333f48;font-size:.833336em}.st9{font-size:.666664em}.st10{fill:#768692;font-size:.75em}.st11,.st12{stroke:#333f48}.st11{marker-end:url(#mrkr13-60);stroke-linecap:butt;stroke-width:1}.st12{fill:#333f48;fill-opacity:1;stroke-opacity:1;stroke-width:.28409090909091}.st13,.st14{fill:#333f48;stroke:none;stroke-width:1}.st14{fill:#0077c8}.st15{fill:#feffff;font-size:1.09091em}.st16{fill:#768692;stroke:none;stroke-width:1}.st17,.st18{stroke:#768692}.st17{marker-end:url(#mrkr13-110);stroke-linecap:butt;stroke-width:1}.st18{fill:#768692;fill-opacity:1;stroke-opacity:1;stroke-width:.28409090909091}.st19{fill:#feffff;font-family:Arial;font-size:.916672em}.st20{marker-end:url(#mrkr13-149);stroke:#768692}.st20,.st21,.st22{stroke-linecap:butt;stroke-width:1}.st21{stroke:#768692;stroke-dasharray:1,4}.st22{marker-end:url(#mrkr13-60);marker-start:url(#mrkr13-178);stroke:#333f48}.st23{fill:none;fill-rule:evenodd;font-size:12px;overflow:visible;stroke-linecap:square;stroke-miterlimit:3}</style><defs id="Markers"><g id="lend13"><path d="M 3 1 L 0 0 L 3 -1 L 3 1" style="stroke:none"/></g><marker id="mrkr13-60" class="st12" markerUnits="strokeWidth" orient="auto" overflow="visible" refX="-10.2"><use transform="scale(-3.52,-3.52)" xlink:href="#lend13"/></marker><marker id="mrkr13-110" class="st18" markerUnits="strokeWidth" orient="auto" overflow="visible" refX="-10.2"><use transform="scale(-3.52,-3.52)" xlink:href="#lend13"/></marker><marker id="mrkr13-149" class="st18" markerUnits="strokeWidth" orient="auto" overflow="visible" refX="-10.56"><use transform="scale(-3.52,-3.52)" xlink:href="#lend13"/></marker><marker id="mrkr13-178" class="st12" markerUnits="strokeWidth" orient="auto" overflow="visible" refX="10.2"><use transform="scale(3.52)" xlink:href="#lend13"/></marker></defs><g><title>Page-1</title><g id="shape247-1" transform="translate(1,-44.2194)"><title>Sheet.247</title><rect width="274.398" height="466.006" x="0" y="120.246" class="st1"/></g><g id="shape75-3" transform="translate(85.4107,-175.22)"><title>Sheet.75</title><desc>STATE_SUSPENDED</desc><ellipse cx="71.575" cy="558.997" class="st2" rx="71.575" ry="27.256"/><text x="16.56" y="562.3" class="st3">STATE_SUSPENDED</text></g><g id="shape7-6" transform="translate(11.3952,-565.252)"><title>Sheet.7</title><desc>START</desc><rect width="510.236" height="20" x="0" y="566.252" class="st4"/><text x="232.17" y="580.45" class="st5">START</text></g><g id="shape8-9" transform="translate(436.764,-261.018)"><title>Sheet.8</title><desc>wake_up_event (consumed)</desc><rect width="86.583" height="23.66" x="0" y="562.592" class="st4"/><text x="8.26" y="571.42" class="st6">wake_up_event <tspan x="16.89" class="st7" dy="1.2em">(consumed)</tspan></text></g><g id="shape34-13" transform="translate(36.4582,-416.989)"><title>Sheet.34</title><desc>power_state_allowed(SUSPENDED)</desc><rect width="192.706" height="14.493" x="0" y="571.759" class="st4"/><text x="14.93" y="582.61" class="st8">power_state_allowed(SUSPENDED)</text></g><g id="shape35-16" transform="translate(829.535,144.881) rotate(90)"><title>Sheet.35</title><desc>!power_state_allowed (SUSPENDED)</desc><rect width="92.126" height="10" x="0" y="576.252" class="st4"/><text x="7.37" y="578.85" class="st9">!<tspan class="st7">power_state_allowed</tspan> <tspan x="18.5" class="st7" dy="1.2em">(SUSPENDED)</tspan></text></g><g id="shape36-21" transform="translate(47.063,-325.023)"><title>Sheet.36</title><desc>force_power_down_event || power_down_timer</desc><rect width="143.15" height="30.032" x="0" y="556.22" class="st4"/><text x="10.33" y="567.04" class="st8">force_power_down_event || <tspan x="29.33" class="st7" dy="1.38em">power_down_timer</tspan></text></g><g id="shape37-25" transform="translate(298.323,-395.308)"><title>Sheet.37</title><desc>power_down_event</desc><rect width="99.841" height="54.511" x="0" y="531.741" class="st4"/><text x="6.56" y="562" class="st6">power_down_event</text></g><g id="shape38-28" transform="translate(303.678,-268.476)"><title>Sheet.38</title><desc>error_trigger_timer</desc><rect width="92.755" height="75.874" x="0" y="510.378" class="st4"/><text x="4.98" y="551.32" class="st6">error_trigger_timer</text></g><g id="shape39-31" transform="translate(298.323,-158.011)"><title>Sheet.39</title><desc>power_down_event</desc><rect width="99.841" height="70.278" x="0" y="515.974" class="st4"/><text x="6.56" y="554.11" class="st6">power_down_event</text></g><g id="shape41-34" transform="translate(-568.913,251.308) rotate(-90)"><title>Sheet.41</title><desc>force_power_down_event</desc><rect width="129.733" height="10" x="0" y="576.252" class="st4"/><text x="7.61" y="584.25" class="st8">force_power_down_event</text></g><g id="shape42-37" transform="translate(-557.154,426.495) rotate(-90)"><title>Sheet.42</title><desc>power_down_event &amp;&amp; power_state_allowed(OFF)</desc><rect width="130.675" height="23.52" x="0" y="562.732" class="st4"/><text x="13.91" y="571.49" class="st8">power_down_event &amp;&amp; <tspan x="5.03" class="st7" dy="1.2em">power_state_allowed(OFF)</tspan></text></g><g id="shape44-41" transform="translate(62.857,-140.055)"><title>Sheet.44</title><desc>power_manager_restrict_event &amp;&amp; power_state_allowed(OFF)</desc><rect width="170.534" height="30.032" x="0" y="556.22" class="st4"/><text x="8.28" y="567.04" class="st8">power_manager_restrict_event &amp;&amp; <tspan x="24.96" class="st7" dy="1.38em">power_state_allowed(OFF)</tspan></text></g><g id="shape45-45" transform="translate(5.25197,-37.2923)"><title>Sheet.45</title><desc>(power_manager_restrict_event &amp;&amp; !power_state_allowed(OFF)) |...</desc><rect width="168.408" height="45.284" x="0" y="540.968" class="st4"/><text x="21.28" y="556.41" class="st9">(power_manager_restrict_event &amp;&amp; <tspan x="30.33" class="st7" dy="1.2em">!power_state_allowed(OFF)) || </tspan><tspan x="56.18" class="st7" dy="1.2em">wake_up_event</tspan></text></g><g id="shape46-50" transform="translate(275.398,-491.765)"><title>Sheet.46</title><desc>(any state) module_state_event &amp;&amp; event-&gt;state == ERROR</desc><rect width="122.846" height="40.187" x="0" y="546.065" class="st4"/><text x="4" y="558.06" class="st10">(any state)<tspan x="4" class="st7" dy="1.2em">module_state_event </tspan><tspan x="4" class="st7" dy="1.2em">&amp;&amp; event</tspan>-&gt;state == ERROR</text></g><g id="shape51-55" transform="translate(66.2567,-469.815)"><title>Dynamic connector.144</title><path d="M5.54 586.25 C-24.38 583.15 -43.87 632.64 -45.34 671.04 C-46.89 711.75 -28.19 740 0.14 762.19 L0.43 762.4" class="st11"/></g><g id="shape52-61" transform="translate(1,-1)"><title>Sheet.52</title><desc>MCU RESET</desc><rect width="510.236" height="20" x="0" y="566.252" class="st4"/><text x="213.89" y="580.45" class="st5">MCU RESET</text></g><g id="shape53-64" transform="translate(420.132,-398.903)"><title>Sheet.53</title><desc>wake_up_event (consumed)</desc><rect width="86.583" height="23.66" x="0" y="562.592" class="st4"/><text x="8.26" y="571.42" class="st6">wake_up_event <tspan x="16.89" class="st7" dy="1.2em">(consumed)</tspan></text></g><g id="shape55-68" transform="translate(259.313,-555.9)"><title>Circle.1344</title><path d="M0 579.17 A7.08661 7.08661 0 0 1 14.17 579.17 A7.08661 7.08661 0 1 1 0 579.17 Z" class="st13"/></g><g id="shape57-70" transform="translate(259.313,-562.987)"><title>Dynamic connector.57</title><path d="M0 586.25 C-29.31 586.25 -76.12 586.25 -98.01 601.36 C-113.64 612.16 -116.56 630.66 -117.1 646.75 L-117.1 647.11" class="st11"/></g><g id="shape58-75" transform="translate(70.5139,-437.421)"><title>Sheet.58</title><desc>STATE_IDLE</desc><ellipse cx="71.575" cy="558.997" class="st14" rx="71.575" ry="27.256"/><text x="37.17" y="562.6" class="st3">STATE<tspan class="st15">_</tspan><tspan class="st15">IDLE</tspan></text></g><g id="shape59-80" transform="translate(73.9921,-356.547)"><title>Sheet.59</title><desc>STATE_IDLE power_down_timer started</desc><ellipse cx="71.575" cy="558.997" class="st16" rx="71.575" ry="27.256"/><text x="38.56" y="555.7" class="st3">STATE_IDLE<tspan x="5.24" class="st7" dy="1.2em"> </tspan>power_down_timer started</text></g><g id="shape62-84" transform="translate(65.1664,-464.677)"><title>Dynamic connector.62</title><path d="M5.35 586.25 C-7.32 586.25 -15.91 612.12 -15.98 632.03 C-16.03 647.48 -10.97 659.35 -1.39 664.44 L-1.04 664.53" class="st11"/></g><g id="shape70-89" transform="translate(71.7971,-268.271)"><title>Sheet.70</title><desc>STATE_SUSPENDING</desc><ellipse cx="71.575" cy="558.997" class="st13" rx="71.575" ry="27.256"/><text x="14.42" y="562.3" class="st3">STATE_SUSPENDING</text></g><g id="shape84-92" transform="translate(83.2047,-77.0403)"><title>Sheet.84</title><desc>STATE_OFF</desc><ellipse cx="71.575" cy="558.997" class="st14" rx="71.575" ry="27.256"/><text x="39.79" y="562.3" class="st3">STATE_OFF</text></g><g id="shape86-95" transform="translate(324.07,-437.693)"><title>Sheet.86</title><desc>STATE_ERROR</desc><ellipse cx="71.575" cy="558.997" class="st13" rx="71.575" ry="27.256"/><text x="30.93" y="562.3" class="st3">STATE_<tspan class="st7">ERROR</tspan></text></g><g id="shape87-99" transform="translate(261.225,-23.1191)"><title>Circle.87</title><path d="M0 579.17 A7.08661 7.08661 0 0 1 14.17 579.17 A7.08661 7.08661 0 1 1 0 579.17 Z" class="st13"/></g><g id="shape93-101" transform="translate(324.07,-115.259)"><title>Sheet.93</title><desc>STATE_ERROR_OFF</desc><ellipse cx="71.575" cy="558.997" class="st14" rx="71.575" ry="27.256"/><text x="16.87" y="562.3" class="st3">STATE_<tspan class="st7">ERROR_</tspan>OFF</text></g><g id="shape96-105" transform="translate(395.644,-115.259)"><title>Dynamic connector.96</title><path d="M0 586.25 C-0 607.52 0 637.92 -20.49 653.83 C-40.49 669.37 -80.03 671.09 -109.69 671.28 L-110.05 671.28" class="st17"/></g><g id="shape97-111" transform="translate(311.268,-43.9556)"><title>Sheet.97</title><desc>wake_up_event</desc><rect width="86.583" height="75.874" x="0" y="510.378" class="st4"/><text x="8.26" y="551.32" class="st6">wake_up_event</text></g><g id="shape105-114" transform="translate(317.063,-206.507)"><title>Sheet.105</title><desc>STATE_ERROR_SUSPENDED</desc><ellipse cx="84.204" cy="558.997" class="st2" rx="84.204" ry="27.256"/><text x="6.27" y="562.3" class="st19">STATE_ERROR_SUSPENDED</text></g><g id="shape107-117" transform="translate(323.441,-344.35)"><title>Sheet.107</title><desc>STATE_ERROR error_trigger started</desc><ellipse cx="71.575" cy="558.997" class="st16" rx="71.575" ry="27.256"/><text x="30.93" y="555.7" class="st3">STATE_ERROR<tspan x="22.97" class="st7" dy="1.2em">error_trigger started</tspan></text></g><g id="shape115-121" transform="translate(154.78,-77.0403)"><title>Dynamic connector</title><path d="M0 586.25 C0 597.96 0 613.85 16.33 622.55 C33.67 631.79 69.4 632.93 95.89 633.07 L96.25 633.07" class="st11"/></g><g id="shape124-126" transform="translate(222.489,-383.802)"><title>Dynamic connector.124</title><path d="M-5.35 586.25 C5.59 584.83 16.68 572.7 16.62 552.69 C16.58 537.64 10.22 518.12 0.84 509.63 L0.51 509.49" class="st11"/></g><g id="shape125-131" transform="translate(219.823,-295.527)"><title>Dynamic connector.125</title><path d="M-4.88 586.25 C13.53 576.6 54.85 538.53 53.47 494.38 C52.36 458.89 23.67 419.47 1.13 410.77 L0.78 410.71" class="st11"/></g><g id="shape228-136" transform="translate(226.49,-205.85)"><title>Dynamic connector.228</title><path d="M0 586.25 C26.79 581.18 31.96 547.27 31.15 519.49 C30.44 495.1 25.13 475.42 29.33 460.24 L29.48 459.92" class="st11"/></g><g id="shape230-141" transform="translate(845.205,247.772) rotate(90)"><title>Sheet.230</title><desc>wake_up_event</desc><rect width="92.126" height="13.712" x="0" y="572.54" class="st4"/><text x="11.04" y="582.4" class="st8">wake_up_event</text></g><g id="shape231-144" transform="translate(387.929,-438.514)"><title>Dynamic connector.231</title><path d="M7.09 586.25 L7.09 615.35" class="st20"/></g><g id="shape233-150" transform="translate(389.346,-206.507)"><title>Dynamic connector.233</title><path d="M7.09 586.25 L7.09 613.11" class="st20"/></g><g id="shape235-155" transform="translate(387.878,-344.35)"><title>Dynamic connector.235</title><path d="M6.41 586.25 L7.59 659.07" class="st20"/></g><g id="shape248-160" transform="translate(54.8583,-230.986)"><title>Sheet.248</title><desc>power_down_event &amp;&amp; !power_state_allowed(OFF)</desc><rect width="147.345" height="30.032" x="0" y="556.22" class="st4"/><text x="22.25" y="567.04" class="st8">power_down_event &amp;&amp; <tspan x="11.98" class="st7" dy="1.38em">!power_state_allowed(OFF)</tspan></text></g><g id="shape249-164" transform="translate(275.398,-457.435)"><title>Dynamic connector.81</title><path d="M0 579.32 L38.45 579.08" class="st20"/></g><g id="shape250-169" transform="translate(288.717,-491.765)"><title>Dynamic connector.183</title><path d="M7.09 586.25 L7.09 611.69" class="st21"/></g><g id="shape255-172" transform="translate(266.318,-25.1941)"><title>Dynamic connector.255</title><path d="M16.85 588.93 L17.2 589.02 C55.35 596.73 159.97 596.78 223.12 506.92 C284.53 419.53 306.73 247.12 250.13 154.81 C193.46 62.39 57.79 50.27 17.73 48.69 L17.37 48.68" class="st22"/></g><g id="shape256-180" transform="translate(443.556,-356.547)"><title>Dynamic connector.256</title><path d="M6 586.25 C10.38 596.08 24.14 599.13 31.79 592.8 C40.15 585.89 41.23 567.8 34.97 556.33 C30.35 547.86 21.73 543 14.72 547.39 L14.5 547.67" class="st17"/></g><g id="shape259-185" transform="translate(67.9898,-381)"><title>Dynamic connector.259</title><path d="M6.21 586.25 C-6.46 586.25 -15.1 612.28 -15.11 632.29 C-15.12 647.06 -10.44 658.54 -2.22 663.58 L-1.88 663.68" class="st11"/></g><g id="shape260-190" transform="translate(78.0556,-279.709)"><title>Dynamic connector.260</title><path d="M6.21 586.25 C-6.46 586.25 -15.1 612.28 -15.11 632.29 C-15.12 647.06 -10.44 658.54 -2.22 663.58 L-1.88 663.68" class="st11"/></g><g id="shape262-195" transform="translate(76.7778,-281.787)"><title>Dynamic connector.262</title><path d="M5.54 586.25 C-24.38 583.15 -43.87 632.64 -45.34 671.04 C-46.89 711.75 -28.19 740 0.14 762.19 L0.43 762.4" class="st11"/></g><g id="shape263-200" transform="translate(82.1964,-194.67)"><title>Dynamic connector.263</title><path d="M6.21 586.25 C-6.46 586.25 -15.1 612.28 -15.11 632.29 C-15.12 647.06 -10.44 658.54 -2.22 663.58 L-1.88 663.68" class="st11"/></g><g id="shape267-205" transform="translate(464.579,-218.287)"><title>Dynamic connector.267</title><path d="M6 586.25 C10.38 596.08 24.14 599.13 31.79 592.8 C40.15 585.89 41.23 567.8 34.97 556.33 C30.35 547.86 21.73 543 14.72 547.39 L14.5 547.67" class="st17"/></g></g></svg>