<svg xmlns="http://www.w3.org/2000/svg" xmlns:ev="http://www.w3.org/2001/xml-events" xmlns:xlink="http://www.w3.org/1999/xlink" width="685.271" height="668.772" class="st26" color-interpolation-filters="sRGB" viewBox="0 0 513.954 501.579" xml:space="preserve"><style type="text/css">.st1,.st2{stroke-width:1}.st1{stroke:#f58220;stroke-linecap:butt}.st2{fill:#768692;stroke:none}.st3{fill:#feffff;font-family:Arial;font-size:.916672em}.st4{fill:#0033a0}.st4,.st5,.st6,.st7{stroke:none;stroke-width:1}.st5{fill:#00a9ce}.st6{fill:#0077c8}.st7{fill:none}.st8,.st9{fill:#768692;font-family:Arial;font-size:.916672em}.st9{fill:#333f48}.st10{fill:none;stroke:#f58220;stroke-width:1}.st11{fill:#f58220;font-family:Arial;font-size:.916672em}.st12{font-size:1em}.st13{fill:#333f48;stroke-width:1}.st13,.st14,.st15{stroke:#333f48}.st14{marker-end:url(#mrkr13-42);stroke-linecap:butt;stroke-width:1}.st15{fill:#333f48;fill-opacity:1;stroke-opacity:1;stroke-width:.28409090909091}.st16,.st17{stroke:#333f48;stroke-linecap:butt;stroke-width:1}.st16{marker-start:url(#mrkr13-58)}.st17{marker-end:url(#mrkr13-64)}.st18,.st19{stroke:#ee2f4e}.st18{marker-end:url(#mrkr13-75);stroke-linecap:butt;stroke-width:1}.st19{fill:#ee2f4e;fill-opacity:1;stroke-opacity:1;stroke-width:.28409090909091}.st20{fill:#ee2f4e;font-family:Arial;font-size:.916672em}.st21,.st22{fill:none;stroke:#768692;stroke-dasharray:7,5;stroke-width:1}.st22{stroke:#f58220}.st23{fill:#f58220;font-family:Arial;font-size:.666664em;font-weight:700}.st24{fill:none;stroke:#ee2f4e;stroke-dasharray:7,5;stroke-width:1}.st25{fill:#ee2f4e;font-family:Arial;font-size:.666664em;font-weight:700}.st26{fill:none;fill-rule:evenodd;font-size:12px;overflow:visible;stroke-linecap:square;stroke-miterlimit:3}</style><defs id="Markers"><g id="lend13"><path style="stroke:none" d="M 3 1 L 0 0 L 3 -1 L 3 1"/></g><marker id="mrkr13-42" class="st15" markerUnits="strokeWidth" orient="auto" overflow="visible" refX="-10.56"><use transform="scale(-3.52,-3.52)" xlink:href="#lend13"/></marker><marker id="mrkr13-58" class="st15" markerUnits="strokeWidth" orient="auto" overflow="visible" refX="10.2"><use transform="scale(3.52)" xlink:href="#lend13"/></marker><marker id="mrkr13-64" class="st15" markerUnits="strokeWidth" orient="auto" overflow="visible" refX="-10.2"><use transform="scale(-3.52,-3.52)" xlink:href="#lend13"/></marker><marker id="mrkr13-75" class="st19" markerUnits="strokeWidth" orient="auto" overflow="visible" refX="-10.2"><use transform="scale(-3.52,-3.52)" xlink:href="#lend13"/></marker></defs><g><title>Page-1</title><g id="shape5-1" transform="translate(162.847,-226.354)"><title>Dynamic connector.5</title><path d="M0 501.58 L23.58 518.12" class="st1"/></g><g id="shape7-4" transform="translate(137.323,-445.303)"><title>Sheet.7</title><desc>SENSOR_STATE_DISABLED</desc><ellipse cx="95.407" cy="473.941" class="st2" rx="95.407" ry="27.638"/><text x="21.13" y="477.24" class="st3">SENSOR_STATE_DISABLED</text></g><g id="shape8-7" transform="translate(137.323,-1)"><title>Sheet.8</title><desc>SENSOR_STATE_ERROR</desc><ellipse cx="95.407" cy="473.941" class="st4" rx="95.407" ry="27.638"/><text x="28.47" y="477.24" class="st3">SENSOR_STATE_ERROR</text></g><g id="shape9-10" transform="translate(137.323,-339.74)"><title>Sheet.9</title><desc>SENSOR_STATE_ACTIVE</desc><ellipse cx="95.407" cy="473.941" class="st5" rx="95.407" ry="27.638"/><text x="28.47" y="477.24" class="st3">SENSOR_STATE_ACTIVE</text></g><g id="shape10-13" transform="translate(137.323,-120.428)"><title>Sheet.10</title><desc>SENSOR_STATE_SLEEP</desc><ellipse cx="95.407" cy="473.941" class="st6" rx="95.407" ry="27.638"/><text x="30.6" y="477.24" class="st3">SENSOR_STATE_SLEEP</text></g><g id="shape13-16" transform="translate(67.9143,-290.313)"><title>Sheet.13</title><desc>Sensor trigger enabled</desc><rect width="121.884" height="22.323" x="0" y="479.256" class="st7"/><text x="5.29" y="493.72" class="st8">Sensor trigger enabled</text></g><g id="shape15-19" transform="translate(103.943,-182.898)"><title>Sheet.15</title><desc>Sensor trigger</desc><rect width="89.441" height="21.633" x="0" y="479.946" class="st7"/><text x="10.18" y="494.06" class="st9">Sensor trigger</text></g><g id="shape17-22" transform="translate(232.73,-423.671)"><title>Sheet.17</title><desc>Sensor initialized</desc><rect width="95.407" height="21.633" x="0" y="479.946" class="st7"/><text x="6.13" y="494.06" class="st9">Sensor initialized</text></g><g id="shape20-25" transform="translate(92.6027,-226.354)"><title>Sheet.20</title><desc>New wake_up_event</desc><rect width="89.441" height="35.806" x="0" y="465.773" class="st10"/><text x="33.72" y="480.38" class="st11">New <tspan x="6.19" class="st12" dy="1.2em">wake_up_event</tspan></text></g><g id="shape21-29" transform="translate(186.141,-207.362)"><title>Sheet.21</title><ellipse cx="1.559" cy="500.02" class="st13" rx="1.559" ry="1.559"/></g><g id="shape22-31" transform="translate(74.0293,-367.378)"><title>Sheet.22</title><desc>Sensor error</desc><rect width="75.268" height="21.633" x="0" y="479.946" class="st7"/><text x="7.07" y="494.06" class="st9">Sensor error</text></g><g id="shape23-34" transform="translate(62.0554,-462.125)"><title>Sheet.23</title><desc>Sensor error</desc><rect width="75.268" height="21.633" x="0" y="479.946" class="st7"/><text x="7.07" y="494.06" class="st9">Sensor error</text></g><g id="shape26-37" transform="translate(225.644,-445.303)"><title>Dynamic connector</title><path d="M7.09 501.58 L7.09 541.31" class="st14"/></g><g id="shape27-43" transform="translate(225.644,-120.428)"><title>Dynamic connector.13</title><path d="M7.09 501.58 L7.09 555.17" class="st14"/></g><g id="shape30-48" transform="translate(225.644,-339.74)"><title>Dynamic connector.12</title><path d="M7.09 501.58 L7.09 655.06" class="st14"/></g><g id="shape31-53" transform="translate(194.823,-343.001)"><title>Dynamic connector.11</title><path d="M-7.05 511.78 L-7.05 512.14 L-7.12 672.15" class="st16"/></g><g id="shape35-59" transform="translate(130.237,-472.941)"><title>Dynamic connector.35</title><path d="M7.09 501.58 C-4.47 510 -99.78 635.83 -111.18 739.87 C-122.06 839.13 -56.58 918.55 -2.79 942.14 L-2.45 942.27" class="st17"/></g><g id="shape41-65" transform="translate(137.323,-367.378)"><title>Dynamic connector.41</title><path d="M0 501.58 C-24.1 501.58 -42.63 508.67 -58.37 517.53 C-76.11 527.53 -90.29 539.78 -105.49 580 L-105.62 580.34" class="st17"/></g><g id="shape64-70" transform="translate(332.202,-367.378)"><title>Dynamic connector.64</title><path d="M-4.06 501.58 C168.59 536.48 169.06 615.85 138.81 661.78 C106.36 711.05 38.54 721.82 0.27 728.64 L-0.08 728.7" class="st18"/></g><g id="shape69-76" transform="translate(324.676,-159.153)"><title>Dynamic connector.69</title><path d="M-4.55 501.58 C60.72 495.5 128.71 463.59 134.44 421.76 C140.09 380.48 85.08 329.53 0.7 309.58 L0.34 309.5" class="st18"/></g><g id="shape71-81" transform="translate(336.345,-363.66)"><title>Sheet.71</title><desc>power_down_event</desc><rect width="107.756" height="21.633" x="0" y="479.946" class="st7"/><text x="6.18" y="494.06" class="st20">power_down_event</text></g><g id="shape72-84" transform="translate(225.614,-314.812)"><title>Sheet.72</title><desc>Sensor sleep conditions met</desc><rect width="89.441" height="21.633" x="0" y="479.946" class="st7"/><text x="12.62" y="487.46" class="st9">Sensor sleep <tspan x="9.26" class="st12" dy="1.2em">conditions met</tspan></text></g><g id="shape73-88" transform="translate(71.3472,-91.8951)"><title>Nordic Middle Grey</title><path d="M0 501.58 L282.04 501.58 L282.04 283.63 L0 283.63 L0 501.58 Z" class="st21"/></g><g id="shape74-90" transform="translate(82.1161,-204.531)"><title>Nordic Middle Grey.17</title><path d="M0 501.58 L347.81 501.58 L347.81 418.59 L0 418.59 L0 501.58 Z" class="st22"/></g><g id="shape75-92" transform="translate(227.061,-267.991)"><title>Sheet.75</title><desc>CONFIG_CAF_SENSOR_MANAGER_ACTIVE_PM</desc><rect width="203" height="22.323" x="0" y="479.256" class="st7"/><text x="8.38" y="492.82" class="st23">CONFIG_CAF_SENSOR_MANAGER_ACTIVE_PM</text></g><g id="shape76-95" transform="translate(282.467,-164.887)"><title>Sheet.76</title><desc>wake_up_event</desc><rect width="107.756" height="21.633" x="0" y="479.946" class="st7"/><text x="15.35" y="494.06" class="st20">wake_up_event</text></g><g id="shape77-98" transform="translate(81.2788,-101.538)"><title>Nordic Middle Grey.19</title><path d="M0 501.58 L405.34 501.58 L405.34 418.59 L0 418.59 L0 501.58 Z" class="st24"/></g><g id="shape78-100" transform="translate(294.686,-98.1053)"><title>Sheet.78</title><desc>CONFIG_CAF_SENSOR_MANAGER_PM</desc><rect width="218.268" height="22.323" x="0" y="479.256" class="st7"/><text x="32.9" y="492.82" class="st25">CONFIG_CAF_SENSOR_MANAGER_PM</text></g><g id="shape79-103" transform="translate(228.705,-103.395)"><title>Sheet.79</title><desc>Sensor error</desc><rect width="75.268" height="21.633" x="0" y="479.946" class="st7"/><text x="7.07" y="494.06" class="st9">Sensor error</text></g></g></svg>