<svg xmlns="http://www.w3.org/2000/svg" xmlns:ev="http://www.w3.org/2001/xml-events" xmlns:xlink="http://www.w3.org/1999/xlink" width="793.719" height="728.336" class="st10" color-interpolation-filters="sRGB" viewBox="0 0 595.289 546.252" xml:space="preserve"><style type="text/css">.st1,.st2{fill:#d9e1e2;stroke:none;stroke-width:1}.st2{fill:#00a9ce}.st3{fill:#fff;font-family:Arial;font-size:.916672em}.st4{fill:#0033a0;stroke:none;stroke-width:1}.st5{font-size:1em}.st6{fill:#0077c8}.st6,.st7,.st8,.st9{stroke:none;stroke-width:1}.st7{fill:#333f48}.st8{fill:none}.st9{fill:#768692}.st10{fill:none;fill-rule:evenodd;font-size:12px;overflow:visible;stroke-linecap:square;stroke-miterlimit:3}</style><g><title>Page-1</title><g id="shape28-1" transform="translate(1,-1)"><title>Nordic Light Grey</title><rect width="442.987" height="544.252" x="0" y="2" class="st1"/></g><g id="shape30-3" transform="translate(10.3634,-409.928)"><title>Nordic Blue.8</title><desc>Socket API</desc><rect width="164.209" height="56.446" x="0" y="489.806" class="st2"/><text x="54.9" y="521.33" class="st3">Socket API</text></g><g id="shape31-6" transform="translate(10.3634,-349.241)"><title>Nordic Blue.9</title><desc>TCP/IP stack</desc><rect width="164.209" height="56.446" x="0" y="489.806" class="st2"/><text x="50.01" y="521.33" class="st3">TCP/IP stack</text></g><g id="shape32-9" transform="translate(10.3634,-288.554)"><title>Nordic Blue.10</title><desc>Network IF abstraction</desc><rect width="164.209" height="56.446" x="0" y="489.806" class="st2"/><text x="27.09" y="521.33" class="st3">Network IF abstraction</text></g><g id="shape33-12" transform="translate(11.9033,-218.028)"><title>Nordic Blue.11</title><desc>Data IF</desc><rect width="164.209" height="60.125" x="0" y="486.127" class="st4"/><text x="64.07" y="519.49" class="st3">Data IF</text></g><g id="shape34-15" transform="translate(185.003,-288.554)"><title>Nordic Blue.1000</title><desc>Network management API</desc><rect width="167.855" height="177.821" x="0" y="368.431" class="st2"/><text x="63.76" y="454.04" class="st3">Network <tspan x="41.43" class="st5" dy="1.2em">management API</tspan></text></g><g id="shape35-19" transform="translate(185.003,-218.028)"><title>Nordic Blue.1001</title><desc>Control IF</desc><rect width="167.855" height="28.223" x="0" y="518.029" class="st4"/><text x="59.78" y="535.44" class="st3">Control IF</text></g><g id="shape36-22" transform="translate(185.003,-249.93)"><title>Nordic Blue.1002</title><desc>Supplicant</desc><rect width="167.855" height="28.223" x="0" y="518.029" class="st4"/><text x="58.24" y="535.44" class="st3">Supplicant</text></g><g id="shape37-25" transform="translate(11.7032,-176.721)"><title>Nordic Blue.1003</title><desc>MAC interface / HAL</desc><rect width="341.435" height="35.544" x="0" y="510.708" class="st4"/><text x="120.59" y="531.78" class="st3">MAC interface / HAL</text></g><g id="shape39-28" transform="translate(10.3634,-82.6069)"><title>Nordic Blue.1005</title><desc>MAC layer</desc><rect width="342.495" height="60.125" x="0" y="486.127" class="st6"/><text x="145.58" y="519.49" class="st3">MAC layer</text></g><g id="shape41-31" transform="translate(360.704,-288.554)"><title>Nordic Blue.1008</title><rect width="32.616" height="177.821" x="0" y="368.431" class="st7"/></g><g id="shape42-33" transform="translate(359.643,-331.343)"><title>Sheet.42</title><desc>Network stack</desc><rect width="39.532" height="78.585" x="0" y="467.667" class="st8"/><text x="-18.72" y="-541.5" class="st3" transform="rotate(180)" writing-mode="tb-rl">Network stack</text></g><g id="shape43-36" transform="translate(360.704,-176.721)"><title>Nordic Blue.1010</title><rect width="32.616" height="101.432" x="0" y="444.82" class="st7"/></g><g id="shape44-38" transform="translate(367.62,-183.236)"><title>Sheet.44</title><desc>Wi-Fi host stack</desc><rect width="32.616" height="89.072" x="0" y="457.18" class="st8"/><text x="-8.66" y="-540.83" class="st3" transform="rotate(180)" writing-mode="tb-rl">Wi-Fi host stack</text></g><g id="shape45-41" transform="translate(400.236,-176.721)"><title>Nordic Blue.1012</title><rect width="32.616" height="357.491" x="0" y="188.761" class="st9"/></g><g id="shape46-43" transform="translate(407.027,-262.981)"><title>Sheet.46</title><desc>Host MCU (nRF52840 / nRF5340)</desc><rect width="19.034" height="177.821" x="0" y="368.431" class="st8"/><text x="-8.47" y="-540.79" class="st3" transform="rotate(180)" writing-mode="tb-rl">Host MCU (nRF52840 / nRF5340)</text></g><g id="shape47-46" transform="translate(360.704,-16.2917)"><title>Nordic Blue.1014</title><rect width="32.616" height="126.441" x="0" y="419.811" class="st7"/></g><g id="shape48-48" transform="translate(358.947,-32.7004)"><title>Sheet.48</title><desc>Wi-Fi baseband</desc><rect width="39.532" height="89.072" x="0" y="457.18" class="st8"/><text x="-18.72" y="-540.23" class="st3" transform="rotate(180)" writing-mode="tb-rl">Wi-Fi baseband</text></g><g id="shape49-51" transform="translate(400.236,-16.2917)"><title>Nordic Blue.1016</title><rect width="32.616" height="126.441" x="0" y="419.811" class="st9"/></g><g id="shape50-53" transform="translate(407.027,-49.0134)"><title>Sheet.50</title><desc>nRF700x</desc><rect width="19.034" height="56.446" x="0" y="489.806" class="st8"/><text x="-8.47" y="-540.35" class="st3" transform="rotate(180)" writing-mode="tb-rl">nRF700x</text></g><g id="shape52-56" transform="translate(10.426,-16.2917)"><title>Nordic Blue.52</title><desc>Physical layer</desc><rect width="342.495" height="60.125" x="0" y="486.127" class="st6"/><text x="137.32" y="519.49" class="st3">Physical layer</text></g><g id="shape54-59" transform="translate(10.3634,-474.087)"><title>Nordic Blue.54</title><desc>Application layer protocols</desc><rect width="342.495" height="60.125" x="0" y="486.127" class="st2"/><text x="107.05" y="519.49" class="st3">Application layer protocols</text></g></g></svg>