<svg xmlns="http://www.w3.org/2000/svg" xmlns:ev="http://www.w3.org/2001/xml-events" xmlns:xlink="http://www.w3.org/1999/xlink" width="776.328" height="277.667" class="st7" color-interpolation-filters="sRGB" viewBox="0 0 582.246 208.25" xml:space="preserve"><style type="text/css">.st1{fill:#c4dbf2;stroke:#000;stroke-linecap:round;stroke-linejoin:round;stroke-width:.24}.st2{fill:#000;font-family:Arial;font-size:1.00001em}.st3{font-size:1em}.st4,.st5{stroke-linecap:round;stroke-linejoin:round}.st4{stroke:#000;stroke-dasharray:1.75,1.25;stroke-width:.25}.st5{fill:none;stroke:none;stroke-width:.75}.st6{fill:#000;font-family:Calibri;font-size:1.00001em}.st7{fill:none;fill-rule:evenodd;font-size:12px;overflow:visible;stroke-linecap:square;stroke-miterlimit:3}</style><g><title>Page-1</title><g id="shape227-1" transform="translate(115.375,-160.375)"><title>Sheet.227</title><desc>NDEF record</desc><rect width="182.54" height="47.5" x="0" y="160.75" class="st1"/><text x="56.26" y="188.1" class="st2">NDEF record</text></g><g id="shape242-4" transform="translate(297.915,-160.375)"><title>Sheet.242</title><desc>NDEF record</desc><rect width="182.54" height="47.5" x="0" y="160.75" class="st1"/><text x="56.26" y="188.1" class="st2">NDEF record</text></g><g id="shape244-7" transform="translate(115.375,-80.375)"><title>Sheet.244</title><desc>Record header</desc><rect width="116.667" height="47.5" x="0" y="160.75" class="st1"/><text x="18.64" y="188.1" class="st2">Record header</text></g><g id="shape245-10" transform="translate(232.042,-80.375)"><title>Sheet.245</title><desc>Record payload</desc><rect width="201.667" height="47.5" x="0" y="160.75" class="st1"/><text x="58.81" y="188.1" class="st2">Record payload</text></g><g id="shape249-13" transform="translate(115.375,-0.375)"><title>Sheet.249</title><desc>Flags &amp; TNF 1 byte</desc><rect width="75" height="47.5" x="0" y="160.75" class="st1"/><text x="3.83" y="180.9" class="st2">Flags &amp; TNF <tspan x="21.15" class="st3" dy="1.2em">1 </tspan>byte</text></g><g id="shape250-17" transform="translate(190.375,-0.375)"><title>Sheet.250</title><desc>Type Length 1 byte</desc><rect width="75" height="47.5" x="0" y="160.75" class="st1"/><text x="4.14" y="180.9" class="st2">Type Length <tspan x="21.15" class="st3" dy="1.2em">1 </tspan>byte</text></g><g id="shape251-21" transform="translate(265.375,-0.375)"><title>Sheet.251</title><desc>Payload Length 1 byte or 4 bytes</desc><rect width="95.556" height="47.5" x="0" y="160.75" class="st1"/><text x="6.08" y="180.9" class="st2">Payload Length <tspan x="3.42" class="st3" dy="1.2em">1 </tspan>byte or 4 bytes</text></g><g id="shape252-25" transform="translate(360.931,-0.375)"><title>Sheet.252</title><desc>ID Length (optional) 1 byte</desc><rect width="75" height="47.5" x="0" y="160.75" class="st1"/><text x="11.48" y="173.7" class="st2">ID Length <tspan x="12.49" class="st3" dy="1.2em">(</tspan>optional) <tspan x="21.15" class="st3" dy="1.2em">1 </tspan>byte</text></g><g id="shape276-30" transform="translate(435.931,-0.375)"><title>Sheet.276</title><desc>Payload Type (optional) variable</desc><rect width="82.857" height="47.5" x="0" y="160.75" class="st1"/><text x="4.74" y="173.7" class="st2">Payload Type <tspan x="16.41" class="st3" dy="1.2em">(</tspan>optional) <tspan x="20.42" class="st3" dy="1.2em">variable</tspan></text></g><g id="shape277-35" transform="translate(518.788,-0.375)"><title>Sheet.277</title><desc>Payload ID (optional) variable</desc><rect width="63.333" height="47.5" x="0" y="160.75" class="st1"/><text x="2.32" y="173.7" class="st2">Payload ID <tspan x="6.65" class="st3" dy="1.2em">(</tspan>optional) <tspan x="10.65" class="st3" dy="1.2em">variable</tspan></text></g><g id="shape300-40" transform="translate(383.139,-142.138) rotate(24.1573)"><title>Zoom.inn2</title><path d="M0 208.25 L79.42 208.25" class="st4"/></g><g id="shape301-43" transform="translate(-92.875,80.375) rotate(-90)"><title>Zoom.inn1</title><path d="M0 208.25 L32.5 208.25" class="st4"/></g><g id="shape302-46" transform="translate(251.292,-79.4834) rotate(5.30391)"><title>Zoom.inn2.302</title><path d="M0 208.25 L351.58 208.25" class="st4"/></g><g id="shape303-49" transform="translate(-92.875,160.375) rotate(-90)"><title>Zoom.inn1.303</title><path d="M0 208.25 L32.5 208.25" class="st4"/></g><g id="shape304-52" transform="translate(0.375,-160.375)"><title>Sheet.304</title><desc>NDEF message</desc><rect width="115" height="47.5" x="0" y="160.75" class="st5"/><text x="21.74" y="188.1" class="st6">NDEF message</text></g><g id="shape306-55" transform="translate(0.375,-80.375)"><title>Sheet.306</title><desc>NDEF record</desc><rect width="115" height="47.5" x="0" y="160.75" class="st5"/><text x="26.87" y="188.1" class="st6">NDEF record</text></g><g id="shape307-58" transform="translate(0.375,-0.375)"><title>Sheet.307</title><desc>NDEF record header</desc><rect width="115" height="47.5" x="0" y="160.75" class="st5"/><text x="8.27" y="188.1" class="st6">NDEF record header</text></g></g></svg>