<svg xmlns="http://www.w3.org/2000/svg" xmlns:ev="http://www.w3.org/2001/xml-events" xmlns:xlink="http://www.w3.org/1999/xlink" width="433.147" height="141.105" class="st12" color-interpolation-filters="sRGB" viewBox="0 0 324.861 105.828" xml:space="preserve"><style type="text/css">.st1{stroke:#000;stroke-width:.5}.st2{fill:#0077c8;stroke:none;stroke-linecap:round;stroke-linejoin:round;stroke-width:.72}.st3{fill:#feffff;font-family:Calibri;font-size:1.00001em}.st4{fill:none;stroke:none;stroke-width:1}.st5{font-family:Calibri;font-size:1.00001em}.st5,.st6{fill:#333f48}.st6,.st7{font-family:Calibri}.st6{font-size:1.16666em}.st7{fill:#feffff;font-size:.833336em}.st8{fill:#00a9ce;stroke:none;stroke-linecap:round;stroke-linejoin:round;stroke-width:.72}.st9{fill:#000;font-family:Calibri;font-size:1.00001em}.st10{fill:#6ad1e3;stroke:none;stroke-linecap:round;stroke-linejoin:round;stroke-width:.72}.st11{stroke:#000;stroke-linecap:butt;stroke-width:.5}.st12{fill:none;fill-rule:evenodd;font-size:12px;overflow:visible;stroke-linecap:square;stroke-miterlimit:3}</style><g><title>Page-1</title><g id="shape489-1" transform="translate(165.363,41.7777) rotate(-90)"><title>Right Brace.31</title><path d="M-0 105.83 A36.2425 34.4566 -180 0 0 13.54 85.24 L13.54 2.88 L27.07 2.88 L13.54 2.88 L13.54 -79.48 A36.2425 34.4566 -180 0 0 0 -100.07" class="st1"/></g><g id="shape485-4" transform="translate(65.3279,-21.5311)"><title>s.3</title><desc>Base address</desc><rect width="153.94" height="42.52" x="0" y="63.309" class="st2"/><text x="45.19" y="88.17" class="st3">Base address</text></g><g id="shape486-7" transform="translate(1,-1.53112)"><title>Sheet.486</title><desc>1 byte</desc><rect width="64.342" height="20" x="0" y="85.829" class="st4"/><text x="16.91" y="99.43" class="st5">1 byte</text></g><g id="shape487-10" transform="translate(65.3279,-1.53112)"><title>Sheet.487</title><desc>2-4 bytes</desc><rect width="153.94" height="20" x="0" y="85.829" class="st4"/><text x="54.48" y="99.43" class="st5">2-4 bytes</text></g><g id="shape488-13" transform="translate(219.268,-1)"><title>Sheet.488</title><desc>1 byte</desc><rect width="51.431" height="20.531" x="0" y="85.297" class="st4"/><text x="10.45" y="99.16" class="st5">1 byte</text></g><g id="shape490-16" transform="translate(64.7113,-91.1217)"><title>Sheet.490</title><desc>Address</desc><rect width="207.53" height="12.614" x="0" y="93.214" class="st4"/><text x="80.96" y="103.72" class="st6">Address</text></g><g id="shape491-19" transform="translate(65.2962,-43.7358)"><title>Sheet.491</title><desc>MSB</desc><rect width="28.931" height="20" x="0" y="85.829" class="st4"/><text x="5.17" y="98.83" class="st7">MSB</text></g><g id="shape494-22" transform="translate(219.268,-21.5311)"><title>s.1</title><desc>Prefix</desc><rect width="51.431" height="42.52" x="0" y="63.309" class="st8"/><text x="11.73" y="88.17" class="st9">Prefix</text></g><g id="shape495-25" transform="translate(1,-21.5311)"><title>s.2</title><desc>Preamble</desc><rect width="64.342" height="42.52" x="0" y="63.309" class="st10"/><text x="8.81" y="88.17" class="st9">Preamble</text></g><g id="shape496-28" transform="translate(282.243,-32.791)"><title>Sheet.496</title><desc>...</desc><rect width="34.614" height="20" x="0" y="85.829" class="st4"/><text x="12.76" y="99.43" class="st5">...</text></g><g id="shape497-31" transform="translate(270.698,-56.7752)"><title>Dynamic connector</title><path d="M0 98.74 L53.66 98.74" class="st11"/></g><g id="shape498-34" transform="translate(270.698,-14.6335)"><title>Dynamic connector.498</title><path d="M0 98.74 L53.66 98.74" class="st11"/></g></g></svg>