<svg xmlns="http://www.w3.org/2000/svg" xmlns:ev="http://www.w3.org/2001/xml-events" xmlns:xlink="http://www.w3.org/1999/xlink" width="690.976" height="415.441" class="st23" color-interpolation-filters="sRGB" viewBox="0 0 518.232 311.581" xml:space="preserve"><style type="text/css">.st1{fill:none;stroke:none;stroke-linecap:round;stroke-linejoin:round;stroke-width:.72}.st2{fill:#000;font-family:Arial;font-size:.833336em}.st3,.st4{fill:#000;stroke:none;stroke-linecap:round;stroke-linejoin:round;stroke-width:.24}.st4{fill:#d9e1e2;stroke-width:.72}.st5{fill:#000;font-family:Arial;font-size:.666664em}.st6,.st7{stroke:#333f48}.st6{marker-end:url(#mrkr13-25);stroke-linecap:butt;stroke-width:1}.st7{fill:#333f48;fill-opacity:1;stroke-opacity:1;stroke-width:.35714285714286}.st8{fill:#d0df00;stroke:none;stroke-linecap:round;stroke-linejoin:round;stroke-width:.72}.st9{font-size:1em}.st10{fill:#009cde;stroke:none;stroke-linecap:round;stroke-linejoin:round;stroke-width:.72}.st11{fill:#fff;font-family:Arial;font-size:.666664em}.st12,.st13{fill:#000;stroke:#000;stroke-linecap:round;stroke-linejoin:round;stroke-width:.24}.st13{fill:#6ad1e3;stroke:none;stroke-width:.72}.st14{fill:#00a9ce}.st15{stroke:red;stroke-width:1.5}.st16{marker-end:url(#mrkr13-121);marker-start:url(#mrkr13-119);stroke:#000;stroke-linecap:round;stroke-linejoin:round;stroke-width:1}.st17{fill:#000;fill-opacity:1;stroke:#000;stroke-opacity:1;stroke-width:.35714285714286}.st18{stroke:#000;stroke-linecap:round;stroke-linejoin:round;stroke-width:.75}.st19{fill:#00a9ce;stroke:none}.st19,.st20,.st21{stroke-width:1}.st20{marker-start:url(#mrkr13-141);stroke:#333f48;stroke-dasharray:8,4;stroke-linecap:butt}.st21{fill:none;stroke:none}.st22{fill:#000;font-family:Arial;font-size:.75em}.st23{fill:none;fill-rule:evenodd;font-size:12px;overflow:visible;stroke-linecap:square;stroke-miterlimit:3}</style><defs id="Markers"><g id="lend13"><path d="M 3 1 L 0 0 L 3 -1 L 3 1" style="stroke:none"/></g><marker id="mrkr13-25" class="st7" markerUnits="strokeWidth" orient="auto" overflow="visible" refX="-8.4"><use transform="scale(-2.8,-2.8)" xlink:href="#lend13"/></marker><marker id="mrkr13-119" class="st17" markerUnits="strokeWidth" orient="auto" overflow="visible" refX="8.04"><use transform="scale(2.8)" xlink:href="#lend13"/></marker><marker id="mrkr13-121" class="st17" markerUnits="strokeWidth" orient="auto" overflow="visible" refX="-8.4"><use transform="scale(-2.8,-2.8)" xlink:href="#lend13"/></marker><marker id="mrkr13-141" class="st7" markerUnits="strokeWidth" orient="auto" overflow="visible" refX="8.04"><use transform="scale(2.8)" xlink:href="#lend13"/></marker></defs><g><title>Page-1</title><g id="group486-1" transform="translate(0.375,-1)"><title>Sheet.486</title><g id="shape335-2" transform="translate(0.844558,-155.432)"><title>Sheet.335</title><desc>PTX operation</desc><rect width="80.921" height="17.706" x="0" y="293.874" class="st1"/><text x="4" y="305.73" class="st2">PTX operation</text></g><g id="shape336-5" transform="translate(202.134,-154.64)"><title>Rectangle.336</title><rect width="1.866" height="29.618" x="0" y="281.962" class="st3"/></g><g id="shape337-7" transform="translate(157.067,-154.652)"><title>Rectangle.337</title><rect width="1.866" height="29.618" x="0" y="281.962" class="st3"/></g><g id="shape339-9" transform="translate(0.844558,-90.8421)"><title>Sheet.339</title><desc>PRX operation</desc><rect width="80.921" height="12.756" x="0" y="298.825" class="st1"/><text x="4" y="308.2" class="st2">PRX operation</text></g><g id="shape340-12" transform="translate(201.025,-86.2139)"><title>Rectangle.340</title><rect width="1.866" height="29.618" x="0" y="281.962" class="st3"/></g><g id="shape431-14" transform="translate(83.6309,-86.2139)"><title>s.free.431</title><desc>Listen</desc><rect width="73.437" height="29.618" x="0" y="281.962" class="st4"/><text x="26.04" y="299.17" class="st5">Listen</text></g><g id="shape432-17" transform="translate(248.368,-86.2139)"><title>s.free.432</title><desc>Listen</desc><rect width="37.086" height="29.618" x="0" y="281.962" class="st4"/><text x="7.87" y="299.17" class="st5">Listen</text></g><g id="shape433-20" transform="translate(490.492,157.27) rotate(90)"><title>Sheet.433</title><path d="M0 311.58 L30.13 311.58" class="st6"/></g><g id="shape434-26" transform="translate(-86.8839,195.748) rotate(-90)"><title>Sheet.434</title><path d="M0 311.58 L30.62 311.58" class="st6"/></g><g id="shape435-31" transform="translate(158.523,-154.311)"><title>s.435</title><desc>Send packet</desc><rect width="43.611" height="29.618" x="0" y="281.962" class="st8"/><text x="12.46" y="294.37" class="st5">Send <tspan x="10.02" class="st9" dy="1.2em">packet</tspan></text></g><g id="shape436-35" transform="translate(202.891,-86.2139)"><title>s.331</title><desc>Send ACK</desc><rect width="43.611" height="29.618" x="0" y="281.962" class="st8"/><text x="12.46" y="294.37" class="st5">Send <tspan x="13.58" class="st9" dy="1.2em">ACK</tspan></text></g><g id="shape437-39" transform="translate(157.067,-86.2139)"><title>s.437</title><desc>Receive packet</desc><rect width="43.958" height="29.618" x="0" y="281.962" class="st10"/><text x="7.53" y="294.37" class="st11">Receive <tspan x="10.19" class="st9" dy="1.2em">packet</tspan></text></g><g id="shape438-43" transform="translate(329.25,-154.311)"><title>Rectangle.391</title><rect width="1.866" height="29.618" x="0" y="281.962" class="st3"/></g><g id="shape439-45" transform="translate(283.444,-154.311)"><title>Rectangle.392</title><rect width="1.866" height="29.618" x="0" y="281.962" class="st3"/></g><g id="shape440-47" transform="translate(285.31,-154.311)"><title>s.394</title><desc>Resend packet</desc><rect width="43.958" height="29.618" x="0" y="281.962" class="st8"/><text x="8.19" y="294.37" class="st5">Resend <tspan x="10.19" class="st9" dy="1.2em">packet</tspan></text></g><g id="shape441-51" transform="translate(452.034,-154.311)"><title>Rectangle.395</title><rect width="1.866" height="29.618" x="0" y="281.962" class="st3"/></g><g id="shape442-53" transform="translate(406.557,-154.311)"><title>Rectangle.396</title><rect width="1.866" height="29.618" x="0" y="281.962" class="st3"/></g><g id="shape443-55" transform="translate(408.423,-154.311)"><title>s.398</title><desc>Resend packet</desc><rect width="43.958" height="29.618" x="0" y="281.962" class="st8"/><text x="8.19" y="294.37" class="st5">Resend <tspan x="10.19" class="st9" dy="1.2em">packet</tspan></text></g><g id="shape444-59" transform="translate(329.065,-86.2139)"><title>Rectangle.399</title><rect width="1.866" height="29.618" x="0" y="281.962" class="st3"/></g><g id="shape445-61" transform="translate(376.407,-86.2139)"><title>s.free.401</title><desc>Listen</desc><rect width="121.45" height="29.618" x="0" y="281.962" class="st4"/><text x="50.05" y="299.17" class="st5">Listen</text></g><g id="shape446-64" transform="translate(330.931,-86.2139)"><title>s.402</title><desc>Send ACK</desc><rect width="43.611" height="29.618" x="0" y="281.962" class="st8"/><text x="12.46" y="294.37" class="st5">Send <tspan x="13.58" class="st9" dy="1.2em">ACK</tspan></text></g><g id="shape447-68" transform="translate(285.454,-86.2139)"><title>s.447</title><desc>Receive packet</desc><rect width="43.611" height="29.618" x="0" y="281.962" class="st10"/><text x="7.35" y="294.37" class="st11">Receive <tspan x="10.02" class="st9" dy="1.2em">packet</tspan></text></g><g id="shape448-72" transform="translate(619.975,157.27) rotate(90)"><title>Sheet.448</title><path d="M0 311.58 L30.08 311.58" class="st6"/></g><g id="shape449-77" transform="translate(744.042,157.27) rotate(90)"><title>Sheet.449</title><path d="M0 311.58 L30.08 311.58" class="st6"/></g><g id="shape450-82" transform="translate(81.7651,-86.2139)"><title>Rectangle.450</title><rect width="1.866" height="29.618" x="0" y="281.962" class="st12"/></g><g id="shape451-84" transform="translate(246.502,-86.2139)"><title>Rectangle.400</title><rect width="1.866" height="29.618" x="0" y="281.962" class="st3"/></g><g id="shape452-86" transform="translate(374.542,-86.2139)"><title>Rectangle.410</title><rect width="1.866" height="29.618" x="0" y="281.962" class="st3"/></g><g id="shape453-88" transform="translate(204,-154.311)"><title>s.free.411</title><desc>Wait for ACK</desc><rect width="43.611" height="29.618" x="0" y="281.962" class="st13"/><text x="8.03" y="294.37" class="st5">Wait for <tspan x="13.58" class="st9" dy="1.2em">ACK</tspan></text></g><g id="shape454-92" transform="translate(331.134,-154.311)"><title>s.free.412</title><desc>Wait for ACK</desc><rect width="43.611" height="29.618" x="0" y="281.962" class="st13"/><text x="8.03" y="294.37" class="st5">Wait for <tspan x="13.58" class="st9" dy="1.2em">ACK</tspan></text></g><g id="group455-96" transform="translate(224.697,-134.639)"><title>Deletion</title><g id="shape456-97" transform="translate(-4.5,5.6232)"><title>Sheet.456</title><path d="M0 311.58 L9 300.33 L0 311.58 ZM9 311.58 L0 300.33 L9 311.58 Z" class="st14"/><path d="M0 311.58 L9 300.33M9 311.58 L0 300.33" class="st15"/></g></g><g id="shape457-100" transform="translate(41.1599,194.105) rotate(-89.6977)"><title>Sheet.457</title><path d="M0 311.58 L30.08 311.58" class="st6"/></g><g id="group458-105" transform="translate(353.48,-134.925)"><title>Deletion.418</title><g id="shape459-106" transform="translate(-5.14724,6.43199)"><title>Sheet.459</title><path d="M0 311.58 L9 300.33 L0 311.58 ZM9 311.58 L0 300.33 L9 311.58 Z" class="st14"/><path d="M0 311.58 L9 300.33M9 311.58 L0 300.33" class="st15"/></g></g><g id="group460-109" transform="translate(432.462,-137.581)"><title>Deletion.422</title><g id="shape461-110" transform="translate(-4.5,5.6232)"><title>Sheet.461</title><path d="M0 311.58 L9 300.33 L0 311.58 ZM9 311.58 L0 300.33 L9 311.58 Z" class="st14"/><path d="M0 311.58 L9 300.33M9 311.58 L0 300.33" class="st15"/></g></g><g id="shape462-113" transform="translate(159.656,-197.318)"><title>Sheet.462</title><path d="M8.04 311.58 L8.4 311.58 L114.48 311.58" class="st16"/></g><g id="shape465-122" transform="translate(453.899,-154.311)"><title>s.free.450</title><desc>Wait for ACK</desc><rect width="43.958" height="29.618" x="0" y="281.962" class="st13"/><text x="8.2" y="294.37" class="st5">Wait for <tspan x="13.75" class="st9" dy="1.2em">ACK</tspan></text></g><g id="shape334-126" transform="translate(0,-154.311)"><title>Sheet.334</title><path d="M0 311.58 L513.39 311.58" class="st18"/></g><g id="shape338-129" transform="translate(0,-86.2139)"><title>Sheet.338</title><path d="M0 311.58 L513.39 311.58" class="st18"/></g><g id="shape466-132" transform="translate(133.442,-0.14113)"><title>Nordic Middle Grey.466</title><desc>Event with event ID NRF_ESB_EVENT_RX_RECEIVED</desc><rect width="138.898" height="42.828" x="0" y="268.752" class="st19"/><text x="34.99" y="287.77" class="st11">Event with event ID <tspan x="4.98" class="st9" dy="1.2em">NRF_ESB_EVENT_RX_RECEIVED</tspan></text></g><g id="shape467-136" transform="translate(195.804,-86.2139)"><title>Dynamic connector.467</title><path d="M7.09 319.62 L7.09 319.98 L7.09 354.83" class="st20"/></g><g id="shape469-142" transform="translate(281.405,0)"><title>Nordic Middle Grey.469</title><desc>Packet recognized as retransmit attempt and discarded by PRX.</desc><rect width="138.898" height="42.828" x="0" y="268.752" class="st19"/><text x="12.31" y="287.77" class="st11">Packet recognized as retransmit <tspan x="14.09" class="st9" dy="1.2em">attempt and discarded by PRX.</tspan></text></g><g id="shape470-146" transform="translate(323.884,-86.2139)"><title>Dynamic connector.470</title><path d="M7.06 319.62 L7.06 319.98 L7.13 354.97" class="st20"/></g><g id="shape472-151" transform="translate(121.282,-226.911)"><title>Nordic Middle Grey.472</title><desc>Initial packet</desc><rect width="73.437" height="29.618" x="0" y="281.962" class="st19"/><text x="14.48" y="299.17" class="st11">Initial packet</text></g><g id="shape473-154" transform="translate(165.348,-183.929)"><title>Dynamic connector.473</title><path d="M-6.92 303.54 L-6.93 303.18 L-7.35 268.6" class="st20"/></g><g id="shape475-159" transform="translate(247.659,-226.911)"><title>Nordic Middle Grey.475</title><desc>Retransmit attempt 1</desc><rect width="103.195" height="29.618" x="0" y="281.962" class="st19"/><text x="14.47" y="299.17" class="st11">Retransmit attempt 1</text></g><g id="shape478-162" transform="translate(291.395,-183.929)"><title>Dynamic connector.478</title><path d="M-7.04 303.54 L-7.04 303.18 L-7.16 268.6" class="st20"/></g><g id="shape479-167" transform="translate(369.279,-226.911)"><title>Nordic Middle Grey.479</title><desc>Retransmit attempt 2</desc><rect width="103.195" height="29.618" x="0" y="281.962" class="st19"/><text x="14.47" y="299.17" class="st11">Retransmit attempt 2</text></g><g id="shape481-170" transform="translate(384.579,-272.025)"><title>Nordic Middle Grey.481</title><desc>Event with event ID NRF_ESB_EVENT_TX_FAILED</desc><rect width="128.807" height="37.555" x="0" y="274.025" class="st19"/><text x="29.94" y="290.4" class="st11">Event with event ID <tspan x="6.83" class="st9" dy="1.2em">NRF_ESB_EVENT_TX_FAILED</tspan></text></g><g id="shape483-174" transform="translate(400.403,-183.929)"><title>Dynamic connector.483</title><path d="M7.09 303.54 L7.09 303.18 L7.09 268.6" class="st20"/></g><g id="shape484-179" transform="translate(490.771,-183.929)"><title>Dynamic connector.484</title><path d="M7.09 303.54 L7.09 303.18 L7.09 222.73" class="st20"/></g><g id="shape485-184" transform="translate(169.145,-201.254)"><title>Sheet.485</title><desc>Retransmission delay</desc><rect width="103.195" height="9.071" x="0" y="302.51" class="st21"/><text x="8.58" y="309.75" class="st22">Retransmission delay</text></g></g></g></svg>