<svg xmlns="http://www.w3.org/2000/svg" xmlns:ev="http://www.w3.org/2001/xml-events" xmlns:xlink="http://www.w3.org/1999/xlink" width="559.321" height="161.797" class="st9" color-interpolation-filters="sRGB" viewBox="0 0 419.49 121.348" xml:space="preserve"><style type="text/css">.st1{marker-end:url(#mrkr4-9);marker-start:url(#mrkr4-7);stroke:#00a9ce;stroke-dasharray:2,1;stroke-linecap:butt;stroke-width:.25}.st2,.st3{fill:#00a9ce}.st2{fill-opacity:1;stroke:#00a9ce;stroke-opacity:1;stroke-width:.090252707581227}.st3{stroke:none;stroke-width:1}.st4{fill:#fff;font-family:Arial;font-size:.916672em}.st5{stroke:#00a9ce;stroke-dasharray:2,1;stroke-linecap:butt;stroke-width:.25}.st6{fill:none;stroke:none;stroke-width:1}.st7{fill:#00a9ce;font-family:Arial;font-size:.666664em}.st8{font-size:1em}.st9{fill:none;fill-rule:evenodd;font-size:12px;overflow:visible;stroke-linecap:square;stroke-miterlimit:3}</style><defs id="Markers"><g id="lend4"><path d="M 2 1 L 0 0 L 2 -1 L 2 1" style="stroke:none"/></g><marker id="mrkr4-7" class="st2" markerUnits="strokeWidth" orient="auto" overflow="visible" refX="20.72"><use transform="scale(11.08)" xlink:href="#lend4"/></marker><marker id="mrkr4-9" class="st2" markerUnits="strokeWidth" orient="auto" overflow="visible" refX="-22.16"><use transform="scale(-11.08,-11.08)" xlink:href="#lend4"/></marker></defs><g><title>Page-1</title><g id="shape13-1" transform="translate(20.0202,-90.438)"><title>Dynamic connector</title><path d="M5.18 114.26 L5.54 114.26 L193.74 114.26" class="st1"/></g><g id="shape14-10" transform="translate(20.0202,-1)"><title>Nordic Blue.14</title><desc>Active</desc><rect width="76.535" height="31.181" x="0" y="90.167" class="st3"/><text x="23.29" y="109.06" class="st4">Active</text></g><g id="shape16-13" transform="translate(20.0202,-44.5167)"><title>Dynamic connector.16</title><path d="M5.18 114.26 L5.54 114.26 L71 114.26" class="st1"/></g><g id="shape18-20" transform="translate(212.189,-32.1811)"><title>Dynamic connector.20</title><path d="M7.07 121.35 L7.11 56" class="st5"/></g><g id="shape20-23" transform="translate(13.6423,-55.0049)"><title>Sheet.20</title><desc>TWT Wake Duration/Service Period</desc><rect width="94.961" height="21.26" x="0" y="100.089" class="st6"/><text x="10.14" y="108.32" class="st7">TWT <tspan class="st8">Wake Duration/</tspan><tspan x="21.47" class="st8" dy="1.2em">Service Period</tspan></text></g><g id="shape21-28" transform="translate(96.5557,-1)"><title>Nordic Blue.24</title><desc>Sleep</desc><rect width="122.7" height="31.181" x="0" y="90.167" class="st3"/><text x="47.28" y="109.06" class="st4">Sleep</text></g><g id="shape29-31" transform="translate(219.255,-1)"><title>Nordic Blue.29</title><desc>Active</desc><rect width="76.535" height="31.181" x="0" y="90.167" class="st3"/><text x="23.29" y="109.06" class="st4">Active</text></g><g id="shape30-34" transform="translate(295.791,-1)"><title>Nordic Blue.30</title><desc>Sleep</desc><rect width="122.7" height="31.181" x="0" y="90.167" class="st3"/><text x="47.28" y="109.06" class="st4">Sleep</text></g><g id="shape31-37" transform="translate(103.642,-32.1811)"><title>Dynamic connector.31</title><path d="M-7.09 121.35 L-7.09 101.93" class="st5"/></g><g id="shape34-40" transform="translate(12.9134,-32.1811)"><title>Dynamic connector.34</title><path d="M7.07 121.35 L7.11 56" class="st5"/></g><g id="shape36-43" transform="translate(79.5478,-99.0885)"><title>Sheet.36</title><desc>TWT Wake Interval</desc><rect width="76.535" height="21.26" x="0" y="100.089" class="st6"/><text x="4.04" y="113.12" class="st7">TWT <tspan class="st8">Wake Interval</tspan></text></g></g></svg>