<svg xmlns="http://www.w3.org/2000/svg" xmlns:ev="http://www.w3.org/2001/xml-events" xmlns:xlink="http://www.w3.org/1999/xlink" width="758.503" height="226.086" class="st13" color-interpolation-filters="sRGB" viewBox="0 0 568.877 169.564" xml:space="preserve"><style type="text/css">.st1{fill:#768692;stroke:none;stroke-width:1}.st2,.st3{stroke:#333f48}.st2{marker-end:url(#mrkr4-14);stroke-linecap:butt;stroke-width:1}.st3{fill:#333f48;fill-opacity:1;stroke-opacity:1;stroke-width:.28409090909091}.st4,.st5{fill:#d0df00;stroke:none;stroke-width:1}.st5{fill:none}.st6,.st7{fill:#00a9ce;font-family:Arial;font-size:.666664em}.st7{font-size:.583328em}.st8{font-size:1em}.st9{fill:#ffcd00;stroke:none;stroke-width:1}.st10{fill:#fff}.st10,.st11,.st12{font-family:Arial;font-size:.583328em}.st11{fill:#6ad1e3}.st12{fill:#333f48}.st13{fill:none;fill-rule:evenodd;font-size:12px;overflow:visible;stroke-linecap:square;stroke-miterlimit:3}</style><defs id="Markers"><g id="lend4"><path d="M 2 1 L 0 0 L 2 -1 L 2 1" style="stroke:none"/></g><marker id="mrkr4-14" class="st3" markerUnits="strokeWidth" orient="auto" overflow="visible" refX="-7.04"><use transform="scale(-3.52,-3.52)" xlink:href="#lend4"/></marker></defs><g><title>Page-1</title><g id="shape24-1" transform="translate(328.565,-1)"><title>Nordic Middle Grey.24</title><rect width="160.157" height="131.034" x="0" y="38.53" class="st1"/></g><g id="shape6-3" transform="translate(47.7157,-1)"><title>Nordic Middle Grey</title><rect width="39.742" height="131.034" x="0" y="38.53" class="st1"/></g><g id="shape7-5" transform="translate(517.069,-1)"><title>Nordic Middle Grey.7</title><rect width="31.181" height="131.034" x="0" y="38.53" class="st1"/></g><g id="shape8-7" transform="translate(113.132,-1)"><title>Nordic Middle Grey.8</title><rect width="160.157" height="131.034" x="0" y="38.53" class="st1"/></g><g id="shape11-9" transform="translate(30.6643,-107.97)"><title>Dynamic connector</title><path d="M0 176.3 L523.3 176.99" class="st2"/></g><g id="shape12-15" transform="translate(94.5587,-101.502)"><title>Nordic Grass</title><rect width="8.667" height="23.141" x="0" y="146.424" class="st4"/></g><g id="shape13-17" transform="translate(1,-97.0262)"><title>Sheet.13</title><desc>AP</desc><rect width="24.404" height="8.416" x="0" y="161.148" class="st5"/><text x="6.87" y="167.76" class="st6">AP</text></g><g id="shape14-20" transform="translate(30.6643,-19.0734)"><title>Dynamic connector.14</title><path d="M0 163.15 L523.3 161.82" class="st2"/></g><g id="shape16-25" transform="translate(78.0067,-160.148)"><title>Sheet.16</title><desc>TIM_AID_0 = 0</desc><rect width="63.327" height="8.416" x="0" y="161.148" class="st5"/><text x="8.03" y="167.46" class="st7">TIM_AID_0 = 0</text></g><g id="shape17-28" transform="translate(76.1364,-139.108)"><title>Sheet.17</title><desc>Beacon (DTIM)</desc><rect width="49.648" height="8.416" x="0" y="161.148" class="st5"/><text x="11.26" y="162.96" class="st6">Beacon<tspan x="12.38" class="st8" dy="1.2em">(DTIM)</tspan></text></g><g id="shape18-32" transform="translate(147.677,-139.108)"><title>Sheet.18</title><desc>Beacon</desc><rect width="39.742" height="8.416" x="0" y="161.148" class="st5"/><text x="6.3" y="162.96" class="st6">Beacon</text></g><g id="shape19-35" transform="translate(158.486,-101.502)"><title>Nordic Grass.19</title><rect width="8.667" height="23.141" x="0" y="146.424" class="st4"/></g><g id="shape20-37" transform="translate(222.414,-101.502)"><title>Nordic Grass.20</title><rect width="8.667" height="23.141" x="0" y="146.424" class="st4"/></g><g id="shape22-39" transform="translate(206.647,-139.108)"><title>Sheet.22</title><desc>Beacon</desc><rect width="39.742" height="8.416" x="0" y="161.148" class="st5"/><text x="6.3" y="162.96" class="st6">Beacon</text></g><g id="shape23-42" transform="translate(287.544,-101.502)"><title>Nordic Grass.23</title><rect width="8.667" height="23.141" x="0" y="146.424" class="st4"/></g><g id="shape25-44" transform="translate(498.644,-101.252)"><title>Nordic Grass.25</title><rect width="8.667" height="23.141" x="0" y="146.424" class="st4"/></g><g id="shape27-46" transform="translate(302.732,-101.502)"><title>Nordic Sun</title><rect width="17.65" height="23.141" x="0" y="146.424" class="st9"/></g><g id="shape28-48" transform="translate(356.912,-101.502)"><title>Nordic Grass.28</title><rect width="8.667" height="23.141" x="0" y="146.424" class="st4"/></g><g id="shape29-50" transform="translate(426.279,-101.502)"><title>Nordic Grass.29</title><rect width="8.667" height="23.141" x="0" y="146.424" class="st4"/></g><g id="shape31-52" transform="translate(265.617,-141.679)"><title>Sheet.31</title><desc>Beacon (DTIM)</desc><rect width="49.648" height="8.416" x="0" y="161.148" class="st5"/><text x="11.26" y="162.96" class="st6">Beacon<tspan x="12.38" class="st8" dy="1.2em">(DTIM)</tspan></text></g><g id="shape1000-56" transform="translate(342.71,-140.218)"><title>Sheet.1000</title><desc>Beacon</desc><rect width="39.742" height="8.416" x="0" y="161.148" class="st5"/><text x="6.3" y="162.96" class="st6">Beacon</text></g><g id="shape1001-59" transform="translate(409.896,-140.218)"><title>Sheet.1001</title><desc>Beacon</desc><rect width="39.742" height="8.416" x="0" y="161.148" class="st5"/><text x="6.3" y="162.96" class="st6">Beacon</text></g><g id="shape1002-62" transform="translate(477.082,-143.14)"><title>Sheet.1002</title><desc>Beacon (DTIM)</desc><rect width="49.648" height="8.416" x="0" y="161.148" class="st5"/><text x="11.26" y="162.96" class="st6">Beacon<tspan x="12.38" class="st8" dy="1.2em">(DTIM)</tspan></text></g><g id="shape1003-66" transform="translate(47.7157,-60.8479)"><title>Sheet.1003</title><desc>Sleep</desc><rect width="39.742" height="14.173" x="0" y="155.391" class="st5"/><text x="10.92" y="164.58" class="st10">Sleep</text></g><g id="shape1004-69" transform="translate(167.547,-59.4306)"><title>Sheet.1004</title><desc>Sleep</desc><rect width="39.742" height="14.173" x="0" y="155.391" class="st5"/><text x="10.92" y="164.58" class="st10">Sleep</text></g><g id="shape1006-72" transform="translate(520.627,-60.205)"><title>Sheet.1006</title><desc>Sleep</desc><rect width="27.624" height="12.624" x="0" y="156.94" class="st5"/><text x="4.86" y="165.35" class="st10">Sleep</text></g><g id="shape1007-75" transform="translate(293.213,-79.317)"><title>Sheet.1007</title><desc>Bcst data (more data = 0)</desc><rect width="41.021" height="8.416" x="0" y="161.148" class="st5"/><text x="5.92" y="159.06" class="st11">Bcst data<tspan x="11.37" class="st8" dy="1.2em">(more </tspan><tspan x="6.6" class="st8" dy="1.2em">data = 0)</tspan></text></g><g id="shape1008-80" transform="translate(84.7855,-60.8479)"><title>Sheet.1008</title><desc>Awake</desc><rect width="30.047" height="14.173" x="0" y="155.391" class="st5"/><text x="4.52" y="164.58" class="st12">Awake</text></g><g id="shape1009-83" transform="translate(283.154,-57.0431)"><title>Sheet.1009</title><desc>Awake</desc><rect width="39.742" height="14.173" x="0" y="155.391" class="st5"/><text x="9.37" y="164.58" class="st12">Awake</text></g><g id="shape1011-86" transform="translate(257.217,-159.74)"><title>Sheet.1011</title><desc>TIM_AID_0 = 1</desc><rect width="63.327" height="8.416" x="0" y="161.148" class="st5"/><text x="8.03" y="167.46" class="st7">TIM_AID_0 = 1</text></g><g id="shape1013-89" transform="translate(469.333,-160.148)"><title>Sheet.1013</title><desc>TIM_AID_0 = 0</desc><rect width="63.327" height="8.416" x="0" y="161.148" class="st5"/><text x="8.03" y="167.46" class="st7">TIM_AID_0 = 0</text></g><g id="shape1014-92" transform="translate(385.258,-58.0133)"><title>Sheet.1014</title><desc>Sleep</desc><rect width="48.756" height="17.008" x="0" y="152.557" class="st5"/><text x="15.43" y="163.16" class="st10">Sleep</text></g><g id="shape1015-95" transform="translate(488.723,-59.4306)"><title>Sheet.1015</title><desc>Awake</desc><rect width="29.041" height="14.173" x="0" y="155.391" class="st5"/><text x="4.02" y="164.58" class="st12">Awake</text></g></g></svg>