<svg xmlns="http://www.w3.org/2000/svg" xmlns:ev="http://www.w3.org/2001/xml-events" xmlns:xlink="http://www.w3.org/1999/xlink" width="602.893" height="235.816" class="st14" color-interpolation-filters="sRGB" viewBox="0 0 452.17 176.862" xml:space="preserve"><style type="text/css">.st1,.st2{fill:#00a9ce;stroke:none;stroke-linecap:butt;stroke-width:.799994}.st2{fill:none;stroke-width:.75}.st3{fill:#feffff;font-family:Calibri;font-size:1.00001em}.st4,.st5{fill:#0033a0;stroke:none;stroke-linecap:butt;stroke-width:.799994}.st5{fill:#768692}.st6{fill:#fff;font-family:Calibri;font-size:1.00001em}.st7{font-size:1em}.st8{font-size:.83333em}.st9{fill:#333f48;font-family:Calibri;font-size:.75em}.st10{marker-end:url(#mrkr13-44);marker-start:url(#mrkr13-42);stroke-dasharray:1,4;stroke-linecap:butt;stroke-width:1}.st10,.st11,.st12{stroke:#333f48}.st11{fill:#333f48;fill-opacity:1;stroke-opacity:1;stroke-width:.28409090909091}.st12{marker-start:url(#mrkr13-42);stroke-linecap:butt;stroke-width:1}.st13{font-size:1.11111em}.st14{fill:none;fill-rule:evenodd;font-size:12px;overflow:visible;stroke-linecap:square;stroke-miterlimit:3}</style><defs id="Markers"><g id="lend13"><path d="M 3 1 L 0 0 L 3 -1 L 3 1" style="stroke:none"/></g><marker id="mrkr13-42" class="st11" markerUnits="strokeWidth" orient="auto" overflow="visible" refX="10.2"><use transform="scale(3.52)" xlink:href="#lend13"/></marker><marker id="mrkr13-44" class="st11" markerUnits="strokeWidth" orient="auto" overflow="visible" refX="-10.56"><use transform="scale(-3.52,-3.52)" xlink:href="#lend13"/></marker></defs><g><title>Page-1</title><g id="group8-1" transform="translate(334.214,-76.5763)"><title>id3</title><g id="shape9-2"><title>Sheet.9</title><rect width="116.633" height="76.535" x="0" y="100.327" class="st1"/></g><g id="shape10-4" transform="translate(0.0233125,-0.0318698)"><title>Sheet.10</title><path d="M58.28 176.86 L0 176.86 L0 100.37 L116.56 100.37 L116.56 176.86 L58.28 176.86 Z" class="st1"/></g><g id="shape11-6" transform="translate(0.0233125,-0.0318698)"><title>Sheet.11</title><path d="M58.28 176.86 L0 176.86 L0 100.37 L116.56 100.37 L116.56 176.86 L58.28 176.86 Z" class="st1"/></g></g><g id="group12-8" transform="translate(0.776224,-0.759703)"><title>id4</title><g id="shape15-9" transform="translate(0.0237697,-0.0402902)"><title>Sheet.15</title><path d="M72.5 176.86 L0 176.86 L0 1.6 L145 1.6 L145 176.86 L72.5 176.86 Z" class="st1"/></g></g><g id="shape18-11" transform="translate(348.617,-133.269)"><title>Sheet.18</title><desc>NFC Forum Tag</desc><rect width="87.827" height="11.95" x="0" y="164.912" class="st2"/><text x="6.79" y="174.49" class="st3">NFC Forum Tag</text></g><g id="shape25-14" transform="translate(7.94279,-121.643)"><title>Sheet.25</title><desc>NFC poller device</desc><path d="M65.37 176.86 L0 176.86 L0 130.23 L130.73 130.23 L130.73 176.86 L65.37 176.86 Z" class="st4"/><text x="22.93" y="157.15" class="st3">NFC poller device</text></g><g id="shape32-17" transform="translate(7.97783,-9.83057)"><title>Sheet.32</title><desc>Alternative carrier (Bluetooth® LE)</desc><path d="M65.33 176.86 L0 176.86 L0 121.75 L130.66 121.75 L130.66 176.86 L65.33 176.86 Z" class="st5"/><text x="20.88" y="145.71" class="st6">Alternative carrier <tspan x="28.07" class="st7" dy="1.2em">(Bluetooth</tspan><tspan class="st8">®</tspan> LE)</text></g><g id="shape37-22" transform="translate(333.69,-9.83057)"><title>Sheet.37</title><desc>Alternative carrier (Bluetooth® LE)</desc><path d="M58.84 176.86 L0 176.86 L0 121.75 L117.68 121.75 L117.68 176.86 L58.84 176.86 Z" class="st5"/><text x="14.39" y="145.71" class="st6">Alternative carrier <tspan x="21.58" class="st7" dy="1.2em">(Bluetooth</tspan><tspan class="st8">®</tspan> LE)</text></g><g id="shape111-27" transform="translate(169.388,-20.7912)"><title>Sheet.111</title><desc>Data exchange over Bluetooth® LE</desc><rect width="140.113" height="11.95" x="0" y="164.912" class="st2"/><text x="7.28" y="173.59" class="st9">Data exchange over Bluetooth® LE</text></g><g id="shape113-30" transform="translate(7.90714,-76.5763)"><title>Sheet.113</title><desc>TNEP</desc><rect width="130.805" height="40.336" x="0" y="136.527" class="st5"/><text x="52.58" y="160.29" class="st6">TNEP</text></g><g id="shape121-33" transform="translate(341.243,-81.0233)"><title>Sheet.121</title><desc>TNEP</desc><path d="M51.29 176.86 L0 176.86 L0 136.59 L102.58 136.59 L102.58 176.86 L51.29 176.86 Z" class="st5"/><text x="38.46" y="160.33" class="st6">TNEP</text></g><g id="shape148-36" transform="translate(145.536,-30.2985)"><title>Dynamic connector</title><path d="M10.2 169.78 L10.56 169.78 L177.59 169.78" class="st10"/></g><g id="shape149-45" transform="translate(145.703,-80.8282)"><title>Dynamic connector.149</title><path d="M10.2 169.78 L10.56 169.78 L188.75 169.78" class="st12"/></g><g id="shape150-50" transform="translate(333.623,-99.2902)"><title>Dynamic connector.150</title><path d="M-10.2 169.78 L-10.56 169.78 L-188.25 169.78" class="st12"/></g><g id="shape153-55" transform="translate(147.844,-109.693)"><title>Sheet.153</title><desc>Handover Request (Bluetooth® LE, OOB data)</desc><rect width="183.201" height="11.95" x="0" y="164.912" class="st2"/><text x="8.68" y="173.59" class="st9">Handover Request (Bluetooth® LE, OOB data)</text></g><g id="shape154-58" transform="translate(152.137,-71.8868)"><title>Sheet.154</title><desc>Handover Select (Bluetooth® LE, OOB data)</desc><rect width="174.614" height="11.95" x="0" y="164.912" class="st2"/><text x="8.06" y="173.89" class="st9">Handover Select (Bluetooth<tspan class="st13">®</tspan> LE, OOB data)</text></g></g></svg>