<svg xmlns="http://www.w3.org/2000/svg" xmlns:ev="http://www.w3.org/2001/xml-events" xmlns:xlink="http://www.w3.org/1999/xlink" width="602.893" height="167.052" class="st14" color-interpolation-filters="sRGB" viewBox="0 0 452.17 125.29" xml:space="preserve"><style type="text/css">.st1{fill:#00a9ce;stroke:none;stroke-linecap:butt;stroke-width:.799994}.st2{fill:#feffff;font-family:Calibri;font-size:1.00001em}.st3,.st4{fill:#0033a0;stroke:none;stroke-linecap:butt;stroke-width:.799994}.st4{fill:#768692}.st5{fill:#fff;font-family:Calibri;font-size:1.00001em}.st6{font-size:1em}.st7{font-size:.83333em}.st8{fill:none;stroke:none;stroke-linecap:butt;stroke-width:.75}.st9{fill:#333f48;font-family:Calibri;font-size:.75em}.st10{marker-end:url(#mrkr13-31);marker-start:url(#mrkr13-29);stroke-dasharray:1,4;stroke-linecap:butt;stroke-width:1}.st10,.st11,.st12{stroke:#333f48}.st11{fill:#333f48;fill-opacity:1;stroke-opacity:1;stroke-width:.28409090909091}.st12{marker-start:url(#mrkr13-29);stroke-linecap:butt;stroke-width:1}.st13{font-size:1.11111em}.st14{fill:none;fill-rule:evenodd;font-size:12px;overflow:visible;stroke-linecap:square;stroke-miterlimit:3}</style><defs id="Markers"><g id="lend13"><path d="M 3 1 L 0 0 L 3 -1 L 3 1" style="stroke:none"/></g><marker id="mrkr13-29" class="st11" markerUnits="strokeWidth" orient="auto" overflow="visible" refX="10.2"><use transform="scale(3.52)" xlink:href="#lend13"/></marker><marker id="mrkr13-31" class="st11" markerUnits="strokeWidth" orient="auto" overflow="visible" refX="-10.56"><use transform="scale(-3.52,-3.52)" xlink:href="#lend13"/></marker></defs><g><title>Page-1</title><g id="shape11-1" transform="translate(333.69,-70.0646)"><title>Sheet.11</title><desc>NRC Forum Tag</desc><path d="M58.84 125.29 L0 125.29 L0 78.66 L117.68 78.66 L117.68 125.29 L58.84 125.29 Z" class="st1"/><text x="21.22" y="105.57" class="st2">NRC Forum Tag</text></g><g id="group12-4" transform="translate(0.776224,-0.771559)"><title>id4</title><g id="shape15-5" transform="translate(0.0237697,-0.0284344)"><title>Sheet.15</title><path d="M72.5 125.29 L0 125.29 L0 1.6 L145 1.6 L145 125.29 L72.5 125.29 Z" class="st1"/></g></g><g id="shape25-7" transform="translate(7.94279,-70.0646)"><title>Sheet.25</title><desc>NFC poller device</desc><path d="M65.37 125.29 L0 125.29 L0 78.66 L130.73 78.66 L130.73 125.29 L65.37 125.29 Z" class="st3"/><text x="22.93" y="105.57" class="st2">NFC poller device</text></g><g id="shape32-10" transform="translate(7.97783,-9.2755)"><title>Sheet.32</title><desc>Alternative carrier (Bluetooth® LE)</desc><path d="M65.33 125.29 L0 125.29 L0 70.18 L130.66 70.18 L130.66 125.29 L65.33 125.29 Z" class="st4"/><text x="20.88" y="94.14" class="st5">Alternative carrier <tspan x="28.07" class="st6" dy="1.2em">(Bluetooth</tspan><tspan class="st7">®</tspan> LE)</text></g><g id="shape37-15" transform="translate(333.69,-9.2755)"><title>Sheet.37</title><desc>Alternative carrier (Bluetooth® LE)</desc><path d="M58.84 125.29 L0 125.29 L0 70.18 L117.68 70.18 L117.68 125.29 L58.84 125.29 Z" class="st4"/><text x="14.39" y="94.14" class="st5">Alternative carrier <tspan x="21.58" class="st6" dy="1.2em">(Bluetooth</tspan><tspan class="st7">®</tspan> LE)</text></g><g id="shape111-20" transform="translate(171.531,-17.2125)"><title>Sheet.111</title><desc>Data exchange over Bluetooth® LE</desc><rect width="137.439" height="11.95" x="0" y="113.339" class="st8"/><text x="5.94" y="122.01" class="st9">Data exchange over Bluetooth® LE</text></g><g id="shape148-23" transform="translate(145.536,-29.7435)"><title>Dynamic connector</title><path d="M10.2 118.2 L10.56 118.2 L177.59 118.2" class="st10"/></g><g id="shape149-32" transform="translate(145.869,-86.2934)"><title>Dynamic connector.149</title><path d="M10.2 118.2 L10.56 118.2 L187.82 118.2" class="st12"/></g><g id="shape154-37" transform="translate(154.64,-99.6782)"><title>Sheet.154</title><desc>Handover Select (Bluetooth® LE, OOB data)</desc><rect width="171.222" height="11.95" x="0" y="113.339" class="st8"/><text x="6.36" y="122.31" class="st9">Handover Select (Bluetooth<tspan class="st13">®</tspan> LE, OOB data)</text></g></g></svg>