<svg xmlns="http://www.w3.org/2000/svg" xmlns:ev="http://www.w3.org/2001/xml-events" xmlns:xlink="http://www.w3.org/1999/xlink" width="685.438" height="229.514" class="st14" color-interpolation-filters="sRGB" viewBox="0 0 514.079 172.135" xml:space="preserve"><style type="text/css">.st1{fill:#333f48;stroke:none}.st1,.st2,.st3{stroke-width:1}.st2{stroke:#333f48;stroke-linecap:butt}.st3{fill:none;stroke:none}.st4{fill:#333f48;font-family:Calibri;font-size:.833336em}.st5{font-size:1em}.st6{stroke-dasharray:1,2;stroke-linecap:butt;stroke-width:1}.st6,.st7,.st8{stroke:#333f48}.st7{marker-end:url(#mrkr4-30);marker-start:url(#mrkr4-28);stroke-linecap:butt;stroke-width:1}.st8{fill:#333f48;fill-opacity:1;stroke-opacity:1;stroke-width:.35714285714286}.st9{fill:#fff;stroke:none;stroke-linecap:butt;stroke-width:7.2}.st10{fill:#00a9ce;stroke:none;stroke-width:1}.st11{fill:#feffff;font-family:Calibri;font-size:.833336em}.st12,.st13{stroke:#333f48}.st12{marker-start:url(#mrkr13-82);stroke-dasharray:8,4;stroke-linecap:butt;stroke-width:1}.st13{fill:#333f48;fill-opacity:1;stroke-opacity:1;stroke-width:.28409090909091}.st14{fill:none;fill-rule:evenodd;font-size:12px;overflow:visible;stroke-linecap:square;stroke-miterlimit:3}</style><defs id="Markers"><g id="lend4"><path d="M 2 1 L 0 0 L 2 -1 L 2 1" style="stroke:none"/></g><marker id="mrkr4-28" class="st8" markerUnits="strokeWidth" orient="auto" overflow="visible" refX="5.24"><use transform="scale(2.8)" xlink:href="#lend4"/></marker><marker id="mrkr4-30" class="st8" markerUnits="strokeWidth" orient="auto" overflow="visible" refX="-5.6"><use transform="scale(-2.8,-2.8)" xlink:href="#lend4"/></marker><g id="lend13"><path d="M 3 1 L 0 0 L 3 -1 L 3 1" style="stroke:none"/></g><marker id="mrkr13-82" class="st13" markerUnits="strokeWidth" orient="auto" overflow="visible" refX="10.2"><use transform="scale(3.52)" xlink:href="#lend13"/></marker></defs><g><title>Page-1</title><g id="shape240-1" transform="translate(56.2242,-97.4346)"><title>Rectangle</title><rect width="15.914" height="31.89" x="0" y="140.246" class="st1"/></g><g id="shape241-3" transform="translate(6.02038,-97.4346)"><title>Sheet.241</title><path d="M0 172.14 L507.06 172.14" class="st2"/></g><g id="shape242-6" transform="translate(3.51019,-97.4346)"><title>Sheet.242</title><desc>Host operation</desc><rect width="52.714" height="31.89" x="0" y="140.246" class="st3"/><text x="4" y="153.19" class="st4">Host <tspan x="4" class="st5" dy="1.2em">operation</tspan></text></g><g id="shape243-10" transform="translate(9.59824,86.0394) rotate(-90)"><title>Sheet.243</title><path d="M0 172.14 L85.04 172.14" class="st6"/></g><g id="shape244-13" transform="translate(-115.911,86.0394) rotate(-90)"><title>Sheet.244</title><path d="M0 172.14 L85.04 172.14" class="st6"/></g><g id="shape245-16" transform="translate(6.02038,-153.419)"><title>Sheet.245</title><path d="M0 172.14 L507.06 172.14" class="st2"/></g><g id="shape246-19" transform="translate(1,-155.545)"><title>Sheet.246</title><desc>Heartbeat</desc><rect width="55.455" height="12.756" x="0" y="159.38" class="st3"/><text x="7.13" y="168.76" class="st4">Heartbeat</text></g><g id="shape247-22" transform="translate(55.7997,-162.61) rotate(0.00343639)"><title>Sheet.247</title><desc>Timeslot</desc><path d="M5.24 172.14 L5.6 172.14 L120.41 172.14" class="st7"/><rect width="34.962" height="12" x="45.525" y="166.136" class="st9"/><text x="45.53" y="175.14" class="st4">Timeslot</text></g><g id="shape248-33" transform="translate(181.845,-162.631) rotate(0.00343639)"><title>Sheet.248</title><desc>Timeslot</desc><path d="M5.24 172.14 L5.6 172.14 L120.41 172.14" class="st7"/><rect width="34.962" height="12" x="45.525" y="166.136" class="st9"/><text x="45.53" y="175.14" class="st4">Timeslot</text></g><g id="shape249-42" transform="translate(307.856,-162.624) rotate(0.00343639)"><title>Sheet.249</title><desc>Timeslot</desc><path d="M5.24 172.14 L5.6 172.14 L120.41 172.14" class="st7"/><rect width="34.962" height="12" x="45.525" y="166.136" class="st9"/><text x="45.53" y="175.14" class="st4">Timeslot</text></g><g id="shape250-51" transform="translate(260.617,86.0394) rotate(-90)"><title>Sheet.250</title><path d="M0 172.14 L85.04 172.14" class="st6"/></g><g id="shape251-54" transform="translate(135.108,86.0394) rotate(-90)"><title>Sheet.251</title><path d="M0 172.14 L85.04 172.14" class="st6"/></g><g id="shape252-57" transform="translate(110.177,-1)"><title>Rectangle.252</title><desc>Host channel can only be changed synchronously to heartbeat</desc><rect width="153.155" height="36.85" x="0" y="135.285" class="st3"/><text x="7.36" y="150.71" class="st4">Host channel can only be changed <tspan x="20.67" class="st5" dy="1.2em">synchronously to heartbeat</tspan></text></g><g id="shape255-61" transform="translate(72.1385,-97.4346)"><title>Rectangle.2</title><desc>Listen on channel n</desc><rect width="235.105" height="31.89" x="0" y="140.246" class="st10"/><text x="78.25" y="159.19" class="st11">Listen on channel n</text></g><g id="shape256-64" transform="translate(307.243,-97.4346)"><title>Rectangle.5</title><rect width="15.914" height="31.89" x="0" y="140.246" class="st1"/></g><g id="shape257-66" transform="translate(323.157,-97.4346)"><title>Rectangle.6</title><desc>Listen on channel n + 1</desc><rect width="189.921" height="31.89" x="0" y="140.246" class="st10"/><text x="48.37" y="159.19" class="st11">Listen on channel n + 1</text></g><g id="shape258-69" transform="translate(276.051,-2.47402)"><title>Rectangle.8</title><desc>Channel switch and RX startup</desc><rect width="78.299" height="35.376" x="0" y="136.759" class="st3"/><text x="8.35" y="151.45" class="st4">Channel switch <tspan x="9.23" class="st5" dy="1.2em">and RX startup</tspan></text></g><g id="shape260-73" transform="translate(25.0318,-2.47402)"><title>Rectangle.11</title><desc>Channel switch and RX startup</desc><rect width="78.299" height="35.376" x="0" y="136.759" class="st3"/><text x="8.35" y="151.45" class="st4">Channel switch <tspan x="9.23" class="st5" dy="1.2em">and RX startup</tspan></text></g><g id="shape262-77" transform="translate(71.2679,-97.4346)"><title>Dynamic connector.262</title><path d="M-7.09 182.34 L-7.09 182.7 L-7.09 231.72" class="st12"/></g><g id="shape263-83" transform="translate(72.1385,-97.4346)"><title>Dynamic connector.263</title><path d="M0 182.34 L0 182.7 L0 201.93 L114.62 201.93 L114.62 231.72" class="st12"/></g><g id="shape264-88" transform="translate(307.243,-97.4346)"><title>Dynamic connector.264</title><path d="M0 182.34 L0 182.7 L0 201.72 L-120.49 201.72 L-120.49 231.72" class="st12"/></g><g id="shape265-93" transform="translate(308.114,-97.4346)"><title>Dynamic connector.265</title><path d="M7.09 182.34 L7.09 182.7 L7.09 231.72" class="st12"/></g></g></svg>