<svg xmlns="http://www.w3.org/2000/svg" xmlns:ev="http://www.w3.org/2001/xml-events" xmlns:xlink="http://www.w3.org/1999/xlink" width="680.767" height="383.665" class="st15" color-interpolation-filters="sRGB" viewBox="0 0 510.575 287.749" xml:space="preserve"><style type="text/css">.st1,.st2{stroke-width:1}.st1{stroke:#333f48;stroke-linecap:butt}.st2{fill:none;stroke:none}.st3{fill:#333f48;font-family:Calibri;font-size:1.00001em}.st4{font-size:1em}.st5,.st6{fill:#d9e1e2;stroke:none;stroke-width:1}.st6{fill:#333f48}.st7,.st8{stroke:#333f48}.st7{marker-end:url(#mrkr4-30);stroke-linecap:butt;stroke-width:1}.st8{fill:#333f48;fill-opacity:1;stroke-opacity:1;stroke-width:.28409090909091}.st9{marker-start:url(#mrkr4-36);stroke-linecap:butt;stroke-width:1}.st10,.st11,.st9{stroke:#333f48}.st10{marker-end:url(#mrkr13-46);stroke-dasharray:8,4;stroke-linecap:butt;stroke-width:1}.st11{fill:#333f48;fill-opacity:1;stroke-opacity:1;stroke-width:.35714285714286}.st12{fill:#0077c8;stroke:none;stroke-width:1}.st13{fill:#feffff;font-family:Calibri;font-size:1.00001em}.st14{fill:#00a9ce;stroke:none;stroke-width:1}.st15{fill:none;fill-rule:evenodd;font-size:12px;overflow:visible;stroke-linecap:square;stroke-miterlimit:3}</style><defs id="Markers"><g id="lend4"><path d="M 2 1 L 0 0 L 2 -1 L 2 1" style="stroke:none"/></g><marker id="mrkr4-30" class="st8" markerUnits="strokeWidth" orient="auto" overflow="visible" refX="-7.04"><use transform="scale(-3.52,-3.52)" xlink:href="#lend4"/></marker><marker id="mrkr4-36" class="st8" markerUnits="strokeWidth" orient="auto" overflow="visible" refX="6.68"><use transform="scale(3.52)" xlink:href="#lend4"/></marker><g id="lend13"><path d="M 3 1 L 0 0 L 3 -1 L 3 1" style="stroke:none"/></g><marker id="mrkr13-46" class="st11" markerUnits="strokeWidth" orient="auto" overflow="visible" refX="-8.4"><use transform="scale(-2.8,-2.8)" xlink:href="#lend13"/></marker></defs><g><title>Page-1</title><g id="shape295-1" transform="translate(1,-162.548)"><title>Sheet.295</title><path d="M0 287.75 L508.57 287.75" class="st1"/></g><g id="shape296-4" transform="translate(1,-163.021)"><title>Sheet.296</title><desc>Device operation</desc><rect width="100.975" height="30.658" x="0" y="257.091" class="st2"/><text x="4" y="276.02" class="st3">Device operation</text></g><g id="shape297-7" transform="translate(207.444,-1)"><title>Rectangle.21</title><desc>Host callback: nrf_gzll_host_rx_data_ready()</desc><rect width="210.229" height="45.55" x="0" y="242.199" class="st2"/><text x="71.44" y="261.37" class="st3">Host callback: <tspan x="31.42" class="st4" dy="1.2em">nrf_gzll_host_rx_data_ready()</tspan></text></g><g id="shape299-11" transform="translate(1,-85.3247)"><title>Sheet.299</title><path d="M0 287.75 L508.57 287.75" class="st1"/></g><g id="shape300-14" transform="translate(1,-85.9677)"><title>Sheet.300</title><desc>Host operation</desc><rect width="100.975" height="30.658" x="0" y="257.091" class="st2"/><text x="4" y="276.02" class="st3">Host operation</text></g><g id="shape301-17" transform="translate(104.153,-85.7556)"><title>Rectangle.18</title><desc>Listen</desc><rect width="133.145" height="39.418" x="0" y="248.331" class="st5"/><text x="52.18" y="271.64" class="st3">Listen</text></g><g id="shape306-20" transform="translate(362.716,-85.7556)"><title>Rectangle.12</title><desc>Listen</desc><rect width="136.649" height="39.418" x="0" y="248.331" class="st5"/><text x="53.93" y="271.64" class="st3">Listen</text></g><g id="shape311-23" transform="translate(100.65,-85.7556)"><title>Rectangle.13</title><rect width="3.504" height="39.418" x="0" y="248.331" class="st6"/></g><g id="shape312-25" transform="translate(558.987,124.327) rotate(89.9202)"><title>Sheet.312</title><path d="M0 287.75 L30.81 287.75" class="st7"/></g><g id="shape313-31" transform="translate(43.1167,124.761) rotate(-89.8852) scale(-1,1)"><title>Sheet.313</title><path d="M6.68 287.75 L7.04 287.75 L37.24 287.75" class="st9"/></g><g id="shape314-37" transform="translate(275.157,-241.199)"><title>Rectangle.16</title><desc>Device callback: nrf_gzll_device_tx_success()</desc><rect width="183.514" height="45.55" x="0" y="242.199" class="st2"/><text x="53.05" y="261.37" class="st3">Device callback: <tspan x="22.53" class="st4" dy="1.2em">nrf_gzll_device_tx_success()</tspan></text></g><g id="shape316-41" transform="translate(373.971,-241.199)"><title>Dynamic connector.316</title><path d="M-7.06 287.75 L-7.1 318.11" class="st10"/></g><g id="shape317-47" transform="translate(319.608,-46.5497)"><title>Dynamic connector.317</title><path d="M-7.05 287.75 L-7.11 256.94" class="st10"/></g><g id="group318-52" transform="translate(237.299,-85.7556)"><title>Sheet.318</title><g id="shape302-53"><title>Rectangle.5</title><desc>Receive packet</desc><rect width="61.022" height="39.418" x="0" y="248.331" class="st12"/><text x="11.67" y="264.44" class="st13">Receive <tspan x="14.22" class="st4" dy="1.2em">packet</tspan></text></g><g id="shape303-57" transform="translate(60.9404,5.68434E-14)"><title>Rectangle.4</title><rect width="4.123" height="39.418" x="0" y="248.331" class="st6"/></g><g id="shape304-59" transform="translate(65.0151,0)"><title>Rectangle.9</title><desc>Send ACK</desc><rect width="56.953" height="39.418" x="0" y="248.331" class="st14"/><text x="16.43" y="264.44" class="st13">Send <tspan x="18.69" class="st4" dy="1.2em">ACK</tspan></text></g><g id="shape305-63" transform="translate(121.914,0)"><title>Rectangle.11</title><rect width="3.504" height="39.418" x="0" y="248.331" class="st6"/></g></g><g id="group319-65" transform="translate(237.299,-163.021)"><title>Sheet.319</title><g id="shape307-66" transform="translate(3.42923,0)"><title>Rectangle</title><desc>Send packet</desc><rect width="61.022" height="39.418" x="0" y="248.331" class="st14"/><text x="18.46" y="264.44" class="st13">Send <tspan x="14.22" class="st4" dy="1.2em">packet</tspan></text></g><g id="shape308-70" transform="translate(68.5345,0)"><title>Rectangle.2</title><desc>Receive ACK</desc><rect width="61.022" height="39.418" x="0" y="248.331" class="st12"/><text x="11.67" y="264.44" class="st13">Receive <tspan x="20.72" class="st4" dy="1.2em">ACK</tspan></text></g><g id="shape309-74" transform="translate(64.4509,0)"><title>Rectangle.8</title><rect width="4.143" height="39.418" x="0" y="248.331" class="st6"/></g><g id="shape310-76"><title>Rectangle.6</title><rect width="3.504" height="39.418" x="0" y="248.331" class="st6"/></g></g></g></svg>