<svg xmlns="http://www.w3.org/2000/svg" xmlns:ev="http://www.w3.org/2001/xml-events" xmlns:xlink="http://www.w3.org/1999/xlink" width="622.981" height="163.689" class="st11" color-interpolation-filters="sRGB" viewBox="0 0 467.236 122.767" xml:space="preserve"><style type="text/css">.st1{fill:none;stroke:none;stroke-width:1}.st2{fill:#f58220;font-family:Calibri;font-size:1.00001em}.st3{font-size:1em}.st4,.st5{fill:#d9e1e2;stroke:none;stroke-width:1}.st5{fill:#f58220}.st6{fill:#fff;font-family:Calibri;font-size:1.00001em}.st7{fill:#00a9ce;stroke:none;stroke-width:1}.st8,.st9{stroke:#f58220}.st8{marker-end:url(#mrkr13-26);stroke-linecap:butt;stroke-width:1}.st9{fill:#f58220;fill-opacity:1;stroke-opacity:1;stroke-width:.28409090909091}.st10{fill:#333f48;font-family:Calibri;font-size:1.16666em}.st11{fill:none;fill-rule:evenodd;font-size:12px;overflow:visible;stroke-linecap:square;stroke-miterlimit:3}</style><defs id="Markers"><g id="lend13"><path d="M 3 1 L 0 0 L 3 -1 L 3 1" style="stroke:none"/></g><marker id="mrkr13-26" class="st9" markerUnits="strokeWidth" orient="auto" overflow="visible" refX="-10.56"><use transform="scale(-3.52,-3.52)" xlink:href="#lend13"/></marker></defs><g><title>Page-1</title><g id="shape286-1" transform="translate(164.973,-26.6638)"><title>Nordic Blueslate.286</title><desc>System address exchange using pairing address</desc><rect width="133.605" height="28.24" x="0" y="94.527" class="st1"/><text x="4.42" y="105.05" class="st2">System address exchange <tspan x="15.44" class="st3" dy="1.2em">using pairing address</tspan></text></g><g id="shape292-5" transform="translate(314.157,-1)"><title>Nordic Light Grey.292</title><rect width="152.079" height="118.628" x="0" y="4.138" class="st4"/></g><g id="shape289-7" transform="translate(333.504,-59.2296)"><title>Nordic Lake.289</title><desc>Pairing address</desc><rect width="113.386" height="27.32" x="0" y="95.446" class="st5"/><text x="19.59" y="112.71" class="st6">Pairing address</text></g><g id="shape290-10" transform="translate(333.504,-26.6638)"><title>Nordic Blueslate.290</title><desc>System address</desc><rect width="113.386" height="28.24" x="0" y="94.527" class="st7"/><text x="18.78" y="112.25" class="st6">System address</text></g><g id="shape282-13" transform="translate(1,-3.13814)"><title>Nordic Light Grey</title><rect width="152.079" height="118.628" x="0" y="4.138" class="st4"/></g><g id="shape284-15" transform="translate(20.3465,-59.2296)"><title>Nordic Lake</title><desc>Pairing address</desc><rect width="113.386" height="27.32" x="0" y="95.446" class="st5"/><text x="19.59" y="112.71" class="st6">Pairing address</text></g><g id="shape285-18" transform="translate(20.3465,-26.6638)"><title>Nordic Blueslate</title><desc>System address</desc><rect width="113.386" height="28.24" x="0" y="94.527" class="st7"/><text x="18.78" y="112.25" class="st6">System address</text></g><g id="shape287-21" transform="translate(164.973,-33.697)"><title>Dynamic connector</title><path d="M0 115.68 L-20.68 115.68" class="st8"/></g><g id="shape295-27" transform="translate(333.504,-33.697)"><title>Dynamic connector.295</title><path d="M0 115.68 L-24.37 115.68" class="st8"/></g><g id="shape296-32" transform="translate(43.6969,-96.2548)"><title>Nordic Light Grey.298</title><desc>Device</desc><rect width="66.685" height="17.008" x="0" y="105.759" class="st1"/><text x="14.34" y="118.46" class="st10">Device</text></g><g id="shape298-35" transform="translate(356.854,-96.2548)"><title>Sheet.298</title><desc>Host</desc><rect width="66.685" height="17.008" x="0" y="105.759" class="st1"/><text x="20.21" y="118.46" class="st10">Host</text></g></g></svg>