<svg xmlns="http://www.w3.org/2000/svg" xmlns:ev="http://www.w3.org/2001/xml-events" xmlns:xlink="http://www.w3.org/1999/xlink" width="448.651" height="297.084" class="st10" color-interpolation-filters="sRGB" viewBox="0 0 336.488 222.813" xml:space="preserve"><style type="text/css">.st1,.st2{fill:#d9e1e2;stroke:none;stroke-width:1}.st2{fill:#f58220}.st3{fill:#fff;font-family:Calibri;font-size:1.00001em}.st4,.st5{fill:#00a9ce;stroke:none;stroke-width:1}.st5{fill:none}.st6{fill:#333f48;font-family:Calibri;font-size:1.16666em}.st7{fill:#0077c8}.st7,.st8,.st9{stroke:none;stroke-width:1}.st8{fill:#768692}.st9{fill:#0033a0}.st10{fill:none;fill-rule:evenodd;font-size:12px;overflow:visible;stroke-linecap:square;stroke-miterlimit:3}</style><g><title>Page-1</title><g id="group315-1" transform="translate(183.409,-1)"><title>Sheet.315</title><g id="shape301-2"><title>Nordic Light Grey.292</title><rect width="152.079" height="220.813" x="0" y="2" class="st1"/></g><g id="shape302-4" transform="translate(19.3465,-127.601)"><title>Nordic Lake.289</title><desc>Pairing address</desc><rect width="113.386" height="27.32" x="0" y="195.493" class="st2"/><text x="19.59" y="212.75" class="st3">Pairing address</text></g><g id="shape303-7" transform="translate(19.3465,-61.4313)"><title>Nordic Blueslate.290</title><desc>System address</desc><rect width="113.386" height="28.24" x="0" y="194.573" class="st4"/><text x="18.78" y="212.29" class="st3">System address</text></g><g id="shape310-10" transform="translate(42.6969,-199.281)"><title>Sheet.310</title><desc>Host</desc><rect width="66.685" height="17.008" x="0" y="205.805" class="st5"/><text x="20.21" y="218.51" class="st6">Host</text></g><g id="shape312-13" transform="translate(19.3465,-28.3465)"><title>Nordic Blueslate.312</title><desc>Host ID</desc><rect width="113.386" height="28.24" x="0" y="194.573" class="st7"/><text x="38.87" y="212.29" class="st3">Host ID</text></g><g id="shape313-16" transform="translate(19.3465,-94.5162)"><title>Nordic Blueslate.313</title><desc>Packet validation ID</desc><rect width="113.386" height="28.24" x="0" y="194.573" class="st8"/><text x="8.48" y="212.29" class="st3">Packet validation ID</text></g><g id="shape314-19" transform="translate(19.3465,-159.766)"><title>Nordic Lake.314</title><desc>Secret key</desc><rect width="113.386" height="27.32" x="0" y="195.493" class="st9"/><text x="31.54" y="212.75" class="st3">Secret key</text></g></g><g id="group316-22" transform="translate(1,-1)"><title>Sheet.316</title><g id="shape304-23"><title>Nordic Light Grey</title><rect width="152.079" height="220.813" x="0" y="2" class="st1"/></g><g id="shape305-25" transform="translate(19.3465,-123.621)"><title>Nordic Lake</title><desc>Pairing address</desc><rect width="113.386" height="27.32" x="0" y="195.493" class="st2"/><text x="19.59" y="212.75" class="st3">Pairing address</text></g><g id="shape306-28" transform="translate(19.3465,-90.5363)"><title>Nordic Blueslate</title><desc>Packet validation ID</desc><rect width="113.386" height="28.24" x="0" y="194.573" class="st8"/><text x="8.48" y="212.29" class="st3">Packet validation ID</text></g><g id="shape309-31" transform="translate(42.6969,-195.301)"><title>Nordic Light Grey.298</title><desc>Device</desc><rect width="66.685" height="17.008" x="0" y="205.805" class="st5"/><text x="14.34" y="218.51" class="st6">Device</text></g><g id="shape311-34" transform="translate(19.3465,-155.787)"><title>Nordic Lake.311</title><desc>Secret key</desc><rect width="113.386" height="27.32" x="0" y="195.493" class="st9"/><text x="31.54" y="212.75" class="st3">Secret key</text></g></g></g></svg>