<svg xmlns="http://www.w3.org/2000/svg" xmlns:ev="http://www.w3.org/2001/xml-events" xmlns:xlink="http://www.w3.org/1999/xlink" width="699.044" height="356.62" class="st9" color-interpolation-filters="sRGB" viewBox="0 0 524.283 267.465" xml:space="preserve"><style type="text/css">.st1,.st2{fill:none;stroke:#768692;stroke-width:1}.st2{fill:#768692;stroke:none}.st3{fill:#fff;font-family:Calibri;font-size:1.16666em}.st4,.st5{fill:#0033a0;stroke:none;stroke-width:1}.st5{fill:#00a9ce}.st6{font-size:1em}.st7{fill:none;stroke:none;stroke-width:1}.st8{fill:#333f48;font-family:Calibri;font-size:.833336em}.st9{fill:none;fill-rule:evenodd;font-size:12px;overflow:visible;stroke-linecap:square;stroke-miterlimit:3}</style><g><title>Page-1</title><g id="shape1619-1" transform="translate(421.656,-217.357)"><title>Nordic Light Grey</title><rect width="101.628" height="48.774" x="0" y="218.69" class="st1"/></g><g id="shape1596-3" transform="translate(1,-237.71)"><title>Nordic Middle Grey</title><desc>Application</desc><rect width="409.648" height="28.754" x="0" y="238.71" class="st2"/><text x="172.57" y="257.29" class="st3">Application</text></g><g id="shape1612-6" transform="translate(1,-32.2376)"><title>Nordic Middle Grey.1612</title><desc>Link layer</desc><rect width="409.648" height="28.754" x="0" y="238.71" class="st4"/><text x="177.78" y="257.29" class="st3">Link layer</text></g><g id="shape1613-9" transform="translate(1,-1)"><title>Nordic Middle Grey.1613</title><desc>Physical layer</desc><rect width="409.648" height="28.754" x="0" y="238.71" class="st4"/><text x="166.46" y="257.29" class="st3">Physical layer</text></g><g id="shape1597-12" transform="translate(159.354,-206.473)"><title>Nordic Blue</title><desc>Mesh models</desc><rect width="251.293" height="28.754" x="0" y="238.71" class="st5"/><text x="87.39" y="257.29" class="st3">Mesh models</text></g><g id="shape1604-15" transform="translate(1.07589,-206.473)"><title>Nordic Blue.1604</title><desc>GATT services</desc><rect width="155.996" height="28.754" x="0" y="238.71" class="st4"/><text x="38.52" y="257.29" class="st3">GATT services</text></g><g id="shape1605-18" transform="translate(1.07589,-174.696)"><title>Nordic Blue.1605</title><desc>GAP</desc><rect width="155.996" height="28.754" x="0" y="238.71" class="st4"/><text x="65.92" y="257.29" class="st3">GAP</text></g><g id="shape1609-21" transform="translate(1.07589,-63.4751)"><title>Nordic Blue.1609</title><desc>L2CAP</desc><rect width="155.996" height="40.889" x="0" y="226.576" class="st4"/><text x="60.11" y="251.22" class="st3">L2CAP</text></g><g id="group1614-24" transform="translate(1.07589,-107.386)"><title>Sheet.1614</title><g id="shape1606-25" transform="translate(0,-34.2402)"><title>Nordic Blue.1606</title><desc>GATT</desc><rect width="77.998" height="30.131" x="0" y="237.333" class="st4"/><text x="23.71" y="256.6" class="st3">GATT</text></g><g id="shape1607-28"><title>Nordic Blue.1607</title><desc>ATT</desc><rect width="77.998" height="32.186" x="0" y="235.278" class="st4"/><text x="28.13" y="255.57" class="st3">ATT</text></g><g id="shape1608-31" transform="translate(80.1252,1.19371E-12)"><title>Nordic Blue.1608</title><desc>Security Manager</desc><rect width="75.871" height="64.371" x="0" y="203.093" class="st4"/><text x="15.04" y="231.08" class="st3">Security <tspan x="12.35" class="st6" dy="1.2em">Manager</tspan></text></g></g><g id="shape1598-35" transform="translate(159.354,-159.994)"><title>Nordic Blue.1598</title><desc>Access</desc><rect width="147.609" height="43.456" x="0" y="224.009" class="st5"/><text x="54.88" y="249.94" class="st3">Access</text></g><g id="shape1601-38" transform="translate(159.354,-111.932)"><title>Nordic Blue.1601</title><desc>Transport</desc><rect width="147.609" height="45.692" x="0" y="221.773" class="st5"/><text x="46.03" y="248.82" class="st3">Transport</text></g><g id="shape1602-41" transform="translate(159.354,-63.4751)"><title>Nordic Blue.1602</title><desc>Network</desc><rect width="147.609" height="45.692" x="0" y="221.773" class="st5"/><text x="49.14" y="248.82" class="st3">Network</text></g><g id="shape1603-44" transform="translate(310.734,-63.4751)"><title>Nordic Blue.1603</title><desc>Provisioning</desc><rect width="99.914" height="139.975" x="0" y="127.489" class="st5"/><text x="15.15" y="201.68" class="st3">Provisioning</text></g><g id="group1623-47" transform="translate(426.188,-243.35)"><title>Sheet.1623</title><g id="shape1617-48"><title>Nordic Blue.1617</title><rect width="15.458" height="15.706" x="0" y="251.759" class="st5"/></g><g id="shape1620-50" transform="translate(15.4576,0)"><title>Sheet.1620</title><desc>Bluetooth® Mesh</desc><rect width="81.638" height="15.706" x="0" y="251.759" class="st7"/><text x="4" y="263.21" class="st8">Bluetooth® Mesh</text></g></g><g id="group1624-53" transform="translate(426.188,-224.432)"><title>Sheet.1624</title><g id="shape1618-54"><title>Nordic Blue.1618</title><rect width="15.458" height="15.706" x="0" y="251.759" class="st4"/></g><g id="shape1622-56" transform="translate(15.4576,0)"><title>Sheet.1622</title><desc>Bluetooth® LE</desc><rect width="81.638" height="15.706" x="0" y="251.759" class="st7"/><text x="4" y="263.21" class="st8">Bluetooth® LE</text></g></g></g></svg>