<svg xmlns="http://www.w3.org/2000/svg" xmlns:svg="http://www.w3.org/2000/svg" id="svg106" width="460" height="343" fill="#000" fill-opacity="1" stroke="#000" stroke-dasharray="none" stroke-dashoffset="0" stroke-linecap="square" stroke-linejoin="miter" stroke-miterlimit="10" stroke-opacity="1" stroke-width="1" color-interpolation="auto" color-rendering="auto" font-family="'Dialog'" font-size="12" font-style="normal" font-weight="normal" image-rendering="auto" shape-rendering="auto" text-rendering="auto" version="1.1"><metadata id="metadata110"/><defs id="genericDefs"><clipPath id="clipPath118" clipPathUnits="userSpaceOnUse"><rect style="opacity:.34800002;fill:#ffff37;fill-opacity:1" id="rect120" width="443.236" height="324.696" x="10.308" y="9.714"/></clipPath></defs><g id="g104" clip-path="url(#clipPath118)"><defs id="defs1"><clipPath id="clipPath1" clipPathUnits="userSpaceOnUse"><path id="path3" d="M0 0 L460 0 L460 343 L0 343 L0 0 Z"/></clipPath><clipPath id="clipPath2" clipPathUnits="userSpaceOnUse"><path id="path6" d="M235 70 L695 70 L695 413 L235 413 L235 70 Z"/></clipPath></defs><g id="g12" fill="#fff" stroke="#fff" shape-rendering="geometricPrecision" text-rendering="geometricPrecision" transform="translate(-235,-70)"><rect id="rect10" width="460" height="343" x="235" y="70" stroke="none" clip-path="url(#clipPath2)"/></g><g id="g18" fill="#00A9CE" stroke="#00A9CE" shape-rendering="geometricPrecision" text-rendering="geometricPrecision" transform="matrix(1,0,0,1,-235,-70)"><rect id="rect14" width="316.171" height="50" x="250.08" y="175.826" stroke="none" clip-path="url(#clipPath2)"/><rect id="rect16" width="316.171" height="50" x="250.08" y="175.826" fill="none" stroke-linecap="butt" stroke-miterlimit="1.45" clip-path="url(#clipPath2)"/></g><g id="g22" fill="#fff" stroke="#fff" stroke-linecap="butt" stroke-miterlimit="1.45" font-family="sans-serif" font-size="16" shape-rendering="geometricPrecision" text-rendering="geometricPrecision" transform="matrix(1,0,0,1,-235,-70)"><text id="text20" x="380.638" y="206.364" stroke="none" clip-path="url(#clipPath2)" xml:space="preserve">Access</text></g><g id="g28" fill="#333F48" stroke="#333F48" shape-rendering="geometricPrecision" text-rendering="geometricPrecision" transform="matrix(1,0,0,1,-235,-70)"><rect id="rect24" width="429.511" height="50" x="250.08" y="347.908" stroke="none" clip-path="url(#clipPath2)"/><rect id="rect26" width="429.511" height="50" x="250.08" y="347.908" fill="none" stroke-linecap="butt" stroke-miterlimit="1.45" clip-path="url(#clipPath2)"/></g><g id="g32" fill="#fff" stroke="#fff" stroke-linecap="butt" stroke-miterlimit="1.45" font-family="sans-serif" font-size="16" shape-rendering="geometricPrecision" text-rendering="geometricPrecision" transform="matrix(1,0,0,1,-235,-70)"><text id="text30" x="407.765" y="378.447" stroke="none" clip-path="url(#clipPath2)" xml:space="preserve"><tspan id="tspan114">BLE controller</tspan></text></g><g id="g38" fill="#00A9CE" stroke="#00A9CE" shape-rendering="geometricPrecision" text-rendering="geometricPrecision" transform="matrix(1,0,0,1,-235,-70)"><rect id="rect34" width="105.901" height="254.808" x="573.69" y="85.739" stroke="none" clip-path="url(#clipPath2)"/><rect id="rect36" width="105.901" height="254.808" x="573.69" y="85.739" fill="none" stroke-linecap="butt" stroke-miterlimit="1.45" clip-path="url(#clipPath2)"/></g><g id="g42" fill="#fff" stroke="#fff" stroke-linecap="butt" stroke-miterlimit="1.45" font-family="sans-serif" font-size="16" shape-rendering="geometricPrecision" text-rendering="geometricPrecision" transform="matrix(1,0,0,1,-235,-70)"><text id="text40" x="577.949" y="218.682" clip-path="url(#clipPath2)" transform="translate(2)" xml:space="preserve" style="stroke:none">Provisioning</text></g><g id="g48" fill="#00A9CE" stroke="#00A9CE" shape-rendering="geometricPrecision" text-rendering="geometricPrecision" transform="matrix(1,0,0,1,-235,-70)"><rect id="rect44" width="316.171" height="82.726" x="250.08" y="85.739" stroke="none" clip-path="url(#clipPath2)"/><rect id="rect46" width="316.171" height="82.726" x="250.08" y="85.739" fill="none" stroke-linecap="butt" stroke-miterlimit="1.45" clip-path="url(#clipPath2)"/></g><g id="g52" fill="#fff" stroke="#fff" stroke-linecap="butt" stroke-miterlimit="1.45" font-family="sans-serif" font-size="16" shape-rendering="geometricPrecision" text-rendering="geometricPrecision" transform="matrix(1,0,0,1,-235,-70)"><text id="text50" x="379.978" y="106.59" stroke="none" clip-path="url(#clipPath2)" xml:space="preserve">Models</text></g><g id="g58" fill="#00A9CE" stroke="#00A9CE" shape-rendering="geometricPrecision" text-rendering="geometricPrecision" transform="matrix(1,0,0,1,-235,-70)"><rect id="rect54" width="316.171" height="50" x="250.08" y="233.186" stroke="none" clip-path="url(#clipPath2)"/><rect id="rect56" width="316.171" height="50" x="250.08" y="233.186" fill="none" stroke-linecap="butt" stroke-miterlimit="1.45" clip-path="url(#clipPath2)"/></g><g id="g62" fill="#fff" stroke="#fff" stroke-linecap="butt" stroke-miterlimit="1.45" font-family="sans-serif" font-size="16" shape-rendering="geometricPrecision" text-rendering="geometricPrecision" transform="matrix(1,0,0,1,-235,-70)"><text id="text60" x="369.451" y="263.725" stroke="none" clip-path="url(#clipPath2)" xml:space="preserve">Transport</text></g><g id="g68" fill="#00A9CE" stroke="#00A9CE" shape-rendering="geometricPrecision" text-rendering="geometricPrecision" transform="matrix(1,0,0,1,-235,-70)"><rect id="rect64" width="316.171" height="50" x="250.08" y="290.547" stroke="none" clip-path="url(#clipPath2)"/><rect id="rect66" width="316.171" height="50" x="250.08" y="290.547" fill="none" stroke-linecap="butt" stroke-miterlimit="1.45" clip-path="url(#clipPath2)"/></g><g id="g72" fill="#fff" stroke="#fff" stroke-linecap="butt" stroke-miterlimit="1.45" font-family="sans-serif" font-size="16" shape-rendering="geometricPrecision" text-rendering="geometricPrecision" transform="matrix(1,0,0,1,-235,-70)"><text id="text70" x="374.763" y="321.086" stroke="none" clip-path="url(#clipPath2)" xml:space="preserve">Network</text></g><g id="g102" fill="#6AD1E3" stroke="#6AD1E3" shape-rendering="geometricPrecision" text-rendering="geometricPrecision" transform="matrix(1,0,0,1,-235,-70)"><rect id="rect74" width="39.501" height="50" x="256.192" y="114.012" stroke="none" clip-path="url(#clipPath2)"/><rect id="rect76" width="39.501" height="50" x="256.192" y="114.012" fill="none" stroke-linecap="butt" stroke-miterlimit="1.45" clip-path="url(#clipPath2)"/><rect id="rect78" width="39.501" height="50" x="300.387" y="114.012" stroke="none" clip-path="url(#clipPath2)"/><rect id="rect80" width="39.501" height="50" x="300.387" y="114.012" fill="none" stroke-linecap="butt" stroke-miterlimit="1.45" clip-path="url(#clipPath2)"/><rect id="rect82" width="39.501" height="50" x="344.581" y="114.012" stroke="none" clip-path="url(#clipPath2)"/><rect id="rect84" width="39.501" height="50" x="344.581" y="114.012" fill="none" stroke-linecap="butt" stroke-miterlimit="1.45" clip-path="url(#clipPath2)"/><rect id="rect86" width="39.501" height="50" x="388.776" y="114.012" stroke="none" clip-path="url(#clipPath2)"/><rect id="rect88" width="39.501" height="50" x="388.776" y="114.012" fill="none" stroke-linecap="butt" stroke-miterlimit="1.45" clip-path="url(#clipPath2)"/><rect id="rect90" width="39.501" height="50" x="432.97" y="114.012" stroke="none" clip-path="url(#clipPath2)"/><rect id="rect92" width="39.501" height="50" x="432.97" y="114.012" fill="none" stroke-linecap="butt" stroke-miterlimit="1.45" clip-path="url(#clipPath2)"/><rect id="rect94" width="39.501" height="50" x="477.165" y="114.012" stroke="none" clip-path="url(#clipPath2)"/><rect id="rect96" width="39.501" height="50" x="477.165" y="114.012" fill="none" stroke-linecap="butt" stroke-miterlimit="1.45" clip-path="url(#clipPath2)"/><rect id="rect98" width="39.501" height="50" x="521.359" y="114.012" stroke="none" clip-path="url(#clipPath2)"/><rect id="rect100" width="39.501" height="50" x="521.359" y="114.012" fill="none" stroke-linecap="butt" stroke-miterlimit="1.45" clip-path="url(#clipPath2)"/></g></g></svg>