<svg xmlns="http://www.w3.org/2000/svg" xmlns:ev="http://www.w3.org/2001/xml-events" xmlns:xlink="http://www.w3.org/1999/xlink" width="791.957" height="450.761" class="st26" color-interpolation-filters="sRGB" viewBox="0 0 593.968 338.071" xml:space="preserve"><style type="text/css">.st1{fill:none;stroke:#768692;stroke-dasharray:.01,10;stroke-width:2}.st2{fill:#00a9ce;stroke:none;stroke-width:1}.st3{fill:#feffff;font-family:Arial;font-size:.833336em}.st4{fill:none;stroke:#ffcd00;stroke-width:1}.st5{fill:#333f48;font-family:Arial;font-size:.833336em}.st6{font-size:1em}.st7{fill:none;stroke:#ee2f4e;stroke-width:1}.st8{fill:none;stroke:#0033a0}.st10,.st8,.st9{stroke-width:1}.st9{fill:none;stroke:none}.st10{marker-end:url(#mrkr13-57);stroke-dasharray:8,4;stroke-linecap:butt}.st10,.st11,.st12{stroke:#00a9ce}.st11{fill:#00a9ce;fill-opacity:1;stroke-opacity:1;stroke-width:.28409090909091}.st12{marker-end:url(#mrkr13-57);stroke-linecap:butt;stroke-width:1}.st13{marker-start:url(#mrkr13-83)}.st13,.st14,.st15{stroke:#00a9ce;stroke-linecap:butt;stroke-width:1}.st14{marker-start:url(#mrkr13-83);stroke-dasharray:8,4}.st15{marker-end:url(#mrkr13-57);stroke-dasharray:1,4}.st16{fill:#333f48;font-family:Arial;font-size:1.00001em}.st17,.st18{stroke:#768692;stroke-linecap:butt;stroke-width:4}.st18{stroke:#008bab}.st19{fill:none;stroke:#768692;stroke-width:1}.st20{fill:#333f48;font-family:Arial;font-size:.666664em}.st21{fill:#00a9ce;stroke:none;stroke-linecap:round;stroke-linejoin:round;stroke-width:.75}.st22,.st23{stroke:#008bab}.st22{marker-start:url(#mrkr4-214);stroke-linecap:butt;stroke-width:1}.st23{fill:#008bab;fill-opacity:1;stroke-opacity:1;stroke-width:.28409090909091}.st24,.st25{marker-start:url(#mrkr4-214);stroke:#008bab;stroke-dasharray:8,4;stroke-linecap:butt;stroke-width:1}.st25{stroke-dasharray:1,4}.st26{fill:none;fill-rule:evenodd;font-size:12px;overflow:visible;stroke-linecap:square;stroke-miterlimit:3}</style><defs id="Markers"><g id="lend13"><path d="M 3 1 L 0 0 L 3 -1 L 3 1" style="stroke:none"/></g><marker id="mrkr13-57" class="st11" markerUnits="strokeWidth" orient="auto" overflow="visible" refX="-10.56"><use transform="scale(-3.52,-3.52)" xlink:href="#lend13"/></marker><marker id="mrkr13-83" class="st11" markerUnits="strokeWidth" orient="auto" overflow="visible" refX="10.2"><use transform="scale(3.52)" xlink:href="#lend13"/></marker><g id="lend4"><path d="M 2 1 L 0 0 L 2 -1 L 2 1" style="stroke:none"/></g><marker id="mrkr4-214" class="st23" markerUnits="strokeWidth" orient="auto" overflow="visible" refX="6.68"><use transform="scale(3.52)" xlink:href="#lend4"/></marker></defs><g><title>Page-1</title><g id="shape3582-1" transform="translate(336.231,-16.7559)"><title>Sheet.3582</title><path d="M0 338.07 L178.99 338.07 L178.99 233.19 L0 233.19 L0 338.07 Z" class="st1"/></g><g id="shape3465-3" transform="translate(180.728,-151.554)"><title>Sheet.3465</title><desc>Testing</desc><rect width="66.413" height="52.288" x="0" y="285.783" class="st2"/><text x="16.81" y="314.93" class="st3">Testing</text></g><g id="shape3466-6" transform="translate(269.818,-151.554)"><title>Sheet.3466</title><desc>Reporting</desc><rect width="66.413" height="52.288" x="0" y="285.783" class="st2"/><text x="11.53" y="314.93" class="st3">Reporting</text></g><g id="shape3467-9" transform="translate(357.491,-151.554)"><title>Sheet.3467</title><desc>Application</desc><rect width="66.413" height="52.288" x="0" y="285.783" class="st2"/><text x="8.75" y="314.93" class="st3">Application</text></g><g id="shape3468-12" transform="translate(448.804,-151.554)"><title>Sheet.3468</title><desc>Processing</desc><rect width="66.413" height="52.288" x="0" y="285.783" class="st2"/><text x="8.47" y="314.93" class="st3">Processing</text></g><g id="shape3469-15" transform="translate(526.555,-77.8535)"><title>Sheet.3469</title><desc>Certification</desc><rect width="66.413" height="34.648" x="0" y="303.423" class="st4"/><text x="6.81" y="323.75" class="st5">Certification</text></g><g id="shape3550-18" transform="translate(90.0197,-151.554)"><title>Sheet.3550</title><desc>Membership at CSA</desc><rect width="66.413" height="52.288" x="0" y="285.783" class="st2"/><text x="5.7" y="308.93" class="st3">Membership <tspan x="17.37" class="st6" dy="1.2em">at CSA</tspan></text></g><g id="shape3573-22" transform="translate(255.846,-90.1298)"><title>Sheet.3573</title><desc>Test results</desc><rect width="66.413" height="32.446" x="0" y="305.625" class="st7"/><text x="7.37" y="324.85" class="st5">Test results</text></g><g id="shape3574-25" transform="translate(154.202,-77.5374)"><title>Sheet.3574</title><desc>DoC</desc><rect width="66.413" height="34.648" x="0" y="303.423" class="st8"/><text x="23.2" y="323.75" class="st5">DoC</text></g><g id="shape3575-28" transform="translate(154.202,-30.4496)"><title>Sheet.3575</title><desc>PICS</desc><rect width="66.413" height="36.065" x="0" y="302.006" class="st8"/><text x="21.54" y="323.04" class="st5">PICS</text></g><g id="shape3576-31" transform="translate(357.491,-77.8535)"><title>Sheet.3576</title><desc>DoC</desc><rect width="66.413" height="34.648" x="0" y="303.423" class="st8"/><text x="23.2" y="323.75" class="st5">DoC</text></g><g id="shape3577-34" transform="translate(357.491,-30.4496)"><title>Sheet.3577</title><desc>PICS</desc><rect width="66.413" height="36.065" x="0" y="302.006" class="st8"/><text x="21.54" y="323.04" class="st5">PICS</text></g><g id="shape3578-37" transform="translate(435.846,-77.8535)"><title>Sheet.3578</title><desc>Dependent Transport Attestation</desc><rect width="66.413" height="34.648" x="0" y="303.423" class="st8"/><text x="8.74" y="311.75" class="st5">Dependent <tspan x="11.81" class="st6" dy="1.2em">Transport </tspan><tspan x="9.58" class="st6" dy="1.2em">Attestation</tspan></text></g><g id="shape3579-42" transform="translate(435.846,-30.4496)"><title>Sheet.3579</title><desc>Attestation of Security</desc><rect width="66.413" height="36.065" x="0" y="302.006" class="st8"/><text x="9.58" y="317.04" class="st5">Attestation <tspan x="9.59" class="st6" dy="1.2em">of Security</tspan></text></g><g id="shape3580-46" transform="translate(90.0197,-78.6385)"><title>Sheet.3580</title><desc>VID</desc><rect width="39.685" height="32.446" x="0" y="305.625" class="st4"/><text x="11.51" y="324.85" class="st5">VID</text></g><g id="shape3583-49" transform="translate(336.231,-3.1496)"><title>Sheet.3583</title><desc>Required application documents</desc><rect width="178.985" height="13.606" x="0" y="324.465" class="st9"/><text x="18.06" y="334.27" class="st5">Required application documents</text></g><g id="shape3587-52" transform="translate(116.949,-151.554)"><title>Dynamic connector</title><path d="M-7.09 338.07 L-7.09 367.98" class="st10"/></g><g id="shape3588-58" transform="translate(129.705,-87.7748)"><title>Dynamic connector.3588</title><path d="M0 330.98 L13.94 330.98" class="st10"/></g><g id="shape3589-63" transform="translate(109.862,-78.6385)"><title>Dynamic connector.3589</title><path d="M0 338.07 L0 368.23 L33.78 368.23" class="st10"/></g><g id="shape3590-68" transform="translate(187.408,-112.185)"><title>Dynamic connector.3590</title><path d="M0 338.07 L0 318.54 L26.53 318.54 L26.53 309.26" class="st10"/></g><g id="shape3592-73" transform="translate(247.141,-170.612)"><title>Dynamic connector.3592</title><path d="M0 330.98 L12.12 330.98" class="st12"/></g><g id="shape3594-78" transform="translate(180.728,-184.973)"><title>Dynamic connector.3594</title><path d="M-10.2 330.99 L-10.56 330.99 L-24.3 330.95" class="st13"/></g><g id="shape3595-84" transform="translate(180.728,-158.357)"><title>Dynamic connector.3595</title><path d="M0 330.98 L-13.74 330.98" class="st12"/></g><g id="shape3596-89" transform="translate(336.231,-170.612)"><title>Dynamic connector.3596</title><path d="M0 330.98 L10.7 330.98" class="st12"/></g><g id="shape3597-94" transform="translate(310.091,-151.554)"><title>Dynamic connector.3597</title><path d="M-7.08 348.27 L-7.08 348.63 L-7.11 367.05" class="st14"/></g><g id="shape3598-99" transform="translate(234.02,-151.554)"><title>Dynamic connector.3598</title><path d="M0 338.07 L0 383.27 L11.27 383.27" class="st10"/></g><g id="shape3599-104" transform="translate(220.615,-76.4525)"><title>Dynamic connector.3599</title><path d="M0 331 L126.32 330.97" class="st15"/></g><g id="shape3600-109" transform="translate(220.615,-41.3957)"><title>Dynamic connector.3600</title><path d="M0 330.98 L126.32 330.98" class="st15"/></g><g id="shape3601-114" transform="translate(383.593,-121.638)"><title>Dynamic connector.3601</title><path d="M7.07 338.07 L7.09 318.71" class="st10"/></g><g id="shape3602-119" transform="translate(423.904,-170.612)"><title>Dynamic connector.3602</title><path d="M0 330.98 L14.34 330.98" class="st12"/></g><g id="shape3603-124" transform="translate(515.217,-177.698)"><title>Dynamic connector.3603</title><path d="M0 338.07 L44.54 338.07 L44.54 392.71" class="st10"/></g><g id="shape3605-129" transform="translate(2.14567,-3.1496)"><title>Sheet.3605</title><desc>Certification documents</desc><rect width="72.082" height="121.323" x="0" y="216.748" class="st9"/><text x="4.72" y="273.81" class="st16">Certification <tspan x="9.38" class="st6" dy="1.2em">documents</tspan></text></g><g id="shape3609-133" transform="translate(418.169,213.598) rotate(90)"><title>Sheet.3609</title><path d="M0 338.07 L120.47 338.07" class="st17"/></g><g id="shape3610-136" transform="translate(1.43701,-148.567)"><title>Sheet.3610</title><desc>Certification process steps</desc><rect width="72.082" height="57.069" x="0" y="281.002" class="st9"/><text x="4.72" y="298.74" class="st16">Certification <tspan x="26.06" class="st6" dy="1.2em">process </tspan><tspan x="39.4" class="st6" dy="1.2em">steps</tspan></text></g><g id="shape3611-141" transform="translate(417.461,132.435) rotate(90)"><title>Sheet.3611</title><path d="M0 338.07 L56.67 338.07" class="st18"/></g><g id="shape3612-144" transform="translate(1,-222.943)"><title>Sheet.3612</title><desc>Actors in each step</desc><rect width="72.082" height="57.069" x="0" y="281.002" class="st9"/><text x="21.4" y="305.94" class="st16">Actors in <tspan x="16.04" class="st6" dy="1.2em">each step</tspan></text></g><g id="shape3613-148" transform="translate(417.024,58.0594) rotate(90)"><title>Sheet.3613</title><path d="M0 338.07 L56.67 338.07" class="st17"/></g><g id="shape3614-151" transform="translate(185.588,-223.685)"><title>Sheet.3614</title><desc>ATL</desc><rect width="56.693" height="28.346" x="0" y="309.724" class="st9"/><text x="17.34" y="327.5" class="st16">ATL</text></g><g id="shape3615-154" transform="translate(94.8796,-223.685)"><title>Sheet.3615</title><desc>CSA</desc><rect width="56.693" height="28.346" x="0" y="309.724" class="st9"/><text x="16.01" y="327.5" class="st16">CSA</text></g><g id="shape3616-157" transform="translate(94.8796,-252.031)"><title>Sheet.3616</title><desc>Vendor</desc><rect width="56.693" height="28.346" x="0" y="309.724" class="st9"/><text x="9" y="327.5" class="st16">Vendor</text></g><g id="shape3617-160" transform="translate(185.588,-252.031)"><title>Sheet.3617</title><desc>Vendor</desc><rect width="56.693" height="28.346" x="0" y="309.724" class="st9"/><text x="9" y="327.5" class="st16">Vendor</text></g><g id="shape3618-163" transform="translate(274.678,-252.031)"><title>Sheet.3618</title><desc>ATL</desc><rect width="56.693" height="28.346" x="0" y="309.724" class="st9"/><text x="17.34" y="327.5" class="st16">ATL</text></g><g id="shape3619-166" transform="translate(274.678,-223.685)"><title>Sheet.3619</title><desc>CSA</desc><rect width="56.693" height="28.346" x="0" y="309.724" class="st9"/><text x="16.01" y="327.5" class="st16">CSA</text></g><g id="shape3620-169" transform="translate(359.311,-223.685)"><title>Sheet.3620</title><desc>CSA</desc><rect width="56.693" height="28.346" x="0" y="309.724" class="st9"/><text x="16.01" y="327.5" class="st16">CSA</text></g><g id="shape3621-172" transform="translate(359.311,-252.031)"><title>Sheet.3621</title><desc>Vendor</desc><rect width="56.693" height="28.346" x="0" y="309.724" class="st9"/><text x="9" y="327.5" class="st16">Vendor</text></g><g id="shape3622-175" transform="translate(453.664,-223.685)"><title>Sheet.3622</title><desc>CSA</desc><rect width="56.693" height="28.346" x="0" y="309.724" class="st9"/><text x="16.01" y="327.5" class="st16">CSA</text></g><g id="shape3788-178" transform="translate(465.61,-252.031)"><title>Nordic Light Grey</title><rect width="126.067" height="85.039" x="0" y="253.031" class="st19"/></g><g id="shape3789-180" transform="translate(468.514,-309.571)"><title>Sheet.3789</title><rect width="17.005" height="10.868" x="0" y="327.203" class="st4"/></g><g id="shape3790-182" transform="translate(489.458,-310.091)"><title>Sheet.3790</title><desc>Documents from CSA</desc><rect width="102.219" height="9.826" x="0" y="328.244" class="st9"/><text x="4" y="335.56" class="st20">Documents from CSA</text></g><g id="shape3791-185" transform="translate(468.514,-322.649)"><title>Sheet.3791</title><rect width="17.005" height="10.868" x="0" y="327.203" class="st21"/></g><g id="shape3792-187" transform="translate(489.458,-323.17)"><title>Sheet.3792</title><desc>Certification steps</desc><rect width="102.219" height="9.826" x="0" y="328.244" class="st9"/><text x="4" y="335.56" class="st20">Certification steps</text></g><g id="shape3793-190" transform="translate(468.514,-296.204)"><title>Sheet.3793</title><rect width="17.005" height="10.868" x="0" y="327.203" class="st8"/></g><g id="shape3794-192" transform="translate(489.458,-296.204)"><title>Sheet.3794</title><desc>Documents from Vendor</desc><rect width="102.219" height="9.826" x="0" y="328.244" class="st9"/><text x="4" y="335.56" class="st20">Documents from Vendor</text></g><g id="shape3795-195" transform="translate(468.514,-282.549)"><title>Sheet.3795</title><rect width="17.005" height="10.868" x="0" y="327.203" class="st7"/></g><g id="shape3796-197" transform="translate(489.458,-283.402)"><title>Sheet.3796</title><desc>Documents from ATL</desc><rect width="102.219" height="9.826" x="0" y="328.244" class="st9"/><text x="4" y="335.56" class="st20">Documents from ATL</text></g><g id="shape3797-200" transform="translate(496.508,-271.213)"><title>Sheet.3797</title><desc>Process step</desc><rect width="95.169" height="9.826" x="0" y="328.244" class="st9"/><text x="4" y="335.56" class="st20">Process step</text></g><g id="shape3798-203" transform="translate(496.508,-261.386)"><title>Sheet.3798</title><desc>Document step</desc><rect width="95.169" height="9.826" x="0" y="328.244" class="st9"/><text x="4" y="335.56" class="st20">Document step</text></g><g id="shape3799-206" transform="translate(496.508,-252.315)"><title>Sheet.3799</title><desc>Same document used</desc><rect width="95.169" height="9.826" x="0" y="328.244" class="st9"/><text x="4" y="335.56" class="st20">Same document used</text></g><g id="shape3800-209" transform="translate(469.862,-276.693)"><title>Sheet.3800</title><path d="M6.68 338.07 L7.04 338.07 L26.65 338.07" class="st22"/></g><g id="shape3801-215" transform="translate(469.862,-266.772)"><title>Sheet.3801</title><path d="M6.68 338.07 L7.04 338.07 L26.65 338.07" class="st24"/></g><g id="shape3802-220" transform="translate(469.862,-257.701)"><title>Sheet.3802</title><path d="M6.68 338.07 L7.04 338.07 L26.65 338.07" class="st25"/></g></g></svg>