<svg xmlns="http://www.w3.org/2000/svg" xmlns:ev="http://www.w3.org/2001/xml-events" xmlns:xlink="http://www.w3.org/1999/xlink" width="423.139" height="388.974" class="st15" color-interpolation-filters="sRGB" viewBox="0 0 317.354 291.731" xml:space="preserve"><style type="text/css">.st1{fill:#768692;stroke:none;stroke-width:1}.st2{fill:#feffff;font-family:Arial;font-size:.833336em}.st3{font-size:1em}.st4,.st5{fill:#00a9ce;stroke:none;stroke-width:1}.st5{fill:none;stroke:#ffc000;stroke-dasharray:7,5}.st6{fill:#ffc000;font-family:Arial;font-size:.833336em}.st7{fill:#0077c8;stroke:none;stroke-width:1}.st8,.st9{stroke:#00a9ce}.st8{marker-end:url(#mrkr4-27);stroke-linecap:butt;stroke-width:1}.st9{fill:#00a9ce;fill-opacity:1;stroke-opacity:1;stroke-width:.28409090909091}.st10,.st11{fill:none;stroke:#768692;stroke-width:1}.st11{stroke:none}.st12{fill:#333f48;font-family:Arial;font-size:.666664em}.st13{fill:#00a9ce;stroke:none;stroke-linecap:round;stroke-linejoin:round;stroke-width:.75}.st14{fill:#00a9ce;font-family:Arial;font-size:.833336em}.st15{fill:none;fill-rule:evenodd;font-size:12px;overflow:visible;stroke-linecap:square;stroke-miterlimit:3}</style><defs id="Markers"><g id="lend4"><path d="M 2 1 L 0 0 L 2 -1 L 2 1" style="stroke:none"/></g><marker id="mrkr4-27" class="st9" markerUnits="strokeWidth" orient="auto" overflow="visible" refX="-7.04"><use transform="scale(-3.52,-3.52)" xlink:href="#lend4"/></marker></defs><g><title>Page-1</title><g id="shape3364-1" transform="translate(1,-227.473)"><title>Sheet.3364</title><desc>CSA (TCOC)</desc><rect width="63.779" height="40.282" x="0" y="251.449" class="st1"/><text x="21.61" y="268.59" class="st2">CSA <tspan x="14.39" class="st3" dy="1.2em">(TCOC)</tspan></text></g><g id="shape3365-5" transform="translate(1,-62.0495)"><title>Sheet.3365</title><desc>PAI</desc><rect width="63.779" height="40.282" x="0" y="251.449" class="st1"/><text x="23.83" y="274.59" class="st2">PAI</text></g><g id="shape3366-8" transform="translate(128.559,-62.0495)"><title>Sheet.3366</title><desc>PAI certificate</desc><rect width="63.779" height="40.282" x="0" y="251.449" class="st4"/><text x="23.83" y="268.59" class="st2">PAI <tspan x="10.49" class="st3" dy="1.2em">certificate</tspan></text></g><g id="shape3367-12" transform="translate(256.118,-62.0495)"><title>Sheet.3367</title><desc>DAC</desc><rect width="56.693" height="40.282" x="0" y="251.449" class="st4"/><text x="17.79" y="274.59" class="st2">DAC</text></g><g id="shape3372-15" transform="translate(125.476,-58.0957)"><title>Sheet.3372</title><desc>Public Key Infrastructure (PKI)</desc><path d="M0 291.73 L190.88 291.73 L190.88 162.14 L0 162.14 L0 291.73 Z" class="st5"/><text x="139.63" y="175.14" class="st6">Public Key <tspan x="102.41" class="st3" dy="1.2em">Infrastructure (PKI)</tspan></text></g><g id="shape3374-19" transform="translate(128.559,-227.473)"><title>Sheet.3374</title><desc>DCL</desc><rect width="63.779" height="40.282" x="0" y="251.449" class="st7"/><text x="21.89" y="274.59" class="st2">DCL</text></g><g id="shape3375-22" transform="translate(153.362,-185.043)"><title>Dynamic connector.3375</title><path d="M7.09 291.73 L7.09 256.34" class="st8"/></g><g id="shape3418-28" transform="translate(1,-144.761)"><title>Sheet.3418</title><desc>PAA</desc><rect width="63.779" height="40.282" x="0" y="251.449" class="st1"/><text x="21.88" y="274.59" class="st2">PAA</text></g><g id="shape3419-31" transform="translate(25.8031,-227.473)"><title>Dynamic connector</title><path d="M7.09 291.73 L7.09 327.12" class="st8"/></g><g id="shape3420-36" transform="translate(25.8031,-144.761)"><title>Dynamic connector.3420</title><path d="M7.09 291.73 L7.09 327.12" class="st8"/></g><g id="shape3445-41" transform="translate(128.559,-144.761)"><title>Sheet.3445</title><desc>Self-signed PAA certificate</desc><rect width="63.779" height="40.282" x="0" y="251.449" class="st4"/><text x="6.87" y="262.59" class="st2">Self-signed <tspan x="21.88" class="st3" dy="1.2em">PAA</tspan> <tspan x="10.49" class="st3" dy="1.2em">certificate</tspan></text></g><g id="shape3449-46" transform="translate(192.339,-75.1038)"><title>Dynamic connector.3449</title><path d="M0 284.64 L56.74 284.64" class="st8"/></g><g id="group3458-51" transform="translate(1,-1)"><title>Sheet.3458</title><g id="shape3451-52"><title>Nordic Light Grey</title><rect width="126.067" height="45.354" x="0" y="246.376" class="st10"/></g><g id="shape3452-54" transform="translate(2.904,-17.8541)"><title>Sheet.3452</title><rect width="17.005" height="10.868" x="0" y="280.863" class="st1"/></g><g id="shape3453-56" transform="translate(23.8477,-18.3749)"><title>Sheet.3453</title><desc>Certification Authorities</desc><rect width="102.219" height="9.826" x="0" y="281.904" class="st11"/><text x="4" y="289.22" class="st12">Certification Authorities</text></g><g id="shape3454-59" transform="translate(2.904,-30.9324)"><title>Sheet.3454</title><rect width="17.005" height="10.868" x="0" y="280.863" class="st13"/></g><g id="shape3455-61" transform="translate(23.8477,-31.4532)"><title>Sheet.3455</title><desc>Attestation certificates</desc><rect width="102.219" height="9.826" x="0" y="281.904" class="st11"/><text x="4" y="289.22" class="st12">Attestation certificates</text></g><g id="shape3456-64" transform="translate(2.904,-4.48726)"><title>Sheet.3456</title><rect width="17.005" height="10.868" x="0" y="280.863" class="st7"/></g><g id="shape3457-66" transform="translate(23.8477,-4.48726)"><title>Sheet.3457</title><desc>Other attestation elements</desc><rect width="102.219" height="9.826" x="0" y="281.904" class="st11"/><text x="4" y="289.22" class="st12">Other attestation elements</text></g></g><g id="shape3480-69" transform="translate(64.7795,-157.816)"><title>Dynamic connector.3480</title><path d="M0 284.64 L56.74 284.64" class="st8"/></g><g id="shape3481-74" transform="translate(64.7795,-240.528)"><title>Dynamic connector.3481</title><path d="M0 284.64 L56.74 284.64" class="st8"/></g><g id="shape3482-79" transform="translate(64.7795,-250.449)"><title>Sheet.3482</title><desc>CSA provides DCL</desc><rect width="63.779" height="40.282" x="0" y="251.449" class="st11"/><text x="21.61" y="262.59" class="st14">CSA <tspan x="12.99" class="st3" dy="1.2em">provides </tspan><tspan x="21.89" class="st3" dy="1.2em">DCL</tspan></text></g><g id="shape3483-84" transform="translate(64.7795,-173.615)"><title>Sheet.3483</title><desc>PAA provides certificate to DCL</desc><rect width="63.779" height="53.858" x="0" y="237.872" class="st11"/><text x="21.88" y="249.8" class="st14">PAA <tspan x="12.99" class="st3" dy="1.2em">provides </tspan><tspan x="4.93" class="st3" dy="1.2em">certificate to </tspan><tspan x="21.89" class="st3" dy="1.2em">DCL</tspan></text></g><g id="shape3484-90" transform="translate(64.7795,-75.1038)"><title>Dynamic connector.3484</title><path d="M0 284.64 L56.74 284.64" class="st8"/></g><g id="shape3486-95" transform="translate(153.362,-144.761)"><title>Dynamic connector.3486</title><path d="M7.09 291.73 L7.09 327.12" class="st8"/></g></g></svg>