<svg xmlns="http://www.w3.org/2000/svg" xmlns:ev="http://www.w3.org/2001/xml-events" xmlns:xlink="http://www.w3.org/1999/xlink" width="682.415" height="370.919" class="st29" color-interpolation-filters="sRGB" viewBox="0 0 511.811 278.189" xml:space="preserve"><style type="text/css">.st1{stroke:#0077c8;stroke-width:1}.st1,.st2{fill:none}.st2,.st3,.st4{stroke-width:1}.st2{stroke:#768692}.st3,.st4{fill:#6ad1e3;stroke:none}.st4{fill:none}.st5{fill:#333f48;font-family:Arial;font-size:.583328em}.st6,.st7{fill:#c00000;stroke:none;stroke-width:1}.st7{fill:#0077c8}.st8,.st9{fill:#00a9ce;stroke:none}.st8{stroke-linecap:round;stroke-linejoin:round;stroke-width:.75}.st9{stroke-width:1}.st10{fill:#feffff;font-family:Arial;font-size:.833336em}.st11{font-size:1em}.st12{fill:none;stroke:#00a9ce;stroke-dasharray:7,5;stroke-width:1}.st13{fill:#00a9ce;font-family:Arial;font-size:1.00001em}.st14{fill:none;stroke:#768692;stroke-dasharray:7,5;stroke-width:1}.st15{fill:#768692;font-family:Arial;font-size:1.00001em}.st16{fill:none;stroke:#c00000;stroke-width:1}.st17,.st18{stroke:#0077c8}.st17{marker-start:url(#mrkr4-71);stroke-linecap:butt;stroke-width:1}.st18{fill:#0077c8;fill-opacity:1;stroke-opacity:1;stroke-width:.28409090909091}.st19,.st20{stroke:#00a9ce}.st19{marker-end:url(#mrkr4-77);stroke-linecap:butt;stroke-width:1}.st20{fill:#00a9ce;fill-opacity:1;stroke-opacity:1;stroke-width:.28409090909091}.st21{fill:none;stroke:#333f48;stroke-dasharray:7,5;stroke-width:1}.st22{fill:#333f48;font-family:Arial;font-size:1.00001em}.st23,.st24{stroke-width:1}.st23{fill:#768692;stroke:none}.st24{marker-end:url(#mrkr4-104);marker-start:url(#mrkr4-71);stroke:#0077c8;stroke-linecap:butt}.st25,.st26{stroke:#c00000}.st25{marker-end:url(#mrkr4-117);stroke-linecap:butt;stroke-width:1}.st26{fill:#c00000;fill-opacity:1;stroke-opacity:1;stroke-width:.28409090909091}.st27,.st28{fill:#0077c8;font-family:Arial;font-size:1.00001em}.st28{fill:#c00000}.st29{fill:none;fill-rule:evenodd;font-size:12px;overflow:visible;stroke-linecap:square;stroke-miterlimit:3}</style><defs id="Markers"><g id="lend4"><path d="M 2 1 L 0 0 L 2 -1 L 2 1" style="stroke:none"/></g><marker id="mrkr4-71" class="st18" markerUnits="strokeWidth" orient="auto" overflow="visible" refX="6.68"><use transform="scale(3.52)" xlink:href="#lend4"/></marker><marker id="mrkr4-77" class="st20" markerUnits="strokeWidth" orient="auto" overflow="visible" refX="-7.04"><use transform="scale(-3.52,-3.52)" xlink:href="#lend4"/></marker><marker id="mrkr4-104" class="st18" markerUnits="strokeWidth" orient="auto" overflow="visible" refX="-7.04"><use transform="scale(-3.52,-3.52)" xlink:href="#lend4"/></marker><marker id="mrkr4-117" class="st26" markerUnits="strokeWidth" orient="auto" overflow="visible" refX="-7.04"><use transform="scale(-3.52,-3.52)" xlink:href="#lend4"/></marker></defs><g><title>Page-1</title><g id="shape3449-1" transform="translate(146.194,-24.8273)"><title>Sheet.3449</title><rect width="181.417" height="232.221" x="0" y="45.968" class="st1"/></g><g id="shape3261-3" transform="translate(1,-1)"><title>Nordic Light Grey</title><rect width="134.646" height="57.144" x="0" y="221.045" class="st2"/></g><g id="shape3271-5" transform="translate(4.46124,-4.5539)"><title>Sheet.3271</title><rect width="17.005" height="10.868" x="0" y="267.321" class="st3"/></g><g id="shape3282-7" transform="translate(21.466,-5.07466)"><title>Sheet.3282</title><desc>Read-access parties</desc><rect width="114.18" height="9.826" x="0" y="268.363" class="st4"/><text x="4" y="275.38" class="st5">Read-access parties</text></g><g id="shape3220-10" transform="translate(4.46124,-17.5655)"><title>Sheet.3220</title><rect width="17.005" height="10.868" x="0" y="267.321" class="st6"/></g><g id="shape3278-12" transform="translate(21.466,-18.0862)"><title>Sheet.3278</title><desc>Validator Nodes &amp; write action</desc><rect width="114.18" height="9.826" x="0" y="268.363" class="st4"/><text x="4" y="275.38" class="st5">Validator Nodes &amp; write action</text></g><g id="shape3222-15" transform="translate(4.46124,-30.6438)"><title>Sheet.3222</title><rect width="17.005" height="10.868" x="0" y="267.321" class="st7"/></g><g id="shape3276-17" transform="translate(21.466,-31.1645)"><title>Sheet.3276</title><desc>Observer Nodes &amp; read action</desc><rect width="114.18" height="9.826" x="0" y="268.363" class="st4"/><text x="4" y="275.38" class="st5">Observer Nodes &amp; read action</text></g><g id="shape3223-20" transform="translate(4.46124,-44.2061)"><title>Sheet.3223</title><rect width="17.005" height="10.868" x="0" y="267.321" class="st8"/></g><g id="shape3274-22" transform="translate(21.466,-44.2429)"><title>Sheet.3274</title><desc>Write-access parties</desc><rect width="114.18" height="9.826" x="0" y="268.363" class="st4"/><text x="4" y="275.38" class="st5">Write-access parties</text></g><g id="shape3416-25" transform="translate(12.6193,-188.538)"><title>Sheet.3416</title><desc>Vendor</desc><rect width="56.693" height="21.122" x="0" y="257.067" class="st9"/><text x="12.22" y="270.63" class="st10">Vendor</text></g><g id="shape3417-28" transform="translate(12.6193,-153.257)"><title>Sheet.3417</title><desc>Test House</desc><rect width="56.693" height="32.446" x="0" y="245.744" class="st9"/><text x="18.62" y="258.97" class="st10">Test <tspan x="13.89" class="st11" dy="1.2em">House</tspan></text></g><g id="shape3418-32" transform="translate(12.6193,-119.242)"><title>Sheet.3418</title><desc>CSA Cert. Center</desc><rect width="56.693" height="32.446" x="0" y="245.744" class="st9"/><text x="5.84" y="258.97" class="st10">CSA Cert. <tspan x="13.34" class="st11" dy="1.2em">Center</tspan></text></g><g id="shape3419-36" transform="translate(12.6193,-85.2259)"><title>Sheet.3419</title><desc>CSA Member</desc><rect width="56.693" height="32.446" x="0" y="245.744" class="st9"/><text x="18.07" y="258.97" class="st10">CSA <tspan x="10.01" class="st11" dy="1.2em">Member</tspan></text></g><g id="shape3421-40" transform="translate(1,-74.2414)"><title>Sheet.3421</title><desc>Write access to DCL</desc><path d="M0 278.19 L134.65 278.19 L134.65 123.53 L0 123.53 L0 278.19 Z" class="st12"/><text x="12.64" y="138.33" class="st13">Write access to DCL</text></g><g id="shape3422-43" transform="translate(382.229,-180.811)"><title>Sheet.3422</title><desc>IoT device</desc><rect width="76.881" height="21.122" x="0" y="257.067" class="st3"/><text x="15.37" y="270.63" class="st10">IoT device</text></g><g id="shape3423-46" transform="translate(382.229,-128.292)"><title>Sheet.3423</title><desc>Commissioner</desc><rect width="76.881" height="21.122" x="0" y="257.067" class="st3"/><text x="6.49" y="270.63" class="st10">Commissioner</text></g><g id="shape3424-49" transform="translate(351.705,-51.878)"><title>Sheet.3424</title><desc>Read access to DCL</desc><path d="M0 278.19 L137.93 278.19 L137.93 160.49 L0 160.49 L0 278.19 Z" class="st14"/><text x="13.94" y="270.59" class="st15">Read access to DCL</text></g><g id="shape3425-52" transform="translate(168.871,-74.2414)"><title>Sheet.3425</title><desc>Validator Node</desc><rect width="56.693" height="40.282" x="0" y="237.907" class="st6"/><text x="8.61" y="255.05" class="st10">Validator <tspan x="16.39" class="st11" dy="1.2em">Node</tspan></text></g><g id="shape3426-56" transform="translate(235.283,-74.2414)"><title>Sheet.3426</title><desc>Validator Node</desc><rect width="56.693" height="40.282" x="0" y="237.907" class="st6"/><text x="8.61" y="255.05" class="st10">Validator <tspan x="16.39" class="st11" dy="1.2em">Node</tspan></text></g><g id="shape3430-60" transform="translate(168.871,-11.5961)"><title>Sheet.3430</title><desc>Observer Node</desc><rect width="56.693" height="40.282" x="0" y="237.907" class="st7"/><text x="7.78" y="255.05" class="st10">Observer <tspan x="16.39" class="st11" dy="1.2em">Node</tspan></text></g><g id="shape3436-64" transform="translate(160.367,-94.3823)"><title>Sheet.3436</title><rect width="150.236" height="111.163" x="0" y="167.026" class="st16"/></g><g id="shape3443-66" transform="translate(377.217,-94.696)"><title>Dynamic connector.3443</title><path d="M6.68 278.19 L7.04 278.19 L43.45 278.19 L43.45 244.59" class="st17"/></g><g id="shape3444-72" transform="translate(413.583,-180.811)"><title>Dynamic connector.3444</title><path d="M7.09 278.19 L7.09 302.55" class="st19"/></g><g id="shape3445-78" transform="translate(340.367,-46.8054)"><title>Sheet.3445</title><desc>Device Attestation process</desc><path d="M0 278.19 L170.44 278.19 L170.44 100.44 L0 100.44 L0 278.19 Z" class="st21"/><text x="14.19" y="115.24" class="st22">Device Attestation process</text></g><g id="shape3446-81" transform="translate(168.871,-128.292)"><title>Sheet.3446</title><desc>DCL schema database</desc><rect width="123.106" height="41.288" x="0" y="236.901" class="st23"/><text x="26.87" y="253.95" class="st22">DCL schema <tspan x="36.86" class="st11" dy="1.2em">database</tspan></text></g><g id="shape3447-85" transform="translate(166.036,-185.405)"><title>Sheet.3447</title><desc>Validator Node</desc><rect width="56.693" height="40.282" x="0" y="237.907" class="st6"/><text x="8.61" y="255.05" class="st10">Validator <tspan x="16.39" class="st11" dy="1.2em">Node</tspan></text></g><g id="shape3450-89" transform="translate(320.524,-74.5551)"><title>Sheet.3450</title><desc>Observer Node</desc><rect width="56.693" height="40.282" x="0" y="237.907" class="st7"/><text x="7.78" y="255.05" class="st10">Observer <tspan x="16.39" class="st11" dy="1.2em">Node</tspan></text></g><g id="shape3451-93" transform="translate(242.571,-236.907)"><title>Sheet.3451</title><desc>Observer Node</desc><rect width="56.693" height="40.282" x="0" y="237.907" class="st7"/><text x="7.78" y="255.05" class="st10">Observer <tspan x="16.39" class="st11" dy="1.2em">Node</tspan></text></g><g id="shape3454-97" transform="translate(190.131,-51.878)"><title>Dynamic connector.3454</title><path d="M7.09 271.51 L7.09 271.15 L7.09 262.87" class="st24"/></g><g id="shape3455-105" transform="translate(291.976,-78.8071)"><title>Dynamic connector.3455</title><path d="M6.68 271.1 L7.04 271.1 L21.51 271.1" class="st24"/></g><g id="shape3458-112" transform="translate(69.3122,-189.955)"><title>Dynamic connector.3458</title><path d="M0 271.1 L84.01 271.1" class="st25"/></g><g id="shape3459-118" transform="translate(69.3122,-162.394)"><title>Dynamic connector.3459</title><path d="M0 271.1 L84.01 271.1" class="st25"/></g><g id="shape3460-123" transform="translate(69.3122,-128.378)"><title>Dynamic connector.3460</title><path d="M0 271.1 L84.01 271.1" class="st25"/></g><g id="shape3461-128" transform="translate(69.3122,-98.9403)"><title>Dynamic connector.3461</title><path d="M0 271.1 L84.01 271.1" class="st25"/></g><g id="shape3462-133" transform="translate(240.871,-24.8273)"><title>Sheet.3462</title><desc>DCL read limit</desc><rect width="86.74" height="16.309" x="0" y="261.88" class="st4"/><text x="5.36" y="273.63" class="st27">DCL read limit</text></g><g id="shape3464-136" transform="translate(222.729,-184.286)"><title>Sheet.3464</title><desc>DCL write limit</desc><rect width="87.874" height="21.26" x="0" y="256.929" class="st4"/><text x="5.27" y="271.16" class="st28">DCL write limit</text></g></g></svg>