<svg xmlns="http://www.w3.org/2000/svg" xmlns:ev="http://www.w3.org/2001/xml-events" xmlns:xlink="http://www.w3.org/1999/xlink" width="392.873" height="367.888" class="st19" color-interpolation-filters="sRGB" viewBox="0 0 294.655 275.916" xml:space="preserve"><style type="text/css">.st1{fill:#d9e1e2;stroke:#0033a0;stroke-width:1}.st2{fill:#0033a0;font-family:Arial;font-size:.833336em}.st3,.st4{stroke:#00a9ce}.st3{marker-end:url(#mrkr13-9);stroke-linecap:butt;stroke-width:1}.st4{fill:#00a9ce;fill-opacity:1;stroke-opacity:1;stroke-width:.28409090909091}.st5{fill:#0077c8;stroke:none;stroke-width:1}.st6{fill:#feffff;font-family:Arial;font-size:.833336em}.st7{fill:#768692;stroke:none;stroke-width:1}.st8{font-size:1em}.st9{fill:none;stroke:none;stroke-width:1}.st10{fill:#00a9ce;font-family:Arial;font-size:.833336em}.st11{fill:#d9e1e2;stroke:#333f48;stroke-width:1}.st12{fill:#333f48;font-family:Arial;font-size:.833336em}.st13{fill:none;stroke:#ffc000;stroke-dasharray:7,5;stroke-width:1}.st14{fill:#ffc000;font-family:Arial;font-size:.833336em}.st15{fill:none;stroke:#768692;stroke-width:1}.st16{fill:#333f48;font-family:Arial;font-size:.666664em}.st17,.st18{fill:#00a9ce;stroke:none}.st17{stroke-linecap:round;stroke-linejoin:round;stroke-width:.75}.st18{stroke-width:1}.st19{fill:none;fill-rule:evenodd;font-size:12px;overflow:visible;stroke-linecap:square;stroke-miterlimit:3}</style><defs id="Markers"><g id="lend13"><path d="M 3 1 L 0 0 L 3 -1 L 3 1" style="stroke:none"/></g><marker id="mrkr13-9" class="st4" markerUnits="strokeWidth" orient="auto" overflow="visible" refX="-10.56"><use transform="scale(-3.52,-3.52)" xlink:href="#lend13"/></marker></defs><g><title>Page-1</title><g id="shape3408-1" transform="translate(86.6063,-54.6495)"><title>Sheet.3408</title><desc>Application</desc><rect width="207.048" height="100.661" x="0" y="175.255" class="st1"/><text x="154.13" y="268.92" class="st2">Application</text></g><g id="shape3410-4" transform="translate(244.78,-229.562)"><title>Dynamic connector.3410</title><path d="M7.09 275.92 L7.09 339.61" class="st3"/></g><g id="shape3380-10" transform="translate(211.816,-229.562)"><title>Sheet.3380</title><desc>Manufacturer</desc><rect width="80.101" height="40.282" x="0" y="235.634" class="st5"/><text x="10.59" y="258.78" class="st6">Manufacturer</text></g><g id="shape3388-13" transform="translate(1,-229.562)"><title>Sheet.3388</title><desc>CSA (TCOC)</desc><rect width="56.693" height="40.282" x="0" y="235.634" class="st7"/><text x="18.07" y="252.78" class="st6">CSA <tspan x="10.85" class="st8" dy="1.2em">(TCOC)</tspan></text></g><g id="shape3389-17" transform="translate(64.0708,-210.76)"><title>Sheet.3389</title><desc>Provides VID and signed CD to Manufacturer</desc><rect width="134.646" height="28.346" x="0" y="247.57" class="st9"/><text x="12.29" y="258.74" class="st10">Provides VID and signed <tspan x="23.69" class="st8" dy="1.2em">CD to Manufacturer</tspan></text></g><g id="shape3393-21" transform="translate(64.0708,-260.743)"><title>Sheet.3393</title><desc>Requests VID from CSA</desc><rect width="134.646" height="14.173" x="0" y="261.743" class="st9"/><text x="13.42" y="271.83" class="st10">Requests VID from CSA</text></g><g id="shape3398-24" transform="translate(92.7604,-71.3773)"><title>Sheet.3398</title><desc>Factory data</desc><rect width="145.298" height="79.191" x="0" y="196.725" class="st11"/><text x="4" y="268.92" class="st12">Factory data</text></g><g id="shape3411-27" transform="translate(251.866,-167.789)"><title>Sheet.3411</title><desc>Incl. VID PID CD</desc><rect width="38.633" height="57.144" x="0" y="218.772" class="st9"/><text x="10.15" y="232.34" class="st10">Incl. <tspan x="10.98" class="st8" dy="1.2em">VID </tspan><tspan x="10.98" class="st8" dy="1.2em">PID </tspan><tspan x="12.1" class="st8" dy="1.2em">CD</tspan></text></g><g id="shape3391-33" transform="translate(57.6929,-248.105)"><title>Dynamic connector.3391</title><path d="M0 282.88 L143.56 283.1" class="st3"/></g><g id="shape3392-38" transform="translate(211.816,-253.656)"><title>Dynamic connector.3392</title><path d="M0 268.83 L-143.56 268.83" class="st3"/></g><g id="shape3383-43" transform="translate(3.20801,-119.042)"><title>Sheet.3383</title><desc>Public Key Infrastructure (PKI)</desc><path d="M0 275.92 L187.71 275.92 L187.71 213.4 L0 213.4 L0 275.92 Z" class="st13"/><text x="49.22" y="226.4" class="st14">Public Key Infrastructure (PKI)</text></g><g id="group3467-46" transform="translate(3.84958,-1)"><title>Sheet.3467</title><g id="shape3468-47"><title>Nordic Light Grey</title><rect width="126.067" height="45.354" x="0" y="230.562" class="st15"/></g><g id="shape3469-49" transform="translate(2.904,-17.8541)"><title>Sheet.3469</title><rect width="17.005" height="10.868" x="0" y="265.048" class="st7"/></g><g id="shape3470-51" transform="translate(23.8477,-18.3749)"><title>Sheet.3470</title><desc>Certification Authorities</desc><rect width="102.219" height="9.826" x="0" y="266.09" class="st9"/><text x="4" y="273.4" class="st16">Certification Authorities</text></g><g id="shape3471-54" transform="translate(2.904,-30.9324)"><title>Sheet.3471</title><rect width="17.005" height="10.868" x="0" y="265.048" class="st17"/></g><g id="shape3472-56" transform="translate(23.8477,-31.4532)"><title>Sheet.3472</title><desc>Attestation certificates</desc><rect width="102.219" height="9.826" x="0" y="266.09" class="st9"/><text x="4" y="273.4" class="st16">Attestation certificates</text></g><g id="shape3473-59" transform="translate(2.904,-4.48726)"><title>Sheet.3473</title><rect width="17.005" height="10.868" x="0" y="265.048" class="st5"/></g><g id="shape3474-61" transform="translate(23.8477,-4.48726)"><title>Sheet.3474</title><desc>Other attestation elements</desc><rect width="102.219" height="9.826" x="0" y="266.09" class="st9"/><text x="4" y="273.4" class="st16">Other attestation elements</text></g></g><g id="shape3475-64" transform="translate(95.2296,-120.996)"><title>Sheet.3475</title><desc>PAI certificate</desc><rect width="56.693" height="28.346" x="0" y="247.57" class="st18"/><text x="20.29" y="258.74" class="st6">PAI <tspan x="6.95" class="st8" dy="1.2em">certificate</tspan></text></g><g id="shape3476-68" transform="translate(152.365,-120.996)"><title>Sheet.3476</title><desc>DAC</desc><rect width="35.817" height="28.346" x="0" y="247.57" class="st18"/><text x="7.35" y="264.74" class="st6">DAC</text></g></g></svg>