<svg xmlns="http://www.w3.org/2000/svg" xmlns:ev="http://www.w3.org/2001/xml-events" xmlns:xlink="http://www.w3.org/1999/xlink" width="662.543" height="153.271" class="st13" color-interpolation-filters="sRGB" viewBox="0 0 496.908 114.953" xml:space="preserve"><style type="text/css">.st1,.st2{stroke:#d9e1e2;stroke-linecap:butt;stroke-width:1}.st2{stroke-dasharray:8,4}.st3{stroke:#6ad1e3;stroke-width:1.5}.st4{fill:none;stroke:none;stroke-width:1}.st5{fill:#000;font-family:Lato;font-size:.75em}.st6{fill:#00a9ce;stroke:none;stroke-width:1}.st7{fill:#fff;font-family:Lato;font-size:.833336em}.st8,.st9{stroke:#00a9ce}.st8{marker-end:url(#mrkr13-60);marker-start:url(#mrkr13-58);stroke-linecap:butt;stroke-width:1}.st9{fill:#00a9ce;fill-opacity:1;stroke-opacity:1;stroke-width:.40983606557377}.st10{fill:#fff;stroke:none;stroke-linecap:butt;stroke-width:7.2}.st11{fill:#00a9ce;font-family:Lato;font-size:.666664em}.st12{font-size:1em}.st13{fill:none;fill-rule:evenodd;font-size:12px;overflow:visible;stroke-linecap:square;stroke-miterlimit:3}</style><defs id="Markers"><g id="lend13"><path d="M 3 1 L 0 0 L 3 -1 L 3 1" style="stroke:none"/></g><marker id="mrkr13-58" class="st9" markerUnits="strokeWidth" orient="auto" overflow="visible" refX="6.96"><use transform="scale(2.44)" xlink:href="#lend13"/></marker><marker id="mrkr13-60" class="st9" markerUnits="strokeWidth" orient="auto" overflow="visible" refX="-7.32"><use transform="scale(-2.44,-2.44)" xlink:href="#lend13"/></marker></defs><g><title>Page-1</title><g id="shape79-1" transform="translate(152.421,-113.953)"><title>Dynamic connector.79</title><path d="M7.09 114.95 L7.09 202.83" class="st1"/></g><g id="shape80-4" transform="translate(107.627,-113.953)"><title>Dynamic connector.80</title><path d="M7.09 114.95 L7.09 202.83" class="st1"/></g><g id="shape81-7" transform="translate(285.616,-113.953)"><title>Dynamic connector.81</title><path d="M7.09 114.95 L7.09 202.83" class="st1"/></g><g id="shape82-10" transform="translate(388.768,-113.953)"><title>Dynamic connector.82</title><path d="M7.09 114.95 L7.09 202.83" class="st1"/></g><g id="shape83-13" transform="translate(332.916,-113.953)"><title>Dynamic connector.83</title><path d="M7.09 114.95 L7.09 202.83" class="st1"/></g><g id="shape84-16" transform="translate(439.215,-113.953)"><title>Dynamic connector.84</title><path d="M7.09 114.95 L7.09 202.83" class="st1"/></g><g id="shape69-19" transform="translate(62.5052,-52.2598)"><title>Dynamic connector</title><path d="M0 107.87 L432.66 107.87" class="st2"/></g><g id="shape70-22" transform="translate(61.3863,-28.9134)"><title>Dynamic connector.70</title><path d="M0 107.87 L426.01 107.87" class="st2"/></g><g id="shape71-25" transform="translate(62.5052,-75.6063)"><title>Dynamic connector.71</title><path d="M0 107.87 L432.66 107.87" class="st2"/></g><g id="shape18-28" transform="translate(62.8001,-36)"><title>Multi-Line</title><path d="M0 114.95 L51.78 114.95 L96.46 68.26 L229.31 68.26 L276.49 91.61 L332.19 91.61 L382.51 114.95 L431.99 114.95" class="st3"/></g><g id="shape66-31" transform="translate(1,-72.6929)"><title>Sheet.66</title><desc>On level</desc><rect width="61.505" height="20" x="0" y="94.953" class="st4"/><text x="24.58" y="107.65" class="st5">On level</text></g><g id="shape67-34" transform="translate(1,-26)"><title>Sheet.67</title><desc>Standby level</desc><rect width="61.505" height="20" x="0" y="94.953" class="st4"/><text x="4.48" y="107.65" class="st5">Standby level</text></g><g id="shape68-37" transform="translate(1,-49.3465)"><title>Sheet.68</title><desc>Prolong level</desc><rect width="61.505" height="20" x="0" y="94.953" class="st4"/><text x="6.09" y="107.65" class="st5">Prolong level</text></g><g id="shape86-40" transform="translate(62.2068,-4.81888)"><title>Nordic Sky</title><desc>Standby</desc><rect width="51.914" height="18.425" x="0" y="96.528" class="st6"/><text x="8" y="108.74" class="st7">Standby</text></g><g id="shape87-43" transform="translate(115.307,-4.81888)"><title>Nordic Sky.87</title><desc>On</desc><rect width="177.099" height="18.425" x="0" y="96.528" class="st6"/><text x="81.76" y="108.74" class="st7">On</text></g><g id="shape88-46" transform="translate(293.593,-4.81888)"><title>Nordic Sky.88</title><desc>Prolong</desc><rect width="102.047" height="18.425" x="0" y="96.528" class="st6"/><text x="33.96" y="108.74" class="st7">Prolong</text></g><g id="shape89-49" transform="translate(396.827,-4.81888)"><title>Nordic Sky.89</title><desc>Standby</desc><rect width="99.081" height="18.425" x="0" y="96.528" class="st6"/><text x="31.58" y="108.74" class="st7">Standby</text></g><g id="shape90-52" transform="translate(114.714,-93.9685)"><title>Signal</title><desc>Fade on</desc><path d="M6.96 107.96 L7.32 107.96 L37.47 107.77" class="st8"/><rect width="17.204" height="19.2" x="13.795" y="98.266" class="st10"/><text x="13.8" y="105.47" class="st11">Fade <tspan x="17.9" class="st12" dy="1.2em">on</tspan></text></g><g id="shape91-64" transform="translate(159.508,-94.1102)"><title>Signal.91</title><desc>On</desc><path d="M6.96 107.87 L7.32 107.87 L125.88 107.87" class="st8"/><rect width="10.868" height="9.6" x="61.164" y="103.066" class="st10"/><text x="61.16" y="110.27" class="st11">On</text></g><g id="shape92-73" transform="translate(292.703,-94.1102)"><title>Signal.92</title><desc>Fade Prolong</desc><path d="M6.96 107.87 L7.32 107.87 L39.98 107.87" class="st8"/><rect width="27.3" height="19.2" x="10" y="98.266" class="st10"/><text x="15.05" y="105.47" class="st11">Fade <tspan x="10" class="st12" dy="1.2em">Prolong</tspan></text></g><g id="shape93-83" transform="translate(395.855,-108.425)"><title>Signal.93</title><desc>Fade Standby</desc><path d="M6.96 121.94 L7.32 121.94 L43.13 122.14" class="st8"/><rect width="28.732" height="19.2" x="10.857" y="112.44" class="st10"/><text x="16.62" y="119.64" class="st11">Fade <tspan x="10.86" class="st12" dy="1.2em">Standby</tspan></text></g><g id="shape94-93" transform="translate(340.002,-94.252)"><title>Signal.94</title><desc>Prolong</desc><path d="M6.96 107.97 L7.32 107.97 L48.53 107.76" class="st8"/><rect width="27.3" height="9.6" x="14.276" y="103.066" class="st10"/><text x="14.28" y="110.27" class="st11">Prolong</text></g></g></svg>