<svg xmlns="http://www.w3.org/2000/svg" xmlns:ev="http://www.w3.org/2001/xml-events" xmlns:xlink="http://www.w3.org/1999/xlink" width="282" height="662" class="st11" color-interpolation-filters="sRGB" viewBox="0 0 211.5 496.5" xml:space="preserve"><style type="text/css">.st1{fill:#d9e1e2}.st1,.st2,.st3{stroke:none;stroke-linecap:butt;stroke-width:.75}.st2{fill:#768692}.st3{fill:none}.st4{fill:#fff;font-family:Calibri;font-size:.75em}.st5,.st6{fill:#00a9ce;stroke:none;stroke-linecap:butt;stroke-width:.75}.st6{fill:#333f48}.st7{font-size:1em}.st8{fill:#000;font-family:Calibri;font-size:.75em}.st10,.st9{stroke-linecap:butt}.st9{fill:#00a9ce;stroke:#000;stroke-dasharray:1,.5;stroke-width:.25}.st10{fill:#0077c8;stroke:none;stroke-width:.75}.st11{fill:none;fill-rule:evenodd;font-size:12px;overflow:visible;stroke-linecap:square;stroke-miterlimit:3}</style><g><title>Page-1</title><g id="shape6-1" transform="translate(0.75,-105.75)"><title>Sheet.6</title><rect width="210" height="270" x="0" y="226.5" class="st1"/></g><g id="shape7-3" transform="translate(7.875,-113.25)"><title>Sheet.7</title><rect width="90" height="45" x="0" y="451.5" class="st2"/></g><g id="shape8-5" transform="translate(35.225,-130.8)"><title>Sheet.8</title><desc>IPV4</desc><rect width="36.05" height="10.8" x="0" y="485.7" class="st3"/><text x="9.73" y="493.8" class="st4">IPV4</text></g><g id="shape9-8" transform="translate(7.875,-218.25)"><title>Sheet.9</title><rect width="90.375" height="45" x="0" y="451.5" class="st2"/></g><g id="shape10-10" transform="translate(35.225,-235.8)"><title>Sheet.10</title><desc>DTLS</desc><rect width="36.05" height="10.8" x="0" y="485.7" class="st3"/><text x="9.1" y="493.8" class="st4">DTLS</text></g><g id="shape11-13" transform="translate(114.375,-113.25)"><title>Sheet.11</title><rect width="90" height="45" x="0" y="451.5" class="st2"/></g><g id="shape12-15" transform="translate(141.725,-130.8)"><title>Sheet.12</title><desc>IPV6</desc><rect width="36.05" height="10.8" x="0" y="485.7" class="st3"/><text x="9.73" y="493.8" class="st4">IPV6</text></g><g id="shape13-18" transform="translate(7.875,-53.25)"><title>Sheet.13</title><rect width="196.5" height="45" x="0" y="451.5" class="st5"/></g><g id="shape14-20" transform="translate(47.975,-70.8)"><title>Sheet.14</title><desc>Modem library</desc><rect width="117.05" height="10.8" x="0" y="485.7" class="st3"/><text x="31.33" y="493.8" class="st4">Modem library</text></g><g id="shape15-23" transform="translate(7.875,-165.75)"><title>Sheet.15</title><rect width="90.375" height="45" x="0" y="451.5" class="st2"/></g><g id="shape16-25" transform="translate(39.725,-183.3)"><title>Sheet.16</title><desc>UDP</desc><rect width="27.05" height="10.8" x="0" y="485.7" class="st3"/><text x="5.54" y="493.8" class="st4">UDP</text></g><g id="shape17-28" transform="translate(7.875,-0.75)"><title>Sheet.17</title><rect width="196.5" height="45" x="0" y="451.5" class="st6"/></g><g id="shape18-30" transform="translate(52.475,-18.3)"><title>Sheet.18</title><desc>LTE-M/NB-IoT</desc><rect width="108.05" height="10.8" x="0" y="485.7" class="st3"/><text x="28.35" y="493.8" class="st4">LTE-M/NB-IoT</text></g><g id="shape19-33" transform="translate(7.125,-323.25)"><title>Sheet.19</title><rect width="196.5" height="45" x="0" y="451.5" class="st2"/></g><g id="shape20-35" transform="translate(20.225,-340.8)"><title>Sheet.20</title><desc>Zephyr LwM2M Client</desc><rect width="171.05" height="10.8" x="0" y="485.7" class="st3"/><text x="45.15" y="493.8" class="st4">Zephyr LwM2M Client</text></g><g id="shape21-38" transform="translate(7.875,-383.25)"><title>Sheet.21</title><rect width="196.5" height="45" x="0" y="451.5" class="st5"/></g><g id="shape22-40" transform="translate(57.1018,-400.8)"><title>Sheet.22</title><desc>LwM2M client utils library</desc><rect width="81.05" height="10.8" x="0" y="485.7" class="st3"/><text x="5.63" y="488.4" class="st4">LwM2M<tspan class="st7"> </tspan><tspan class="st7">client utils </tspan><tspan x="28.77" class="st7" dy="1.2em">library</tspan></text></g><g id="shape23-46" transform="translate(53.625,-450.75)"><title>Sheet.23</title><rect width="90" height="45" x="0" y="451.5" class="st5"/></g><g id="shape24-48" transform="translate(80.975,-468.3)"><title>Sheet.24</title><desc>CoAP</desc><rect width="36.05" height="10.8" x="0" y="485.7" class="st3"/><text x="8.32" y="493.8" class="st8">CoAP</text></g><g id="shape25-51" transform="translate(61.125,-443.25)"><title>Sheet.25</title><path d="M0 496.5 L90 496.5 L90 451.5 L0 451.5 L0 496.5 Z" class="st9"/></g><g id="shape26-53" transform="translate(88.475,-460.8)"><title>Sheet.26</title><desc>CoAP</desc><rect width="36.05" height="10.8" x="0" y="485.7" class="st3"/><text x="8.32" y="493.8" class="st8">CoAP</text></g><g id="shape27-56" transform="translate(68.625,-435.75)"><title>Sheet.27</title><path d="M0 496.5 L90 496.5 L90 451.5 L0 451.5 L0 496.5 Z" class="st9"/></g><g id="shape28-58" transform="translate(67.3125,-452.85)"><title>Sheet.28</title><desc>LwM2M client application</desc><rect width="90.375" height="10.8" x="0" y="485.7" class="st3"/><text x="19.01" y="488.4" class="st4">LwM2M client <tspan x="24.9" class="st7" dy="1.2em">application</tspan></text></g><g id="shape29-62" transform="translate(7.875,-270.75)"><title>Sheet.29</title><rect width="90.375" height="45" x="0" y="451.5" class="st2"/></g><g id="shape30-64" transform="translate(35.225,-288.3)"><title>Sheet.30</title><desc>CoAP</desc><rect width="36.05" height="10.8" x="0" y="485.7" class="st3"/><text x="8.32" y="493.8" class="st4">CoAP</text></g><g id="shape31-67" transform="translate(112.5,-165.75)"><title>Sheet.31</title><rect width="90.375" height="45" x="0" y="451.5" class="st2"/></g><g id="shape32-69" transform="translate(143.975,-183.3)"><title>Sheet.32</title><desc>TCP</desc><rect width="27.05" height="10.8" x="0" y="485.7" class="st3"/><text x="6.61" y="493.8" class="st4">TCP</text></g><g id="shape33-72" transform="translate(112.5,-218.25)"><title>Sheet.33</title><rect width="90.375" height="45" x="0" y="451.5" class="st2"/></g><g id="shape34-74" transform="translate(143.975,-235.8)"><title>Sheet.34</title><desc>TLS</desc><rect width="27.05" height="10.8" x="0" y="485.7" class="st3"/><text x="7.37" y="493.8" class="st4">TLS</text></g><g id="shape35-77" transform="translate(112.5,-270.75)"><title>Sheet.35</title><rect width="90.375" height="45" x="0" y="451.5" class="st2"/></g><g id="shape36-79" transform="translate(139.475,-288.3)"><title>Sheet.36</title><desc>HTTP</desc><rect width="36.05" height="10.8" x="0" y="485.7" class="st3"/><text x="8.51" y="493.8" class="st4">HTTP</text></g><g id="shape37-82" transform="translate(150.75,-394.5)"><title>Sheet.37</title><rect width="45" height="22.5" x="0" y="474" class="st10"/></g><g id="shape38-84" transform="translate(155.225,-400.8)"><title>Sheet.38</title><desc>FOTA</desc><rect width="36.05" height="10.8" x="0" y="485.7" class="st3"/><text x="8.18" y="493.8" class="st4">FOTA</text></g></g></svg>