<svg xmlns="http://www.w3.org/2000/svg" xmlns:ev="http://www.w3.org/2001/xml-events" xmlns:xlink="http://www.w3.org/1999/xlink" width="633.848" height="210.54" class="st5" color-interpolation-filters="sRGB" viewBox="0 0 475.386 157.906" xml:space="preserve"><style type="text/css">.st1,.st2{fill:#6ad1e3;stroke:none;stroke-width:1}.st2{fill:#00a9ce}.st3{fill:#fff;font-family:Arial;font-size:.916672em}.st4{font-size:1em}.st5{fill:none;fill-rule:evenodd;font-size:12px;overflow:visible;stroke-linecap:square;stroke-miterlimit:3}</style><g><title>Page-1</title><g id="shape6-1" transform="translate(1,-1)"><title>Nordic Lake</title><rect width="473.386" height="155.906" x="0" y="2" class="st1"/></g><g id="shape7-3" transform="translate(9.50394,-74.7008)"><title>Nordic Sky</title><desc>Arm Cortex-M33 256 MHz Fast Start-Stop L1 I-Cache, L1 D-Cache...</desc><rect width="155.906" height="73.71" x="0" y="84.196" class="st2"/><text x="37.61" y="104.55" class="st3">Arm Cortex-M33 <tspan x="17.43" class="st4" dy="1.2em">256</tspan> MHz Fast Start-Stop<tspan x="18.64" class="st4" dy="1.2em">L1 I</tspan>-Cache, L1 D-Cache<tspan x="24.47" class="st4" dy="1.2em">TrustZone,</tspan> FPU, DSP</text></g><g id="shape11-9" transform="translate(329.819,-9.49056)"><title>Nordic Sky.11</title><desc>Multiprotocol 2.4 GHz Radio Bluetooth Low Energy Bluetooth LE...</desc><rect width="136.063" height="138.92" x="0" y="18.986" class="st2"/><text x="36.85" y="38.95" class="st3">Multiprotocol<tspan x="31.96" class="st4" dy="1.2em">2.4 GHz Radio </tspan><tspan x="14.22" class="st4" dy="2.4em">Bluetooth Low Energy</tspan><tspan x="20.94" class="st4" dy="1.2em">Bluetooth LE Audio </tspan><tspan x="29.2" class="st4" dy="1.2em">Bluetooth </tspan>mEsh <tspan x="32.56" class="st4" dy="1.2em">IEEE 802.15.4</tspan><tspan x="20.04" class="st4" dy="1.2em">2.4 GHz proprietary </tspan><tspan x="45.71" class="st4" dy="1.2em">protocols</tspan></text></g><g id="shape13-19" transform="translate(9.50394,-9.49056)"><title>Nordic Sky.13</title><desc>192 KB RAM</desc><rect width="155.906" height="56.711" x="0" y="101.195" class="st2"/><text x="46.16" y="132.85" class="st3">192 KB RAM</text></g><g id="shape14-22" transform="translate(175.331,-120.055)"><title>Nordic Sky.14</title><desc>MVDMA</desc><rect width="68.031" height="28.355" x="0" y="129.55" class="st2"/><text x="13.54" y="147.03" class="st3">MVDMA</text></g><g id="shape15-25" transform="translate(253.283,-120.055)"><title>Nordic Sky.15</title><desc>AES-128</desc><rect width="68.031" height="28.355" x="0" y="129.55" class="st2"/><text x="12" y="147.03" class="st3">AES-128</text></g><g id="shape16-28" transform="translate(175.331,-83.2003)"><title>Nordic Sky.16</title><desc>RTC</desc><rect width="68.031" height="28.355" x="0" y="129.55" class="st2"/><text x="22.71" y="147.03" class="st3">RTC</text></g><g id="shape17-31" transform="translate(253.283,-83.2003)"><title>Nordic Sky.17</title><desc>2x WDT</desc><rect width="68.031" height="28.355" x="0" y="129.55" class="st2"/><text x="14.16" y="147.03" class="st3">2x WDT</text></g><g id="shape18-34" transform="translate(175.331,-46.3454)"><title>Nordic Sky.18</title><desc>DPPI</desc><rect width="68.031" height="28.355" x="0" y="129.55" class="st2"/><text x="21.18" y="147.03" class="st3">DPPI</text></g><g id="shape19-37" transform="translate(253.283,-46.3454)"><title>Nordic Sky.19</title><desc>Timer</desc><rect width="68.031" height="28.355" x="0" y="129.55" class="st2"/><text x="19.96" y="147.03" class="st3">Timer</text></g><g id="shape20-40" transform="translate(175.331,-9.49056)"><title>Nordic Sky.20</title><desc>MPC</desc><rect width="42.52" height="28.355" x="0" y="129.55" class="st2"/><text x="9.04" y="147.03" class="st3">MPC</text></g><g id="shape21-43" transform="translate(278.795,-9.49056)"><title>Nordic Sky.21</title><desc>SPU</desc><rect width="42.52" height="28.355" x="0" y="129.55" class="st2"/><text x="9.95" y="147.03" class="st3">SPU</text></g><g id="shape22-46" transform="translate(227.772,-9.49056)"><title>Nordic Sky.22</title><desc>IPC</desc><rect width="42.52" height="28.355" x="0" y="129.55" class="st2"/><text x="12.09" y="147.03" class="st3">IPC</text></g></g></svg>