<svg xmlns="http://www.w3.org/2000/svg" xmlns:ev="http://www.w3.org/2001/xml-events" xmlns:xlink="http://www.w3.org/1999/xlink" width="298.89" height="224.244" class="st5" color-interpolation-filters="sRGB" viewBox="0 0 224.168 168.183" xml:space="preserve"><style type="text/css">.st1,.st2{fill:#6ad1e3;stroke:none;stroke-width:1}.st2{fill:#00a9ce}.st3{fill:#fff;font-family:Arial;font-size:.833336em}.st4{font-size:1em}.st5{fill:none;fill-rule:evenodd;font-size:12px;overflow:visible;stroke-linecap:square;stroke-miterlimit:3}</style><g><title>Page-1</title><g id="shape1000-1" transform="translate(1,-1)"><title>Nordic Lake</title><rect width="222.168" height="166.183" x="0" y="2" class="st1"/></g><g id="shape1001-3" transform="translate(8.08664,-86.3847)"><title>Nordic Sky</title><desc>Arm Cortex-M33 Max 320 MHz DVFS L1 I-Cache, L1 D-Cache Trustz...</desc><rect width="137.412" height="73.072" x="0" y="95.111" class="st2"/><text x="32.03" y="116.65" class="st3">Arm Cortex-M33 <tspan x="23.14" class="st4" dy="1.2em">Max 320 MHz DVFS </tspan><tspan x="14.79" class="st4" dy="1.2em">L1 I</tspan>-Cache, L1 D-Cache <tspan x="20.64" class="st4" dy="1.2em">Trustzone, FPU, DSP</tspan></text></g><g id="shape1002-9" transform="translate(150.547,-126.291)"><title>Nordic Sky.9</title><desc>MVDMA</desc><rect width="65.304" height="33.166" x="0" y="135.018" class="st2"/><text x="14.04" y="154.6" class="st3">MVDMA</text></g><g id="shape1003-12" transform="translate(150.547,-86.3847)"><title>Nordic Sky.10</title><desc>SPU</desc><rect width="65.304" height="33.166" x="0" y="135.018" class="st2"/><text x="22.37" y="154.6" class="st3">SPU</text></g><g id="shape1004-15" transform="translate(150.547,-46.4781)"><title>Nordic Sky.11</title><desc>MPC</desc><rect width="65.304" height="33.166" x="0" y="135.018" class="st2"/><text x="21.54" y="154.6" class="st3">MPC</text></g><g id="shape1005-18" transform="translate(79.4614,-46.4781)"><title>Nordic Sky.12</title><desc>IPC</desc><rect width="66.014" height="33.166" x="0" y="135.018" class="st2"/><text x="24.67" y="154.6" class="st3">IPC</text></g><g id="shape1006-21" transform="translate(79.5915,-8.08625)"><title>Nordic Sky.13</title><desc>2x WDT</desc><rect width="66.014" height="33.166" x="0" y="135.018" class="st2"/><text x="14.95" y="154.6" class="st3">2x WDT</text></g><g id="shape1007-24" transform="translate(8.08664,-8.08625)"><title>Nordic Sky.14</title><desc>32 KB RAM</desc><rect width="66.014" height="71.558" x="0" y="96.626" class="st2"/><text x="19.39" y="129.4" class="st3">32 KB <tspan x="21.9" class="st4" dy="1.2em">RAM</tspan></text></g></g></svg>