<svg xmlns="http://www.w3.org/2000/svg" xmlns:ev="http://www.w3.org/2001/xml-events" xmlns:xlink="http://www.w3.org/1999/xlink" width="288.787" height="314.151" class="st12" color-interpolation-filters="sRGB" viewBox="0 0 216.591 235.614" xml:space="preserve"><style type="text/css">.st1{fill:none;stroke:#6ad1e3;stroke-width:1}.st2,.st3{fill:#00a9ce}.st2{font-family:Arial;font-size:.833336em}.st3{stroke:none;stroke-width:1}.st4{fill:#fff;font-family:Arial;font-size:.916672em}.st5{marker-end:url(#mrkr4-30);stroke-linecap:butt;stroke-width:1}.st5,.st6,.st7{stroke:#0077c8}.st6{fill:#0077c8;fill-opacity:1;stroke-opacity:1;stroke-width:.28409090909091}.st7{stroke-linecap:butt;stroke-width:1}.st8,.st9{stroke:#d0df00}.st8{marker-end:url(#mrkr4-42);stroke-linecap:butt;stroke-width:1}.st9{fill:#d0df00;fill-opacity:1;stroke-opacity:1;stroke-width:.28409090909091}.st10,.st11{stroke:#d0df00;stroke-linecap:butt;stroke-width:1}.st11{marker-start:url(#mrkr4-69)}.st12{fill:none;fill-rule:evenodd;font-size:12px;overflow:visible;stroke-linecap:square;stroke-miterlimit:3}</style><defs id="Markers"><g id="lend4"><path d="M 2 1 L 0 0 L 2 -1 L 2 1" style="stroke:none"/></g><marker id="mrkr4-30" class="st6" markerUnits="strokeWidth" orient="auto" overflow="visible" refX="-7.04"><use transform="scale(-3.52,-3.52)" xlink:href="#lend4"/></marker><marker id="mrkr4-42" class="st9" markerUnits="strokeWidth" orient="auto" overflow="visible" refX="-7.04"><use transform="scale(-3.52,-3.52)" xlink:href="#lend4"/></marker><marker id="mrkr4-69" class="st9" markerUnits="strokeWidth" orient="auto" overflow="visible" refX="6.68"><use transform="scale(3.52)" xlink:href="#lend4"/></marker></defs><g><title>Page-1</title><g id="shape37-1" transform="translate(1,-144.003)"><title>Nordic Light Grey.37</title><desc>Production</desc><rect width="202.677" height="90.611" x="0" y="145.003" class="st1"/><text x="4" y="193.31" class="st2">Production</text></g><g id="shape36-4" transform="translate(1,-1)"><title>Nordic Light Grey.36</title><desc>End-of-life</desc><rect width="202.677" height="93.397" x="0" y="142.217" class="st1"/><text x="4" y="191.92" class="st2">End-of-life</text></g><g id="shape35-7" transform="translate(1,-94.3968)"><title>Nordic Light Grey.35</title><desc>In-field</desc><rect width="202.677" height="49.606" x="0" y="186.008" class="st1"/><text x="4" y="213.81" class="st2">In-field</text></g><g id="shape5-10" transform="translate(88.1653,-9.60182)"><title>Nordic Blue</title><desc>DISCARDED</desc><rect width="85.039" height="26.294" x="0" y="209.32" class="st3"/><text x="10.13" y="225.77" class="st4">DISCARDED</text></g><g id="shape16-13" transform="translate(88.1653,-57.1554)"><title>Nordic Blue.16</title><desc>ANALYSIS</desc><rect width="85.039" height="26.294" x="0" y="209.32" class="st3"/><text x="15.62" y="225.77" class="st4">ANALYSIS</text></g><g id="shape17-16" transform="translate(88.1653,-104.709)"><title>Nordic Blue.17</title><desc>DEPLOYED</desc><rect width="85.039" height="26.294" x="0" y="209.32" class="st3"/><text x="12.57" y="225.77" class="st4">DEPLOYED</text></g><g id="shape18-19" transform="translate(88.1653,-152.263)"><title>Nordic Blue.18</title><desc>RoT</desc><rect width="85.039" height="26.294" x="0" y="209.32" class="st3"/><text x="32.13" y="225.77" class="st4">RoT</text></g><g id="shape19-22" transform="translate(88.1653,-199.816)"><title>Nordic Blue.19</title><desc>EMPTY</desc><rect width="85.039" height="26.294" x="0" y="209.32" class="st3"/><text x="23.57" y="225.77" class="st4">EMPTY</text></g><g id="shape20-25" transform="translate(81.0787,-212.963)"><title>Dynamic connector</title><path d="M7.09 235.61 L-12.66 235.61 L-12.66 378.27 L0.05 378.27" class="st5"/></g><g id="shape21-31" transform="translate(68.4142,-157.394)"><title>Dynamic connector.21</title><path d="M0 228.53 L19.75 228.53" class="st7"/></g><g id="shape22-34" transform="translate(68.4142,-110.696)"><title>Dynamic connector.22</title><path d="M0 228.6 L19.75 228.45" class="st7"/></g><g id="shape23-37" transform="translate(166.118,-212.963)"><title>Dynamic connector.23</title><path d="M7.09 235.61 L30.47 235.61 L30.47 425.83 L14.13 425.83" class="st8"/></g><g id="shape24-43" transform="translate(196.58,-158.323)"><title>Dynamic connector.24</title><path d="M0 228.53 L-23.37 228.53" class="st10"/></g><g id="shape25-46" transform="translate(196.591,-110.708)"><title>Dynamic connector.25</title><path d="M0 228.59 L-23.39 228.47" class="st10"/></g><g id="shape26-49" transform="translate(123.598,-57.1554)"><title>Dynamic connector.26</title><path d="M7.09 235.61 L7.09 249.83" class="st8"/></g><g id="shape28-54" transform="translate(136.354,-131.003)"><title>Dynamic connector.28</title><path d="M7.09 235.61 L7.09 221.39" class="st5"/></g><g id="shape31-59" transform="translate(136.354,-178.556)"><title>Dynamic connector.31</title><path d="M7.09 235.61 L7.09 221.39" class="st5"/></g><g id="shape32-64" transform="translate(108.669,-178.418)"><title>Dynamic connector.32</title><path d="M7.09 228.93 L7.09 228.57 L7.09 214.35" class="st11"/></g><g id="shape33-70" transform="translate(109.142,-131.003)"><title>Dynamic connector.33</title><path d="M7.09 228.93 L7.09 228.57 L7.09 214.35" class="st11"/></g></g></svg>