<svg xmlns="http://www.w3.org/2000/svg" xmlns:ev="http://www.w3.org/2001/xml-events" xmlns:xlink="http://www.w3.org/1999/xlink" width="303.139" height="311.741" class="st8" color-interpolation-filters="sRGB" viewBox="0 0 227.354 233.806" xml:space="preserve"><style type="text/css">.st1{fill:#00a9ce;stroke:none;stroke-width:1}.st2{fill:#fff;font-family:Arial;font-size:.916672em}.st3{font-size:1em}.st4{fill:none;stroke:none;stroke-width:1}.st5{fill:#00a9ce;font-family:Arial;font-size:.916672em}.st6,.st7{stroke:#0077c8}.st6{marker-end:url(#mrkr4-38);stroke-linecap:butt;stroke-width:1}.st7{fill:#0077c8;fill-opacity:1;stroke-opacity:1;stroke-width:.28409090909091}.st8{fill:none;fill-rule:evenodd;font-size:12px;overflow:visible;stroke-linecap:square;stroke-miterlimit:3}</style><defs id="Markers"><g id="lend4"><path d="M 2 1 L 0 0 L 2 -1 L 2 1" style="stroke:none"/></g><marker id="mrkr4-38" class="st7" markerUnits="strokeWidth" orient="auto" overflow="visible" refX="-7.04"><use transform="scale(-3.52,-3.52)" xlink:href="#lend4"/></marker></defs><g><title>Page-1</title><g id="shape5-1" transform="translate(98.0133,-196.591)"><title>Nordic Blue</title><desc>Communication libraries</desc><rect width="128.341" height="36.215" x="0" y="197.591" class="st1"/><text x="5.18" y="219" class="st2">Communication libraries</text></g><g id="shape6-4" transform="translate(98.0133,-129.976)"><title>Nordic Blue.6</title><desc>IPC service library (ipc_service)</desc><rect width="128.341" height="36.85" x="0" y="196.955" class="st1"/><text x="19.55" y="212.08" class="st2">IPC service library <tspan x="33" class="st3" dy="1.2em">(ipc_service)</tspan></text></g><g id="shape7-8" transform="translate(98.0133,-66.1968)"><title>Nordic Blue.7</title><desc>IPC transport library (icmsg)</desc><rect width="128.341" height="34.607" x="0" y="199.198" class="st1"/><text x="15.27" y="213.2" class="st2">IPC transport library <tspan x="46.15" class="st3" dy="1.2em">(icmsg)</tspan></text></g><g id="shape8-12" transform="translate(98.0133,-1)"><title>Nordic Blue.8</title><desc>Shared RAM</desc><rect width="56.693" height="36.215" x="0" y="197.591" class="st1"/><text x="10.61" y="212.4" class="st2">Shared <tspan x="16.12" class="st3" dy="1.2em">RAM</tspan></text></g><g id="shape17-16" transform="translate(169.661,-1)"><title>Nordic Blue.17</title><desc>Signaling hardware</desc><rect width="56.693" height="36.215" x="0" y="197.591" class="st1"/><text x="5.72" y="212.4" class="st2">Signaling <tspan x="5.42" class="st3" dy="1.2em">hardware</tspan></text></g><g id="shape18-20" transform="translate(1,-196.591)"><title>Sheet.18</title><desc>Presentation layer Application layer</desc><rect width="97.013" height="36.215" x="0" y="197.591" class="st4"/><text x="4.35" y="212.4" class="st5">Presentation layer <tspan x="12.3" class="st3" dy="1.2em">Application layer</tspan></text></g><g id="shape20-24" transform="translate(18.0079,-129.976)"><title>Sheet.20</title><desc>Session layer</desc><rect width="80.005" height="36.85" x="0" y="196.955" class="st4"/><text x="9.97" y="218.68" class="st5">Session layer</text></g><g id="shape21-27" transform="translate(10.9213,-66.1968)"><title>Sheet.21</title><desc>Transport layer</desc><rect width="87.092" height="34.607" x="0" y="199.198" class="st4"/><text x="9.12" y="219.8" class="st5">Transport layer</text></g><g id="shape22-30" transform="translate(10.9213,-1)"><title>Sheet.22</title><desc>Physical layer</desc><rect width="87.092" height="36.215" x="0" y="197.591" class="st4"/><text x="15.23" y="219" class="st5">Physical layer</text></g><g id="shape25-33" transform="translate(155.097,-196.591)"><title>Dynamic connector</title><path d="M7.09 233.81 L7.09 256.53" class="st6"/></g><g id="shape27-39" transform="translate(169.27,-129.976)"><title>Dynamic connector.27</title><path d="M-7.09 233.81 L-7.09 255.94" class="st6"/></g><g id="shape28-44" transform="translate(134.433,-66.1968)"><title>Dynamic connector.28</title><path d="M-7.01 233.81 L-7.13 255.75" class="st6"/></g><g id="shape29-49" transform="translate(205.094,-66.1968)"><title>Dynamic connector.29</title><path d="M-7.09 233.81 L-7.09 255.75" class="st6"/></g></g></svg>