<svg xmlns="http://www.w3.org/2000/svg" xmlns:ev="http://www.w3.org/2001/xml-events" xmlns:xlink="http://www.w3.org/1999/xlink" width="564.315" height="332.006" class="st14" color-interpolation-filters="sRGB" viewBox="0 0 423.236 249.005" xml:space="preserve"><style type="text/css">.st1{fill:#0077c8;stroke:none;stroke-width:1}.st2{fill:#fff;font-family:Arial;font-size:.916672em}.st3{fill:#6ad1e3;stroke:none;stroke-width:1}.st4{font-size:1em}.st5{fill:#00a9ce;stroke:none;stroke-width:1}.st6{stroke:#d0df00;stroke-linecap:butt;stroke-width:3}.st7,.st8{stroke:#f58220}.st7{marker-end:url(#mrkr4-59);marker-start:url(#mrkr4-57);stroke-linecap:butt;stroke-width:1}.st8{fill:#f58220;fill-opacity:1;stroke-opacity:1;stroke-width:.28409090909091}.st10,.st9{stroke:#f58220;stroke-linecap:butt;stroke-width:1}.st10{marker-end:url(#mrkr4-59)}.st11,.st12{fill:none;stroke:#000;stroke-width:1}.st12{stroke:none}.st13{fill:#000;font-family:Arial;font-size:.75em}.st14{fill:none;fill-rule:evenodd;font-size:12px;overflow:visible;stroke-linecap:square;stroke-miterlimit:3}</style><defs id="Markers"><g id="lend4"><path d="M 2 1 L 0 0 L 2 -1 L 2 1" style="stroke:none"/></g><marker id="mrkr4-57" class="st8" markerUnits="strokeWidth" orient="auto" overflow="visible" refX="6.68"><use transform="scale(3.52)" xlink:href="#lend4"/></marker><marker id="mrkr4-59" class="st8" markerUnits="strokeWidth" orient="auto" overflow="visible" refX="-7.04"><use transform="scale(-3.52,-3.52)" xlink:href="#lend4"/></marker></defs><g><title>Page-1</title><g id="shape6-1" transform="translate(2.70866,-210.373)"><title>Nordic Lake</title><desc>Application Core</desc><rect width="94.271" height="37.632" x="0" y="211.373" class="st1"/><text x="6.78" y="233.49" class="st2">Application Core</text></g><g id="shape7-4" transform="translate(165.337,-210.373)"><title>Nordic Lake.7</title><desc>Radio Core</desc><rect width="94.271" height="37.632" x="0" y="211.373" class="st1"/><text x="19.32" y="233.49" class="st2">Radio Core</text></g><g id="shape8-7" transform="translate(327.965,-210.373)"><title>Nordic Lake.8</title><desc>Secure Domain</desc><rect width="94.271" height="37.632" x="0" y="211.373" class="st1"/><text x="9.23" y="233.49" class="st2">Secure Domain</text></g><g id="shape9-10" transform="translate(2.70866,-55.2492)"><title>Nordic Lake.9</title><desc>Global Domain</desc><rect width="419.528" height="104.882" x="0" y="144.123" class="st1"/><text x="173.39" y="241.71" class="st2">Global Domain</text></g><g id="shape10-13" transform="translate(18.6631,-78.4151)"><title>Nordic Sky</title><desc>RAM shared buffers</desc><rect width="62.362" height="67.005" x="0" y="182" class="st3"/><text x="18.96" y="205.6" class="st2">RAM <tspan x="14.36" class="st4" dy="1.2em">shared </tspan><tspan x="14.37" class="st4" dy="1.2em">buffers</tspan></text></g><g id="shape11-18" transform="translate(90.5827,-78.4151)"><title>Nordic Blue</title><desc>Peripherals</desc><rect width="317.48" height="67.005" x="0" y="182" class="st5"/><text x="130.92" y="241.71" class="st2">Peripherals</text></g><g id="shape12-21" transform="translate(101.921,-98.7953)"><title>Nordic Sky.12</title><desc>BELLBOARD Application Core</desc><rect width="90.709" height="37.632" x="0" y="211.373" class="st3"/><text x="12.34" y="226.89" class="st2">BELLBOARD <tspan x="5" class="st4" dy="1.2em">Application Core</tspan></text></g><g id="shape13-25" transform="translate(203.968,-98.7953)"><title>Nordic Sky.13</title><desc>BELLBOARD Radio Core</desc><rect width="90.709" height="37.632" x="0" y="211.373" class="st3"/><text x="12.34" y="226.89" class="st2">BELLBOARD <tspan x="17.53" class="st4" dy="1.2em">Radio Core</tspan></text></g><g id="shape14-29" transform="translate(306.016,-98.7953)"><title>Nordic Sky.14</title><desc>BELLBOARD Secure Domain</desc><rect width="90.709" height="37.632" x="0" y="211.373" class="st3"/><text x="12.34" y="226.89" class="st2">BELLBOARD <tspan x="7.45" class="st4" dy="1.2em">Secure Domain</tspan></text></g><g id="shape16-33" transform="translate(49.8442,-217.459)"><title>Dynamic connector</title><path d="M0 256.09 L0 297.83 L71.83 297.83 A2.3622 2.3622 0 1 1 76.55 297.83 L174.44 297.83 A2.3622 2.3622 0 1 1 179.16 297.83 L275.66 297.83 A2.3622 2.3622 0 1 1 280.38 297.83 L331.29 297.83 L331.29 256.09" class="st6"/></g><g id="shape17-36" transform="translate(205.386,-210.373)"><title>Dynamic connector.17</title><path d="M7.09 249.01 L7.09 290.74" class="st6"/></g><g id="shape18-39" transform="translate(344.283,-136.428)"><title>Dynamic connector.18</title><path d="M7.09 249.01 L7.09 216.8" class="st6"/></g><g id="shape19-42" transform="translate(242.236,-136.428)"><title>Dynamic connector.19</title><path d="M7.09 249.01 L7.09 216.8" class="st6"/></g><g id="shape20-45" transform="translate(140.189,-136.428)"><title>Dynamic connector.20</title><path d="M7.09 249.01 L7.09 216.8" class="st6"/></g><g id="shape21-48" transform="translate(42.7576,-145.42)"><title>Dynamic connector.21</title><path d="M7.09 249.01 L7.09 225.79" class="st6"/></g><g id="shape22-51" transform="translate(72.4409,-217.459)"><title>Dynamic connector.22</title><path d="M0 262.77 L0 263.13 L0 277.99 L137.67 277.99 A2.3622 2.3622 0 0 1 142.39 277.99 L284.6 277.99 L284.6 263.13" class="st7"/></g><g id="shape23-60" transform="translate(335,-136.428)"><title>Dynamic connector.23</title><path d="M-6.87 249.01 L-7.3 196.96" class="st9"/></g><g id="shape24-63" transform="translate(233.732,-136.428)"><title>Dynamic connector.24</title><path d="M-7.09 249.01 L-7.09 196.96" class="st9"/></g><g id="shape25-66" transform="translate(131.118,-136.428)"><title>Dynamic connector.25</title><path d="M-7.09 249.01 L-7.09 196.96" class="st9"/></g><g id="shape26-69" transform="translate(179.874,-188.478)"><title>Dynamic connector.26</title><path d="M7.09 249.01 L7.09 234.15" class="st10"/></g><g id="shape27-74" transform="translate(3.27559,-1)"><title>Nordic Blue.27</title><rect width="90.709" height="42.911" x="0" y="206.094" class="st11"/></g><g id="shape28-76" transform="translate(8.51223,-26.5118)"><title>Dynamic connector.28</title><path d="M0 241.92 L22.98 241.92" class="st6"/></g><g id="shape29-79" transform="translate(9.87627,-3.83465)"><title>Dynamic connector.29</title><path d="M0 241.92 L14.42 241.92" class="st10"/></g><g id="shape30-84" transform="translate(32.3307,-4.54331)"><title>Sheet.30</title><desc>BUS system IRQ system</desc><rect width="58.252" height="35.433" x="0" y="213.572" class="st12"/><text x="4" y="223.19" class="st13">BUS system <tspan x="4" class="st4" dy="2.4em">IRQ system</tspan></text></g></g></svg>