<svg xmlns="http://www.w3.org/2000/svg" xmlns:ev="http://www.w3.org/2001/xml-events" xmlns:xlink="http://www.w3.org/1999/xlink" width="682.981" height="384.399" class="st8" color-interpolation-filters="sRGB" viewBox="0 0 512.236 288.299" xml:space="preserve"><style type="text/css">.st1{fill:#0077c8;stroke:none;stroke-width:1}.st2{fill:#fff;font-family:Arial;font-size:.499992em}.st3{fill:#6ad1e3;stroke:none;stroke-width:1}.st4{fill:#000;font-family:Arial;font-size:.499992em}.st5{fill:#00a9ce;stroke:none;stroke-width:1}.st6{fill:#fff;font-family:Arial;font-size:.666664em}.st7{font-size:1em}.st8{fill:none;fill-rule:evenodd;font-size:12px;overflow:visible;stroke-linecap:square;stroke-miterlimit:3}</style><g><title>Page-1</title><g id="shape8-1" transform="translate(1,-1)"><title>Nordic Blue</title><desc>High-Speed</desc><rect width="240.945" height="286.299" x="0" y="2" class="st1"/><text x="4" y="11.4" class="st2">High-Speed</text></g><g id="shape10-4" transform="translate(249.031,-1)"><title>Nordic Blue.10</title><desc>Low-Leakage</desc><rect width="262.205" height="243.796" x="0" y="44.503" class="st1"/><text x="4" y="53.9" class="st2">Low-Leakage</text></g><g id="shape12-7" transform="translate(9.85826,-195.882)"><title>Nordic Blueslate</title><desc>Memories</desc><rect width="221.315" height="77.953" x="0" y="210.346" class="st3"/><text x="4" y="219.75" class="st4">Memories</text></g><g id="shape14-10" transform="translate(9.85826,-69.0657)"><title>Nordic Blueslate.14</title><desc>Peripherals</desc><rect width="221.315" height="119.837" x="0" y="168.462" class="st3"/><text x="4" y="177.86" class="st4">Peripherals</text></g><g id="shape17-13" transform="translate(15.1732,-226.865)"><title>Nordic Blue.17</title><desc>SRAM 768 KB</desc><rect width="53.757" height="32.994" x="0" y="255.305" class="st5"/><text x="15.32" y="269.4" class="st6">SRAM <tspan x="13.76" class="st7" dy="1.2em">768 KB</tspan></text></g><g id="shape18-17" transform="translate(73.6686,-226.865)"><title>Nordic Blue.18</title><desc>MRAM 1024 KB</desc><rect width="53.757" height="32.994" x="0" y="255.305" class="st5"/><text x="14.66" y="269.4" class="st6">MRAM <tspan x="11.53" class="st7" dy="1.2em">1024 KB</tspan></text></g><g id="shape19-21" transform="translate(132.862,-226.865)"><title>Nordic Blue.19</title><desc>MRAM 1024 KB</desc><rect width="53.757" height="32.994" x="0" y="255.305" class="st5"/><text x="14.66" y="269.4" class="st6">MRAM <tspan x="11.53" class="st7" dy="1.2em">1024 KB</tspan></text></g><g id="shape20-25" transform="translate(191.699,-226.865)"><title>Nordic Blue.20</title><desc>ROM</desc><rect width="33.805" height="17.931" x="0" y="270.368" class="st5"/><text x="7.57" y="281.73" class="st6">ROM</text></g><g id="shape26-28" transform="translate(69.0219,-128.984)"><title>Nordic Lake</title><desc>Peripheral Handling (optional) Software-defined peripherals</desc><rect width="90.073" height="46.381" x="0" y="241.919" class="st1"/><text x="4" y="251.32" class="st2">Peripheral Handling (optional) <tspan x="4" class="st7" dy="1.2em">Software</tspan>-defined peripherals</text></g><g id="shape27-32" transform="translate(15.1732,-73.8286)"><title>Nordic Blue.27</title><desc>HS-SPIM</desc><rect width="66.755" height="23.584" x="0" y="264.716" class="st5"/><text x="16.71" y="278.91" class="st6">HS-SPIM</text></g><g id="shape28-35" transform="translate(86.9437,-73.8286)"><title>Nordic Blue.28</title><desc>HS-SPIS</desc><rect width="63.159" height="23.584" x="0" y="264.716" class="st5"/><text x="15.58" y="278.91" class="st6">HS-SPIS</text></g><g id="shape29-38" transform="translate(155.205,-73.8286)"><title>Nordic Blue.29</title><desc>HS-SPIM / UART</desc><rect width="70.299" height="23.584" x="0" y="264.716" class="st5"/><text x="4.26" y="278.91" class="st6">HS-SPIM / UART</text></g><g id="shape30-41" transform="translate(15.1732,-102.656)"><title>Nordic Blue.30</title><desc>HS-USB</desc><rect width="48.766" height="20.835" x="0" y="267.465" class="st5"/><text x="9.27" y="280.28" class="st6">HS-USB</text></g><g id="shape31-44" transform="translate(69.0219,-102.656)"><title>Nordic Blue.31</title><desc>2x I3C</desc><rect width="48.766" height="20.835" x="0" y="267.465" class="st5"/><text x="12.82" y="280.28" class="st6">2x I3C</text></g><g id="shape32-47" transform="translate(123.164,-102.656)"><title>Nordic Blue.32</title><desc>HS-PWM</desc><rect width="48.766" height="20.835" x="0" y="267.465" class="st5"/><text x="7.72" y="280.28" class="st6">HS-PWM</text></g><g id="shape33-50" transform="translate(176.748,-102.656)"><title>Nordic Blue.33</title><desc>2x Timer</desc><rect width="48.766" height="20.835" x="0" y="267.465" class="st5"/><text x="8.83" y="280.28" class="st6">2x Timer</text></g><g id="shape34-53" transform="translate(15.1732,-128.984)"><title>Nordic Blue.34</title><desc>128 KB RAM</desc><rect width="48.766" height="46.381" x="0" y="241.919" class="st5"/><text x="11.26" y="262.71" class="st6">128 KB <tspan x="15.49" class="st7" dy="1.2em">RAM</tspan></text></g><g id="shape35-57" transform="translate(73.7531,-133.27)"><title>Nordic Blue.35</title><desc>FLPR CPU</desc><rect width="80.099" height="20.835" x="0" y="267.465" class="st5"/><text x="20.27" y="280.28" class="st6">FLPR CPU</text></g><g id="shape36-60" transform="translate(9.85826,-11.5224)"><title>Nordic Blueslate.36</title><desc>Configuration and control</desc><rect width="102.335" height="51.874" x="0" y="236.425" class="st3"/><text x="4" y="245.83" class="st4">Configuration and control</text></g><g id="shape37-63" transform="translate(117.787,-11.5224)"><title>Nordic Blueslate.37</title><rect width="113.386" height="61.087" x="0" y="227.213" class="st3"/></g><g id="shape38-65" transform="translate(15.1732,-34.506)"><title>Nordic Blue.38</title><desc>SPU</desc><rect width="26.132" height="15.179" x="0" y="273.12" class="st5"/><text x="4.84" y="283.11" class="st6">SPU</text></g><g id="shape39-68" transform="translate(44.0916,-34.506)"><title>Nordic Blue.39</title><desc>IPCT</desc><rect width="33.385" height="15.179" x="0" y="273.12" class="st5"/><text x="7.58" y="283.11" class="st6">IPCT</text></g><g id="shape40-71" transform="translate(15.2191,-16.5906)"><title>Nordic Blue.40</title><desc>MPC</desc><rect width="26.132" height="15.179" x="0" y="273.12" class="st5"/><text x="4.18" y="283.11" class="st6">MPC</text></g><g id="shape41-74" transform="translate(44.1502,-16.5906)"><title>Nordic Blue.41</title><desc>DDPIC</desc><rect width="33.385" height="15.179" x="0" y="273.12" class="st5"/><text x="4.25" y="283.11" class="st6">DDPIC</text></g><g id="shape42-77" transform="translate(123.164,-45.4821)"><title>Nordic Blue.42</title><desc>100 MHz 1.8 V GPIO Port</desc><rect width="102.335" height="23.584" x="0" y="264.716" class="st5"/><text x="5.15" y="278.91" class="st6">100 MHz 1.8 V GPIO Port</text></g><g id="shape43-80" transform="translate(123.311,-17.1357)"><title>Nordic Blue.43</title><desc>200 MHz 1.8 V GPIO Port</desc><rect width="102.335" height="23.584" x="0" y="264.716" class="st5"/><text x="5.15" y="278.91" class="st6">200 MHz 1.8 V GPIO Port</text></g><g id="shape45-83" transform="translate(259.712,-69.0657)"><title>Nordic Blueslate.45</title><desc>Peripherals</desc><rect width="240.843" height="162.108" x="0" y="126.192" class="st3"/><text x="4" y="135.59" class="st4">Peripherals</text></g><g id="shape46-86" transform="translate(323.689,-180.605)"><title>Nordic Lake.46</title><desc>Peripheral Handling (optional)</desc><rect width="88.335" height="36.395" x="0" y="251.904" class="st1"/><text x="4" y="261.3" class="st2">Peripheral Handling (optional)</text></g><g id="shape47-89" transform="translate(265.496,-73.8286)"><title>Nordic Blue.47</title><desc>Global RTC</desc><rect width="68.366" height="23.584" x="0" y="264.716" class="st5"/><text x="13.29" y="278.91" class="st6">Global RTC</text></g><g id="shape48-92" transform="translate(338.49,-73.8286)"><title>Nordic Blue.48</title><desc>8x SPI/TWI/UART</desc><rect width="79.587" height="23.584" x="0" y="264.716" class="st5"/><text x="7.57" y="278.91" class="st6">8x SPI/TWI/UART</text></g><g id="shape49-95" transform="translate(421.741,-73.8286)"><title>Nordic Blue.49</title><desc>8x Timer</desc><rect width="72.645" height="23.584" x="0" y="264.716" class="st5"/><text x="20.77" y="278.91" class="st6">8x Timer</text></g><g id="shape50-98" transform="translate(265.496,-154.992)"><title>Nordic Blue.50</title><desc>14-bit ADC</desc><rect width="54.313" height="20.835" x="0" y="267.465" class="st5"/><text x="7.59" y="280.28" class="st6">14-bit ADC</text></g><g id="shape51-101" transform="translate(323.689,-154.992)"><title>Nordic Blue.51</title><desc>4x 4ch PWM</desc><rect width="58.901" height="20.835" x="0" y="267.465" class="st5"/><text x="6.78" y="280.28" class="st6">4x 4ch PWM</text></g><g id="shape52-104" transform="translate(387.036,-154.992)"><title>Nordic Blue.52</title><desc>PDM</desc><rect width="54.336" height="20.835" x="0" y="267.465" class="st5"/><text x="18.28" y="280.28" class="st6">PDM</text></g><g id="shape53-107" transform="translate(444.914,-154.992)"><title>Nordic Blue.53</title><desc>Audio PLL</desc><rect width="49.489" height="20.835" x="0" y="267.465" class="st5"/><text x="6.29" y="280.28" class="st6">Audio PLL</text></g><g id="shape54-110" transform="translate(265.496,-180.605)"><title>Nordic Blue.54</title><desc>80 KB RAM</desc><rect width="54.313" height="36.395" x="0" y="251.904" class="st5"/><text x="16.26" y="267.7" class="st6">80 KB <tspan x="18.27" class="st7" dy="1.2em">RAM</tspan></text></g><g id="shape55-114" transform="translate(327.732,-185.326)"><title>Nordic Blue.55</title><desc>PPR CPU</desc><rect width="80.481" height="17.931" x="0" y="270.368" class="st5"/><text x="22.46" y="281.73" class="st6">PPR CPU</text></g><g id="shape56-117" transform="translate(259.712,-11.5224)"><title>Nordic Blueslate.56</title><desc>Configuration and control</desc><rect width="115.293" height="51.874" x="0" y="236.425" class="st3"/><text x="4" y="245.83" class="st4">Configuration and control</text></g><g id="shape57-120" transform="translate(381.175,-11.5224)"><title>Nordic Blueslate.57</title><rect width="119.38" height="61.087" x="0" y="227.213" class="st3"/></g><g id="shape58-122" transform="translate(264.622,-35.0853)"><title>Nordic Blue.58</title><desc>SPU</desc><rect width="26.268" height="15.179" x="0" y="273.12" class="st5"/><text x="4.91" y="283.11" class="st6">SPU</text></g><g id="shape59-125" transform="translate(293.574,-35.0853)"><title>Nordic Blue.59</title><desc>IPCT</desc><rect width="33.574" height="15.179" x="0" y="273.12" class="st5"/><text x="7.68" y="283.11" class="st6">IPCT</text></g><g id="shape60-128" transform="translate(264.668,-17.1699)"><title>Nordic Blue.60</title><desc>MPC</desc><rect width="26.268" height="15.179" x="0" y="273.12" class="st5"/><text x="4.25" y="283.11" class="st6">MPC</text></g><g id="shape61-131" transform="translate(293.633,-17.1699)"><title>Nordic Blue.61</title><desc>DDPIC</desc><rect width="33.574" height="15.179" x="0" y="273.12" class="st5"/><text x="4.34" y="283.11" class="st6">DDPIC</text></g><g id="shape62-134" transform="translate(387.036,-45.4821)"><title>Nordic Blue.62</title><desc>1.8 – 3.6 V GPIO Port</desc><rect width="107.35" height="23.584" x="0" y="264.716" class="st5"/><text x="14.77" y="278.91" class="st6">1.8 –<tspan class="st7" dx="1.946em">V GPIO Port</tspan></text></g><g id="shape63-138" transform="translate(387.19,-17.1357)"><title>Nordic Blue.63</title><desc>3x 1.2 – 1.8 V GPIO Port</desc><rect width="107.35" height="23.584" x="0" y="264.716" class="st5"/><text x="9.43" y="278.91" class="st6">3x 1.2 –<tspan class="st7" dx="1.946em">V GPIO Port</tspan></text></g><g id="shape64-142" transform="translate(265.689,-129.976)"><title>Nordic Blue.64</title><desc>COMP</desc><rect width="54.313" height="20.835" x="0" y="267.465" class="st5"/><text x="15.16" y="280.28" class="st6">COMP</text></g><g id="shape65-145" transform="translate(323.898,-129.976)"><title>Nordic Blue.65</title><desc>SIMIF</desc><rect width="58.901" height="20.835" x="0" y="267.465" class="st5"/><text x="18.78" y="280.28" class="st6">SIMIF</text></g><g id="shape66-148" transform="translate(387.229,-129.976)"><title>Nordic Blue.66</title><desc>NFC A-Tag</desc><rect width="54.336" height="20.835" x="0" y="267.465" class="st5"/><text x="6.94" y="280.28" class="st6">NFC A-Tag</text></g><g id="shape67-151" transform="translate(445.09,-129.976)"><title>Nordic Blue.67</title><desc>CAN</desc><rect width="49.489" height="20.835" x="0" y="267.465" class="st5"/><text x="16.3" y="280.28" class="st6">CAN</text></g><g id="shape68-154" transform="translate(265.496,-101.689)"><title>Nordic Blue.68</title><desc>LPCOMP</desc><rect width="68.366" height="23.584" x="0" y="264.716" class="st5"/><text x="17.29" y="278.91" class="st6">LPCOMP</text></g><g id="shape69-157" transform="translate(338.49,-101.689)"><title>Nordic Blue.69</title><desc>2x QDEC</desc><rect width="79.587" height="23.584" x="0" y="264.716" class="st5"/><text x="22.9" y="278.91" class="st6">2x QDEC</text></g><g id="shape70-160" transform="translate(421.741,-101.689)"><title>Nordic Blue.70</title><desc>2x I2S / 2x TDM</desc><rect width="72.645" height="23.584" x="0" y="264.716" class="st5"/><text x="7.65" y="278.91" class="st6">2x I2S / 2x TDM</text></g><g id="shape71-163" transform="translate(330.22,-35.0511)"><title>Nordic Blue.71</title><desc>IRQMAP</desc><rect width="39.653" height="15.179" x="0" y="273.12" class="st5"/><text x="4.05" y="283.11" class="st6">IRQMAP</text></g><g id="shape72-166" transform="translate(330.29,-17.1357)"><title>Nordic Blue.72</title><desc>IPCMAP</desc><rect width="39.653" height="15.179" x="0" y="273.12" class="st5"/><text x="4.49" y="283.11" class="st6">IPCMAP</text></g><g id="shape1000-169" transform="translate(15.1732,-200.843)"><title>Nordic Blue.1000</title><desc>HS-USB</desc><rect width="48.766" height="20.835" x="0" y="267.465" class="st5"/><text x="9.27" y="280.28" class="st6">HS-USB</text></g><g id="shape1001-172" transform="translate(69.0219,-200.843)"><title>Nordic Blue.1001</title><desc>2x I3C</desc><rect width="48.766" height="20.835" x="0" y="267.465" class="st5"/><text x="12.82" y="280.28" class="st6">2x I3C</text></g><g id="shape1002-175" transform="translate(123.164,-200.843)"><title>Nordic Blue.1002</title><desc>HS-PWM</desc><rect width="48.766" height="20.835" x="0" y="267.465" class="st5"/><text x="7.72" y="280.28" class="st6">HS-PWM</text></g><g id="shape1003-178" transform="translate(176.748,-200.843)"><title>Nordic Blue.1003</title><desc>2x Timer</desc><rect width="48.766" height="20.835" x="0" y="267.465" class="st5"/><text x="8.83" y="280.28" class="st6">2x Timer</text></g></g></svg>