<svg xmlns="http://www.w3.org/2000/svg" xmlns:ev="http://www.w3.org/2001/xml-events" xmlns:xlink="http://www.w3.org/1999/xlink" width="625.622" height="557.59" class="st6" color-interpolation-filters="sRGB" viewBox="0 0 469.217 418.193" xml:space="preserve"><style type="text/css">.st1{fill:none;stroke:none;stroke-width:.75}.st2{fill:#000;font-family:Arial;font-size:.916672em}.st3,.st4{stroke-width:.75}.st3{stroke:#6ad1e3;stroke-linecap:butt}.st4{fill:#0077c8;stroke:#0077c8}.st5{font-size:1em}.st6{fill:none;fill-rule:evenodd;font-size:12px;overflow:visible;stroke-linecap:square;stroke-miterlimit:3}</style><g><title>Page-1</title><g id="shape6-1" transform="translate(213.348,-0.75)"><title>Sheet.6</title><desc>Scan profiles</desc><rect width="76.535" height="19.843" x="0" y="398.35" class="st1"/><text x="6.47" y="411.57" class="st2">Scan profiles</text></g><g id="shape8-4" transform="translate(57.4429,-408.939)"><title>Sheet.8</title><path d="M0 418.19 L396.85 418.19" class="st3"/></g><g id="shape9-7" transform="translate(57.4429,-377.758)"><title>Sheet.9</title><path d="M0 418.19 L396.85 418.19" class="st3"/></g><g id="shape11-10" transform="translate(57.4429,-346.577)"><title>Sheet.11</title><path d="M0 418.19 L396.85 418.19" class="st3"/></g><g id="shape12-13" transform="translate(57.4429,-315.396)"><title>Sheet.12</title><path d="M0 418.19 L396.85 418.19" class="st3"/></g><g id="shape13-16" transform="translate(57.4429,-284.215)"><title>Sheet.13</title><path d="M0 418.19 L396.85 418.19" class="st3"/></g><g id="shape14-19" transform="translate(57.4429,-253.033)"><title>Sheet.14</title><path d="M0 418.19 L396.85 418.19" class="st3"/></g><g id="shape15-22" transform="translate(57.4429,-221.852)"><title>Sheet.15</title><path d="M0 418.19 L396.85 418.19" class="st3"/></g><g id="shape16-25" transform="translate(73.0335,-221.852)"><title>Sheet.16</title><rect width="11.339" height="144.567" x="0" y="273.626" class="st4"/></g><g id="shape20-27" transform="translate(112.719,-221.852)"><title>Sheet.20</title><rect width="11.339" height="144.567" x="0" y="273.626" class="st4"/></g><g id="shape22-29" transform="translate(152.404,-221.852)"><title>Sheet.22</title><rect width="11.339" height="167.244" x="0" y="250.949" class="st4"/></g><g id="shape23-31" transform="translate(192.089,-221.852)"><title>Sheet.23</title><rect width="11.339" height="31.181" x="0" y="387.012" class="st4"/></g><g id="shape25-33" transform="translate(231.774,-221.852)"><title>Sheet.25</title><rect width="11.339" height="53.858" x="0" y="364.335" class="st4"/></g><g id="shape27-35" transform="translate(270.041,-221.852)"><title>Sheet.27</title><rect width="11.339" height="113.386" x="0" y="304.807" class="st4"/></g><g id="shape28-37" transform="translate(309.726,-221.852)"><title>Sheet.28</title><rect width="11.339" height="113.386" x="0" y="304.807" class="st4"/></g><g id="shape29-39" transform="translate(349.411,-221.852)"><title>Sheet.29</title><rect width="11.339" height="8.504" x="0" y="409.689" class="st4"/></g><g id="shape30-41" transform="translate(389.096,-221.852)"><title>Sheet.30</title><rect width="11.339" height="36.85" x="0" y="381.343" class="st4"/></g><g id="shape31-43" transform="translate(428.781,-221.852)"><title>Sheet.31</title><rect width="11.339" height="42.52" x="0" y="375.673" class="st4"/></g><g id="shape32-45" transform="translate(-397.6,141.065) rotate(-90)"><title>Sheet.32</title><desc>Energy (J)</desc><rect width="76.535" height="19.843" x="0" y="398.35" class="st1"/><text x="12.9" y="411.57" class="st2">Energy (J)</text></g><g id="shape35-48" transform="translate(-329.569,282.797) rotate(-90)"><title>Sheet.35</title><desc>Default</desc><rect width="76.535" height="19.843" x="0" y="398.35" class="st1"/><text x="37.68" y="412.25" class="st2">Default</text></g><g id="shape36-51" transform="translate(-251.616,282.797) rotate(-90)"><title>Sheet.36</title><desc>Passive scan</desc><rect width="76.535" height="19.843" x="0" y="398.35" class="st1"/><text x="7.73" y="412.25" class="st2">Passive scan</text></g><g id="shape37-54" transform="translate(477.053,196.341) rotate(90)"><title>Sheet.37</title><path d="M0 418.19 L7.09 418.19" class="st3"/></g><g id="shape38-57" transform="translate(516.738,196.341) rotate(90)"><title>Sheet.38</title><path d="M0 418.19 L7.09 418.19" class="st3"/></g><g id="shape39-60" transform="translate(176.498,-221.852)"><title>Sheet.39</title><path d="M0 418.19 L7.51 418.19" class="st3"/></g><g id="shape40-63" transform="translate(554.861,185.339) rotate(88.4926)"><title>Sheet.40</title><path d="M0 418.19 L6.95 418.19" class="st3"/></g><g id="shape43-66" transform="translate(673.916,185.339) rotate(88.4926)"><title>Sheet.43</title><path d="M0 418.19 L6.95 418.19" class="st3"/></g><g id="shape44-69" transform="translate(594.363,185.339) rotate(88.4926)"><title>Sheet.44</title><path d="M0 418.19 L6.95 418.19" class="st3"/></g><g id="shape45-72" transform="translate(635.793,196.341) rotate(90)"><title>Sheet.45</title><path d="M0 418.19 L7.13 418.19" class="st3"/></g><g id="shape46-75" transform="translate(713.421,179.846) rotate(87.7395)"><title>Sheet.46</title><path d="M0 418.19 L6.95 418.19" class="st3"/></g><g id="shape47-78" transform="translate(752.014,196.341) rotate(90)"><title>Sheet.47</title><path d="M0 418.19 L7.06 418.19" class="st3"/></g><g id="shape48-81" transform="translate(793.116,196.341) rotate(90)"><title>Sheet.48</title><path d="M0 418.19 L6.95 418.19" class="st3"/></g><g id="shape49-84" transform="translate(831.384,196.341) rotate(90)"><title>Sheet.49</title><path d="M0 418.19 L7.06 418.19" class="st3"/></g><g id="shape50-87" transform="translate(871.069,196.341) rotate(90)"><title>Sheet.50</title><path d="M0 418.19 L7.06 418.19" class="st3"/></g><g id="shape51-90" transform="translate(-289.884,282.797) rotate(-90)"><title>Sheet.51</title><desc>Active scan</desc><rect width="76.535" height="19.843" x="0" y="398.35" class="st1"/><text x="16.29" y="412.25" class="st2">Active scan</text></g><g id="shape52-93" transform="translate(-209.096,300.514) rotate(-90)"><title>Sheet.52</title><desc>2.4 GHz Active</desc><rect width="94.961" height="19.843" x="0" y="398.35" class="st1"/><text x="17.6" y="412.25" class="st2">2.4 GHz Active</text></g><g id="shape53-96" transform="translate(-170.829,300.514) rotate(-90)"><title>Sheet.53</title><desc>2.4 GHz Passive</desc><rect width="94.961" height="19.843" x="0" y="398.35" class="st1"/><text x="9.04" y="412.25" class="st2">2.4 GHz Passive</text></g><g id="shape54-99" transform="translate(-132.561,300.514) rotate(-90)"><title>Sheet.54</title><desc>5 GHz Active</desc><rect width="94.961" height="19.843" x="0" y="398.35" class="st1"/><text x="26.78" y="412.25" class="st2">5 GHz Active</text></g><g id="shape55-102" transform="translate(-94.2933,300.514) rotate(-90)"><title>Sheet.55</title><desc>5 GHz Passive</desc><rect width="94.961" height="19.843" x="0" y="398.35" class="st1"/><text x="18.21" y="412.25" class="st2">5 GHz Passive</text></g><g id="shape56-105" transform="translate(-51.7736,386.262) rotate(-90)"><title>Sheet.56</title><desc>2.4 GHz (non-overlapping)</desc><rect width="181.417" height="19.843" x="0" y="398.35" class="st1"/><text x="47.8" y="412.25" class="st2">2.4 GHz (non-overlapping)</text></g><g id="shape57-108" transform="translate(-12.0886,386.262) rotate(-90)"><title>Sheet.57</title><desc>5 GHz (non-DFS)</desc><rect width="181.417" height="19.843" x="0" y="398.35" class="st1"/><text x="91.84" y="412.25" class="st2">5 GHz (non-DFS)</text></g><g id="shape59-111" transform="translate(50.2736,399.018) rotate(-90)"><title>Sheet.59</title><desc>2.4 GHz (non-overlapping) and 5 GHz (non-DFS)</desc><rect width="195.591" height="42.52" x="0" y="375.673" class="st1"/><text x="4" y="389.57" class="st2">2.4 GHz (non-overlapping) and 5 GHz<tspan x="4" class="st5" dy="1.2em">(non</tspan>-DFS)</text></g><g id="shape60-115" transform="translate(27.6927,-211.931)"><title>Sheet.60</title><desc>0</desc><rect width="29.75" height="19.843" x="0" y="398.35" class="st1"/><text x="11.82" y="411.57" class="st2">0</text></g><g id="shape61-118" transform="translate(27.6927,-243.112)"><title>Sheet.61</title><desc>0.2</desc><rect width="29.75" height="19.843" x="0" y="398.35" class="st1"/><text x="7.23" y="411.57" class="st2">0.2</text></g><g id="shape62-121" transform="translate(27.6927,-275.711)"><title>Sheet.62</title><desc>0.4</desc><rect width="29.75" height="19.843" x="0" y="398.35" class="st1"/><text x="7.23" y="411.57" class="st2">0.4</text></g><g id="shape63-124" transform="translate(27.6927,-305.474)"><title>Sheet.63</title><desc>0.6</desc><rect width="29.75" height="19.843" x="0" y="398.35" class="st1"/><text x="7.23" y="411.57" class="st2">0.6</text></g><g id="shape64-127" transform="translate(27.6927,-336.656)"><title>Sheet.64</title><desc>0.8</desc><rect width="29.75" height="19.843" x="0" y="398.35" class="st1"/><text x="7.23" y="411.57" class="st2">0.8</text></g><g id="shape65-130" transform="translate(27.6927,-367.837)"><title>Sheet.65</title><desc>1</desc><rect width="29.75" height="19.843" x="0" y="398.35" class="st1"/><text x="11.82" y="411.57" class="st2">1</text></g><g id="shape67-133" transform="translate(27.6928,-397.6)"><title>Sheet.67</title><desc>1.2</desc><rect width="29.75" height="19.843" x="0" y="398.35" class="st1"/><text x="7.23" y="411.57" class="st2">1.2</text></g></g></svg>