<svg xmlns="http://www.w3.org/2000/svg" xmlns:ev="http://www.w3.org/2001/xml-events" xmlns:xlink="http://www.w3.org/1999/xlink" width="608.02" height="593.832" class="st6" color-interpolation-filters="sRGB" viewBox="0 0 456.015 445.374" xml:space="preserve"><style type="text/css">.st1{fill:none;stroke:none;stroke-width:.75}.st2{fill:#000;font-family:Arial;font-size:.916672em}.st3,.st4{stroke-width:.75}.st3{stroke:#6ad1e3;stroke-linecap:butt}.st4{fill:#0077c8;stroke:#0077c8}.st5{font-size:1em}.st6{fill:none;fill-rule:evenodd;font-size:12px;overflow:visible;stroke-linecap:square;stroke-miterlimit:3}</style><g><title>Page-1</title><g id="shape6-1" transform="translate(214.32,-0.75)"><title>Sheet.6</title><desc>Scan profiles</desc><rect width="76.535" height="20.346" x="0" y="425.028" class="st1"/><text x="6.47" y="438.5" class="st2">Scan profiles</text></g><g id="shape8-4" transform="translate(58.4148,-434.451)"><title>Sheet.8</title><path d="M0 445.37 L396.85 445.37" class="st3"/></g><g id="shape9-7" transform="translate(58.4148,-401.024)"><title>Sheet.9</title><path d="M0 445.37 L396.85 445.37" class="st3"/></g><g id="shape11-10" transform="translate(58.4148,-367.598)"><title>Sheet.11</title><path d="M0 445.37 L396.85 445.37" class="st3"/></g><g id="shape12-13" transform="translate(58.4148,-332.719)"><title>Sheet.12</title><path d="M0 445.37 L396.85 445.37" class="st3"/></g><g id="shape13-16" transform="translate(58.4148,-299.292)"><title>Sheet.13</title><path d="M0 445.37 L396.85 445.37" class="st3"/></g><g id="shape14-19" transform="translate(58.4148,-264.413)"><title>Sheet.14</title><path d="M0 445.37 L396.85 445.37" class="st3"/></g><g id="shape15-22" transform="translate(58.4148,-232.44)"><title>Sheet.15</title><path d="M0 445.37 L396.85 445.37" class="st3"/></g><g id="shape16-25" transform="translate(74.0053,-232.44)"><title>Sheet.16</title><rect width="11.339" height="155.505" x="0" y="289.869" class="st4"/></g><g id="shape20-27" transform="translate(113.69,-232.44)"><title>Sheet.20</title><rect width="11.339" height="155.505" x="0" y="289.869" class="st4"/></g><g id="shape22-29" transform="translate(153.375,-232.44)"><title>Sheet.22</title><rect width="11.339" height="187.478" x="0" y="257.896" class="st4"/></g><g id="shape23-31" transform="translate(193.06,-232.44)"><title>Sheet.23</title><rect width="11.339" height="33.426" x="0" y="411.948" class="st4"/></g><g id="shape25-33" transform="translate(232.746,-232.44)"><title>Sheet.25</title><rect width="11.339" height="63.946" x="0" y="381.428" class="st4"/></g><g id="shape27-35" transform="translate(271.013,-232.44)"><title>Sheet.27</title><rect width="11.339" height="123.532" x="0" y="321.842" class="st4"/></g><g id="shape28-37" transform="translate(310.698,-232.44)"><title>Sheet.28</title><rect width="11.339" height="123.532" x="0" y="321.842" class="st4"/></g><g id="shape29-39" transform="translate(350.383,-232.44)"><title>Sheet.29</title><rect width="11.339" height="8.72" x="0" y="436.654" class="st4"/></g><g id="shape30-41" transform="translate(390.068,-232.44)"><title>Sheet.30</title><rect width="11.339" height="40.693" x="0" y="404.681" class="st4"/></g><g id="shape31-43" transform="translate(429.753,-232.44)"><title>Sheet.31</title><rect width="11.339" height="45.053" x="0" y="400.321" class="st4"/></g><g id="shape32-45" transform="translate(-424.781,151.958) rotate(-90)"><title>Sheet.32</title><desc>Time (s)</desc><rect width="78.479" height="19.843" x="0" y="425.531" class="st1"/><text x="19.08" y="438.75" class="st2">Time (s)</text></g><g id="shape35-48" transform="translate(-355.778,301.587) rotate(-90)"><title>Sheet.35</title><desc>Default</desc><rect width="78.479" height="19.843" x="0" y="425.531" class="st1"/><text x="39.63" y="438.75" class="st2">Default</text></g><g id="shape36-51" transform="translate(-277.825,301.587) rotate(-90)"><title>Sheet.36</title><desc>Passive scan</desc><rect width="78.479" height="19.843" x="0" y="425.531" class="st1"/><text x="9.67" y="438.75" class="st2">Passive scan</text></g><g id="shape37-54" transform="translate(505.206,212.934) rotate(90)"><title>Sheet.37</title><path d="M0 445.37 L7.27 445.37" class="st3"/></g><g id="shape38-57" transform="translate(544.891,212.934) rotate(90)"><title>Sheet.38</title><path d="M0 445.37 L7.27 445.37" class="st3"/></g><g id="shape39-60" transform="translate(177.47,-232.44)"><title>Sheet.39</title><path d="M0 445.37 L7.51 445.37" class="st3"/></g><g id="shape40-63" transform="translate(583.012,201.508) rotate(88.5299)"><title>Sheet.40</title><path d="M0 445.37 L7.13 445.37" class="st3"/></g><g id="shape43-66" transform="translate(702.067,201.508) rotate(88.5299)"><title>Sheet.43</title><path d="M0 445.37 L7.13 445.37" class="st3"/></g><g id="shape44-69" transform="translate(622.514,201.508) rotate(88.5299)"><title>Sheet.44</title><path d="M0 445.37 L7.13 445.37" class="st3"/></g><g id="shape45-72" transform="translate(663.946,212.934) rotate(90)"><title>Sheet.45</title><path d="M0 445.37 L7.31 445.37" class="st3"/></g><g id="shape46-75" transform="translate(741.569,195.802) rotate(87.7955)"><title>Sheet.46</title><path d="M0 445.37 L7.13 445.37" class="st3"/></g><g id="shape47-78" transform="translate(780.167,212.934) rotate(90)"><title>Sheet.47</title><path d="M0 445.37 L7.24 445.37" class="st3"/></g><g id="shape48-81" transform="translate(821.269,212.934) rotate(90)"><title>Sheet.48</title><path d="M0 445.37 L7.13 445.37" class="st3"/></g><g id="shape49-84" transform="translate(859.537,212.934) rotate(90)"><title>Sheet.49</title><path d="M0 445.37 L7.24 445.37" class="st3"/></g><g id="shape50-87" transform="translate(899.222,212.934) rotate(90)"><title>Sheet.50</title><path d="M0 445.37 L7.24 445.37" class="st3"/></g><g id="shape51-90" transform="translate(-316.093,301.587) rotate(-90)"><title>Sheet.51</title><desc>Active scan</desc><rect width="78.479" height="19.843" x="0" y="425.531" class="st1"/><text x="18.23" y="438.75" class="st2">Active scan</text></g><g id="shape52-93" transform="translate(-235.306,319.753) rotate(-90)"><title>Sheet.52</title><desc>2.4 GHz Active</desc><rect width="97.372" height="19.843" x="0" y="425.531" class="st1"/><text x="20.01" y="438.75" class="st2">2.4 GHz Active</text></g><g id="shape53-96" transform="translate(-197.038,319.753) rotate(-90)"><title>Sheet.53</title><desc>2.4 GHz Passive</desc><rect width="97.372" height="19.843" x="0" y="425.531" class="st1"/><text x="11.45" y="438.75" class="st2">2.4 GHz Passive</text></g><g id="shape54-99" transform="translate(-158.77,319.753) rotate(-90)"><title>Sheet.54</title><desc>5 GHz Active</desc><rect width="97.372" height="19.843" x="0" y="425.531" class="st1"/><text x="29.19" y="438.75" class="st2">5 GHz Active</text></g><g id="shape55-102" transform="translate(-120.503,319.753) rotate(-90)"><title>Sheet.55</title><desc>5 GHz Passive</desc><rect width="97.372" height="19.843" x="0" y="425.531" class="st1"/><text x="20.63" y="438.75" class="st2">5 GHz Passive</text></g><g id="shape56-105" transform="translate(-77.9828,406.272) rotate(-90)"><title>Sheet.56</title><desc>2.4 GHz (non-overlapping)</desc><rect width="186.025" height="19.843" x="0" y="425.531" class="st1"/><text x="52.4" y="438.75" class="st2">2.4 GHz (non-overlapping)</text></g><g id="shape57-108" transform="translate(-38.2978,406.272) rotate(-90)"><title>Sheet.57</title><desc>5 GHz (non-DFS)</desc><rect width="186.025" height="19.843" x="0" y="425.531" class="st1"/><text x="96.45" y="438.75" class="st2">5 GHz (non-DFS)</text></g><g id="shape59-111" transform="translate(1.38723,414.038) rotate(-90)"><title>Sheet.59</title><desc>2.4 GHz (non-overlapping) and 5 GHz (non-DFS)</desc><rect width="193.831" height="19.843" x="0" y="425.531" class="st1"/><text x="4" y="432.15" class="st2">2.4 GHz (non-overlapping) and 5 GHz <tspan x="4" class="st5" dy="1.2em">(non</tspan>-DFS)</text></g><g id="shape60-115" transform="translate(28.6646,-222.266)"><title>Sheet.60</title><desc>0</desc><rect width="29.75" height="20.346" x="0" y="425.028" class="st1"/><text x="11.82" y="438.5" class="st2">0</text></g><g id="shape61-118" transform="translate(28.6646,-254.239)"><title>Sheet.61</title><desc>1</desc><rect width="29.75" height="20.346" x="0" y="425.028" class="st1"/><text x="11.82" y="438.5" class="st2">1</text></g><g id="shape62-121" transform="translate(28.6646,-287.666)"><title>Sheet.62</title><desc>2</desc><rect width="29.75" height="20.346" x="0" y="425.028" class="st1"/><text x="11.82" y="438.5" class="st2">2</text></g><g id="shape63-124" transform="translate(28.6646,-323.999)"><title>Sheet.63</title><desc>3</desc><rect width="29.75" height="20.346" x="0" y="425.028" class="st1"/><text x="11.82" y="438.5" class="st2">3</text></g><g id="shape64-127" transform="translate(28.6646,-357.425)"><title>Sheet.64</title><desc>4</desc><rect width="29.75" height="20.346" x="0" y="425.028" class="st1"/><text x="11.82" y="438.5" class="st2">4</text></g><g id="shape65-130" transform="translate(28.6646,-390.851)"><title>Sheet.65</title><desc>5</desc><rect width="29.75" height="20.346" x="0" y="425.028" class="st1"/><text x="11.82" y="438.5" class="st2">5</text></g><g id="shape67-133" transform="translate(28.6646,-424.278)"><title>Sheet.67</title><desc>6</desc><rect width="29.75" height="20.346" x="0" y="425.028" class="st1"/><text x="11.82" y="438.5" class="st2">6</text></g></g></svg>