<svg xmlns="http://www.w3.org/2000/svg" xmlns:ev="http://www.w3.org/2001/xml-events" xmlns:xlink="http://www.w3.org/1999/xlink" width="448.24" height="268.029" class="st11" color-interpolation-filters="sRGB" viewBox="0 0 336.18 201.022" xml:space="preserve"><style type="text/css">.st1{fill:#768692;stroke:none;stroke-width:1}.st2{fill:#feffff;font-family:Arial;font-size:.833336em}.st3{font-size:1em}.st4{fill:#00a9ce}.st4,.st5,.st6{stroke:none;stroke-width:1}.st5{fill:#0077c8}.st6{fill:none}.st7{fill:#333f48;font-family:Arial;font-size:1.00001em}.st8{marker-end:url(#mrkr13-45);stroke-linecap:butt;stroke-width:1}.st10,.st8,.st9{stroke:#00a9ce}.st9{fill:#00a9ce;fill-opacity:1;stroke-opacity:1;stroke-width:.28409090909091}.st10{marker-start:url(#mrkr13-51);stroke-linecap:butt;stroke-width:1}.st11{fill:none;fill-rule:evenodd;font-size:12px;overflow:visible;stroke-linecap:square;stroke-miterlimit:3}</style><defs id="Markers"><g id="lend13"><path d="M 3 1 L 0 0 L 3 -1 L 3 1" style="stroke:none"/></g><marker id="mrkr13-45" class="st9" markerUnits="strokeWidth" orient="auto" overflow="visible" refX="-10.56"><use transform="scale(-3.52,-3.52)" xlink:href="#lend13"/></marker><marker id="mrkr13-51" class="st9" markerUnits="strokeWidth" orient="auto" overflow="visible" refX="10.2"><use transform="scale(3.52)" xlink:href="#lend13"/></marker></defs><g><title>Page-1</title><g id="shape3480-1" transform="translate(121.404,-71.8661)"><title>Sheet.3480</title><desc>Transaction n+1</desc><rect width="71.073" height="40.282" x="0" y="160.74" class="st1"/><text x="9.41" y="177.88" class="st2">Transaction <tspan x="27.06" class="st3" dy="1.2em">n+1</tspan></text></g><g id="shape3481-5" transform="translate(121.404,-148.7)"><title>Sheet.3481</title><desc>Interaction</desc><rect width="71.073" height="40.282" x="0" y="160.74" class="st4"/><text x="12.19" y="183.88" class="st2">Interaction</text></g><g id="shape3482-8" transform="translate(1,-1)"><title>Sheet.3482</title><desc>Action</desc><rect width="49.503" height="34.314" x="0" y="166.708" class="st5"/><text x="10.85" y="186.87" class="st2">Action</text></g><g id="shape3483-11" transform="translate(217.853,-71.8661)"><title>Sheet.3483</title><desc>Transaction n+2</desc><rect width="71.073" height="40.282" x="0" y="160.74" class="st1"/><text x="9.41" y="177.88" class="st2">Transaction <tspan x="27.06" class="st3" dy="1.2em">n+2</tspan></text></g><g id="shape3484-15" transform="translate(22.1916,-71.8661)"><title>Sheet.3484</title><desc>Transaction n</desc><rect width="71.073" height="40.282" x="0" y="160.74" class="st1"/><text x="9.41" y="177.88" class="st2">Transaction <tspan x="32.76" class="st3" dy="1.2em">n</tspan></text></g><g id="shape3485-19" transform="translate(57.7283,-1)"><title>Sheet.3485</title><desc>Action</desc><rect width="49.71" height="34.314" x="0" y="166.708" class="st5"/><text x="10.96" y="186.87" class="st2">Action</text></g><g id="shape3486-22" transform="translate(114.664,-1)"><title>Sheet.3486</title><desc>Action</desc><rect width="49.71" height="34.314" x="0" y="166.708" class="st5"/><text x="10.96" y="186.87" class="st2">Action</text></g><g id="shape3487-25" transform="translate(171.599,-1)"><title>Sheet.3487</title><desc>Action</desc><rect width="49.71" height="34.314" x="0" y="166.708" class="st5"/><text x="10.96" y="186.87" class="st2">Action</text></g><g id="shape3488-28" transform="translate(228.535,-1)"><title>Sheet.3488</title><desc>Action</desc><rect width="49.71" height="34.314" x="0" y="166.708" class="st5"/><text x="10.96" y="186.87" class="st2">Action</text></g><g id="shape3489-31" transform="translate(285.47,-1)"><title>Sheet.3489</title><desc>Action</desc><rect width="49.71" height="34.314" x="0" y="166.708" class="st5"/><text x="10.96" y="186.87" class="st2">Action</text></g><g id="shape3490-34" transform="translate(193.895,-137.66)"><title>Sheet.3490</title><desc>- Read - Write - Invoke - Subscribe</desc><rect width="80.787" height="62.362" x="0" y="138.66" class="st6"/><text x="4" y="151.66" class="st7">- Read <tspan x="4" class="st3" dy="1.2em">-</tspan> Write <tspan x="4" class="st3" dy="1.2em">-</tspan> Invoke <tspan x="4" class="st3" dy="1.223em">-</tspan> Subscribe</text></g><g id="shape3494-40" transform="translate(156.941,-148.7)"><title>Dynamic connector</title><path d="M0 201.02 L0 219.45 L96.45 219.45 L96.45 227.01" class="st8"/></g><g id="shape3495-46" transform="translate(57.7283,-112.148)"><title>Dynamic connector.3495</title><path d="M0 190.82 L0 190.46 L0 182.9 L99.21 182.9 L99.21 164.47" class="st10"/></g><g id="shape3496-52" transform="translate(164.027,-148.7)"><title>Dynamic connector.3496</title><path d="M-7.09 201.02 L-7.09 227.01" class="st8"/></g><g id="shape3497-57" transform="translate(57.7283,-71.8661)"><title>Dynamic connector.3497</title><path d="M0 201.02 L0 217.73 L-31.98 217.73 L-31.98 227.01" class="st8"/></g><g id="shape3498-62" transform="translate(82.5832,-35.3141)"><title>Dynamic connector.3498</title><path d="M0 190.82 L0 190.46 L0 181.18 L-24.85 181.18 L-24.85 164.47" class="st10"/></g><g id="shape3499-67" transform="translate(156.941,-71.8661)"><title>Dynamic connector.3499</title><path d="M0 201.02 L0 220.03 L-17.42 220.03 L-17.42 227.01" class="st8"/></g><g id="shape3500-72" transform="translate(253.39,-71.8661)"><title>Dynamic connector.3500</title><path d="M0 201.02 L0 218.57 L-56.94 218.57 L-56.94 227.01" class="st8"/></g><g id="shape3501-77" transform="translate(246.303,-71.8661)"><title>Dynamic connector.3501</title><path d="M7.09 201.02 L7.09 227.01" class="st8"/></g><g id="shape3502-82" transform="translate(253.39,-71.8661)"><title>Dynamic connector.3502</title><path d="M0 201.02 L0 218.57 L56.94 218.57 L56.94 227.01" class="st8"/></g></g></svg>