<svg xmlns="http://www.w3.org/2000/svg" xmlns:ev="http://www.w3.org/2001/xml-events" xmlns:xlink="http://www.w3.org/1999/xlink" width="884.988" height="144.399" class="st12" color-interpolation-filters="sRGB" viewBox="0 0 663.741 108.299" xml:space="preserve"><style type="text/css">.st1{fill:#00a9ce;stroke:none;stroke-width:1}.st2{fill:#fff;font-family:Arial;font-size:1.00001em}.st3,.st4{stroke:#00a9ce}.st3{marker-end:url(#mrkr13-12);stroke-linecap:butt;stroke-width:1}.st4{fill:#00a9ce;fill-opacity:1;stroke-opacity:1;stroke-width:.28409090909091}.st5,.st6{stroke-width:1}.st5{marker-start:url(#mrkr13-18);stroke:#00a9ce;stroke-linecap:butt}.st6{fill:none}.st6,.st7,.st8{stroke:#768692}.st7{marker-end:url(#mrkr13-42);stroke-linecap:butt;stroke-width:1}.st8{fill:#768692;fill-opacity:1;stroke-opacity:1;stroke-width:.28409090909091}.st9{fill:none;stroke:none;stroke-width:1}.st10{fill:#333f48;font-family:Arial;font-size:1.00001em}.st11{font-size:1em}.st12{fill:none;fill-rule:evenodd;font-size:12px;overflow:visible;stroke-linecap:square;stroke-miterlimit:3}</style><defs id="Markers"><g id="lend13"><path d="M 3 1 L 0 0 L 3 -1 L 3 1" style="stroke:none"/></g><marker id="mrkr13-12" class="st4" markerUnits="strokeWidth" orient="auto" overflow="visible" refX="-10.56"><use transform="scale(-3.52,-3.52)" xlink:href="#lend13"/></marker><marker id="mrkr13-18" class="st4" markerUnits="strokeWidth" orient="auto" overflow="visible" refX="10.2"><use transform="scale(3.52)" xlink:href="#lend13"/></marker><marker id="mrkr13-42" class="st8" markerUnits="strokeWidth" orient="auto" overflow="visible" refX="-10.56"><use transform="scale(-3.52,-3.52)" xlink:href="#lend13"/></marker></defs><g><title>Page-1</title><g id="shape3449-1" transform="translate(15.1733,-15.1732)"><title>Nordic Blue.3449</title><desc>OTA Requestor</desc><rect width="118.273" height="53.385" x="0" y="54.914" class="st1"/><text x="17.45" y="85.21" class="st2">OTA Requestor</text></g><g id="shape3453-4" transform="translate(180.365,-15.1732)"><title>Nordic Blue.3453</title><desc>OTA Provider</desc><rect width="118.273" height="53.385" x="0" y="54.914" class="st1"/><text x="22.79" y="85.21" class="st2">OTA Provider</text></g><g id="shape3461-7" transform="translate(133.446,-49.5256)"><title>Dynamic connector</title><path d="M0 101.21 L36.36 101.21" class="st3"/></g><g id="shape3464-13" transform="translate(133.446,-18.9114)"><title>Dynamic connector.3464</title><path d="M10.2 101.21 L10.56 101.21 L46.92 101.21" class="st5"/></g><g id="shape3465-19" transform="translate(345.556,-15.1732)"><title>Nordic Blue.3465</title><desc>Image server</desc><rect width="118.273" height="53.385" x="0" y="54.914" class="st1"/><text x="24.12" y="85.21" class="st2">Image server</text></g><g id="shape3466-22" transform="translate(544.468,-15.1732)"><title>Nordic Blue.3466</title><desc>User</desc><rect width="118.273" height="53.385" x="0" y="54.914" class="st1"/><text x="46.47" y="85.21" class="st2">User</text></g><g id="shape3468-25" transform="translate(298.638,-18.6326)"><title>Dynamic connector.3468</title><path d="M10.2 101.21 L10.56 101.21 L46.92 101.21" class="st5"/></g><g id="shape3469-30" transform="translate(345.556,-50.6063)"><title>Dynamic connector.3469</title><path d="M-10.2 101.21 L-10.56 101.21 L-46.92 101.21" class="st5"/></g><g id="shape3471-35" transform="translate(1.56693,-1)"><title>Sheet.3471</title><rect width="477.656" height="82.205" x="0" y="26.095" class="st6"/></g><g id="shape3472-37" transform="translate(544.468,-34.8975)"><title>Dynamic connector.3472</title><path d="M0 101.33 L-54.69 101.13" class="st7"/></g><g id="shape3473-43" transform="translate(479.223,-41.8658)"><title>Sheet.3473</title><desc>DFU approval</desc><rect width="65.245" height="41.339" x="0" y="66.96" class="st9"/><text x="20.29" y="84.03" class="st10">DFU <tspan x="9.61" class="st11" dy="1.2em">approval</tspan></text></g><g id="shape3475-47" transform="translate(1,-83.2047)"><title>Sheet.3475</title><desc>OTA DFU process</desc><rect width="478.223" height="24.095" x="0" y="84.205" class="st9"/><text x="190.1" y="99.85" class="st10">OTA DFU process</text></g></g></svg>