<svg xmlns="http://www.w3.org/2000/svg" xmlns:ev="http://www.w3.org/2001/xml-events" xmlns:xlink="http://www.w3.org/1999/xlink" width="712.5" height="229.529" class="st16" color-interpolation-filters="sRGB" viewBox="0 0 534.376 172.147" xml:space="preserve"><style type="text/css">.st1{fill:#0077c8;stroke:none;stroke-width:1}.st2{fill:#fff;font-family:Calibri;font-size:.75em}.st3{font-size:1em}.st4{fill:#00a9ce;stroke:none;stroke-width:1}.st5,.st6{stroke:#333f48}.st5{marker-end:url(#mrkr13-12);stroke-linecap:butt;stroke-width:1}.st6{fill:#333f48;fill-opacity:1;stroke-opacity:1;stroke-width:.28409090909091}.st7,.st8{stroke-width:1}.st7{marker-start:url(#mrkr13-28);stroke:#333f48;stroke-linecap:butt}.st8{fill:none;stroke:none}.st9{fill:#00a9ce;font-family:Calibri;font-size:.75em}.st10{fill:#6ad1e3;stroke:none;stroke-width:1}.st11,.st12{stroke:#0077c8}.st11{marker-end:url(#mrkr13-52);stroke-linecap:butt;stroke-width:1}.st12{fill:#0077c8;fill-opacity:1;stroke-opacity:1;stroke-width:.28409090909091}.st13{fill:#fff;stroke:none;stroke-linecap:butt;stroke-width:7.2}.st14,.st15{fill:#333f48;font-family:Calibri;font-size:.75em}.st15{fill:#0077c8}.st16{fill:none;fill-rule:evenodd;font-size:12px;overflow:visible;stroke-linecap:square;stroke-miterlimit:3}</style><defs id="Markers"><g id="lend13"><path d="M 3 1 L 0 0 L 3 -1 L 3 1" style="stroke:none"/></g><marker id="mrkr13-12" class="st6" markerUnits="strokeWidth" orient="auto" overflow="visible" refX="-10.56"><use transform="scale(-3.52,-3.52)" xlink:href="#lend13"/></marker><marker id="mrkr13-28" class="st6" markerUnits="strokeWidth" orient="auto" overflow="visible" refX="10.2"><use transform="scale(3.52)" xlink:href="#lend13"/></marker><marker id="mrkr13-52" class="st12" markerUnits="strokeWidth" orient="auto" overflow="visible" refX="-10.56"><use transform="scale(-3.52,-3.52)" xlink:href="#lend13"/></marker></defs><g><title>Page-1</title><g id="shape7-1" transform="translate(293.734,-1)"><title>Nordic Blue.7</title><desc>Illuminance sensor</desc><rect width="73.662" height="27.443" x="0" y="144.704" class="st1"/><text x="15.61" y="155.73" class="st2">Illuminance<tspan x="24.77" class="st3" dy="1.2em">sensor</tspan></text></g><g id="shape8-5" transform="translate(159.306,-75.1846)"><title>Circle</title><path d="M0 162.2 A9.9511 9.9511 0 0 1 19.9 162.2 A9.9511 9.9511 0 1 1 0 162.2 Z" class="st4"/></g><g id="shape9-7" transform="translate(293.734,-14.7214)"><title>Dynamic connector</title><path d="M0 172.15 L-124.48 172.15 L-124.48 122.24" class="st5"/></g><g id="shape11-13" transform="translate(98.7744,-78.0491)"><title>Dynamic connector.11</title><path d="M0 165.06 L49.97 165.06" class="st5"/></g><g id="shape12-18" transform="translate(472.62,-92.1965)"><title>Dynamic connector.12</title><path d="M0 179.21 L15.61 179.24" class="st5"/></g><g id="shape13-23" transform="translate(370.567,-14.7214)"><title>Dynamic connector.13</title><path d="M10.2 172.15 L10.56 172.15 L110.96 172.15 L110.96 101.75" class="st7"/></g><g id="shape14-29" transform="translate(425.848,-66.1968)"><title>Nordic Blue.14</title><desc>Lightness Server</desc><rect width="46.772" height="37.878" x="0" y="134.269" class="st1"/><text x="6.35" y="150.51" class="st2">Lightness <tspan x="11.67" class="st3" dy="1.2em">Server</tspan></text></g><g id="shape27-33" transform="translate(173.096,-59.624)"><title>Sheet.27</title><desc>−</desc><rect width="15.62" height="20" x="0" y="152.147" class="st8"/><text x="5.57" y="164.85" class="st9">−</text></g><g id="shape28-36" transform="translate(149.798,-86.2207)"><title>Sheet.28</title><desc>+</desc><rect width="15.62" height="20" x="0" y="152.147" class="st8"/><text x="5.57" y="164.85" class="st9">+</text></g><g id="shape6-39" transform="translate(209.73,-43.5489)"><title>Nordic Blue.6</title><rect width="134.646" height="98.794" x="0" y="73.353" class="st10"/></g><g id="shape16-41" transform="translate(247.29,-94.666)"><title>Nordic Lake</title><desc>Kp</desc><rect width="59.528" height="27.32" x="0" y="144.827" class="st1"/><text x="25.06" y="161.19" class="st2">Kp</text></g><g id="shape18-44" transform="translate(247.29,-48.8909)"><title>Nordic Lake.18</title><desc>Kᵢ ∫e(t) dt</desc><rect width="59.528" height="27.32" x="0" y="144.827" class="st1"/><text x="12.62" y="161.19" class="st2">Kᵢ ∫e(t) dt</text></g><g id="shape23-47" transform="translate(179.208,-85.1357)"><title>Dynamic connector.23</title><path d="M0 172.15 L40.44 172.15 L40.44 194.73 L57.52 194.73" class="st11"/></g><g id="shape24-53" transform="translate(306.817,-108.326)"><title>Dynamic connector.24</title><path d="M0 172.15 L19.7 172.15 L19.7 176.97" class="st11"/></g><g id="shape25-58" transform="translate(179.208,-85.1357)"><title>Dynamic connector.25</title><path d="M0 172.15 L40.44 172.15 L40.44 148.96 L57.52 148.96" class="st11"/></g><g id="shape34-63" transform="translate(52.0027,-66.1968)"><title>Nordic Blue</title><desc>State machine</desc><rect width="46.772" height="37.878" x="0" y="134.269" class="st4"/><text x="13.91" y="150.51" class="st2">State<tspan x="7.73" class="st3" dy="1.2em">machine</tspan></text></g><g id="shape42-67" transform="translate(52.0027,-92.2223)"><title>Dynamic connector.42</title><desc>Events</desc><path d="M-10.2 179.23 L-10.56 179.23 L-23.39 179.23" class="st7"/><rect width="24.201" height="10.8" x="-41.603" y="173.55" class="st13"/><text x="-41.6" y="181.65" class="st14">Events</text></g><g id="shape46-74" transform="translate(378.019,-72.3798)"><title>Nordic Blue.46</title><desc>MAX</desc><rect width="29.883" height="25.512" x="0" y="146.635" class="st4"/><text x="6.15" y="162.09" class="st2">MAX</text></g><g id="shape47-77" transform="translate(407.903,-78.0491)"><title>Dynamic connector.47</title><path d="M0 165.06 L7.39 165.06" class="st5"/></g><g id="shape48-82" transform="translate(75.3885,-108.07)"><title>Dynamic connector.48</title><path d="M0 176.14 L0 122.71 L317.57 122.71 L317.57 171.76" class="st5"/></g><g id="shape49-87" transform="translate(98.7744,-86.2207)"><title>Sheet.49</title><desc>Target illuminance</desc><rect width="52.869" height="27.443" x="0" y="144.704" class="st8"/><text x="14.65" y="155.73" class="st14">Target <tspan x="5.32" class="st3" dy="1.2em">illuminance</tspan></text></g><g id="shape51-91" transform="translate(343.264,-89.991)"><title>Sheet.51</title><desc>Light level</desc><rect width="26.712" height="19.902" x="0" y="152.245" class="st8"/><text x="4.44" y="159.5" class="st14">Light<tspan x="4.78" class="st3" dy="1.2em">level</tspan></text></g><g id="shape53-95" transform="translate(209.73,-124.245)"><title>Sheet.53</title><desc>Illuminance regulator</desc><rect width="134.646" height="18.098" x="0" y="154.049" class="st8"/><text x="28.16" y="165.8" class="st14">Illuminance regulator</text></g><g id="shape17-98" transform="translate(318.708,-77.3255)"><title>Circle.17</title><path d="M0 164.34 A7.8102 7.8102 0 1 1 15.62 164.34 A7.8102 7.8102 0 0 1 0 164.34 Z" class="st1"/></g><g id="shape26-100" transform="translate(306.817,-62.5509)"><title>Dynamic connector.26</title><path d="M0 172.15 L19.7 172.15 L19.7 167.93" class="st11"/></g><g id="shape30-105" transform="translate(326.24,-88.3261)"><title>Sheet.30</title><desc>+</desc><rect width="15.62" height="20" x="0" y="152.147" class="st8"/><text x="5.57" y="164.85" class="st15">+</text></g><g id="shape31-108" transform="translate(326.24,-60.8838)"><title>Sheet.31</title><desc>+</desc><rect width="15.62" height="20" x="0" y="152.147" class="st8"/><text x="5.57" y="164.85" class="st15">+</text></g><g id="shape59-111" transform="translate(334.328,-78.0491)"><title>Dynamic connector.59</title><path d="M0 165.06 L33.13 165.06" class="st5"/></g><g id="shape60-116" transform="translate(203.656,-14.7214)"><title>Sheet.60</title><desc>Sensor value</desc><rect width="55.276" height="15.62" x="0" y="156.526" class="st8"/><text x="4.42" y="167.04" class="st14">Sensor value</text></g><g id="shape62-119" transform="translate(403.499,-14.7214)"><title>Sheet.62</title><desc>Illuminance</desc><rect width="55.276" height="15.62" x="0" y="156.526" class="st8"/><text x="6.42" y="167.04" class="st14">Illuminance</text></g><g id="shape64-122" transform="translate(498.793,-75.7147)"><title>Sheet.64</title><desc>Output light</desc><rect width="34.583" height="18.739" x="0" y="153.408" class="st8"/><text x="4.2" y="160.08" class="st14">Output <tspan x="9.24" class="st3" dy="1.2em">light</tspan></text></g><g id="shape67-126" transform="translate(247.29,-160.441)"><title>Sheet.67</title><desc>Light level</desc><rect width="55.276" height="10.706" x="0" y="161.441" class="st8"/><text x="9.13" y="169.49" class="st14">Light level</text></g><g id="shape68-129" transform="translate(179.208,-90.1969)"><title>Sheet.68</title><desc>Error</desc><rect width="26.712" height="8.445" x="0" y="163.701" class="st8"/><text x="4.08" y="170.62" class="st14">Error</text></g></g></svg>