<svg xmlns="http://www.w3.org/2000/svg" xmlns:ev="http://www.w3.org/2001/xml-events" xmlns:xlink="http://www.w3.org/1999/xlink" width="698.1" height="170.685" class="st14" color-interpolation-filters="sRGB" viewBox="0 0 523.575 128.014" xml:space="preserve"><style type="text/css">.st1,.st2{stroke:#d9e1e2;stroke-linecap:butt;stroke-width:1}.st2{stroke-dasharray:8,4}.st3{stroke:#00a9ce;stroke-width:1.5}.st4{fill:none;stroke:none;stroke-width:1}.st5{fill:#333f48;font-family:Calibri;font-size:.833336em}.st6{fill:#6ad1e3;stroke:none;stroke-width:1}.st7{fill:#333f48;font-family:Calibri;font-size:1.00001em}.st8{fill:#0077c8;stroke:none;stroke-width:1}.st9{fill:#fff;font-family:Calibri;font-size:1.00001em}.st10{fill:#00a9ce;stroke:none;stroke-width:1}.st11,.st12{stroke:#333f48}.st11{marker-end:url(#mrkr13-60);marker-start:url(#mrkr13-58);stroke-linecap:butt;stroke-width:1}.st12{fill:#333f48;fill-opacity:1;stroke-opacity:1;stroke-width:.40983606557377}.st13{font-size:1em}.st14{fill:none;fill-rule:evenodd;font-size:12px;overflow:visible;stroke-linecap:square;stroke-miterlimit:3}</style><defs id="Markers"><g id="lend13"><path d="M 3 1 L 0 0 L 3 -1 L 3 1" style="stroke:none"/></g><marker id="mrkr13-58" class="st12" markerUnits="strokeWidth" orient="auto" overflow="visible" refX="6.96"><use transform="scale(2.44)" xlink:href="#lend13"/></marker><marker id="mrkr13-60" class="st12" markerUnits="strokeWidth" orient="auto" overflow="visible" refX="-7.32"><use transform="scale(-2.44,-2.44)" xlink:href="#lend13"/></marker></defs><g><title>Page-1</title><g id="shape79-1" transform="translate(160.962,-116.014)"><title>Dynamic connector.79</title><path d="M7.09 128.01 L7.09 220.62" class="st1"/></g><g id="shape80-4" transform="translate(113.754,-116.014)"><title>Dynamic connector.80</title><path d="M7.09 128.01 L7.09 220.62" class="st1"/></g><g id="shape81-7" transform="translate(301.334,-116.014)"><title>Dynamic connector.81</title><path d="M7.09 128.01 L7.09 220.62" class="st1"/></g><g id="shape82-10" transform="translate(410.044,-116.014)"><title>Dynamic connector.82</title><path d="M7.09 128.01 L7.09 220.62" class="st1"/></g><g id="shape83-13" transform="translate(351.182,-116.014)"><title>Dynamic connector.83</title><path d="M7.09 128.01 L7.09 220.62" class="st1"/></g><g id="shape84-16" transform="translate(463.209,-116.014)"><title>Dynamic connector.84</title><path d="M7.09 128.01 L7.09 220.62" class="st1"/></g><g id="shape69-19" transform="translate(65.8193,-51.3791)"><title>Dynamic connector</title><path d="M0 120.93 L455.97 120.93" class="st2"/></g><g id="shape70-22" transform="translate(64.6401,-26.7746)"><title>Dynamic connector.70</title><path d="M0 120.93 L448.96 120.93" class="st2"/></g><g id="shape71-25" transform="translate(65.8193,-75.9835)"><title>Dynamic connector.71</title><path d="M0 120.93 L455.97 120.93" class="st2"/></g><g id="shape18-28" transform="translate(66.1301,-33.8613)"><title>Multi-Line</title><path d="M0 128.01 L54.57 128.01 L101.92 78.81 L239.37 78.81 L291.04 103.41 L351 103.41 L403.12 128.01 L455.27 128.01" class="st3"/></g><g id="shape66-31" transform="translate(1,-72.5313)"><title>Sheet.66</title><desc>On level</desc><rect width="64.819" height="21.078" x="0" y="106.936" class="st4"/><text x="27.63" y="120.48" class="st5">On level</text></g><g id="shape67-34" transform="translate(1,-23.3224)"><title>Sheet.67</title><desc>Standby level</desc><rect width="64.819" height="21.078" x="0" y="106.936" class="st4"/><text x="6.48" y="120.48" class="st5">Standby level</text></g><g id="shape68-37" transform="translate(1,-47.9269)"><title>Sheet.68</title><desc>Prolong level</desc><rect width="64.819" height="21.078" x="0" y="106.936" class="st4"/><text x="8.05" y="120.48" class="st5">Prolong level</text></g><g id="shape86-40" transform="translate(65.5048,-1)"><title>Nordic Sky</title><desc>Standby</desc><rect width="54.711" height="19.418" x="0" y="108.596" class="st6"/><text x="7.54" y="121.91" class="st7">Standby</text></g><g id="shape87-43" transform="translate(121.466,-1)"><title>Nordic Sky.87</title><desc>On</desc><rect width="186.642" height="19.418" x="0" y="108.596" class="st8"/><text x="86.2" y="121.91" class="st9">On</text></g><g id="shape88-46" transform="translate(309.359,-1)"><title>Nordic Sky.88</title><desc>Prolong</desc><rect width="107.546" height="19.418" x="0" y="108.596" class="st10"/><text x="34.9" y="121.91" class="st9">Prolong</text></g><g id="shape89-49" transform="translate(418.155,-1)"><title>Nordic Sky.89</title><desc>Standby</desc><rect width="104.42" height="19.418" x="0" y="108.596" class="st6"/><text x="32.4" y="121.91" class="st7">Standby</text></g><g id="shape90-52" transform="translate(120.841,-95.3351)"><title>Signal</title><path d="M6.96 121.03 L7.32 121.03 L39.89 120.82" class="st11"/></g><g id="shape91-61" transform="translate(168.049,-95.4845)"><title>Signal.91</title><path d="M6.96 120.93 L7.32 120.93 L133.05 120.93" class="st11"/></g><g id="shape92-68" transform="translate(308.421,-109.658)"><title>Signal.92</title><path d="M6.96 135.1 L7.32 135.1 L42.53 135.1" class="st11"/></g><g id="shape93-75" transform="translate(417.131,-109.807)"><title>Signal.93</title><path d="M6.96 134.99 L7.32 134.99 L45.85 135.21" class="st11"/></g><g id="shape94-82" transform="translate(358.269,-95.6338)"><title>Signal.94</title><path d="M6.96 121.04 L7.32 121.04 L51.54 120.82" class="st11"/></g><g id="shape96-89" transform="translate(120.841,-106.014)"><title>Sheet.96</title><desc>Fade on</desc><rect width="47.208" height="20" x="0" y="108.014" class="st4"/><text x="7.4" y="121.01" class="st5">Fade on</text></g><g id="shape98-92" transform="translate(168.049,-106.014)"><title>Sheet.98</title><desc>On</desc><rect width="140.06" height="20" x="0" y="108.014" class="st4"/><text x="64.09" y="121.01" class="st5">On</text></g><g id="shape99-95" transform="translate(308.421,-106.014)"><title>Sheet.99</title><desc>Fade prolong</desc><rect width="49.848" height="20" x="0" y="108.014" class="st4"/><text x="15.12" y="115.01" class="st5">Fade <tspan x="9.15" class="st13" dy="1.2em">prolong</tspan></text></g><g id="shape100-99" transform="translate(358.269,-106.014)"><title>Sheet.100</title><desc>Prolong</desc><rect width="58.636" height="20" x="0" y="108.014" class="st4"/><text x="13.59" y="121.01" class="st5">Prolong</text></g><g id="shape101-102" transform="translate(417.131,-106.014)"><title>Sheet.101</title><desc>Fade standby</desc><rect width="53.165" height="20" x="0" y="108.014" class="st4"/><text x="16.78" y="115.01" class="st5">Fade <tspan x="10.41" class="st13" dy="1.2em">standby</tspan></text></g></g></svg>