<svg xmlns="http://www.w3.org/2000/svg" xmlns:ev="http://www.w3.org/2001/xml-events" xmlns:xlink="http://www.w3.org/1999/xlink" width="5.568in" height="182.866" class="st13" color-interpolation-filters="sRGB" viewBox="0 0 400.896 137.149" xml:space="preserve"><style type="text/css">.st1{fill:#00a9ce;stroke:none;stroke-width:1}.st2{fill:#fff;font-family:Arial;font-size:.833336em}.st3{font-size:1em}.st4{fill:#768692;stroke:none;stroke-width:1}.st5,.st6{stroke:#00a9ce}.st5{marker-end:url(#mrkr4-14);stroke-linecap:butt;stroke-width:1}.st6{fill:#00a9ce;fill-opacity:1;stroke-opacity:1;stroke-width:.28409090909091}.st7{fill:none;stroke:none;stroke-width:1}.st8,.st9{fill:#00a9ce}.st8{font-family:Arial;font-size:.666664em}.st9{stroke:#feffff;stroke-width:1}.st10{fill:#fff;font-family:Arial;font-size:.666664em}.st11{fill:#feffff;stroke:#008cab;stroke-linecap:butt;stroke-width:1}.st12{fill:#00a9ce;font-family:Arial;font-size:.833336em}.st13{fill:none;fill-rule:evenodd;font-size:12px;overflow:visible;stroke-linecap:square;stroke-miterlimit:3}</style><defs id="Markers"><g id="lend4"><path d="M 2 1 L 0 0 L 2 -1 L 2 1" style="stroke:none"/></g><marker id="mrkr4-14" class="st6" markerUnits="strokeWidth" orient="auto" overflow="visible" refX="-7.04"><use transform="scale(-3.52,-3.52)" xlink:href="#lend4"/></marker></defs><g><title>Page-1</title><g id="shape5-1" transform="translate(1,-1.0859)"><title>Nordic Blue.10</title><desc>nRF Connect SDK</desc><rect width="76.535" height="85.524" x="0" y="51.625" class="st1"/><text x="8.81" y="91.39" class="st2">nRF Connect <tspan x="27.99" class="st3" dy="1.2em">SDK</tspan></text></g><g id="shape7-5" transform="translate(162.575,-1)"><title>Nordic Middle Grey</title><desc>memfault-firmware-sdk</desc><rect width="76.535" height="85.524" x="0" y="51.625" class="st4"/><text x="16.04" y="91.39" class="st2">memfault-<tspan x="9.65" class="st3" dy="1.2em">firmware</tspan>-sdk</text></g><g id="shape10-9" transform="translate(77.5354,-50.8917)"><title>Dynamic connector</title><path d="M0 144.19 L78 144.27" class="st5"/></g><g id="shape11-15" transform="translate(78.9527,-40.7709)"><title>Sheet.11</title><desc>Debug information</desc><rect width="76.535" height="17.008" x="0" y="120.141" class="st7"/><text x="5.58" y="131.04" class="st8">Debug information</text></g><g id="group20-18" transform="translate(318.48,-80.456)"><title>Cloud</title><g id="shape21-19" transform="translate(0,-12.0949)"><title>Sheet.21</title><path d="M57.33 113.5 C56.98 110.82 54.12 108.73 50.61 108.73 C49.62 108.73 48.68 108.91 47.83 109.21 C46.18 106.57 42.76 104.65 36.36 104.8 C28.03 105 18.17 108.2 16.19 113.87 C13.81 114.26 12.29 115.36 11.38 116.82 C11.01 116.79 10.63 116.77 10.25 116.77 C4.76 116.77 0.55 120.18 0.31 124.38 C0 129.82 4.76 132 10.25 132 C11.03 132 11.79 131.93 12.52 131.79 C13.66 132.43 15.14 132.82 16.77 132.82 C18.28 132.82 19.66 132.48 20.76 131.93 C22.87 134.99 27.21 137.15 32.22 136.9 C37.48 136.64 40.64 135.68 42.51 134.2 C42.63 134.19 42.73 134.19 42.85 134.18 C48.74 133.53 51.33 132.23 52.16 130.09 C52.32 130.09 52.48 130.1 52.63 130.1 C60.27 130.09 66.45 128.19 66.45 121.53 C66.45 117.83 62.64 114.7 57.33 113.5 Z" class="st9"/></g></g><g id="shape22-21" transform="translate(308.278,-100.298)"><title>Sheet.22</title><desc>Memfault cloud</desc><rect width="87.874" height="11.339" x="0" y="125.81" class="st7"/><text x="16.81" y="133.88" class="st10">Memfault cloud</text></g><g id="shape25-24" transform="translate(186.155,-34.4017) rotate(-28.4713)"><title>1-D single</title><path d="M0 115.89 L0 130.06 L76.75 130.06 L76.75 137.15 L83.84 122.98 L76.75 108.8 L76.75 115.89 L0 115.89 Z" class="st11"/></g><g id="shape26-26" transform="translate(303.518,-1)"><title>Nordic Middle Grey.26</title><desc>Memfault web application (continuous monitoring)</desc><rect width="96.378" height="50.091" x="0" y="87.058" class="st4"/><text x="23.29" y="104.9" class="st10">Memfault web <tspan x="7.27" class="st3" dy="1.2em">application (continuous </tspan><tspan x="28.18" class="st3" dy="1.2em">monitoring)</tspan></text></g><g id="shape28-31" transform="translate(344.62,-92.8638)"><title>Dynamic connector.28</title><path d="M7.09 137.15 L7.09 171.88" class="st5"/></g><g id="shape29-36" transform="translate(223.52,-90.9738)"><title>Sheet.29</title><desc>Data broken into chunks</desc><rect width="87.874" height="24.915" x="0" y="112.234" class="st7"/><text x="7.25" y="121.69" class="st12">Data broken into <tspan x="28.09" class="st3" dy="1.2em">chunks</tspan></text></g></g></svg>